<?xml version="1.0" encoding="UTF-8" standalone="no"?>
<!DOCTYPE svg PUBLIC "-//W3C//DTD SVG 1.1//EN"
 "http://www.w3.org/Graphics/SVG/1.1/DTD/svg11.dtd">
<!-- Generated by graphviz version 2.44.1 (20200629.0846)
 -->
<!-- Pages: 1 -->
<svg width="482pt" height="606pt"
 viewBox="0.00 0.00 482.00 606.00" xmlns="http://www.w3.org/2000/svg" xmlns:xlink="http://www.w3.org/1999/xlink">
<g id="graph0" class="graph" transform="scale(1 1) rotate(0) translate(4 602)">
<polygon fill="white" stroke="transparent" points="-4,4 -4,-602 478,-602 478,4 -4,4"/>
<!-- Case -->
<g id="node1" class="node">
<title>Case</title>
<g id="a_node1"><a xlink:href="#Case" xlink:title="&lt;TABLE&gt;">
<polygon fill="lightblue" stroke="transparent" points="195,-430 195,-444 324,-444 324,-430 195,-430"/>
<polygon fill="none" stroke="black" points="195,-430 195,-444 324,-444 324,-430 195,-430"/>
<text text-anchor="start" x="250" y="-435.4" font-family="Arial" font-size="7.00"> Case</text>
<polygon fill="lightblue" stroke="transparent" points="195,-416 195,-430 245,-430 245,-416 195,-416"/>
<polygon fill="none" stroke="black" points="195,-416 195,-430 245,-430 245,-416 195,-416"/>
<text text-anchor="start" x="206.5" y="-421.4" font-family="Arial" font-size="7.00">Attribute</text>
<polygon fill="lightblue" stroke="transparent" points="245,-416 245,-430 295,-430 295,-416 245,-416"/>
<polygon fill="none" stroke="black" points="245,-416 245,-430 295,-430 295,-416 245,-416"/>
<text text-anchor="start" x="262" y="-421.4" font-family="Arial" font-size="7.00">Field</text>
<polygon fill="lightblue" stroke="transparent" points="295,-416 295,-430 324,-430 324,-416 295,-416"/>
<polygon fill="none" stroke="black" points="295,-416 295,-430 324,-430 324,-416 295,-416"/>
<text text-anchor="start" x="298" y="-421.4" font-family="Arial" font-size="7.00">Occurs</text>
<polygon fill="none" stroke="black" points="195,-402 195,-416 245,-416 245,-402 195,-402"/>
<text text-anchor="start" x="198" y="-407.4" font-family="Arial" font-size="7.00">Reference</text>
<polygon fill="none" stroke="black" points="245,-402 245,-416 295,-416 295,-402 245,-402"/>
<text text-anchor="start" x="248" y="-407.4" font-family="Arial" font-size="7.00">Identifier</text>
<polygon fill="none" stroke="black" points="295,-402 295,-416 324,-416 324,-402 295,-402"/>
<polygon fill="none" stroke="black" points="195,-388 195,-402 245,-402 245,-388 195,-388"/>
<text text-anchor="start" x="198" y="-393.4" font-family="Arial" font-size="7.00">Status</text>
<polygon fill="none" stroke="black" points="245,-388 245,-402 295,-402 295,-388 245,-388"/>
<text text-anchor="start" x="248" y="-393.4" font-family="Arial" font-size="7.00">lookup</text>
<polygon fill="none" stroke="black" points="295,-388 295,-402 324,-402 324,-388 295,-388"/>
<polygon fill="none" stroke="black" points="195,-374 195,-388 245,-388 245,-374 195,-374"/>
<text text-anchor="start" x="198" y="-379.4" font-family="Arial" font-size="7.00">RiskCategory</text>
<polygon fill="none" stroke="black" points="245,-374 245,-388 295,-388 295,-374 245,-374"/>
<text text-anchor="start" x="248" y="-379.4" font-family="Arial" font-size="7.00">Characteristic</text>
<polygon fill="none" stroke="black" points="295,-374 295,-388 324,-388 324,-374 295,-374"/>
<polygon fill="none" stroke="black" points="195,-360 195,-374 245,-374 245,-360 195,-360"/>
<text text-anchor="start" x="198" y="-365.4" font-family="Arial" font-size="7.00">DateRaised</text>
<polygon fill="none" stroke="black" points="245,-360 245,-374 295,-374 295,-360 245,-360"/>
<text text-anchor="start" x="248" y="-365.4" font-family="Arial" font-size="7.00">date</text>
<polygon fill="none" stroke="black" points="295,-360 295,-374 324,-374 324,-360 295,-360"/>
<polygon fill="none" stroke="black" points="195,-346 195,-360 245,-360 245,-346 195,-346"/>
<text text-anchor="start" x="198" y="-351.4" font-family="Arial" font-size="7.00">DateClosed</text>
<polygon fill="none" stroke="black" points="245,-346 245,-360 295,-360 295,-346 245,-346"/>
<text text-anchor="start" x="248" y="-351.4" font-family="Arial" font-size="7.00">date</text>
<polygon fill="none" stroke="black" points="295,-346 295,-360 324,-360 324,-346 295,-346"/>
</a>
</g>
</g>
<!-- Household -->
<g id="node3" class="node">
<title>Household</title>
<g id="a_node3"><a xlink:href="#Household" xlink:title="&lt;TABLE&gt;">
<polygon fill="lightblue" stroke="transparent" points="195,-252 195,-266 324,-266 324,-252 195,-252"/>
<polygon fill="none" stroke="black" points="195,-252 195,-266 324,-266 324,-252 195,-252"/>
<text text-anchor="start" x="241.5" y="-257.4" font-family="Arial" font-size="7.00"> Household</text>
<polygon fill="lightblue" stroke="transparent" points="195,-238 195,-252 245,-252 245,-238 195,-238"/>
<polygon fill="none" stroke="black" points="195,-238 195,-252 245,-252 245,-238 195,-238"/>
<text text-anchor="start" x="206.5" y="-243.4" font-family="Arial" font-size="7.00">Attribute</text>
<polygon fill="lightblue" stroke="transparent" points="245,-238 245,-252 295,-252 295,-238 245,-238"/>
<polygon fill="none" stroke="black" points="245,-238 245,-252 295,-252 295,-238 245,-238"/>
<text text-anchor="start" x="262" y="-243.4" font-family="Arial" font-size="7.00">Field</text>
<polygon fill="lightblue" stroke="transparent" points="295,-238 295,-252 324,-252 324,-238 295,-238"/>
<polygon fill="none" stroke="black" points="295,-238 295,-252 324,-252 324,-238 295,-238"/>
<text text-anchor="start" x="298" y="-243.4" font-family="Arial" font-size="7.00">Occurs</text>
<polygon fill="none" stroke="black" points="195,-224 195,-238 245,-238 245,-224 195,-224"/>
<text text-anchor="start" x="198" y="-229.4" font-family="Arial" font-size="7.00">Characteristic</text>
<polygon fill="none" stroke="black" points="245,-224 245,-238 295,-238 295,-224 245,-224"/>
<text text-anchor="start" x="248" y="-229.4" font-family="Arial" font-size="7.00">Characteristic</text>
<polygon fill="none" stroke="black" points="295,-224 295,-238 324,-238 324,-224 295,-224"/>
<text text-anchor="start" x="298" y="-229.4" font-family="Arial" font-size="7.00">many</text>
<polygon fill="none" stroke="black" points="195,-210 195,-224 245,-224 245,-210 195,-210"/>
<text text-anchor="start" x="198" y="-215.4" font-family="Arial" font-size="7.00">Identifier</text>
<polygon fill="none" stroke="black" points="245,-210 245,-224 295,-224 295,-210 245,-210"/>
<text text-anchor="start" x="248" y="-215.4" font-family="Arial" font-size="7.00">Identifier</text>
<polygon fill="none" stroke="black" points="295,-210 295,-224 324,-224 324,-210 295,-210"/>
<text text-anchor="start" x="298" y="-215.4" font-family="Arial" font-size="7.00">many</text>
</a>
</g>
</g>
<!-- Case&#45;&gt;Household -->
<g id="edge2" class="edge">
<title>Case&#45;&gt;Household</title>
<path fill="none" stroke="black" d="M259,-341.96C259,-321.92 259,-299.33 259,-280.43"/>
<polygon fill="black" stroke="black" points="262.5,-280.34 259,-270.34 255.5,-280.34 262.5,-280.34"/>
<text text-anchor="middle" x="268" y="-318.4" font-family="Arial" font-size="7.00">about</text>
</g>
<!-- Organisation -->
<g id="node5" class="node">
<title>Organisation</title>
<g id="a_node5"><a xlink:href="#Organisation" xlink:title="&lt;TABLE&gt;">
<polygon fill="lightblue" stroke="transparent" points="32,-280 32,-294 161,-294 161,-280 32,-280"/>
<polygon fill="none" stroke="black" points="32,-280 32,-294 161,-294 161,-280 32,-280"/>
<text text-anchor="start" x="75.5" y="-285.4" font-family="Arial" font-size="7.00"> Organisation</text>
<polygon fill="lightblue" stroke="transparent" points="32,-266 32,-280 85,-280 85,-266 32,-266"/>
<polygon fill="none" stroke="black" points="32,-266 32,-280 85,-280 85,-266 32,-266"/>
<text text-anchor="start" x="45" y="-271.4" font-family="Arial" font-size="7.00">Attribute</text>
<polygon fill="lightblue" stroke="transparent" points="85,-266 85,-280 132,-280 132,-266 85,-266"/>
<polygon fill="none" stroke="black" points="85,-266 85,-280 132,-280 132,-266 85,-266"/>
<text text-anchor="start" x="100.5" y="-271.4" font-family="Arial" font-size="7.00">Field</text>
<polygon fill="lightblue" stroke="transparent" points="132,-266 132,-280 161,-280 161,-266 132,-266"/>
<polygon fill="none" stroke="black" points="132,-266 132,-280 161,-280 161,-266 132,-266"/>
<text text-anchor="start" x="135" y="-271.4" font-family="Arial" font-size="7.00">Occurs</text>
<polygon fill="none" stroke="black" points="32,-252 32,-266 85,-266 85,-252 32,-252"/>
<text text-anchor="start" x="35" y="-257.4" font-family="Arial" font-size="7.00">Identifier</text>
<polygon fill="none" stroke="black" points="85,-252 85,-266 132,-266 132,-252 85,-252"/>
<text text-anchor="start" x="88" y="-257.4" font-family="Arial" font-size="7.00">Identifier</text>
<polygon fill="none" stroke="black" points="132,-252 132,-266 161,-266 161,-252 132,-252"/>
<text text-anchor="start" x="135" y="-257.4" font-family="Arial" font-size="7.00">many</text>
<polygon fill="none" stroke="black" points="32,-238 32,-252 85,-252 85,-238 32,-238"/>
<text text-anchor="start" x="35" y="-243.4" font-family="Arial" font-size="7.00">Type</text>
<polygon fill="none" stroke="black" points="85,-238 85,-252 132,-252 132,-238 85,-238"/>
<text text-anchor="start" x="88" y="-243.4" font-family="Arial" font-size="7.00">lookup</text>
<polygon fill="none" stroke="black" points="132,-238 132,-252 161,-252 161,-238 132,-238"/>
<polygon fill="none" stroke="black" points="32,-224 32,-238 85,-238 85,-224 32,-224"/>
<text text-anchor="start" x="35" y="-229.4" font-family="Arial" font-size="7.00">Name</text>
<polygon fill="none" stroke="black" points="85,-224 85,-238 132,-238 132,-224 85,-224"/>
<text text-anchor="start" x="88" y="-229.4" font-family="Arial" font-size="7.00">string</text>
<polygon fill="none" stroke="black" points="132,-224 132,-238 161,-238 161,-224 132,-224"/>
<polygon fill="none" stroke="black" points="32,-210 32,-224 85,-224 85,-210 32,-210"/>
<text text-anchor="start" x="35" y="-215.4" font-family="Arial" font-size="7.00">Department</text>
<polygon fill="none" stroke="black" points="85,-210 85,-224 132,-224 132,-210 85,-210"/>
<text text-anchor="start" x="88" y="-215.4" font-family="Arial" font-size="7.00">string</text>
<polygon fill="none" stroke="black" points="132,-210 132,-224 161,-224 161,-210 132,-210"/>
<polygon fill="none" stroke="black" points="32,-196 32,-210 85,-210 85,-196 32,-196"/>
<text text-anchor="start" x="35" y="-201.4" font-family="Arial" font-size="7.00">ContactPerson</text>
<polygon fill="none" stroke="black" points="85,-196 85,-210 132,-210 132,-196 85,-196"/>
<text text-anchor="start" x="88" y="-201.4" font-family="Arial" font-size="7.00">string</text>
<polygon fill="none" stroke="black" points="132,-196 132,-210 161,-210 161,-196 132,-196"/>
<polygon fill="none" stroke="black" points="32,-182 32,-196 85,-196 85,-182 32,-182"/>
<text text-anchor="start" x="35" y="-187.4" font-family="Arial" font-size="7.00">ContactPoint</text>
<polygon fill="none" stroke="black" points="85,-182 85,-196 132,-196 132,-182 85,-182"/>
<text text-anchor="start" x="88" y="-187.4" font-family="Arial" font-size="7.00">ContactPoint</text>
<polygon fill="none" stroke="black" points="132,-182 132,-196 161,-196 161,-182 132,-182"/>
<text text-anchor="start" x="135" y="-187.4" font-family="Arial" font-size="7.00">many</text>
</a>
</g>
</g>
<!-- Case&#45;&gt;Organisation -->
<g id="edge3" class="edge">
<title>Case&#45;&gt;Organisation</title>
<path fill="none" stroke="black" d="M204.27,-341.96C191.9,-330.19 178.6,-317.55 165.71,-305.29"/>
<polygon fill="black" stroke="black" points="167.83,-302.48 158.18,-298.12 163.01,-307.55 167.83,-302.48"/>
<text text-anchor="middle" x="201.5" y="-318.4" font-family="Arial" font-size="7.00">assigned to</text>
</g>
<!-- Person -->
<g id="node6" class="node">
<title>Person</title>
<g id="a_node6"><a xlink:href="#Person" xlink:title="&lt;TABLE&gt;">
<polygon fill="lightblue" stroke="transparent" points="336,-116 336,-130 447,-130 447,-116 336,-116"/>
<polygon fill="none" stroke="black" points="336,-116 336,-130 447,-130 447,-116 336,-116"/>
<text text-anchor="start" x="379" y="-121.4" font-family="Arial" font-size="7.00"> Person</text>
<polygon fill="lightblue" stroke="transparent" points="336,-102 336,-116 384,-116 384,-102 336,-102"/>
<polygon fill="none" stroke="black" points="336,-102 336,-116 384,-116 384,-102 336,-102"/>
<text text-anchor="start" x="346.5" y="-107.4" font-family="Arial" font-size="7.00">Attribute</text>
<polygon fill="lightblue" stroke="transparent" points="384,-102 384,-116 418,-116 418,-102 384,-102"/>
<polygon fill="none" stroke="black" points="384,-102 384,-116 418,-116 418,-102 384,-102"/>
<text text-anchor="start" x="393" y="-107.4" font-family="Arial" font-size="7.00">Field</text>
<polygon fill="lightblue" stroke="transparent" points="418,-102 418,-116 447,-116 447,-102 418,-102"/>
<polygon fill="none" stroke="black" points="418,-102 418,-116 447,-116 447,-102 418,-102"/>
<text text-anchor="start" x="421" y="-107.4" font-family="Arial" font-size="7.00">Occurs</text>
<polygon fill="none" stroke="black" points="336,-88 336,-102 384,-102 384,-88 336,-88"/>
<text text-anchor="start" x="339" y="-93.4" font-family="Arial" font-size="7.00">Title</text>
<polygon fill="none" stroke="black" points="384,-88 384,-102 418,-102 418,-88 384,-88"/>
<text text-anchor="start" x="387" y="-93.4" font-family="Arial" font-size="7.00">string</text>
<polygon fill="none" stroke="black" points="418,-88 418,-102 447,-102 447,-88 418,-88"/>
<polygon fill="none" stroke="black" points="336,-74 336,-88 384,-88 384,-74 336,-74"/>
<text text-anchor="start" x="339" y="-79.4" font-family="Arial" font-size="7.00">FamilyName</text>
<polygon fill="none" stroke="black" points="384,-74 384,-88 418,-88 418,-74 384,-74"/>
<text text-anchor="start" x="387" y="-79.4" font-family="Arial" font-size="7.00">string</text>
<polygon fill="none" stroke="black" points="418,-74 418,-88 447,-88 447,-74 418,-74"/>
<polygon fill="none" stroke="black" points="336,-60 336,-74 384,-74 384,-60 336,-60"/>
<text text-anchor="start" x="339" y="-65.4" font-family="Arial" font-size="7.00">GivenNames</text>
<polygon fill="none" stroke="black" points="384,-60 384,-74 418,-74 418,-60 384,-60"/>
<text text-anchor="start" x="387" y="-65.4" font-family="Arial" font-size="7.00">string</text>
<polygon fill="none" stroke="black" points="418,-60 418,-74 447,-74 447,-60 418,-60"/>
<polygon fill="none" stroke="black" points="336,-46 336,-60 384,-60 384,-46 336,-46"/>
<text text-anchor="start" x="339" y="-51.4" font-family="Arial" font-size="7.00">Alias</text>
<polygon fill="none" stroke="black" points="384,-46 384,-60 418,-60 418,-46 384,-46"/>
<text text-anchor="start" x="387" y="-51.4" font-family="Arial" font-size="7.00">string</text>
<polygon fill="none" stroke="black" points="418,-46 418,-60 447,-60 447,-46 418,-46"/>
<text text-anchor="start" x="421" y="-51.4" font-family="Arial" font-size="7.00">many</text>
<polygon fill="none" stroke="black" points="336,-32 336,-46 384,-46 384,-32 336,-32"/>
<text text-anchor="start" x="339" y="-37.4" font-family="Arial" font-size="7.00">BirthDate</text>
<polygon fill="none" stroke="black" points="384,-32 384,-46 418,-46 418,-32 384,-32"/>
<text text-anchor="start" x="387" y="-37.4" font-family="Arial" font-size="7.00">date</text>
<polygon fill="none" stroke="black" points="418,-32 418,-46 447,-46 447,-32 418,-32"/>
<polygon fill="none" stroke="black" points="336,-18 336,-32 384,-32 384,-18 336,-18"/>
<text text-anchor="start" x="339" y="-23.4" font-family="Arial" font-size="7.00">Gender</text>
<polygon fill="none" stroke="black" points="384,-18 384,-32 418,-32 418,-18 384,-18"/>
<text text-anchor="start" x="387" y="-23.4" font-family="Arial" font-size="7.00">lookup</text>
<polygon fill="none" stroke="black" points="418,-18 418,-32 447,-32 447,-18 418,-18"/>
<polygon fill="none" stroke="black" points="336,-4 336,-18 384,-18 384,-4 336,-4"/>
<text text-anchor="start" x="339" y="-9.4" font-family="Arial" font-size="7.00">Identifier</text>
<polygon fill="none" stroke="black" points="384,-4 384,-18 418,-18 418,-4 384,-4"/>
<text text-anchor="start" x="387" y="-9.4" font-family="Arial" font-size="7.00">Identifier</text>
<polygon fill="none" stroke="black" points="418,-4 418,-18 447,-18 447,-4 418,-4"/>
<text text-anchor="start" x="421" y="-9.4" font-family="Arial" font-size="7.00">many</text>
</a>
</g>
</g>
<!-- Case&#45;&gt;Person -->
<g id="edge1" class="edge">
<title>Case&#45;&gt;Person</title>
<path fill="none" stroke="black" d="M311.57,-341.78C322.69,-328.4 333.35,-313.41 341,-298 364.9,-249.83 377.44,-190.41 383.98,-144.03"/>
<polygon fill="black" stroke="black" points="387.46,-144.42 385.33,-134.04 380.52,-143.48 387.46,-144.42"/>
<text text-anchor="middle" x="387" y="-236.4" font-family="Arial" font-size="7.00">about</text>
</g>
<!-- ContactEvent -->
<g id="node2" class="node">
<title>ContactEvent</title>
<g id="a_node2"><a xlink:href="#ContactEvent" xlink:title="&lt;TABLE&gt;">
<polygon fill="lightblue" stroke="transparent" points="8,-580 8,-594 146,-594 146,-580 8,-580"/>
<polygon fill="none" stroke="black" points="8,-580 8,-594 146,-594 146,-580 8,-580"/>
<text text-anchor="start" x="54" y="-585.4" font-family="Arial" font-size="7.00"> ContactEvent</text>
<polygon fill="lightblue" stroke="transparent" points="8,-566 8,-580 67,-580 67,-566 8,-566"/>
<polygon fill="none" stroke="black" points="8,-566 8,-580 67,-580 67,-566 8,-566"/>
<text text-anchor="start" x="24" y="-571.4" font-family="Arial" font-size="7.00">Attribute</text>
<polygon fill="lightblue" stroke="transparent" points="67,-566 67,-580 117,-580 117,-566 67,-566"/>
<polygon fill="none" stroke="black" points="67,-566 67,-580 117,-580 117,-566 67,-566"/>
<text text-anchor="start" x="84" y="-571.4" font-family="Arial" font-size="7.00">Field</text>
<polygon fill="lightblue" stroke="transparent" points="117,-566 117,-580 146,-580 146,-566 117,-566"/>
<polygon fill="none" stroke="black" points="117,-566 117,-580 146,-580 146,-566 117,-566"/>
<text text-anchor="start" x="120" y="-571.4" font-family="Arial" font-size="7.00">Occurs</text>
<polygon fill="none" stroke="black" points="8,-552 8,-566 67,-566 67,-552 8,-552"/>
<text text-anchor="start" x="11" y="-557.4" font-family="Arial" font-size="7.00">Date</text>
<polygon fill="none" stroke="black" points="67,-552 67,-566 117,-566 117,-552 67,-552"/>
<text text-anchor="start" x="70" y="-557.4" font-family="Arial" font-size="7.00">date</text>
<polygon fill="none" stroke="black" points="117,-552 117,-566 146,-566 146,-552 117,-552"/>
<polygon fill="none" stroke="black" points="8,-538 8,-552 67,-552 67,-538 8,-538"/>
<text text-anchor="start" x="11" y="-543.4" font-family="Arial" font-size="7.00">ContactRole</text>
<polygon fill="none" stroke="black" points="67,-538 67,-552 117,-552 117,-538 67,-538"/>
<text text-anchor="start" x="70" y="-543.4" font-family="Arial" font-size="7.00">Characteristic</text>
<polygon fill="none" stroke="black" points="117,-538 117,-552 146,-552 146,-538 117,-538"/>
<polygon fill="none" stroke="black" points="8,-524 8,-538 67,-538 67,-524 8,-524"/>
<text text-anchor="start" x="11" y="-529.4" font-family="Arial" font-size="7.00">ContactPerson</text>
<polygon fill="none" stroke="black" points="67,-524 67,-538 117,-538 117,-524 67,-524"/>
<text text-anchor="start" x="70" y="-529.4" font-family="Arial" font-size="7.00">string</text>
<polygon fill="none" stroke="black" points="117,-524 117,-538 146,-538 146,-524 117,-524"/>
<polygon fill="none" stroke="black" points="8,-510 8,-524 67,-524 67,-510 8,-510"/>
<text text-anchor="start" x="11" y="-515.4" font-family="Arial" font-size="7.00">ContactMethod</text>
<polygon fill="none" stroke="black" points="67,-510 67,-524 117,-524 117,-510 67,-510"/>
<text text-anchor="start" x="70" y="-515.4" font-family="Arial" font-size="7.00">lookup</text>
<polygon fill="none" stroke="black" points="117,-510 117,-524 146,-524 146,-510 117,-510"/>
<polygon fill="none" stroke="black" points="8,-496 8,-510 67,-510 67,-496 8,-496"/>
<text text-anchor="start" x="11" y="-501.4" font-family="Arial" font-size="7.00">ContactDirection</text>
<polygon fill="none" stroke="black" points="67,-496 67,-510 117,-510 117,-496 67,-496"/>
<text text-anchor="start" x="70" y="-501.4" font-family="Arial" font-size="7.00">lookup</text>
<polygon fill="none" stroke="black" points="117,-496 117,-510 146,-510 146,-496 117,-496"/>
</a>
</g>
</g>
<!-- ContactEvent&#45;&gt;Case -->
<g id="edge4" class="edge">
<title>ContactEvent&#45;&gt;Case</title>
<path fill="none" stroke="black" d="M141.17,-491.82C155.98,-479.77 171.84,-466.88 186.97,-454.58"/>
<polygon fill="black" stroke="black" points="189.25,-457.23 194.8,-448.21 184.83,-451.8 189.25,-457.23"/>
<text text-anchor="middle" x="177" y="-468.4" font-family="Arial" font-size="7.00">about</text>
</g>
<!-- ContactEvent&#45;&gt;Organisation -->
<g id="edge5" class="edge">
<title>ContactEvent&#45;&gt;Organisation</title>
<path fill="none" stroke="black" d="M80.24,-491.92C83.4,-441.3 88.21,-364.12 91.68,-308.33"/>
<polygon fill="black" stroke="black" points="95.18,-308.38 92.31,-298.18 88.2,-307.94 95.18,-308.38"/>
<text text-anchor="middle" x="113" y="-393.4" font-family="Arial" font-size="7.00">passes info to</text>
</g>
<!-- Household&#45;&gt;Person -->
<g id="edge7" class="edge">
<title>Household&#45;&gt;Person</title>
<path fill="none" stroke="black" d="M283.52,-205.61C297.46,-187.76 315.56,-164.58 332.92,-142.36"/>
<polygon fill="black" stroke="black" points="335.88,-144.26 339.27,-134.23 330.36,-139.95 335.88,-144.26"/>
<text text-anchor="middle" x="338.5" y="-154.4" font-family="Arial" font-size="7.00">contains</text>
</g>
<!-- Residence -->
<g id="node7" class="node">
<title>Residence</title>
<g id="a_node7"><a xlink:href="#Residence" xlink:title="&lt;TABLE&gt;">
<polygon fill="lightblue" stroke="transparent" points="173,-102 173,-116 302,-116 302,-102 173,-102"/>
<polygon fill="none" stroke="black" points="173,-102 173,-116 302,-116 302,-102 173,-102"/>
<text text-anchor="start" x="219.5" y="-107.4" font-family="Arial" font-size="7.00"> Residence</text>
<polygon fill="lightblue" stroke="transparent" points="173,-88 173,-102 223,-102 223,-88 173,-88"/>
<polygon fill="none" stroke="black" points="173,-88 173,-102 223,-102 223,-88 173,-88"/>
<text text-anchor="start" x="184.5" y="-93.4" font-family="Arial" font-size="7.00">Attribute</text>
<polygon fill="lightblue" stroke="transparent" points="223,-88 223,-102 273,-102 273,-88 223,-88"/>
<polygon fill="none" stroke="black" points="223,-88 223,-102 273,-102 273,-88 223,-88"/>
<text text-anchor="start" x="240" y="-93.4" font-family="Arial" font-size="7.00">Field</text>
<polygon fill="lightblue" stroke="transparent" points="273,-88 273,-102 302,-102 302,-88 273,-88"/>
<polygon fill="none" stroke="black" points="273,-88 273,-102 302,-102 302,-88 273,-88"/>
<text text-anchor="start" x="276" y="-93.4" font-family="Arial" font-size="7.00">Occurs</text>
<polygon fill="none" stroke="black" points="173,-74 173,-88 223,-88 223,-74 173,-74"/>
<text text-anchor="start" x="176" y="-79.4" font-family="Arial" font-size="7.00">Address</text>
<polygon fill="none" stroke="black" points="223,-74 223,-88 273,-88 273,-74 223,-74"/>
<text text-anchor="start" x="226" y="-79.4" font-family="Arial" font-size="7.00">Address</text>
<polygon fill="none" stroke="black" points="273,-74 273,-88 302,-88 302,-74 273,-74"/>
<polygon fill="none" stroke="black" points="173,-60 173,-74 223,-74 223,-60 173,-60"/>
<text text-anchor="start" x="176" y="-65.4" font-family="Arial" font-size="7.00">Characteristic</text>
<polygon fill="none" stroke="black" points="223,-60 223,-74 273,-74 273,-60 223,-60"/>
<text text-anchor="start" x="226" y="-65.4" font-family="Arial" font-size="7.00">Characteristic</text>
<polygon fill="none" stroke="black" points="273,-60 273,-74 302,-74 302,-60 273,-60"/>
<text text-anchor="start" x="276" y="-65.4" font-family="Arial" font-size="7.00">many</text>
<polygon fill="none" stroke="black" points="173,-46 173,-60 223,-60 223,-46 173,-46"/>
<text text-anchor="start" x="176" y="-51.4" font-family="Arial" font-size="7.00">Identifier</text>
<polygon fill="none" stroke="black" points="223,-46 223,-60 273,-60 273,-46 223,-46"/>
<text text-anchor="start" x="226" y="-51.4" font-family="Arial" font-size="7.00">Identifier</text>
<polygon fill="none" stroke="black" points="273,-46 273,-60 302,-60 302,-46 273,-46"/>
<text text-anchor="start" x="276" y="-51.4" font-family="Arial" font-size="7.00">many</text>
<polygon fill="none" stroke="black" points="173,-32 173,-46 223,-46 223,-32 173,-32"/>
<text text-anchor="start" x="176" y="-37.4" font-family="Arial" font-size="7.00">Position</text>
<polygon fill="none" stroke="black" points="223,-32 223,-46 273,-46 273,-32 223,-32"/>
<text text-anchor="start" x="226" y="-37.4" font-family="Arial" font-size="7.00">Position</text>
<polygon fill="none" stroke="black" points="273,-32 273,-46 302,-46 302,-32 273,-32"/>
<polygon fill="none" stroke="black" points="173,-18 173,-32 223,-32 223,-18 173,-18"/>
<text text-anchor="start" x="176" y="-23.4" font-family="Arial" font-size="7.00">Area</text>
<polygon fill="none" stroke="black" points="223,-18 223,-32 273,-32 273,-18 223,-18"/>
<text text-anchor="start" x="226" y="-23.4" font-family="Arial" font-size="7.00">Identifier</text>
<polygon fill="none" stroke="black" points="273,-18 273,-32 302,-32 302,-18 273,-18"/>
<text text-anchor="start" x="276" y="-23.4" font-family="Arial" font-size="7.00">many</text>
</a>
</g>
</g>
<!-- Household&#45;&gt;Residence -->
<g id="edge6" class="edge">
<title>Household&#45;&gt;Residence</title>
<path fill="none" stroke="black" d="M252.04,-205.67C249.17,-191.74 246.04,-175.12 244,-160 242.71,-150.46 241.64,-140.32 240.76,-130.4"/>
<polygon fill="black" stroke="black" points="244.23,-129.85 239.91,-120.17 237.25,-130.43 244.23,-129.85"/>
<text text-anchor="middle" x="259.5" y="-154.4" font-family="Arial" font-size="7.00">resides at</text>
</g>
<!-- Need -->
<g id="node4" class="node">
<title>Need</title>
<g id="a_node4"><a xlink:href="#Need" xlink:title="&lt;TABLE&gt;">
<polygon fill="lightblue" stroke="transparent" points="344,-580 344,-594 466,-594 466,-580 344,-580"/>
<polygon fill="none" stroke="black" points="344,-580 344,-594 466,-594 466,-580 344,-580"/>
<text text-anchor="start" x="395.5" y="-585.4" font-family="Arial" font-size="7.00"> Need</text>
<polygon fill="lightblue" stroke="transparent" points="344,-566 344,-580 387,-580 387,-566 344,-566"/>
<polygon fill="none" stroke="black" points="344,-566 344,-580 387,-580 387,-566 344,-566"/>
<text text-anchor="start" x="352" y="-571.4" font-family="Arial" font-size="7.00">Attribute</text>
<polygon fill="lightblue" stroke="transparent" points="387,-566 387,-580 437,-580 437,-566 387,-566"/>
<polygon fill="none" stroke="black" points="387,-566 387,-580 437,-580 437,-566 387,-566"/>
<text text-anchor="start" x="404" y="-571.4" font-family="Arial" font-size="7.00">Field</text>
<polygon fill="lightblue" stroke="transparent" points="437,-566 437,-580 466,-580 466,-566 437,-566"/>
<polygon fill="none" stroke="black" points="437,-566 437,-580 466,-580 466,-566 437,-566"/>
<text text-anchor="start" x="440" y="-571.4" font-family="Arial" font-size="7.00">Occurs</text>
<polygon fill="none" stroke="black" points="344,-552 344,-566 387,-566 387,-552 344,-552"/>
<text text-anchor="start" x="347" y="-557.4" font-family="Arial" font-size="7.00">Type</text>
<polygon fill="none" stroke="black" points="387,-552 387,-566 437,-566 437,-552 387,-552"/>
<text text-anchor="start" x="390" y="-557.4" font-family="Arial" font-size="7.00">Characteristic</text>
<polygon fill="none" stroke="black" points="437,-552 437,-566 466,-566 466,-552 437,-552"/>
<text text-anchor="start" x="440" y="-557.4" font-family="Arial" font-size="7.00">once</text>
<polygon fill="none" stroke="black" points="344,-538 344,-552 387,-552 387,-538 344,-538"/>
<text text-anchor="start" x="347" y="-543.4" font-family="Arial" font-size="7.00">Rationale</text>
<polygon fill="none" stroke="black" points="387,-538 387,-552 437,-552 437,-538 387,-538"/>
<text text-anchor="start" x="390" y="-543.4" font-family="Arial" font-size="7.00">text</text>
<polygon fill="none" stroke="black" points="437,-538 437,-552 466,-552 466,-538 437,-538"/>
<polygon fill="none" stroke="black" points="344,-524 344,-538 387,-538 387,-524 344,-524"/>
<text text-anchor="start" x="347" y="-529.4" font-family="Arial" font-size="7.00">Date</text>
<polygon fill="none" stroke="black" points="387,-524 387,-538 437,-538 437,-524 387,-524"/>
<text text-anchor="start" x="390" y="-529.4" font-family="Arial" font-size="7.00">date</text>
<polygon fill="none" stroke="black" points="437,-524 437,-538 466,-538 466,-524 437,-524"/>
<polygon fill="none" stroke="black" points="344,-510 344,-524 387,-524 387,-510 344,-510"/>
<text text-anchor="start" x="347" y="-515.4" font-family="Arial" font-size="7.00">EndDate</text>
<polygon fill="none" stroke="black" points="387,-510 387,-524 437,-524 437,-510 387,-510"/>
<text text-anchor="start" x="390" y="-515.4" font-family="Arial" font-size="7.00">date</text>
<polygon fill="none" stroke="black" points="437,-510 437,-524 466,-524 466,-510 437,-510"/>
<polygon fill="none" stroke="black" points="344,-496 344,-510 387,-510 387,-496 344,-496"/>
<text text-anchor="start" x="347" y="-501.4" font-family="Arial" font-size="7.00">Target Date</text>
<polygon fill="none" stroke="black" points="387,-496 387,-510 437,-510 437,-496 387,-496"/>
<text text-anchor="start" x="390" y="-501.4" font-family="Arial" font-size="7.00">date</text>
<polygon fill="none" stroke="black" points="437,-496 437,-510 466,-510 466,-496 437,-496"/>
</a>
</g>
</g>
<!-- Need&#45;&gt;Case -->
<g id="edge10" class="edge">
<title>Need&#45;&gt;Case</title>
<path fill="none" stroke="black" d="M353.53,-491.82C341.97,-480.1 329.62,-467.59 317.79,-455.59"/>
<polygon fill="black" stroke="black" points="320.02,-452.87 310.5,-448.21 315.03,-457.78 320.02,-452.87"/>
<text text-anchor="middle" x="340" y="-468.4" font-family="Arial" font-size="7.00">case</text>
</g>
<!-- Need&#45;&gt;Household -->
<g id="edge9" class="edge">
<title>Need&#45;&gt;Household</title>
<path fill="none" stroke="black" d="M394.01,-491.71C383.88,-449.65 366.52,-389.89 341,-342 328.77,-319.05 311.22,-296.16 295.49,-277.81"/>
<polygon fill="black" stroke="black" points="298.1,-275.47 288.88,-270.24 292.82,-280.07 298.1,-275.47"/>
<text text-anchor="middle" x="390" y="-393.4" font-family="Arial" font-size="7.00">about</text>
</g>
<!-- Need&#45;&gt;Person -->
<g id="edge8" class="edge">
<title>Need&#45;&gt;Person</title>
<path fill="none" stroke="black" d="M405.48,-491.84C405.85,-420.81 405.59,-289.7 400,-178 399.46,-167.16 398.71,-155.73 397.89,-144.5"/>
<polygon fill="black" stroke="black" points="401.36,-143.97 397.1,-134.27 394.38,-144.5 401.36,-143.97"/>
<text text-anchor="middle" x="413" y="-318.4" font-family="Arial" font-size="7.00">about</text>
</g>
<!-- SituationAssessment -->
<g id="node8" class="node">
<title>SituationAssessment</title>
<g id="a_node8"><a xlink:href="#SituationAssessment" xlink:title="&lt;TABLE&gt;">
<polygon fill="lightblue" stroke="transparent" points="181,-573 181,-587 310,-587 310,-573 181,-573"/>
<polygon fill="none" stroke="black" points="181,-573 181,-587 310,-587 310,-573 181,-573"/>
<text text-anchor="start" x="211" y="-578.4" font-family="Arial" font-size="7.00"> SituationAssessment</text>
<polygon fill="lightblue" stroke="transparent" points="181,-559 181,-573 231,-573 231,-559 181,-559"/>
<polygon fill="none" stroke="black" points="181,-559 181,-573 231,-573 231,-559 181,-559"/>
<text text-anchor="start" x="192.5" y="-564.4" font-family="Arial" font-size="7.00">Attribute</text>
<polygon fill="lightblue" stroke="transparent" points="231,-559 231,-573 281,-573 281,-559 231,-559"/>
<polygon fill="none" stroke="black" points="231,-559 231,-573 281,-573 281,-559 231,-559"/>
<text text-anchor="start" x="248" y="-564.4" font-family="Arial" font-size="7.00">Field</text>
<polygon fill="lightblue" stroke="transparent" points="281,-559 281,-573 310,-573 310,-559 281,-559"/>
<polygon fill="none" stroke="black" points="281,-559 281,-573 310,-573 310,-559 281,-559"/>
<text text-anchor="start" x="284" y="-564.4" font-family="Arial" font-size="7.00">Occurs</text>
<polygon fill="none" stroke="black" points="181,-545 181,-559 231,-559 231,-545 181,-545"/>
<text text-anchor="start" x="184" y="-550.4" font-family="Arial" font-size="7.00">Date</text>
<polygon fill="none" stroke="black" points="231,-545 231,-559 281,-559 281,-545 231,-545"/>
<text text-anchor="start" x="234" y="-550.4" font-family="Arial" font-size="7.00">date</text>
<polygon fill="none" stroke="black" points="281,-545 281,-559 310,-559 310,-545 281,-545"/>
<polygon fill="none" stroke="black" points="181,-531 181,-545 231,-545 231,-531 181,-531"/>
<text text-anchor="start" x="184" y="-536.4" font-family="Arial" font-size="7.00">Situation</text>
<polygon fill="none" stroke="black" points="231,-531 231,-545 281,-545 281,-531 231,-531"/>
<text text-anchor="start" x="234" y="-536.4" font-family="Arial" font-size="7.00">text</text>
<polygon fill="none" stroke="black" points="281,-531 281,-545 310,-545 310,-531 281,-531"/>
<polygon fill="none" stroke="black" points="181,-517 181,-531 231,-531 231,-517 181,-517"/>
<text text-anchor="start" x="184" y="-522.4" font-family="Arial" font-size="7.00">Assessment</text>
<polygon fill="none" stroke="black" points="231,-517 231,-531 281,-531 281,-517 231,-517"/>
<text text-anchor="start" x="234" y="-522.4" font-family="Arial" font-size="7.00">text</text>
<polygon fill="none" stroke="black" points="281,-517 281,-531 310,-531 310,-517 281,-517"/>
<polygon fill="none" stroke="black" points="181,-503 181,-517 231,-517 231,-503 181,-503"/>
<text text-anchor="start" x="184" y="-508.4" font-family="Arial" font-size="7.00">RiskCategory</text>
<polygon fill="none" stroke="black" points="231,-503 231,-517 281,-517 281,-503 231,-503"/>
<text text-anchor="start" x="234" y="-508.4" font-family="Arial" font-size="7.00">Characteristic</text>
<polygon fill="none" stroke="black" points="281,-503 281,-517 310,-517 310,-503 281,-503"/>
</a>
</g>
</g>
<!-- SituationAssessment&#45;&gt;Case -->
<g id="edge12" class="edge">
<title>SituationAssessment&#45;&gt;Case</title>
<path fill="none" stroke="black" d="M249.28,-498.79C250.48,-486.06 251.81,-471.97 253.1,-458.42"/>
<polygon fill="black" stroke="black" points="256.61,-458.48 254.06,-448.19 249.64,-457.82 256.61,-458.48"/>
<text text-anchor="middle" x="255.5" y="-468.4" font-family="Arial" font-size="7.00">of</text>
</g>
<!-- SituationAssessment&#45;&gt;Organisation -->
<g id="edge11" class="edge">
<title>SituationAssessment&#45;&gt;Organisation</title>
<path fill="none" stroke="black" d="M202.67,-498.72C190.13,-483.49 177.28,-465.81 168,-448 145.32,-404.47 152.98,-388.41 137,-342 133.13,-330.77 128.75,-318.97 124.32,-307.52"/>
<polygon fill="black" stroke="black" points="127.5,-306.05 120.6,-298.01 120.98,-308.6 127.5,-306.05"/>
<text text-anchor="middle" x="172.5" y="-393.4" font-family="Arial" font-size="7.00">by</text>
</g>
</g>
</svg>
