<?xml version="1.0" encoding="UTF-8" standalone="no"?>
<!DOCTYPE svg PUBLIC "-//W3C//DTD SVG 1.1//EN"
 "http://www.w3.org/Graphics/SVG/1.1/DTD/svg11.dtd">
<!-- Generated by graphviz version 2.44.1 (20200629.0846)
 -->
<!-- Pages: 1 -->
<svg width="480pt" height="606pt"
 viewBox="0.00 0.00 480.00 606.00" xmlns="http://www.w3.org/2000/svg" xmlns:xlink="http://www.w3.org/1999/xlink">
<g id="graph0" class="graph" transform="scale(1 1) rotate(0) translate(4 602)">
<polygon fill="white" stroke="transparent" points="-4,4 -4,-602 476,-602 476,4 -4,4"/>
<!-- Case -->
<g id="node1" class="node">
<title>Case</title>
<g id="a_node1"><a xlink:href="#Case" xlink:title="&lt;TABLE&gt;">
<polygon fill="lightblue" stroke="transparent" points="192,-430 192,-444 320,-444 320,-430 192,-430"/>
<polygon fill="none" stroke="black" points="192,-430 192,-444 320,-444 320,-430 192,-430"/>
<text text-anchor="start" x="246.5" y="-435.4" font-family="Arial" font-size="7.00"> Case</text>
<polygon fill="lightblue" stroke="transparent" points="192,-416 192,-430 241,-430 241,-416 192,-416"/>
<polygon fill="none" stroke="black" points="192,-416 192,-430 241,-430 241,-416 192,-416"/>
<text text-anchor="start" x="203" y="-421.4" font-family="Arial" font-size="7.00">Attribute</text>
<polygon fill="lightblue" stroke="transparent" points="241,-416 241,-430 291,-430 291,-416 241,-416"/>
<polygon fill="none" stroke="black" points="241,-416 241,-430 291,-430 291,-416 241,-416"/>
<text text-anchor="start" x="258" y="-421.4" font-family="Arial" font-size="7.00">Field</text>
<polygon fill="lightblue" stroke="transparent" points="291,-416 291,-430 320,-430 320,-416 291,-416"/>
<polygon fill="none" stroke="black" points="291,-416 291,-430 320,-430 320,-416 291,-416"/>
<text text-anchor="start" x="294" y="-421.4" font-family="Arial" font-size="7.00">Occurs</text>
<polygon fill="none" stroke="black" points="192,-402 192,-416 241,-416 241,-402 192,-402"/>
<text text-anchor="start" x="195" y="-407.4" font-family="Arial" font-size="7.00">Reference</text>
<polygon fill="none" stroke="black" points="241,-402 241,-416 291,-416 291,-402 241,-402"/>
<text text-anchor="start" x="244" y="-407.4" font-family="Arial" font-size="7.00">Identifier</text>
<polygon fill="none" stroke="black" points="291,-402 291,-416 320,-416 320,-402 291,-402"/>
<polygon fill="none" stroke="black" points="192,-388 192,-402 241,-402 241,-388 192,-388"/>
<text text-anchor="start" x="195" y="-393.4" font-family="Arial" font-size="7.00">Status</text>
<polygon fill="none" stroke="black" points="241,-388 241,-402 291,-402 291,-388 241,-388"/>
<text text-anchor="start" x="244" y="-393.4" font-family="Arial" font-size="7.00">lookup</text>
<polygon fill="none" stroke="black" points="291,-388 291,-402 320,-402 320,-388 291,-388"/>
<polygon fill="none" stroke="black" points="192,-374 192,-388 241,-388 241,-374 192,-374"/>
<text text-anchor="start" x="195" y="-379.4" font-family="Arial" font-size="7.00">RiskCategory</text>
<polygon fill="none" stroke="black" points="241,-374 241,-388 291,-388 291,-374 241,-374"/>
<text text-anchor="start" x="244" y="-379.4" font-family="Arial" font-size="7.00">Characteristic</text>
<polygon fill="none" stroke="black" points="291,-374 291,-388 320,-388 320,-374 291,-374"/>
<polygon fill="none" stroke="black" points="192,-360 192,-374 241,-374 241,-360 192,-360"/>
<text text-anchor="start" x="195" y="-365.4" font-family="Arial" font-size="7.00">DateRaised</text>
<polygon fill="none" stroke="black" points="241,-360 241,-374 291,-374 291,-360 241,-360"/>
<text text-anchor="start" x="244" y="-365.4" font-family="Arial" font-size="7.00">date</text>
<polygon fill="none" stroke="black" points="291,-360 291,-374 320,-374 320,-360 291,-360"/>
<polygon fill="none" stroke="black" points="192,-346 192,-360 241,-360 241,-346 192,-346"/>
<text text-anchor="start" x="195" y="-351.4" font-family="Arial" font-size="7.00">DateClosed</text>
<polygon fill="none" stroke="black" points="241,-346 241,-360 291,-360 291,-346 241,-346"/>
<text text-anchor="start" x="244" y="-351.4" font-family="Arial" font-size="7.00">date</text>
<polygon fill="none" stroke="black" points="291,-346 291,-360 320,-360 320,-346 291,-346"/>
</a>
</g>
</g>
<!-- Household -->
<g id="node3" class="node">
<title>Household</title>
<g id="a_node3"><a xlink:href="#Household" xlink:title="&lt;TABLE&gt;">
<polygon fill="lightblue" stroke="transparent" points="192,-252 192,-266 321,-266 321,-252 192,-252"/>
<polygon fill="none" stroke="black" points="192,-252 192,-266 321,-266 321,-252 192,-252"/>
<text text-anchor="start" x="238.5" y="-257.4" font-family="Arial" font-size="7.00"> Household</text>
<polygon fill="lightblue" stroke="transparent" points="192,-238 192,-252 242,-252 242,-238 192,-238"/>
<polygon fill="none" stroke="black" points="192,-238 192,-252 242,-252 242,-238 192,-238"/>
<text text-anchor="start" x="203.5" y="-243.4" font-family="Arial" font-size="7.00">Attribute</text>
<polygon fill="lightblue" stroke="transparent" points="242,-238 242,-252 292,-252 292,-238 242,-238"/>
<polygon fill="none" stroke="black" points="242,-238 242,-252 292,-252 292,-238 242,-238"/>
<text text-anchor="start" x="259" y="-243.4" font-family="Arial" font-size="7.00">Field</text>
<polygon fill="lightblue" stroke="transparent" points="292,-238 292,-252 321,-252 321,-238 292,-238"/>
<polygon fill="none" stroke="black" points="292,-238 292,-252 321,-252 321,-238 292,-238"/>
<text text-anchor="start" x="295" y="-243.4" font-family="Arial" font-size="7.00">Occurs</text>
<polygon fill="none" stroke="black" points="192,-224 192,-238 242,-238 242,-224 192,-224"/>
<text text-anchor="start" x="195" y="-229.4" font-family="Arial" font-size="7.00">Characteristic</text>
<polygon fill="none" stroke="black" points="242,-224 242,-238 292,-238 292,-224 242,-224"/>
<text text-anchor="start" x="245" y="-229.4" font-family="Arial" font-size="7.00">Characteristic</text>
<polygon fill="none" stroke="black" points="292,-224 292,-238 321,-238 321,-224 292,-224"/>
<text text-anchor="start" x="295" y="-229.4" font-family="Arial" font-size="7.00">many</text>
<polygon fill="none" stroke="black" points="192,-210 192,-224 242,-224 242,-210 192,-210"/>
<text text-anchor="start" x="195" y="-215.4" font-family="Arial" font-size="7.00">Identifier</text>
<polygon fill="none" stroke="black" points="242,-210 242,-224 292,-224 292,-210 242,-210"/>
<text text-anchor="start" x="245" y="-215.4" font-family="Arial" font-size="7.00">Identifier</text>
<polygon fill="none" stroke="black" points="292,-210 292,-224 321,-224 321,-210 292,-210"/>
<text text-anchor="start" x="295" y="-215.4" font-family="Arial" font-size="7.00">many</text>
</a>
</g>
</g>
<!-- Case&#45;&gt;Household -->
<g id="edge2" class="edge">
<title>Case&#45;&gt;Household</title>
<path fill="none" stroke="black" d="M256,-341.96C256,-321.92 256,-299.33 256,-280.43"/>
<polygon fill="black" stroke="black" points="259.5,-280.34 256,-270.34 252.5,-280.34 259.5,-280.34"/>
<text text-anchor="middle" x="265" y="-318.4" font-family="Arial" font-size="7.00">about</text>
</g>
<!-- Organisation -->
<g id="node5" class="node">
<title>Organisation</title>
<g id="a_node5"><a xlink:href="#Organisation" xlink:title="&lt;TABLE&gt;">
<polygon fill="lightblue" stroke="transparent" points="29,-280 29,-294 158,-294 158,-280 29,-280"/>
<polygon fill="none" stroke="black" points="29,-280 29,-294 158,-294 158,-280 29,-280"/>
<text text-anchor="start" x="72.5" y="-285.4" font-family="Arial" font-size="7.00"> Organisation</text>
<polygon fill="lightblue" stroke="transparent" points="29,-266 29,-280 82,-280 82,-266 29,-266"/>
<polygon fill="none" stroke="black" points="29,-266 29,-280 82,-280 82,-266 29,-266"/>
<text text-anchor="start" x="42" y="-271.4" font-family="Arial" font-size="7.00">Attribute</text>
<polygon fill="lightblue" stroke="transparent" points="82,-266 82,-280 129,-280 129,-266 82,-266"/>
<polygon fill="none" stroke="black" points="82,-266 82,-280 129,-280 129,-266 82,-266"/>
<text text-anchor="start" x="97.5" y="-271.4" font-family="Arial" font-size="7.00">Field</text>
<polygon fill="lightblue" stroke="transparent" points="129,-266 129,-280 158,-280 158,-266 129,-266"/>
<polygon fill="none" stroke="black" points="129,-266 129,-280 158,-280 158,-266 129,-266"/>
<text text-anchor="start" x="132" y="-271.4" font-family="Arial" font-size="7.00">Occurs</text>
<polygon fill="none" stroke="black" points="29,-252 29,-266 82,-266 82,-252 29,-252"/>
<text text-anchor="start" x="32" y="-257.4" font-family="Arial" font-size="7.00">Identifier</text>
<polygon fill="none" stroke="black" points="82,-252 82,-266 129,-266 129,-252 82,-252"/>
<text text-anchor="start" x="85" y="-257.4" font-family="Arial" font-size="7.00">Identifier</text>
<polygon fill="none" stroke="black" points="129,-252 129,-266 158,-266 158,-252 129,-252"/>
<text text-anchor="start" x="132" y="-257.4" font-family="Arial" font-size="7.00">many</text>
<polygon fill="none" stroke="black" points="29,-238 29,-252 82,-252 82,-238 29,-238"/>
<text text-anchor="start" x="32" y="-243.4" font-family="Arial" font-size="7.00">Type</text>
<polygon fill="none" stroke="black" points="82,-238 82,-252 129,-252 129,-238 82,-238"/>
<text text-anchor="start" x="85" y="-243.4" font-family="Arial" font-size="7.00">lookup</text>
<polygon fill="none" stroke="black" points="129,-238 129,-252 158,-252 158,-238 129,-238"/>
<polygon fill="none" stroke="black" points="29,-224 29,-238 82,-238 82,-224 29,-224"/>
<text text-anchor="start" x="32" y="-229.4" font-family="Arial" font-size="7.00">Name</text>
<polygon fill="none" stroke="black" points="82,-224 82,-238 129,-238 129,-224 82,-224"/>
<text text-anchor="start" x="85" y="-229.4" font-family="Arial" font-size="7.00">string</text>
<polygon fill="none" stroke="black" points="129,-224 129,-238 158,-238 158,-224 129,-224"/>
<polygon fill="none" stroke="black" points="29,-210 29,-224 82,-224 82,-210 29,-210"/>
<text text-anchor="start" x="32" y="-215.4" font-family="Arial" font-size="7.00">Department</text>
<polygon fill="none" stroke="black" points="82,-210 82,-224 129,-224 129,-210 82,-210"/>
<text text-anchor="start" x="85" y="-215.4" font-family="Arial" font-size="7.00">string</text>
<polygon fill="none" stroke="black" points="129,-210 129,-224 158,-224 158,-210 129,-210"/>
<polygon fill="none" stroke="black" points="29,-196 29,-210 82,-210 82,-196 29,-196"/>
<text text-anchor="start" x="32" y="-201.4" font-family="Arial" font-size="7.00">ContactPerson</text>
<polygon fill="none" stroke="black" points="82,-196 82,-210 129,-210 129,-196 82,-196"/>
<text text-anchor="start" x="85" y="-201.4" font-family="Arial" font-size="7.00">string</text>
<polygon fill="none" stroke="black" points="129,-196 129,-210 158,-210 158,-196 129,-196"/>
<polygon fill="none" stroke="black" points="29,-182 29,-196 82,-196 82,-182 29,-182"/>
<text text-anchor="start" x="32" y="-187.4" font-family="Arial" font-size="7.00">ContactPoint</text>
<polygon fill="none" stroke="black" points="82,-182 82,-196 129,-196 129,-182 82,-182"/>
<text text-anchor="start" x="85" y="-187.4" font-family="Arial" font-size="7.00">ContactPoint</text>
<polygon fill="none" stroke="black" points="129,-182 129,-196 158,-196 158,-182 129,-182"/>
<text text-anchor="start" x="132" y="-187.4" font-family="Arial" font-size="7.00">many</text>
</a>
</g>
</g>
<!-- Case&#45;&gt;Organisation -->
<g id="edge3" class="edge">
<title>Case&#45;&gt;Organisation</title>
<path fill="none" stroke="black" d="M201.27,-341.96C188.9,-330.19 175.6,-317.55 162.71,-305.29"/>
<polygon fill="black" stroke="black" points="164.83,-302.48 155.18,-298.12 160.01,-307.55 164.83,-302.48"/>
<text text-anchor="middle" x="198.5" y="-318.4" font-family="Arial" font-size="7.00">assigned to</text>
</g>
<!-- Person -->
<g id="node6" class="node">
<title>Person</title>
<g id="a_node6"><a xlink:href="#Person" xlink:title="&lt;TABLE&gt;">
<polygon fill="lightblue" stroke="transparent" points="333,-116 333,-130 443,-130 443,-116 333,-116"/>
<polygon fill="none" stroke="black" points="333,-116 333,-130 443,-130 443,-116 333,-116"/>
<text text-anchor="start" x="375.5" y="-121.4" font-family="Arial" font-size="7.00"> Person</text>
<polygon fill="lightblue" stroke="transparent" points="333,-102 333,-116 380,-116 380,-102 333,-102"/>
<polygon fill="none" stroke="black" points="333,-102 333,-116 380,-116 380,-102 333,-102"/>
<text text-anchor="start" x="343" y="-107.4" font-family="Arial" font-size="7.00">Attribute</text>
<polygon fill="lightblue" stroke="transparent" points="380,-102 380,-116 414,-116 414,-102 380,-102"/>
<polygon fill="none" stroke="black" points="380,-102 380,-116 414,-116 414,-102 380,-102"/>
<text text-anchor="start" x="389" y="-107.4" font-family="Arial" font-size="7.00">Field</text>
<polygon fill="lightblue" stroke="transparent" points="414,-102 414,-116 443,-116 443,-102 414,-102"/>
<polygon fill="none" stroke="black" points="414,-102 414,-116 443,-116 443,-102 414,-102"/>
<text text-anchor="start" x="417" y="-107.4" font-family="Arial" font-size="7.00">Occurs</text>
<polygon fill="none" stroke="black" points="333,-88 333,-102 380,-102 380,-88 333,-88"/>
<text text-anchor="start" x="336" y="-93.4" font-family="Arial" font-size="7.00">Title</text>
<polygon fill="none" stroke="black" points="380,-88 380,-102 414,-102 414,-88 380,-88"/>
<text text-anchor="start" x="383" y="-93.4" font-family="Arial" font-size="7.00">string</text>
<polygon fill="none" stroke="black" points="414,-88 414,-102 443,-102 443,-88 414,-88"/>
<polygon fill="none" stroke="black" points="333,-74 333,-88 380,-88 380,-74 333,-74"/>
<text text-anchor="start" x="336" y="-79.4" font-family="Arial" font-size="7.00">FamilyName</text>
<polygon fill="none" stroke="black" points="380,-74 380,-88 414,-88 414,-74 380,-74"/>
<text text-anchor="start" x="383" y="-79.4" font-family="Arial" font-size="7.00">string</text>
<polygon fill="none" stroke="black" points="414,-74 414,-88 443,-88 443,-74 414,-74"/>
<polygon fill="none" stroke="black" points="333,-60 333,-74 380,-74 380,-60 333,-60"/>
<text text-anchor="start" x="336" y="-65.4" font-family="Arial" font-size="7.00">GivenNames</text>
<polygon fill="none" stroke="black" points="380,-60 380,-74 414,-74 414,-60 380,-60"/>
<text text-anchor="start" x="383" y="-65.4" font-family="Arial" font-size="7.00">string</text>
<polygon fill="none" stroke="black" points="414,-60 414,-74 443,-74 443,-60 414,-60"/>
<polygon fill="none" stroke="black" points="333,-46 333,-60 380,-60 380,-46 333,-46"/>
<text text-anchor="start" x="336" y="-51.4" font-family="Arial" font-size="7.00">Alias</text>
<polygon fill="none" stroke="black" points="380,-46 380,-60 414,-60 414,-46 380,-46"/>
<text text-anchor="start" x="383" y="-51.4" font-family="Arial" font-size="7.00">string</text>
<polygon fill="none" stroke="black" points="414,-46 414,-60 443,-60 443,-46 414,-46"/>
<text text-anchor="start" x="417" y="-51.4" font-family="Arial" font-size="7.00">many</text>
<polygon fill="none" stroke="black" points="333,-32 333,-46 380,-46 380,-32 333,-32"/>
<text text-anchor="start" x="336" y="-37.4" font-family="Arial" font-size="7.00">BirthDate</text>
<polygon fill="none" stroke="black" points="380,-32 380,-46 414,-46 414,-32 380,-32"/>
<text text-anchor="start" x="383" y="-37.4" font-family="Arial" font-size="7.00">date</text>
<polygon fill="none" stroke="black" points="414,-32 414,-46 443,-46 443,-32 414,-32"/>
<polygon fill="none" stroke="black" points="333,-18 333,-32 380,-32 380,-18 333,-18"/>
<text text-anchor="start" x="336" y="-23.4" font-family="Arial" font-size="7.00">Gender</text>
<polygon fill="none" stroke="black" points="380,-18 380,-32 414,-32 414,-18 380,-18"/>
<text text-anchor="start" x="383" y="-23.4" font-family="Arial" font-size="7.00">lookup</text>
<polygon fill="none" stroke="black" points="414,-18 414,-32 443,-32 443,-18 414,-18"/>
<polygon fill="none" stroke="black" points="333,-4 333,-18 380,-18 380,-4 333,-4"/>
<text text-anchor="start" x="336" y="-9.4" font-family="Arial" font-size="7.00">Identifier</text>
<polygon fill="none" stroke="black" points="380,-4 380,-18 414,-18 414,-4 380,-4"/>
<text text-anchor="start" x="383" y="-9.4" font-family="Arial" font-size="7.00">Identifier</text>
<polygon fill="none" stroke="black" points="414,-4 414,-18 443,-18 443,-4 414,-4"/>
<text text-anchor="start" x="417" y="-9.4" font-family="Arial" font-size="7.00">many</text>
</a>
</g>
</g>
<!-- Case&#45;&gt;Person -->
<g id="edge1" class="edge">
<title>Case&#45;&gt;Person</title>
<path fill="none" stroke="black" d="M308.57,-341.78C319.69,-328.4 330.35,-313.41 338,-298 361.9,-249.83 374.44,-190.41 380.98,-144.03"/>
<polygon fill="black" stroke="black" points="384.46,-144.42 382.33,-134.04 377.52,-143.48 384.46,-144.42"/>
<text text-anchor="middle" x="384" y="-236.4" font-family="Arial" font-size="7.00">about</text>
</g>
<!-- ContactEvent -->
<g id="node2" class="node">
<title>ContactEvent</title>
<g id="a_node2"><a xlink:href="#ContactEvent" xlink:title="&lt;TABLE&gt;">
<polygon fill="lightblue" stroke="transparent" points="8,-580 8,-594 146,-594 146,-580 8,-580"/>
<polygon fill="none" stroke="black" points="8,-580 8,-594 146,-594 146,-580 8,-580"/>
<text text-anchor="start" x="54" y="-585.4" font-family="Arial" font-size="7.00"> ContactEvent</text>
<polygon fill="lightblue" stroke="transparent" points="8,-566 8,-580 67,-580 67,-566 8,-566"/>
<polygon fill="none" stroke="black" points="8,-566 8,-580 67,-580 67,-566 8,-566"/>
<text text-anchor="start" x="24" y="-571.4" font-family="Arial" font-size="7.00">Attribute</text>
<polygon fill="lightblue" stroke="transparent" points="67,-566 67,-580 117,-580 117,-566 67,-566"/>
<polygon fill="none" stroke="black" points="67,-566 67,-580 117,-580 117,-566 67,-566"/>
<text text-anchor="start" x="84" y="-571.4" font-family="Arial" font-size="7.00">Field</text>
<polygon fill="lightblue" stroke="transparent" points="117,-566 117,-580 146,-580 146,-566 117,-566"/>
<polygon fill="none" stroke="black" points="117,-566 117,-580 146,-580 146,-566 117,-566"/>
<text text-anchor="start" x="120" y="-571.4" font-family="Arial" font-size="7.00">Occurs</text>
<polygon fill="none" stroke="black" points="8,-552 8,-566 67,-566 67,-552 8,-552"/>
<text text-anchor="start" x="11" y="-557.4" font-family="Arial" font-size="7.00">Date</text>
<polygon fill="none" stroke="black" points="67,-552 67,-566 117,-566 117,-552 67,-552"/>
<text text-anchor="start" x="70" y="-557.4" font-family="Arial" font-size="7.00">date</text>
<polygon fill="none" stroke="black" points="117,-552 117,-566 146,-566 146,-552 117,-552"/>
<polygon fill="none" stroke="black" points="8,-538 8,-552 67,-552 67,-538 8,-538"/>
<text text-anchor="start" x="11" y="-543.4" font-family="Arial" font-size="7.00">ContactRole</text>
<polygon fill="none" stroke="black" points="67,-538 67,-552 117,-552 117,-538 67,-538"/>
<text text-anchor="start" x="70" y="-543.4" font-family="Arial" font-size="7.00">Characteristic</text>
<polygon fill="none" stroke="black" points="117,-538 117,-552 146,-552 146,-538 117,-538"/>
<polygon fill="none" stroke="black" points="8,-524 8,-538 67,-538 67,-524 8,-524"/>
<text text-anchor="start" x="11" y="-529.4" font-family="Arial" font-size="7.00">ContactPerson</text>
<polygon fill="none" stroke="black" points="67,-524 67,-538 117,-538 117,-524 67,-524"/>
<text text-anchor="start" x="70" y="-529.4" font-family="Arial" font-size="7.00">string</text>
<polygon fill="none" stroke="black" points="117,-524 117,-538 146,-538 146,-524 117,-524"/>
<polygon fill="none" stroke="black" points="8,-510 8,-524 67,-524 67,-510 8,-510"/>
<text text-anchor="start" x="11" y="-515.4" font-family="Arial" font-size="7.00">ContactMethod</text>
<polygon fill="none" stroke="black" points="67,-510 67,-524 117,-524 117,-510 67,-510"/>
<text text-anchor="start" x="70" y="-515.4" font-family="Arial" font-size="7.00">lookup</text>
<polygon fill="none" stroke="black" points="117,-510 117,-524 146,-524 146,-510 117,-510"/>
<polygon fill="none" stroke="black" points="8,-496 8,-510 67,-510 67,-496 8,-496"/>
<text text-anchor="start" x="11" y="-501.4" font-family="Arial" font-size="7.00">ContactDirection</text>
<polygon fill="none" stroke="black" points="67,-496 67,-510 117,-510 117,-496 67,-496"/>
<text text-anchor="start" x="70" y="-501.4" font-family="Arial" font-size="7.00">lookup</text>
<polygon fill="none" stroke="black" points="117,-496 117,-510 146,-510 146,-496 117,-496"/>
</a>
</g>
</g>
<!-- ContactEvent&#45;&gt;Case -->
<g id="edge4" class="edge">
<title>ContactEvent&#45;&gt;Case</title>
<path fill="none" stroke="black" d="M140.11,-491.82C154.55,-479.88 169.99,-467.11 184.74,-454.92"/>
<polygon fill="black" stroke="black" points="187.38,-457.28 192.86,-448.21 182.92,-451.88 187.38,-457.28"/>
<text text-anchor="middle" x="176" y="-468.4" font-family="Arial" font-size="7.00">about</text>
</g>
<!-- ContactEvent&#45;&gt;Organisation -->
<g id="edge5" class="edge">
<title>ContactEvent&#45;&gt;Organisation</title>
<path fill="none" stroke="black" d="M79.73,-491.92C82.39,-441.3 86.44,-364.12 89.36,-308.33"/>
<polygon fill="black" stroke="black" points="92.87,-308.35 89.9,-298.18 85.88,-307.98 92.87,-308.35"/>
<text text-anchor="middle" x="110.5" y="-393.4" font-family="Arial" font-size="7.00">passes info to</text>
</g>
<!-- Household&#45;&gt;Person -->
<g id="edge7" class="edge">
<title>Household&#45;&gt;Person</title>
<path fill="none" stroke="black" d="M280.52,-205.61C294.46,-187.76 312.56,-164.58 329.92,-142.36"/>
<polygon fill="black" stroke="black" points="332.88,-144.26 336.27,-134.23 327.36,-139.95 332.88,-144.26"/>
<text text-anchor="middle" x="335.5" y="-154.4" font-family="Arial" font-size="7.00">contains</text>
</g>
<!-- Residence -->
<g id="node7" class="node">
<title>Residence</title>
<g id="a_node7"><a xlink:href="#Residence" xlink:title="&lt;TABLE&gt;">
<polygon fill="lightblue" stroke="transparent" points="170,-102 170,-116 299,-116 299,-102 170,-102"/>
<polygon fill="none" stroke="black" points="170,-102 170,-116 299,-116 299,-102 170,-102"/>
<text text-anchor="start" x="216.5" y="-107.4" font-family="Arial" font-size="7.00"> Residence</text>
<polygon fill="lightblue" stroke="transparent" points="170,-88 170,-102 220,-102 220,-88 170,-88"/>
<polygon fill="none" stroke="black" points="170,-88 170,-102 220,-102 220,-88 170,-88"/>
<text text-anchor="start" x="181.5" y="-93.4" font-family="Arial" font-size="7.00">Attribute</text>
<polygon fill="lightblue" stroke="transparent" points="220,-88 220,-102 270,-102 270,-88 220,-88"/>
<polygon fill="none" stroke="black" points="220,-88 220,-102 270,-102 270,-88 220,-88"/>
<text text-anchor="start" x="237" y="-93.4" font-family="Arial" font-size="7.00">Field</text>
<polygon fill="lightblue" stroke="transparent" points="270,-88 270,-102 299,-102 299,-88 270,-88"/>
<polygon fill="none" stroke="black" points="270,-88 270,-102 299,-102 299,-88 270,-88"/>
<text text-anchor="start" x="273" y="-93.4" font-family="Arial" font-size="7.00">Occurs</text>
<polygon fill="none" stroke="black" points="170,-74 170,-88 220,-88 220,-74 170,-74"/>
<text text-anchor="start" x="173" y="-79.4" font-family="Arial" font-size="7.00">Address</text>
<polygon fill="none" stroke="black" points="220,-74 220,-88 270,-88 270,-74 220,-74"/>
<text text-anchor="start" x="223" y="-79.4" font-family="Arial" font-size="7.00">Address</text>
<polygon fill="none" stroke="black" points="270,-74 270,-88 299,-88 299,-74 270,-74"/>
<polygon fill="none" stroke="black" points="170,-60 170,-74 220,-74 220,-60 170,-60"/>
<text text-anchor="start" x="173" y="-65.4" font-family="Arial" font-size="7.00">Characteristic</text>
<polygon fill="none" stroke="black" points="220,-60 220,-74 270,-74 270,-60 220,-60"/>
<text text-anchor="start" x="223" y="-65.4" font-family="Arial" font-size="7.00">Characteristic</text>
<polygon fill="none" stroke="black" points="270,-60 270,-74 299,-74 299,-60 270,-60"/>
<text text-anchor="start" x="273" y="-65.4" font-family="Arial" font-size="7.00">many</text>
<polygon fill="none" stroke="black" points="170,-46 170,-60 220,-60 220,-46 170,-46"/>
<text text-anchor="start" x="173" y="-51.4" font-family="Arial" font-size="7.00">Identifier</text>
<polygon fill="none" stroke="black" points="220,-46 220,-60 270,-60 270,-46 220,-46"/>
<text text-anchor="start" x="223" y="-51.4" font-family="Arial" font-size="7.00">Identifier</text>
<polygon fill="none" stroke="black" points="270,-46 270,-60 299,-60 299,-46 270,-46"/>
<text text-anchor="start" x="273" y="-51.4" font-family="Arial" font-size="7.00">many</text>
<polygon fill="none" stroke="black" points="170,-32 170,-46 220,-46 220,-32 170,-32"/>
<text text-anchor="start" x="173" y="-37.4" font-family="Arial" font-size="7.00">Position</text>
<polygon fill="none" stroke="black" points="220,-32 220,-46 270,-46 270,-32 220,-32"/>
<text text-anchor="start" x="223" y="-37.4" font-family="Arial" font-size="7.00">Position</text>
<polygon fill="none" stroke="black" points="270,-32 270,-46 299,-46 299,-32 270,-32"/>
<polygon fill="none" stroke="black" points="170,-18 170,-32 220,-32 220,-18 170,-18"/>
<text text-anchor="start" x="173" y="-23.4" font-family="Arial" font-size="7.00">Area</text>
<polygon fill="none" stroke="black" points="220,-18 220,-32 270,-32 270,-18 220,-18"/>
<text text-anchor="start" x="223" y="-23.4" font-family="Arial" font-size="7.00">Identifier</text>
<polygon fill="none" stroke="black" points="270,-18 270,-32 299,-32 299,-18 270,-18"/>
<text text-anchor="start" x="273" y="-23.4" font-family="Arial" font-size="7.00">many</text>
</a>
</g>
</g>
<!-- Household&#45;&gt;Residence -->
<g id="edge6" class="edge">
<title>Household&#45;&gt;Residence</title>
<path fill="none" stroke="black" d="M249.04,-205.67C246.17,-191.74 243.04,-175.12 241,-160 239.71,-150.46 238.64,-140.32 237.76,-130.4"/>
<polygon fill="black" stroke="black" points="241.23,-129.85 236.91,-120.17 234.25,-130.43 241.23,-129.85"/>
<text text-anchor="middle" x="256.5" y="-154.4" font-family="Arial" font-size="7.00">resides at</text>
</g>
<!-- Need -->
<g id="node4" class="node">
<title>Need</title>
<g id="a_node4"><a xlink:href="#Need" xlink:title="&lt;TABLE&gt;">
<polygon fill="lightblue" stroke="transparent" points="342,-580 342,-594 464,-594 464,-580 342,-580"/>
<polygon fill="none" stroke="black" points="342,-580 342,-594 464,-594 464,-580 342,-580"/>
<text text-anchor="start" x="393.5" y="-585.4" font-family="Arial" font-size="7.00"> Need</text>
<polygon fill="lightblue" stroke="transparent" points="342,-566 342,-580 385,-580 385,-566 342,-566"/>
<polygon fill="none" stroke="black" points="342,-566 342,-580 385,-580 385,-566 342,-566"/>
<text text-anchor="start" x="350" y="-571.4" font-family="Arial" font-size="7.00">Attribute</text>
<polygon fill="lightblue" stroke="transparent" points="385,-566 385,-580 435,-580 435,-566 385,-566"/>
<polygon fill="none" stroke="black" points="385,-566 385,-580 435,-580 435,-566 385,-566"/>
<text text-anchor="start" x="402" y="-571.4" font-family="Arial" font-size="7.00">Field</text>
<polygon fill="lightblue" stroke="transparent" points="435,-566 435,-580 464,-580 464,-566 435,-566"/>
<polygon fill="none" stroke="black" points="435,-566 435,-580 464,-580 464,-566 435,-566"/>
<text text-anchor="start" x="438" y="-571.4" font-family="Arial" font-size="7.00">Occurs</text>
<polygon fill="none" stroke="black" points="342,-552 342,-566 385,-566 385,-552 342,-552"/>
<text text-anchor="start" x="345" y="-557.4" font-family="Arial" font-size="7.00">Type</text>
<polygon fill="none" stroke="black" points="385,-552 385,-566 435,-566 435,-552 385,-552"/>
<text text-anchor="start" x="388" y="-557.4" font-family="Arial" font-size="7.00">Characteristic</text>
<polygon fill="none" stroke="black" points="435,-552 435,-566 464,-566 464,-552 435,-552"/>
<text text-anchor="start" x="438" y="-557.4" font-family="Arial" font-size="7.00">once</text>
<polygon fill="none" stroke="black" points="342,-538 342,-552 385,-552 385,-538 342,-538"/>
<text text-anchor="start" x="345" y="-543.4" font-family="Arial" font-size="7.00">Rationale</text>
<polygon fill="none" stroke="black" points="385,-538 385,-552 435,-552 435,-538 385,-538"/>
<text text-anchor="start" x="388" y="-543.4" font-family="Arial" font-size="7.00">text</text>
<polygon fill="none" stroke="black" points="435,-538 435,-552 464,-552 464,-538 435,-538"/>
<polygon fill="none" stroke="black" points="342,-524 342,-538 385,-538 385,-524 342,-524"/>
<text text-anchor="start" x="345" y="-529.4" font-family="Arial" font-size="7.00">Date</text>
<polygon fill="none" stroke="black" points="385,-524 385,-538 435,-538 435,-524 385,-524"/>
<text text-anchor="start" x="388" y="-529.4" font-family="Arial" font-size="7.00">date</text>
<polygon fill="none" stroke="black" points="435,-524 435,-538 464,-538 464,-524 435,-524"/>
<polygon fill="none" stroke="black" points="342,-510 342,-524 385,-524 385,-510 342,-510"/>
<text text-anchor="start" x="345" y="-515.4" font-family="Arial" font-size="7.00">EndDate</text>
<polygon fill="none" stroke="black" points="385,-510 385,-524 435,-524 435,-510 385,-510"/>
<text text-anchor="start" x="388" y="-515.4" font-family="Arial" font-size="7.00">date</text>
<polygon fill="none" stroke="black" points="435,-510 435,-524 464,-524 464,-510 435,-510"/>
<polygon fill="none" stroke="black" points="342,-496 342,-510 385,-510 385,-496 342,-496"/>
<text text-anchor="start" x="345" y="-501.4" font-family="Arial" font-size="7.00">Target Date</text>
<polygon fill="none" stroke="black" points="385,-496 385,-510 435,-510 435,-496 385,-496"/>
<text text-anchor="start" x="388" y="-501.4" font-family="Arial" font-size="7.00">date</text>
<polygon fill="none" stroke="black" points="435,-496 435,-510 464,-510 464,-496 435,-496"/>
</a>
</g>
</g>
<!-- Need&#45;&gt;Case -->
<g id="edge10" class="edge">
<title>Need&#45;&gt;Case</title>
<path fill="none" stroke="black" d="M351.17,-491.82C339.54,-480.1 327.1,-467.59 315.19,-455.59"/>
<polygon fill="black" stroke="black" points="317.38,-452.84 307.85,-448.21 312.42,-457.77 317.38,-452.84"/>
<text text-anchor="middle" x="337" y="-468.4" font-family="Arial" font-size="7.00">case</text>
</g>
<!-- Need&#45;&gt;Household -->
<g id="edge9" class="edge">
<title>Need&#45;&gt;Household</title>
<path fill="none" stroke="black" d="M391.31,-491.76C380.66,-449.74 362.66,-389.99 337,-342 324.8,-319.18 307.45,-296.31 291.93,-277.93"/>
<polygon fill="black" stroke="black" points="294.59,-275.65 285.42,-270.34 289.28,-280.21 294.59,-275.65"/>
<text text-anchor="middle" x="387" y="-393.4" font-family="Arial" font-size="7.00">about</text>
</g>
<!-- Need&#45;&gt;Person -->
<g id="edge8" class="edge">
<title>Need&#45;&gt;Person</title>
<path fill="none" stroke="black" d="M403.24,-491.84C403.33,-420.81 402.59,-289.71 397,-178 396.46,-167.16 395.71,-155.73 394.89,-144.5"/>
<polygon fill="black" stroke="black" points="398.36,-143.97 394.1,-134.27 391.38,-144.5 398.36,-143.97"/>
<text text-anchor="middle" x="410" y="-318.4" font-family="Arial" font-size="7.00">about</text>
</g>
<!-- SituationAssessment -->
<g id="node8" class="node">
<title>SituationAssessment</title>
<g id="a_node8"><a xlink:href="#SituationAssessment" xlink:title="&lt;TABLE&gt;">
<polygon fill="lightblue" stroke="transparent" points="180,-573 180,-587 308,-587 308,-573 180,-573"/>
<polygon fill="none" stroke="black" points="180,-573 180,-587 308,-587 308,-573 180,-573"/>
<text text-anchor="start" x="209.5" y="-578.4" font-family="Arial" font-size="7.00"> SituationAssessment</text>
<polygon fill="lightblue" stroke="transparent" points="180,-559 180,-573 229,-573 229,-559 180,-559"/>
<polygon fill="none" stroke="black" points="180,-559 180,-573 229,-573 229,-559 180,-559"/>
<text text-anchor="start" x="191" y="-564.4" font-family="Arial" font-size="7.00">Attribute</text>
<polygon fill="lightblue" stroke="transparent" points="229,-559 229,-573 279,-573 279,-559 229,-559"/>
<polygon fill="none" stroke="black" points="229,-559 229,-573 279,-573 279,-559 229,-559"/>
<text text-anchor="start" x="246" y="-564.4" font-family="Arial" font-size="7.00">Field</text>
<polygon fill="lightblue" stroke="transparent" points="279,-559 279,-573 308,-573 308,-559 279,-559"/>
<polygon fill="none" stroke="black" points="279,-559 279,-573 308,-573 308,-559 279,-559"/>
<text text-anchor="start" x="282" y="-564.4" font-family="Arial" font-size="7.00">Occurs</text>
<polygon fill="none" stroke="black" points="180,-545 180,-559 229,-559 229,-545 180,-545"/>
<text text-anchor="start" x="183" y="-550.4" font-family="Arial" font-size="7.00">Date</text>
<polygon fill="none" stroke="black" points="229,-545 229,-559 279,-559 279,-545 229,-545"/>
<text text-anchor="start" x="232" y="-550.4" font-family="Arial" font-size="7.00">date</text>
<polygon fill="none" stroke="black" points="279,-545 279,-559 308,-559 308,-545 279,-545"/>
<polygon fill="none" stroke="black" points="180,-531 180,-545 229,-545 229,-531 180,-531"/>
<text text-anchor="start" x="183" y="-536.4" font-family="Arial" font-size="7.00">Situation</text>
<polygon fill="none" stroke="black" points="229,-531 229,-545 279,-545 279,-531 229,-531"/>
<text text-anchor="start" x="232" y="-536.4" font-family="Arial" font-size="7.00">text</text>
<polygon fill="none" stroke="black" points="279,-531 279,-545 308,-545 308,-531 279,-531"/>
<polygon fill="none" stroke="black" points="180,-517 180,-531 229,-531 229,-517 180,-517"/>
<text text-anchor="start" x="183" y="-522.4" font-family="Arial" font-size="7.00">Assessment</text>
<polygon fill="none" stroke="black" points="229,-517 229,-531 279,-531 279,-517 229,-517"/>
<text text-anchor="start" x="232" y="-522.4" font-family="Arial" font-size="7.00">text</text>
<polygon fill="none" stroke="black" points="279,-517 279,-531 308,-531 308,-517 279,-517"/>
<polygon fill="none" stroke="black" points="180,-503 180,-517 229,-517 229,-503 180,-503"/>
<text text-anchor="start" x="183" y="-508.4" font-family="Arial" font-size="7.00">RiskCategory</text>
<polygon fill="none" stroke="black" points="229,-503 229,-517 279,-517 279,-503 229,-503"/>
<text text-anchor="start" x="232" y="-508.4" font-family="Arial" font-size="7.00">Characteristic</text>
<polygon fill="none" stroke="black" points="279,-503 279,-517 308,-517 308,-503 279,-503"/>
</a>
</g>
</g>
<!-- SituationAssessment&#45;&gt;Case -->
<g id="edge12" class="edge">
<title>SituationAssessment&#45;&gt;Case</title>
<path fill="none" stroke="black" d="M247.67,-498.79C248.7,-486.06 249.84,-471.97 250.94,-458.42"/>
<polygon fill="black" stroke="black" points="254.45,-458.44 251.77,-448.19 247.47,-457.88 254.45,-458.44"/>
<text text-anchor="middle" x="253.5" y="-468.4" font-family="Arial" font-size="7.00">of</text>
</g>
<!-- SituationAssessment&#45;&gt;Organisation -->
<g id="edge11" class="edge">
<title>SituationAssessment&#45;&gt;Organisation</title>
<path fill="none" stroke="black" d="M201.67,-498.72C189.13,-483.49 176.28,-465.81 167,-448 144.32,-404.47 152.37,-388.27 136,-342 132.04,-330.8 127.5,-319.05 122.9,-307.66"/>
<polygon fill="black" stroke="black" points="126.06,-306.13 119.03,-298.2 119.58,-308.78 126.06,-306.13"/>
<text text-anchor="middle" x="171" y="-393.4" font-family="Arial" font-size="7.00">by</text>
</g>
</g>
</svg>
