<?xml version="1.0" encoding="UTF-8" standalone="no"?>
<!DOCTYPE svg PUBLIC "-//W3C//DTD SVG 1.1//EN"
 "http://www.w3.org/Graphics/SVG/1.1/DTD/svg11.dtd">
<!-- Generated by graphviz version 2.44.1 (20200629.0846)
 -->
<!-- Pages: 1 -->
<svg width="530pt" height="606pt"
 viewBox="0.00 0.00 530.00 606.00" xmlns="http://www.w3.org/2000/svg" xmlns:xlink="http://www.w3.org/1999/xlink">
<g id="graph0" class="graph" transform="scale(1 1) rotate(0) translate(4 602)">
<polygon fill="white" stroke="transparent" points="-4,4 -4,-602 526,-602 526,4 -4,4"/>
<!-- Case -->
<g id="node1" class="node">
<title>Case</title>
<g id="a_node1"><a xlink:href="#Case" xlink:title="&lt;TABLE&gt;">
<polygon fill="lightblue" stroke="transparent" points="236.5,-430 236.5,-444 365.5,-444 365.5,-430 236.5,-430"/>
<polygon fill="none" stroke="black" points="236.5,-430 236.5,-444 365.5,-444 365.5,-430 236.5,-430"/>
<text text-anchor="start" x="291.5" y="-435.4" font-family="Arial" font-size="7.00"> Case</text>
<polygon fill="lightblue" stroke="transparent" points="236.5,-416 236.5,-430 286.5,-430 286.5,-416 236.5,-416"/>
<polygon fill="none" stroke="black" points="236.5,-416 236.5,-430 286.5,-430 286.5,-416 236.5,-416"/>
<text text-anchor="start" x="248" y="-421.4" font-family="Arial" font-size="7.00">Attribute</text>
<polygon fill="lightblue" stroke="transparent" points="286.5,-416 286.5,-430 336.5,-430 336.5,-416 286.5,-416"/>
<polygon fill="none" stroke="black" points="286.5,-416 286.5,-430 336.5,-430 336.5,-416 286.5,-416"/>
<text text-anchor="start" x="303.5" y="-421.4" font-family="Arial" font-size="7.00">Field</text>
<polygon fill="lightblue" stroke="transparent" points="336.5,-416 336.5,-430 365.5,-430 365.5,-416 336.5,-416"/>
<polygon fill="none" stroke="black" points="336.5,-416 336.5,-430 365.5,-430 365.5,-416 336.5,-416"/>
<text text-anchor="start" x="339.5" y="-421.4" font-family="Arial" font-size="7.00">Occurs</text>
<polygon fill="none" stroke="black" points="236.5,-402 236.5,-416 286.5,-416 286.5,-402 236.5,-402"/>
<text text-anchor="start" x="239.5" y="-407.4" font-family="Arial" font-size="7.00">Reference</text>
<polygon fill="none" stroke="black" points="286.5,-402 286.5,-416 336.5,-416 336.5,-402 286.5,-402"/>
<text text-anchor="start" x="289.5" y="-407.4" font-family="Arial" font-size="7.00">Identifier</text>
<polygon fill="none" stroke="black" points="336.5,-402 336.5,-416 365.5,-416 365.5,-402 336.5,-402"/>
<polygon fill="none" stroke="black" points="236.5,-388 236.5,-402 286.5,-402 286.5,-388 236.5,-388"/>
<text text-anchor="start" x="239.5" y="-393.4" font-family="Arial" font-size="7.00">Status</text>
<polygon fill="none" stroke="black" points="286.5,-388 286.5,-402 336.5,-402 336.5,-388 286.5,-388"/>
<text text-anchor="start" x="289.5" y="-393.4" font-family="Arial" font-size="7.00">lookup</text>
<polygon fill="none" stroke="black" points="336.5,-388 336.5,-402 365.5,-402 365.5,-388 336.5,-388"/>
<polygon fill="none" stroke="black" points="236.5,-374 236.5,-388 286.5,-388 286.5,-374 236.5,-374"/>
<text text-anchor="start" x="239.5" y="-379.4" font-family="Arial" font-size="7.00">RiskCategory</text>
<polygon fill="none" stroke="black" points="286.5,-374 286.5,-388 336.5,-388 336.5,-374 286.5,-374"/>
<text text-anchor="start" x="289.5" y="-379.4" font-family="Arial" font-size="7.00">Characteristic</text>
<polygon fill="none" stroke="black" points="336.5,-374 336.5,-388 365.5,-388 365.5,-374 336.5,-374"/>
<polygon fill="none" stroke="black" points="236.5,-360 236.5,-374 286.5,-374 286.5,-360 236.5,-360"/>
<text text-anchor="start" x="239.5" y="-365.4" font-family="Arial" font-size="7.00">DateRaised</text>
<polygon fill="none" stroke="black" points="286.5,-360 286.5,-374 336.5,-374 336.5,-360 286.5,-360"/>
<text text-anchor="start" x="289.5" y="-365.4" font-family="Arial" font-size="7.00">date</text>
<polygon fill="none" stroke="black" points="336.5,-360 336.5,-374 365.5,-374 365.5,-360 336.5,-360"/>
<polygon fill="none" stroke="black" points="236.5,-346 236.5,-360 286.5,-360 286.5,-346 236.5,-346"/>
<text text-anchor="start" x="239.5" y="-351.4" font-family="Arial" font-size="7.00">DateClosed</text>
<polygon fill="none" stroke="black" points="286.5,-346 286.5,-360 336.5,-360 336.5,-346 286.5,-346"/>
<text text-anchor="start" x="289.5" y="-351.4" font-family="Arial" font-size="7.00">date</text>
<polygon fill="none" stroke="black" points="336.5,-346 336.5,-360 365.5,-360 365.5,-346 336.5,-346"/>
</a>
</g>
</g>
<!-- Household -->
<g id="node3" class="node">
<title>Household</title>
<g id="a_node3"><a xlink:href="#Household" xlink:title="&lt;TABLE&gt;">
<polygon fill="lightblue" stroke="transparent" points="34.5,-252 34.5,-266 163.5,-266 163.5,-252 34.5,-252"/>
<polygon fill="none" stroke="black" points="34.5,-252 34.5,-266 163.5,-266 163.5,-252 34.5,-252"/>
<text text-anchor="start" x="81" y="-257.4" font-family="Arial" font-size="7.00"> Household</text>
<polygon fill="lightblue" stroke="transparent" points="34.5,-238 34.5,-252 84.5,-252 84.5,-238 34.5,-238"/>
<polygon fill="none" stroke="black" points="34.5,-238 34.5,-252 84.5,-252 84.5,-238 34.5,-238"/>
<text text-anchor="start" x="46" y="-243.4" font-family="Arial" font-size="7.00">Attribute</text>
<polygon fill="lightblue" stroke="transparent" points="84.5,-238 84.5,-252 134.5,-252 134.5,-238 84.5,-238"/>
<polygon fill="none" stroke="black" points="84.5,-238 84.5,-252 134.5,-252 134.5,-238 84.5,-238"/>
<text text-anchor="start" x="101.5" y="-243.4" font-family="Arial" font-size="7.00">Field</text>
<polygon fill="lightblue" stroke="transparent" points="134.5,-238 134.5,-252 163.5,-252 163.5,-238 134.5,-238"/>
<polygon fill="none" stroke="black" points="134.5,-238 134.5,-252 163.5,-252 163.5,-238 134.5,-238"/>
<text text-anchor="start" x="137.5" y="-243.4" font-family="Arial" font-size="7.00">Occurs</text>
<polygon fill="none" stroke="black" points="34.5,-224 34.5,-238 84.5,-238 84.5,-224 34.5,-224"/>
<text text-anchor="start" x="37.5" y="-229.4" font-family="Arial" font-size="7.00">Characteristic</text>
<polygon fill="none" stroke="black" points="84.5,-224 84.5,-238 134.5,-238 134.5,-224 84.5,-224"/>
<text text-anchor="start" x="87.5" y="-229.4" font-family="Arial" font-size="7.00">Characteristic</text>
<polygon fill="none" stroke="black" points="134.5,-224 134.5,-238 163.5,-238 163.5,-224 134.5,-224"/>
<text text-anchor="start" x="137.5" y="-229.4" font-family="Arial" font-size="7.00">many</text>
<polygon fill="none" stroke="black" points="34.5,-210 34.5,-224 84.5,-224 84.5,-210 34.5,-210"/>
<text text-anchor="start" x="37.5" y="-215.4" font-family="Arial" font-size="7.00">Identifier</text>
<polygon fill="none" stroke="black" points="84.5,-210 84.5,-224 134.5,-224 134.5,-210 84.5,-210"/>
<text text-anchor="start" x="87.5" y="-215.4" font-family="Arial" font-size="7.00">Identifier</text>
<polygon fill="none" stroke="black" points="134.5,-210 134.5,-224 163.5,-224 163.5,-210 134.5,-210"/>
<text text-anchor="start" x="137.5" y="-215.4" font-family="Arial" font-size="7.00">many</text>
</a>
</g>
</g>
<!-- Case&#45;&gt;Household -->
<g id="edge2" class="edge">
<title>Case&#45;&gt;Household</title>
<path fill="none" stroke="black" d="M251.03,-341.92C241.56,-332.9 231.48,-323.89 221.5,-316 203.17,-301.5 181.97,-287.4 162.39,-275.31"/>
<polygon fill="black" stroke="black" points="164.18,-272.3 153.82,-270.08 160.53,-278.28 164.18,-272.3"/>
<text text-anchor="middle" x="240.5" y="-318.4" font-family="Arial" font-size="7.00">about</text>
</g>
<!-- Organisation -->
<g id="node5" class="node">
<title>Organisation</title>
<g id="a_node5"><a xlink:href="#Organisation" xlink:title="&lt;TABLE&gt;">
<polygon fill="lightblue" stroke="transparent" points="353.5,-280 353.5,-294 482.5,-294 482.5,-280 353.5,-280"/>
<polygon fill="none" stroke="black" points="353.5,-280 353.5,-294 482.5,-294 482.5,-280 353.5,-280"/>
<text text-anchor="start" x="397" y="-285.4" font-family="Arial" font-size="7.00"> Organisation</text>
<polygon fill="lightblue" stroke="transparent" points="353.5,-266 353.5,-280 406.5,-280 406.5,-266 353.5,-266"/>
<polygon fill="none" stroke="black" points="353.5,-266 353.5,-280 406.5,-280 406.5,-266 353.5,-266"/>
<text text-anchor="start" x="366.5" y="-271.4" font-family="Arial" font-size="7.00">Attribute</text>
<polygon fill="lightblue" stroke="transparent" points="406.5,-266 406.5,-280 453.5,-280 453.5,-266 406.5,-266"/>
<polygon fill="none" stroke="black" points="406.5,-266 406.5,-280 453.5,-280 453.5,-266 406.5,-266"/>
<text text-anchor="start" x="422" y="-271.4" font-family="Arial" font-size="7.00">Field</text>
<polygon fill="lightblue" stroke="transparent" points="453.5,-266 453.5,-280 482.5,-280 482.5,-266 453.5,-266"/>
<polygon fill="none" stroke="black" points="453.5,-266 453.5,-280 482.5,-280 482.5,-266 453.5,-266"/>
<text text-anchor="start" x="456.5" y="-271.4" font-family="Arial" font-size="7.00">Occurs</text>
<polygon fill="none" stroke="black" points="353.5,-252 353.5,-266 406.5,-266 406.5,-252 353.5,-252"/>
<text text-anchor="start" x="356.5" y="-257.4" font-family="Arial" font-size="7.00">Identifier</text>
<polygon fill="none" stroke="black" points="406.5,-252 406.5,-266 453.5,-266 453.5,-252 406.5,-252"/>
<text text-anchor="start" x="409.5" y="-257.4" font-family="Arial" font-size="7.00">Identifier</text>
<polygon fill="none" stroke="black" points="453.5,-252 453.5,-266 482.5,-266 482.5,-252 453.5,-252"/>
<text text-anchor="start" x="456.5" y="-257.4" font-family="Arial" font-size="7.00">many</text>
<polygon fill="none" stroke="black" points="353.5,-238 353.5,-252 406.5,-252 406.5,-238 353.5,-238"/>
<text text-anchor="start" x="356.5" y="-243.4" font-family="Arial" font-size="7.00">Type</text>
<polygon fill="none" stroke="black" points="406.5,-238 406.5,-252 453.5,-252 453.5,-238 406.5,-238"/>
<text text-anchor="start" x="409.5" y="-243.4" font-family="Arial" font-size="7.00">lookup</text>
<polygon fill="none" stroke="black" points="453.5,-238 453.5,-252 482.5,-252 482.5,-238 453.5,-238"/>
<polygon fill="none" stroke="black" points="353.5,-224 353.5,-238 406.5,-238 406.5,-224 353.5,-224"/>
<text text-anchor="start" x="356.5" y="-229.4" font-family="Arial" font-size="7.00">Name</text>
<polygon fill="none" stroke="black" points="406.5,-224 406.5,-238 453.5,-238 453.5,-224 406.5,-224"/>
<text text-anchor="start" x="409.5" y="-229.4" font-family="Arial" font-size="7.00">string</text>
<polygon fill="none" stroke="black" points="453.5,-224 453.5,-238 482.5,-238 482.5,-224 453.5,-224"/>
<polygon fill="none" stroke="black" points="353.5,-210 353.5,-224 406.5,-224 406.5,-210 353.5,-210"/>
<text text-anchor="start" x="356.5" y="-215.4" font-family="Arial" font-size="7.00">Department</text>
<polygon fill="none" stroke="black" points="406.5,-210 406.5,-224 453.5,-224 453.5,-210 406.5,-210"/>
<text text-anchor="start" x="409.5" y="-215.4" font-family="Arial" font-size="7.00">string</text>
<polygon fill="none" stroke="black" points="453.5,-210 453.5,-224 482.5,-224 482.5,-210 453.5,-210"/>
<polygon fill="none" stroke="black" points="353.5,-196 353.5,-210 406.5,-210 406.5,-196 353.5,-196"/>
<text text-anchor="start" x="356.5" y="-201.4" font-family="Arial" font-size="7.00">ContactPerson</text>
<polygon fill="none" stroke="black" points="406.5,-196 406.5,-210 453.5,-210 453.5,-196 406.5,-196"/>
<text text-anchor="start" x="409.5" y="-201.4" font-family="Arial" font-size="7.00">string</text>
<polygon fill="none" stroke="black" points="453.5,-196 453.5,-210 482.5,-210 482.5,-196 453.5,-196"/>
<polygon fill="none" stroke="black" points="353.5,-182 353.5,-196 406.5,-196 406.5,-182 353.5,-182"/>
<text text-anchor="start" x="356.5" y="-187.4" font-family="Arial" font-size="7.00">ContactPoint</text>
<polygon fill="none" stroke="black" points="406.5,-182 406.5,-196 453.5,-196 453.5,-182 406.5,-182"/>
<text text-anchor="start" x="409.5" y="-187.4" font-family="Arial" font-size="7.00">ContactPoint</text>
<polygon fill="none" stroke="black" points="453.5,-182 453.5,-196 482.5,-196 482.5,-182 453.5,-182"/>
<text text-anchor="start" x="456.5" y="-187.4" font-family="Arial" font-size="7.00">many</text>
</a>
</g>
</g>
<!-- Case&#45;&gt;Organisation -->
<g id="edge3" class="edge">
<title>Case&#45;&gt;Organisation</title>
<path fill="none" stroke="black" d="M339.78,-341.96C348.41,-330.52 357.67,-318.26 366.68,-306.32"/>
<polygon fill="black" stroke="black" points="369.64,-308.21 372.87,-298.12 364.05,-304 369.64,-308.21"/>
<text text-anchor="middle" x="377" y="-318.4" font-family="Arial" font-size="7.00">assigned to</text>
</g>
<!-- Person -->
<g id="node6" class="node">
<title>Person</title>
<g id="a_node6"><a xlink:href="#Person" xlink:title="&lt;TABLE&gt;">
<polygon fill="lightblue" stroke="transparent" points="171.5,-116 171.5,-130 282.5,-130 282.5,-116 171.5,-116"/>
<polygon fill="none" stroke="black" points="171.5,-116 171.5,-130 282.5,-130 282.5,-116 171.5,-116"/>
<text text-anchor="start" x="214.5" y="-121.4" font-family="Arial" font-size="7.00"> Person</text>
<polygon fill="lightblue" stroke="transparent" points="171.5,-102 171.5,-116 219.5,-116 219.5,-102 171.5,-102"/>
<polygon fill="none" stroke="black" points="171.5,-102 171.5,-116 219.5,-116 219.5,-102 171.5,-102"/>
<text text-anchor="start" x="182" y="-107.4" font-family="Arial" font-size="7.00">Attribute</text>
<polygon fill="lightblue" stroke="transparent" points="219.5,-102 219.5,-116 253.5,-116 253.5,-102 219.5,-102"/>
<polygon fill="none" stroke="black" points="219.5,-102 219.5,-116 253.5,-116 253.5,-102 219.5,-102"/>
<text text-anchor="start" x="228.5" y="-107.4" font-family="Arial" font-size="7.00">Field</text>
<polygon fill="lightblue" stroke="transparent" points="253.5,-102 253.5,-116 282.5,-116 282.5,-102 253.5,-102"/>
<polygon fill="none" stroke="black" points="253.5,-102 253.5,-116 282.5,-116 282.5,-102 253.5,-102"/>
<text text-anchor="start" x="256.5" y="-107.4" font-family="Arial" font-size="7.00">Occurs</text>
<polygon fill="none" stroke="black" points="171.5,-88 171.5,-102 219.5,-102 219.5,-88 171.5,-88"/>
<text text-anchor="start" x="174.5" y="-93.4" font-family="Arial" font-size="7.00">Title</text>
<polygon fill="none" stroke="black" points="219.5,-88 219.5,-102 253.5,-102 253.5,-88 219.5,-88"/>
<text text-anchor="start" x="222.5" y="-93.4" font-family="Arial" font-size="7.00">string</text>
<polygon fill="none" stroke="black" points="253.5,-88 253.5,-102 282.5,-102 282.5,-88 253.5,-88"/>
<polygon fill="none" stroke="black" points="171.5,-74 171.5,-88 219.5,-88 219.5,-74 171.5,-74"/>
<text text-anchor="start" x="174.5" y="-79.4" font-family="Arial" font-size="7.00">FamilyName</text>
<polygon fill="none" stroke="black" points="219.5,-74 219.5,-88 253.5,-88 253.5,-74 219.5,-74"/>
<text text-anchor="start" x="222.5" y="-79.4" font-family="Arial" font-size="7.00">string</text>
<polygon fill="none" stroke="black" points="253.5,-74 253.5,-88 282.5,-88 282.5,-74 253.5,-74"/>
<polygon fill="none" stroke="black" points="171.5,-60 171.5,-74 219.5,-74 219.5,-60 171.5,-60"/>
<text text-anchor="start" x="174.5" y="-65.4" font-family="Arial" font-size="7.00">GivenNames</text>
<polygon fill="none" stroke="black" points="219.5,-60 219.5,-74 253.5,-74 253.5,-60 219.5,-60"/>
<text text-anchor="start" x="222.5" y="-65.4" font-family="Arial" font-size="7.00">string</text>
<polygon fill="none" stroke="black" points="253.5,-60 253.5,-74 282.5,-74 282.5,-60 253.5,-60"/>
<polygon fill="none" stroke="black" points="171.5,-46 171.5,-60 219.5,-60 219.5,-46 171.5,-46"/>
<text text-anchor="start" x="174.5" y="-51.4" font-family="Arial" font-size="7.00">NickName</text>
<polygon fill="none" stroke="black" points="219.5,-46 219.5,-60 253.5,-60 253.5,-46 219.5,-46"/>
<text text-anchor="start" x="222.5" y="-51.4" font-family="Arial" font-size="7.00">string</text>
<polygon fill="none" stroke="black" points="253.5,-46 253.5,-60 282.5,-60 282.5,-46 253.5,-46"/>
<text text-anchor="start" x="256.5" y="-51.4" font-family="Arial" font-size="7.00">many</text>
<polygon fill="none" stroke="black" points="171.5,-32 171.5,-46 219.5,-46 219.5,-32 171.5,-32"/>
<text text-anchor="start" x="174.5" y="-37.4" font-family="Arial" font-size="7.00">BirthDate</text>
<polygon fill="none" stroke="black" points="219.5,-32 219.5,-46 253.5,-46 253.5,-32 219.5,-32"/>
<text text-anchor="start" x="222.5" y="-37.4" font-family="Arial" font-size="7.00">date</text>
<polygon fill="none" stroke="black" points="253.5,-32 253.5,-46 282.5,-46 282.5,-32 253.5,-32"/>
<polygon fill="none" stroke="black" points="171.5,-18 171.5,-32 219.5,-32 219.5,-18 171.5,-18"/>
<text text-anchor="start" x="174.5" y="-23.4" font-family="Arial" font-size="7.00">Gender</text>
<polygon fill="none" stroke="black" points="219.5,-18 219.5,-32 253.5,-32 253.5,-18 219.5,-18"/>
<text text-anchor="start" x="222.5" y="-23.4" font-family="Arial" font-size="7.00">lookup</text>
<polygon fill="none" stroke="black" points="253.5,-18 253.5,-32 282.5,-32 282.5,-18 253.5,-18"/>
<polygon fill="none" stroke="black" points="171.5,-4 171.5,-18 219.5,-18 219.5,-4 171.5,-4"/>
<text text-anchor="start" x="174.5" y="-9.4" font-family="Arial" font-size="7.00">Identifier</text>
<polygon fill="none" stroke="black" points="219.5,-4 219.5,-18 253.5,-18 253.5,-4 219.5,-4"/>
<text text-anchor="start" x="222.5" y="-9.4" font-family="Arial" font-size="7.00">Identifier</text>
<polygon fill="none" stroke="black" points="253.5,-4 253.5,-18 282.5,-18 282.5,-4 253.5,-4"/>
<text text-anchor="start" x="256.5" y="-9.4" font-family="Arial" font-size="7.00">many</text>
</a>
</g>
</g>
<!-- Case&#45;&gt;Person -->
<g id="edge1" class="edge">
<title>Case&#45;&gt;Person</title>
<path fill="none" stroke="black" d="M288.69,-341.98C276.57,-288.6 257.59,-204.97 243.78,-144.14"/>
<polygon fill="black" stroke="black" points="247.15,-143.18 241.53,-134.2 240.33,-144.73 247.15,-143.18"/>
<text text-anchor="middle" x="287.5" y="-236.4" font-family="Arial" font-size="7.00">about</text>
</g>
<!-- ContactEvent -->
<g id="node2" class="node">
<title>ContactEvent</title>
<g id="a_node2"><a xlink:href="#ContactEvent" xlink:title="&lt;TABLE&gt;">
<polygon fill="lightblue" stroke="transparent" points="236.5,-566 236.5,-580 351.5,-580 351.5,-566 236.5,-566"/>
<polygon fill="none" stroke="black" points="236.5,-566 236.5,-580 351.5,-580 351.5,-566 236.5,-566"/>
<text text-anchor="start" x="271" y="-571.4" font-family="Arial" font-size="7.00"> ContactEvent</text>
<polygon fill="lightblue" stroke="transparent" points="236.5,-552 236.5,-566 295.5,-566 295.5,-552 236.5,-552"/>
<polygon fill="none" stroke="black" points="236.5,-552 236.5,-566 295.5,-566 295.5,-552 236.5,-552"/>
<text text-anchor="start" x="252.5" y="-557.4" font-family="Arial" font-size="7.00">Attribute</text>
<polygon fill="lightblue" stroke="transparent" points="295.5,-552 295.5,-566 322.5,-566 322.5,-552 295.5,-552"/>
<polygon fill="none" stroke="black" points="295.5,-552 295.5,-566 322.5,-566 322.5,-552 295.5,-552"/>
<text text-anchor="start" x="301" y="-557.4" font-family="Arial" font-size="7.00">Field</text>
<polygon fill="lightblue" stroke="transparent" points="322.5,-552 322.5,-566 351.5,-566 351.5,-552 322.5,-552"/>
<polygon fill="none" stroke="black" points="322.5,-552 322.5,-566 351.5,-566 351.5,-552 322.5,-552"/>
<text text-anchor="start" x="325.5" y="-557.4" font-family="Arial" font-size="7.00">Occurs</text>
<polygon fill="none" stroke="black" points="236.5,-538 236.5,-552 295.5,-552 295.5,-538 236.5,-538"/>
<text text-anchor="start" x="239.5" y="-543.4" font-family="Arial" font-size="7.00">Date</text>
<polygon fill="none" stroke="black" points="295.5,-538 295.5,-552 322.5,-552 322.5,-538 295.5,-538"/>
<text text-anchor="start" x="298.5" y="-543.4" font-family="Arial" font-size="7.00">date</text>
<polygon fill="none" stroke="black" points="322.5,-538 322.5,-552 351.5,-552 351.5,-538 322.5,-538"/>
<polygon fill="none" stroke="black" points="236.5,-524 236.5,-538 295.5,-538 295.5,-524 236.5,-524"/>
<text text-anchor="start" x="239.5" y="-529.4" font-family="Arial" font-size="7.00">ContactMethod</text>
<polygon fill="none" stroke="black" points="295.5,-524 295.5,-538 322.5,-538 322.5,-524 295.5,-524"/>
<text text-anchor="start" x="298.5" y="-529.4" font-family="Arial" font-size="7.00">lookup</text>
<polygon fill="none" stroke="black" points="322.5,-524 322.5,-538 351.5,-538 351.5,-524 322.5,-524"/>
<polygon fill="none" stroke="black" points="236.5,-510 236.5,-524 295.5,-524 295.5,-510 236.5,-510"/>
<text text-anchor="start" x="239.5" y="-515.4" font-family="Arial" font-size="7.00">ContactDirection</text>
<polygon fill="none" stroke="black" points="295.5,-510 295.5,-524 322.5,-524 322.5,-510 295.5,-510"/>
<text text-anchor="start" x="298.5" y="-515.4" font-family="Arial" font-size="7.00">lookup</text>
<polygon fill="none" stroke="black" points="322.5,-510 322.5,-524 351.5,-524 351.5,-510 322.5,-510"/>
</a>
</g>
</g>
<!-- ContactEvent&#45;&gt;Case -->
<g id="edge4" class="edge">
<title>ContactEvent&#45;&gt;Case</title>
<path fill="none" stroke="black" d="M295.3,-505.89C295.98,-491.48 296.78,-474.69 297.54,-458.62"/>
<polygon fill="black" stroke="black" points="301.05,-458.36 298.03,-448.21 294.06,-458.03 301.05,-458.36"/>
<text text-anchor="middle" x="304.5" y="-468.4" font-family="Arial" font-size="7.00">case</text>
</g>
<!-- Household&#45;&gt;Person -->
<g id="edge6" class="edge">
<title>Household&#45;&gt;Person</title>
<path fill="none" stroke="black" d="M119.68,-205.96C130.96,-189.7 145.21,-169.58 158.5,-152 160.91,-148.81 163.4,-145.57 165.92,-142.3"/>
<polygon fill="black" stroke="black" points="168.88,-144.2 172.27,-134.17 163.36,-139.9 168.88,-144.2"/>
<text text-anchor="middle" x="172" y="-154.4" font-family="Arial" font-size="7.00">contains</text>
</g>
<!-- Residence -->
<g id="node7" class="node">
<title>Residence</title>
<g id="a_node7"><a xlink:href="#Residence" xlink:title="&lt;TABLE&gt;">
<polygon fill="lightblue" stroke="transparent" points="8.5,-102 8.5,-116 137.5,-116 137.5,-102 8.5,-102"/>
<polygon fill="none" stroke="black" points="8.5,-102 8.5,-116 137.5,-116 137.5,-102 8.5,-102"/>
<text text-anchor="start" x="55" y="-107.4" font-family="Arial" font-size="7.00"> Residence</text>
<polygon fill="lightblue" stroke="transparent" points="8.5,-88 8.5,-102 58.5,-102 58.5,-88 8.5,-88"/>
<polygon fill="none" stroke="black" points="8.5,-88 8.5,-102 58.5,-102 58.5,-88 8.5,-88"/>
<text text-anchor="start" x="20" y="-93.4" font-family="Arial" font-size="7.00">Attribute</text>
<polygon fill="lightblue" stroke="transparent" points="58.5,-88 58.5,-102 108.5,-102 108.5,-88 58.5,-88"/>
<polygon fill="none" stroke="black" points="58.5,-88 58.5,-102 108.5,-102 108.5,-88 58.5,-88"/>
<text text-anchor="start" x="75.5" y="-93.4" font-family="Arial" font-size="7.00">Field</text>
<polygon fill="lightblue" stroke="transparent" points="108.5,-88 108.5,-102 137.5,-102 137.5,-88 108.5,-88"/>
<polygon fill="none" stroke="black" points="108.5,-88 108.5,-102 137.5,-102 137.5,-88 108.5,-88"/>
<text text-anchor="start" x="111.5" y="-93.4" font-family="Arial" font-size="7.00">Occurs</text>
<polygon fill="none" stroke="black" points="8.5,-74 8.5,-88 58.5,-88 58.5,-74 8.5,-74"/>
<text text-anchor="start" x="11.5" y="-79.4" font-family="Arial" font-size="7.00">Address</text>
<polygon fill="none" stroke="black" points="58.5,-74 58.5,-88 108.5,-88 108.5,-74 58.5,-74"/>
<text text-anchor="start" x="61.5" y="-79.4" font-family="Arial" font-size="7.00">Address</text>
<polygon fill="none" stroke="black" points="108.5,-74 108.5,-88 137.5,-88 137.5,-74 108.5,-74"/>
<polygon fill="none" stroke="black" points="8.5,-60 8.5,-74 58.5,-74 58.5,-60 8.5,-60"/>
<text text-anchor="start" x="11.5" y="-65.4" font-family="Arial" font-size="7.00">Characteristic</text>
<polygon fill="none" stroke="black" points="58.5,-60 58.5,-74 108.5,-74 108.5,-60 58.5,-60"/>
<text text-anchor="start" x="61.5" y="-65.4" font-family="Arial" font-size="7.00">Characteristic</text>
<polygon fill="none" stroke="black" points="108.5,-60 108.5,-74 137.5,-74 137.5,-60 108.5,-60"/>
<text text-anchor="start" x="111.5" y="-65.4" font-family="Arial" font-size="7.00">many</text>
<polygon fill="none" stroke="black" points="8.5,-46 8.5,-60 58.5,-60 58.5,-46 8.5,-46"/>
<text text-anchor="start" x="11.5" y="-51.4" font-family="Arial" font-size="7.00">Identifier</text>
<polygon fill="none" stroke="black" points="58.5,-46 58.5,-60 108.5,-60 108.5,-46 58.5,-46"/>
<text text-anchor="start" x="61.5" y="-51.4" font-family="Arial" font-size="7.00">Identifier</text>
<polygon fill="none" stroke="black" points="108.5,-46 108.5,-60 137.5,-60 137.5,-46 108.5,-46"/>
<text text-anchor="start" x="111.5" y="-51.4" font-family="Arial" font-size="7.00">many</text>
<polygon fill="none" stroke="black" points="8.5,-32 8.5,-46 58.5,-46 58.5,-32 8.5,-32"/>
<text text-anchor="start" x="11.5" y="-37.4" font-family="Arial" font-size="7.00">Position</text>
<polygon fill="none" stroke="black" points="58.5,-32 58.5,-46 108.5,-46 108.5,-32 58.5,-32"/>
<text text-anchor="start" x="61.5" y="-37.4" font-family="Arial" font-size="7.00">Position</text>
<polygon fill="none" stroke="black" points="108.5,-32 108.5,-46 137.5,-46 137.5,-32 108.5,-32"/>
<polygon fill="none" stroke="black" points="8.5,-18 8.5,-32 58.5,-32 58.5,-18 8.5,-18"/>
<text text-anchor="start" x="11.5" y="-23.4" font-family="Arial" font-size="7.00">Area</text>
<polygon fill="none" stroke="black" points="58.5,-18 58.5,-32 108.5,-32 108.5,-18 58.5,-18"/>
<text text-anchor="start" x="61.5" y="-23.4" font-family="Arial" font-size="7.00">Identifier</text>
<polygon fill="none" stroke="black" points="108.5,-18 108.5,-32 137.5,-32 137.5,-18 108.5,-18"/>
<text text-anchor="start" x="111.5" y="-23.4" font-family="Arial" font-size="7.00">many</text>
</a>
</g>
</g>
<!-- Household&#45;&gt;Residence -->
<g id="edge5" class="edge">
<title>Household&#45;&gt;Residence</title>
<path fill="none" stroke="black" d="M93.67,-205.61C90.42,-184.46 86.01,-155.84 82.07,-130.18"/>
<polygon fill="black" stroke="black" points="85.5,-129.49 80.52,-120.14 78.58,-130.56 85.5,-129.49"/>
<text text-anchor="middle" x="102" y="-154.4" font-family="Arial" font-size="7.00">resides at</text>
</g>
<!-- Need -->
<g id="node4" class="node">
<title>Need</title>
<g id="a_node4"><a xlink:href="#Need" xlink:title="&lt;TABLE&gt;">
<polygon fill="lightblue" stroke="transparent" points="79.5,-580 79.5,-594 201.5,-594 201.5,-580 79.5,-580"/>
<polygon fill="none" stroke="black" points="79.5,-580 79.5,-594 201.5,-594 201.5,-580 79.5,-580"/>
<text text-anchor="start" x="131" y="-585.4" font-family="Arial" font-size="7.00"> Need</text>
<polygon fill="lightblue" stroke="transparent" points="79.5,-566 79.5,-580 122.5,-580 122.5,-566 79.5,-566"/>
<polygon fill="none" stroke="black" points="79.5,-566 79.5,-580 122.5,-580 122.5,-566 79.5,-566"/>
<text text-anchor="start" x="87.5" y="-571.4" font-family="Arial" font-size="7.00">Attribute</text>
<polygon fill="lightblue" stroke="transparent" points="122.5,-566 122.5,-580 172.5,-580 172.5,-566 122.5,-566"/>
<polygon fill="none" stroke="black" points="122.5,-566 122.5,-580 172.5,-580 172.5,-566 122.5,-566"/>
<text text-anchor="start" x="139.5" y="-571.4" font-family="Arial" font-size="7.00">Field</text>
<polygon fill="lightblue" stroke="transparent" points="172.5,-566 172.5,-580 201.5,-580 201.5,-566 172.5,-566"/>
<polygon fill="none" stroke="black" points="172.5,-566 172.5,-580 201.5,-580 201.5,-566 172.5,-566"/>
<text text-anchor="start" x="175.5" y="-571.4" font-family="Arial" font-size="7.00">Occurs</text>
<polygon fill="none" stroke="black" points="79.5,-552 79.5,-566 122.5,-566 122.5,-552 79.5,-552"/>
<text text-anchor="start" x="82.5" y="-557.4" font-family="Arial" font-size="7.00">Type</text>
<polygon fill="none" stroke="black" points="122.5,-552 122.5,-566 172.5,-566 172.5,-552 122.5,-552"/>
<text text-anchor="start" x="125.5" y="-557.4" font-family="Arial" font-size="7.00">Characteristic</text>
<polygon fill="none" stroke="black" points="172.5,-552 172.5,-566 201.5,-566 201.5,-552 172.5,-552"/>
<text text-anchor="start" x="175.5" y="-557.4" font-family="Arial" font-size="7.00">once</text>
<polygon fill="none" stroke="black" points="79.5,-538 79.5,-552 122.5,-552 122.5,-538 79.5,-538"/>
<text text-anchor="start" x="82.5" y="-543.4" font-family="Arial" font-size="7.00">Rationale</text>
<polygon fill="none" stroke="black" points="122.5,-538 122.5,-552 172.5,-552 172.5,-538 122.5,-538"/>
<text text-anchor="start" x="125.5" y="-543.4" font-family="Arial" font-size="7.00">text</text>
<polygon fill="none" stroke="black" points="172.5,-538 172.5,-552 201.5,-552 201.5,-538 172.5,-538"/>
<polygon fill="none" stroke="black" points="79.5,-524 79.5,-538 122.5,-538 122.5,-524 79.5,-524"/>
<text text-anchor="start" x="82.5" y="-529.4" font-family="Arial" font-size="7.00">Date</text>
<polygon fill="none" stroke="black" points="122.5,-524 122.5,-538 172.5,-538 172.5,-524 122.5,-524"/>
<text text-anchor="start" x="125.5" y="-529.4" font-family="Arial" font-size="7.00">date</text>
<polygon fill="none" stroke="black" points="172.5,-524 172.5,-538 201.5,-538 201.5,-524 172.5,-524"/>
<polygon fill="none" stroke="black" points="79.5,-510 79.5,-524 122.5,-524 122.5,-510 79.5,-510"/>
<text text-anchor="start" x="82.5" y="-515.4" font-family="Arial" font-size="7.00">EndDate</text>
<polygon fill="none" stroke="black" points="122.5,-510 122.5,-524 172.5,-524 172.5,-510 122.5,-510"/>
<text text-anchor="start" x="125.5" y="-515.4" font-family="Arial" font-size="7.00">date</text>
<polygon fill="none" stroke="black" points="172.5,-510 172.5,-524 201.5,-524 201.5,-510 172.5,-510"/>
<polygon fill="none" stroke="black" points="79.5,-496 79.5,-510 122.5,-510 122.5,-496 79.5,-496"/>
<text text-anchor="start" x="82.5" y="-501.4" font-family="Arial" font-size="7.00">Target Date</text>
<polygon fill="none" stroke="black" points="122.5,-496 122.5,-510 172.5,-510 172.5,-496 122.5,-496"/>
<text text-anchor="start" x="125.5" y="-501.4" font-family="Arial" font-size="7.00">date</text>
<polygon fill="none" stroke="black" points="172.5,-496 172.5,-510 201.5,-510 201.5,-496 172.5,-496"/>
</a>
</g>
</g>
<!-- Need&#45;&gt;Case -->
<g id="edge9" class="edge">
<title>Need&#45;&gt;Case</title>
<path fill="none" stroke="black" d="M196.91,-491.82C209.7,-479.99 223.36,-467.35 236.44,-455.26"/>
<polygon fill="black" stroke="black" points="239.1,-457.57 244.06,-448.21 234.34,-452.43 239.1,-457.57"/>
<text text-anchor="middle" x="228.5" y="-468.4" font-family="Arial" font-size="7.00">case</text>
</g>
<!-- Need&#45;&gt;Household -->
<g id="edge8" class="edge">
<title>Need&#45;&gt;Household</title>
<path fill="none" stroke="black" d="M133.33,-491.92C125.1,-432.14 111.76,-335.3 104.2,-280.42"/>
<polygon fill="black" stroke="black" points="107.65,-279.78 102.82,-270.35 100.71,-280.73 107.65,-279.78"/>
<text text-anchor="middle" x="136.5" y="-393.4" font-family="Arial" font-size="7.00">about</text>
</g>
<!-- Need&#45;&gt;Person -->
<g id="edge7" class="edge">
<title>Need&#45;&gt;Person</title>
<path fill="none" stroke="black" d="M149.95,-491.7C165.16,-407.49 195.16,-241.49 212.74,-144.14"/>
<polygon fill="black" stroke="black" points="216.23,-144.53 214.56,-134.07 209.34,-143.29 216.23,-144.53"/>
<text text-anchor="middle" x="191.5" y="-318.4" font-family="Arial" font-size="7.00">about</text>
</g>
<!-- SituationAssessment -->
<g id="node8" class="node">
<title>SituationAssessment</title>
<g id="a_node8"><a xlink:href="#SituationAssessment" xlink:title="&lt;TABLE&gt;">
<polygon fill="lightblue" stroke="transparent" points="385.5,-573 385.5,-587 514.5,-587 514.5,-573 385.5,-573"/>
<polygon fill="none" stroke="black" points="385.5,-573 385.5,-587 514.5,-587 514.5,-573 385.5,-573"/>
<text text-anchor="start" x="415.5" y="-578.4" font-family="Arial" font-size="7.00"> SituationAssessment</text>
<polygon fill="lightblue" stroke="transparent" points="385.5,-559 385.5,-573 435.5,-573 435.5,-559 385.5,-559"/>
<polygon fill="none" stroke="black" points="385.5,-559 385.5,-573 435.5,-573 435.5,-559 385.5,-559"/>
<text text-anchor="start" x="397" y="-564.4" font-family="Arial" font-size="7.00">Attribute</text>
<polygon fill="lightblue" stroke="transparent" points="435.5,-559 435.5,-573 485.5,-573 485.5,-559 435.5,-559"/>
<polygon fill="none" stroke="black" points="435.5,-559 435.5,-573 485.5,-573 485.5,-559 435.5,-559"/>
<text text-anchor="start" x="452.5" y="-564.4" font-family="Arial" font-size="7.00">Field</text>
<polygon fill="lightblue" stroke="transparent" points="485.5,-559 485.5,-573 514.5,-573 514.5,-559 485.5,-559"/>
<polygon fill="none" stroke="black" points="485.5,-559 485.5,-573 514.5,-573 514.5,-559 485.5,-559"/>
<text text-anchor="start" x="488.5" y="-564.4" font-family="Arial" font-size="7.00">Occurs</text>
<polygon fill="none" stroke="black" points="385.5,-545 385.5,-559 435.5,-559 435.5,-545 385.5,-545"/>
<text text-anchor="start" x="388.5" y="-550.4" font-family="Arial" font-size="7.00">Date</text>
<polygon fill="none" stroke="black" points="435.5,-545 435.5,-559 485.5,-559 485.5,-545 435.5,-545"/>
<text text-anchor="start" x="438.5" y="-550.4" font-family="Arial" font-size="7.00">date</text>
<polygon fill="none" stroke="black" points="485.5,-545 485.5,-559 514.5,-559 514.5,-545 485.5,-545"/>
<polygon fill="none" stroke="black" points="385.5,-531 385.5,-545 435.5,-545 435.5,-531 385.5,-531"/>
<text text-anchor="start" x="388.5" y="-536.4" font-family="Arial" font-size="7.00">Situation</text>
<polygon fill="none" stroke="black" points="435.5,-531 435.5,-545 485.5,-545 485.5,-531 435.5,-531"/>
<text text-anchor="start" x="438.5" y="-536.4" font-family="Arial" font-size="7.00">text</text>
<polygon fill="none" stroke="black" points="485.5,-531 485.5,-545 514.5,-545 514.5,-531 485.5,-531"/>
<polygon fill="none" stroke="black" points="385.5,-517 385.5,-531 435.5,-531 435.5,-517 385.5,-517"/>
<text text-anchor="start" x="388.5" y="-522.4" font-family="Arial" font-size="7.00">Assessment</text>
<polygon fill="none" stroke="black" points="435.5,-517 435.5,-531 485.5,-531 485.5,-517 435.5,-517"/>
<text text-anchor="start" x="438.5" y="-522.4" font-family="Arial" font-size="7.00">text</text>
<polygon fill="none" stroke="black" points="485.5,-517 485.5,-531 514.5,-531 514.5,-517 485.5,-517"/>
<polygon fill="none" stroke="black" points="385.5,-503 385.5,-517 435.5,-517 435.5,-503 385.5,-503"/>
<text text-anchor="start" x="388.5" y="-508.4" font-family="Arial" font-size="7.00">RiskCategory</text>
<polygon fill="none" stroke="black" points="435.5,-503 435.5,-517 485.5,-517 485.5,-503 435.5,-503"/>
<text text-anchor="start" x="438.5" y="-508.4" font-family="Arial" font-size="7.00">Characteristic</text>
<polygon fill="none" stroke="black" points="485.5,-503 485.5,-517 514.5,-517 514.5,-503 485.5,-503"/>
</a>
</g>
</g>
<!-- SituationAssessment&#45;&gt;Case -->
<g id="edge11" class="edge">
<title>SituationAssessment&#45;&gt;Case</title>
<path fill="none" stroke="black" d="M403.99,-498.79C390.16,-485.06 374.75,-469.76 360.14,-455.24"/>
<polygon fill="black" stroke="black" points="362.61,-452.76 353.04,-448.19 357.67,-457.72 362.61,-452.76"/>
<text text-anchor="middle" x="378" y="-468.4" font-family="Arial" font-size="7.00">of</text>
</g>
<!-- SituationAssessment&#45;&gt;Organisation -->
<g id="edge10" class="edge">
<title>SituationAssessment&#45;&gt;Organisation</title>
<path fill="none" stroke="black" d="M444.78,-499C439.51,-448.74 430.91,-366.79 424.77,-308.33"/>
<polygon fill="black" stroke="black" points="428.22,-307.65 423.7,-298.07 421.26,-308.38 428.22,-307.65"/>
<text text-anchor="middle" x="443" y="-393.4" font-family="Arial" font-size="7.00">by</text>
</g>
</g>
</svg>
