<?xml version="1.0" encoding="UTF-8" standalone="no"?>
<!DOCTYPE svg PUBLIC "-//W3C//DTD SVG 1.1//EN"
 "http://www.w3.org/Graphics/SVG/1.1/DTD/svg11.dtd">
<!-- Generated by graphviz version 2.44.1 (20200629.0846)
 -->
<!-- Pages: 1 -->
<svg width="486pt" height="564pt"
 viewBox="0.00 0.00 486.00 564.00" xmlns="http://www.w3.org/2000/svg" xmlns:xlink="http://www.w3.org/1999/xlink">
<g id="graph0" class="graph" transform="scale(1 1) rotate(0) translate(4 560)">
<polygon fill="white" stroke="transparent" points="-4,4 -4,-560 482,-560 482,4 -4,4"/>
<!-- Case -->
<g id="node1" class="node">
<title>Case</title>
<g id="a_node1"><a xlink:href="#Case" xlink:title="&lt;TABLE&gt;">
<polygon fill="lightblue" stroke="transparent" points="228.5,-538 228.5,-552 357.5,-552 357.5,-538 228.5,-538"/>
<polygon fill="none" stroke="black" points="228.5,-538 228.5,-552 357.5,-552 357.5,-538 228.5,-538"/>
<text text-anchor="start" x="283.5" y="-543.4" font-family="Arial" font-size="7.00"> Case</text>
<polygon fill="lightblue" stroke="transparent" points="228.5,-524 228.5,-538 278.5,-538 278.5,-524 228.5,-524"/>
<polygon fill="none" stroke="black" points="228.5,-524 228.5,-538 278.5,-538 278.5,-524 228.5,-524"/>
<text text-anchor="start" x="240" y="-529.4" font-family="Arial" font-size="7.00">Attribute</text>
<polygon fill="lightblue" stroke="transparent" points="278.5,-524 278.5,-538 328.5,-538 328.5,-524 278.5,-524"/>
<polygon fill="none" stroke="black" points="278.5,-524 278.5,-538 328.5,-538 328.5,-524 278.5,-524"/>
<text text-anchor="start" x="295.5" y="-529.4" font-family="Arial" font-size="7.00">Field</text>
<polygon fill="lightblue" stroke="transparent" points="328.5,-524 328.5,-538 357.5,-538 357.5,-524 328.5,-524"/>
<polygon fill="none" stroke="black" points="328.5,-524 328.5,-538 357.5,-538 357.5,-524 328.5,-524"/>
<text text-anchor="start" x="331.5" y="-529.4" font-family="Arial" font-size="7.00">Occurs</text>
<polygon fill="none" stroke="black" points="228.5,-510 228.5,-524 278.5,-524 278.5,-510 228.5,-510"/>
<text text-anchor="start" x="231.5" y="-515.4" font-family="Arial" font-size="7.00">Reference</text>
<polygon fill="none" stroke="black" points="278.5,-510 278.5,-524 328.5,-524 328.5,-510 278.5,-510"/>
<text text-anchor="start" x="281.5" y="-515.4" font-family="Arial" font-size="7.00">Identifier</text>
<polygon fill="none" stroke="black" points="328.5,-510 328.5,-524 357.5,-524 357.5,-510 328.5,-510"/>
<polygon fill="none" stroke="black" points="228.5,-496 228.5,-510 278.5,-510 278.5,-496 228.5,-496"/>
<text text-anchor="start" x="231.5" y="-501.4" font-family="Arial" font-size="7.00">Status</text>
<polygon fill="none" stroke="black" points="278.5,-496 278.5,-510 328.5,-510 328.5,-496 278.5,-496"/>
<text text-anchor="start" x="281.5" y="-501.4" font-family="Arial" font-size="7.00">lookup</text>
<polygon fill="none" stroke="black" points="328.5,-496 328.5,-510 357.5,-510 357.5,-496 328.5,-496"/>
<polygon fill="none" stroke="black" points="228.5,-482 228.5,-496 278.5,-496 278.5,-482 228.5,-482"/>
<text text-anchor="start" x="231.5" y="-487.4" font-family="Arial" font-size="7.00">RiskCategory</text>
<polygon fill="none" stroke="black" points="278.5,-482 278.5,-496 328.5,-496 328.5,-482 278.5,-482"/>
<text text-anchor="start" x="281.5" y="-487.4" font-family="Arial" font-size="7.00">Characteristic</text>
<polygon fill="none" stroke="black" points="328.5,-482 328.5,-496 357.5,-496 357.5,-482 328.5,-482"/>
<polygon fill="none" stroke="black" points="228.5,-468 228.5,-482 278.5,-482 278.5,-468 228.5,-468"/>
<text text-anchor="start" x="231.5" y="-473.4" font-family="Arial" font-size="7.00">DateRaised</text>
<polygon fill="none" stroke="black" points="278.5,-468 278.5,-482 328.5,-482 328.5,-468 278.5,-468"/>
<text text-anchor="start" x="281.5" y="-473.4" font-family="Arial" font-size="7.00">date</text>
<polygon fill="none" stroke="black" points="328.5,-468 328.5,-482 357.5,-482 357.5,-468 328.5,-468"/>
<polygon fill="none" stroke="black" points="228.5,-454 228.5,-468 278.5,-468 278.5,-454 228.5,-454"/>
<text text-anchor="start" x="231.5" y="-459.4" font-family="Arial" font-size="7.00">DateClosed</text>
<polygon fill="none" stroke="black" points="278.5,-454 278.5,-468 328.5,-468 328.5,-454 278.5,-454"/>
<text text-anchor="start" x="281.5" y="-459.4" font-family="Arial" font-size="7.00">date</text>
<polygon fill="none" stroke="black" points="328.5,-454 328.5,-468 357.5,-468 357.5,-454 328.5,-454"/>
</a>
</g>
</g>
<!-- Household -->
<g id="node2" class="node">
<title>Household</title>
<g id="a_node2"><a xlink:href="#Household" xlink:title="&lt;TABLE&gt;">
<polygon fill="lightblue" stroke="transparent" points="153.5,-388 153.5,-402 282.5,-402 282.5,-388 153.5,-388"/>
<polygon fill="none" stroke="black" points="153.5,-388 153.5,-402 282.5,-402 282.5,-388 153.5,-388"/>
<text text-anchor="start" x="200" y="-393.4" font-family="Arial" font-size="7.00"> Household</text>
<polygon fill="lightblue" stroke="transparent" points="153.5,-374 153.5,-388 203.5,-388 203.5,-374 153.5,-374"/>
<polygon fill="none" stroke="black" points="153.5,-374 153.5,-388 203.5,-388 203.5,-374 153.5,-374"/>
<text text-anchor="start" x="165" y="-379.4" font-family="Arial" font-size="7.00">Attribute</text>
<polygon fill="lightblue" stroke="transparent" points="203.5,-374 203.5,-388 253.5,-388 253.5,-374 203.5,-374"/>
<polygon fill="none" stroke="black" points="203.5,-374 203.5,-388 253.5,-388 253.5,-374 203.5,-374"/>
<text text-anchor="start" x="220.5" y="-379.4" font-family="Arial" font-size="7.00">Field</text>
<polygon fill="lightblue" stroke="transparent" points="253.5,-374 253.5,-388 282.5,-388 282.5,-374 253.5,-374"/>
<polygon fill="none" stroke="black" points="253.5,-374 253.5,-388 282.5,-388 282.5,-374 253.5,-374"/>
<text text-anchor="start" x="256.5" y="-379.4" font-family="Arial" font-size="7.00">Occurs</text>
<polygon fill="none" stroke="black" points="153.5,-360 153.5,-374 203.5,-374 203.5,-360 153.5,-360"/>
<text text-anchor="start" x="156.5" y="-365.4" font-family="Arial" font-size="7.00">Characteristic</text>
<polygon fill="none" stroke="black" points="203.5,-360 203.5,-374 253.5,-374 253.5,-360 203.5,-360"/>
<text text-anchor="start" x="206.5" y="-365.4" font-family="Arial" font-size="7.00">Characteristic</text>
<polygon fill="none" stroke="black" points="253.5,-360 253.5,-374 282.5,-374 282.5,-360 253.5,-360"/>
<text text-anchor="start" x="256.5" y="-365.4" font-family="Arial" font-size="7.00">many</text>
<polygon fill="none" stroke="black" points="153.5,-346 153.5,-360 203.5,-360 203.5,-346 153.5,-346"/>
<text text-anchor="start" x="156.5" y="-351.4" font-family="Arial" font-size="7.00">Identifier</text>
<polygon fill="none" stroke="black" points="203.5,-346 203.5,-360 253.5,-360 253.5,-346 203.5,-346"/>
<text text-anchor="start" x="206.5" y="-351.4" font-family="Arial" font-size="7.00">Identifier</text>
<polygon fill="none" stroke="black" points="253.5,-346 253.5,-360 282.5,-360 282.5,-346 253.5,-346"/>
<text text-anchor="start" x="256.5" y="-351.4" font-family="Arial" font-size="7.00">many</text>
</a>
</g>
</g>
<!-- Case&#45;&gt;Household -->
<g id="edge2" class="edge">
<title>Case&#45;&gt;Household</title>
<path fill="none" stroke="black" d="M261.78,-449.98C254.82,-438.19 247.54,-425.87 240.94,-414.69"/>
<polygon fill="black" stroke="black" points="243.91,-412.83 235.81,-406 237.88,-416.39 243.91,-412.83"/>
<text text-anchor="middle" x="260.5" y="-426.4" font-family="Arial" font-size="7.00">about</text>
</g>
<!-- Organisation -->
<g id="node3" class="node">
<title>Organisation</title>
<g id="a_node3"><a xlink:href="#Organisation" xlink:title="&lt;TABLE&gt;">
<polygon fill="lightblue" stroke="transparent" points="306.5,-102 306.5,-116 435.5,-116 435.5,-102 306.5,-102"/>
<polygon fill="none" stroke="black" points="306.5,-102 306.5,-116 435.5,-116 435.5,-102 306.5,-102"/>
<text text-anchor="start" x="350" y="-107.4" font-family="Arial" font-size="7.00"> Organisation</text>
<polygon fill="lightblue" stroke="transparent" points="306.5,-88 306.5,-102 359.5,-102 359.5,-88 306.5,-88"/>
<polygon fill="none" stroke="black" points="306.5,-88 306.5,-102 359.5,-102 359.5,-88 306.5,-88"/>
<text text-anchor="start" x="319.5" y="-93.4" font-family="Arial" font-size="7.00">Attribute</text>
<polygon fill="lightblue" stroke="transparent" points="359.5,-88 359.5,-102 406.5,-102 406.5,-88 359.5,-88"/>
<polygon fill="none" stroke="black" points="359.5,-88 359.5,-102 406.5,-102 406.5,-88 359.5,-88"/>
<text text-anchor="start" x="375" y="-93.4" font-family="Arial" font-size="7.00">Field</text>
<polygon fill="lightblue" stroke="transparent" points="406.5,-88 406.5,-102 435.5,-102 435.5,-88 406.5,-88"/>
<polygon fill="none" stroke="black" points="406.5,-88 406.5,-102 435.5,-102 435.5,-88 406.5,-88"/>
<text text-anchor="start" x="409.5" y="-93.4" font-family="Arial" font-size="7.00">Occurs</text>
<polygon fill="none" stroke="black" points="306.5,-74 306.5,-88 359.5,-88 359.5,-74 306.5,-74"/>
<text text-anchor="start" x="309.5" y="-79.4" font-family="Arial" font-size="7.00">Identifier</text>
<polygon fill="none" stroke="black" points="359.5,-74 359.5,-88 406.5,-88 406.5,-74 359.5,-74"/>
<text text-anchor="start" x="362.5" y="-79.4" font-family="Arial" font-size="7.00">Identifier</text>
<polygon fill="none" stroke="black" points="406.5,-74 406.5,-88 435.5,-88 435.5,-74 406.5,-74"/>
<text text-anchor="start" x="409.5" y="-79.4" font-family="Arial" font-size="7.00">many</text>
<polygon fill="none" stroke="black" points="306.5,-60 306.5,-74 359.5,-74 359.5,-60 306.5,-60"/>
<text text-anchor="start" x="309.5" y="-65.4" font-family="Arial" font-size="7.00">Type</text>
<polygon fill="none" stroke="black" points="359.5,-60 359.5,-74 406.5,-74 406.5,-60 359.5,-60"/>
<text text-anchor="start" x="362.5" y="-65.4" font-family="Arial" font-size="7.00">lookup</text>
<polygon fill="none" stroke="black" points="406.5,-60 406.5,-74 435.5,-74 435.5,-60 406.5,-60"/>
<polygon fill="none" stroke="black" points="306.5,-46 306.5,-60 359.5,-60 359.5,-46 306.5,-46"/>
<text text-anchor="start" x="309.5" y="-51.4" font-family="Arial" font-size="7.00">Name</text>
<polygon fill="none" stroke="black" points="359.5,-46 359.5,-60 406.5,-60 406.5,-46 359.5,-46"/>
<text text-anchor="start" x="362.5" y="-51.4" font-family="Arial" font-size="7.00">string</text>
<polygon fill="none" stroke="black" points="406.5,-46 406.5,-60 435.5,-60 435.5,-46 406.5,-46"/>
<polygon fill="none" stroke="black" points="306.5,-32 306.5,-46 359.5,-46 359.5,-32 306.5,-32"/>
<text text-anchor="start" x="309.5" y="-37.4" font-family="Arial" font-size="7.00">Department</text>
<polygon fill="none" stroke="black" points="359.5,-32 359.5,-46 406.5,-46 406.5,-32 359.5,-32"/>
<text text-anchor="start" x="362.5" y="-37.4" font-family="Arial" font-size="7.00">string</text>
<polygon fill="none" stroke="black" points="406.5,-32 406.5,-46 435.5,-46 435.5,-32 406.5,-32"/>
<polygon fill="none" stroke="black" points="306.5,-18 306.5,-32 359.5,-32 359.5,-18 306.5,-18"/>
<text text-anchor="start" x="309.5" y="-23.4" font-family="Arial" font-size="7.00">ContactPerson</text>
<polygon fill="none" stroke="black" points="359.5,-18 359.5,-32 406.5,-32 406.5,-18 359.5,-18"/>
<text text-anchor="start" x="362.5" y="-23.4" font-family="Arial" font-size="7.00">string</text>
<polygon fill="none" stroke="black" points="406.5,-18 406.5,-32 435.5,-32 435.5,-18 406.5,-18"/>
<polygon fill="none" stroke="black" points="306.5,-4 306.5,-18 359.5,-18 359.5,-4 306.5,-4"/>
<text text-anchor="start" x="309.5" y="-9.4" font-family="Arial" font-size="7.00">ContactPoint</text>
<polygon fill="none" stroke="black" points="359.5,-4 359.5,-18 406.5,-18 406.5,-4 359.5,-4"/>
<text text-anchor="start" x="362.5" y="-9.4" font-family="Arial" font-size="7.00">ContactPoint</text>
<polygon fill="none" stroke="black" points="406.5,-4 406.5,-18 435.5,-18 435.5,-4 406.5,-4"/>
<text text-anchor="start" x="409.5" y="-9.4" font-family="Arial" font-size="7.00">many</text>
</a>
</g>
</g>
<!-- Case&#45;&gt;Organisation -->
<g id="edge4" class="edge">
<title>Case&#45;&gt;Organisation</title>
<path fill="none" stroke="black" d="M301.75,-449.68C315.82,-370.15 342.6,-218.76 358.26,-130.22"/>
<polygon fill="black" stroke="black" points="361.72,-130.72 360.02,-120.27 354.83,-129.51 361.72,-130.72"/>
<text text-anchor="middle" x="344" y="-318.4" font-family="Arial" font-size="7.00">assigned to</text>
</g>
<!-- Person -->
<g id="node4" class="node">
<title>Person</title>
<g id="a_node4"><a xlink:href="#Person" xlink:title="&lt;TABLE&gt;">
<polygon fill="lightblue" stroke="transparent" points="8.5,-280 8.5,-294 119.5,-294 119.5,-280 8.5,-280"/>
<polygon fill="none" stroke="black" points="8.5,-280 8.5,-294 119.5,-294 119.5,-280 8.5,-280"/>
<text text-anchor="start" x="51.5" y="-285.4" font-family="Arial" font-size="7.00"> Person</text>
<polygon fill="lightblue" stroke="transparent" points="8.5,-266 8.5,-280 56.5,-280 56.5,-266 8.5,-266"/>
<polygon fill="none" stroke="black" points="8.5,-266 8.5,-280 56.5,-280 56.5,-266 8.5,-266"/>
<text text-anchor="start" x="19" y="-271.4" font-family="Arial" font-size="7.00">Attribute</text>
<polygon fill="lightblue" stroke="transparent" points="56.5,-266 56.5,-280 90.5,-280 90.5,-266 56.5,-266"/>
<polygon fill="none" stroke="black" points="56.5,-266 56.5,-280 90.5,-280 90.5,-266 56.5,-266"/>
<text text-anchor="start" x="65.5" y="-271.4" font-family="Arial" font-size="7.00">Field</text>
<polygon fill="lightblue" stroke="transparent" points="90.5,-266 90.5,-280 119.5,-280 119.5,-266 90.5,-266"/>
<polygon fill="none" stroke="black" points="90.5,-266 90.5,-280 119.5,-280 119.5,-266 90.5,-266"/>
<text text-anchor="start" x="93.5" y="-271.4" font-family="Arial" font-size="7.00">Occurs</text>
<polygon fill="none" stroke="black" points="8.5,-252 8.5,-266 56.5,-266 56.5,-252 8.5,-252"/>
<text text-anchor="start" x="11.5" y="-257.4" font-family="Arial" font-size="7.00">Title</text>
<polygon fill="none" stroke="black" points="56.5,-252 56.5,-266 90.5,-266 90.5,-252 56.5,-252"/>
<text text-anchor="start" x="59.5" y="-257.4" font-family="Arial" font-size="7.00">string</text>
<polygon fill="none" stroke="black" points="90.5,-252 90.5,-266 119.5,-266 119.5,-252 90.5,-252"/>
<polygon fill="none" stroke="black" points="8.5,-238 8.5,-252 56.5,-252 56.5,-238 8.5,-238"/>
<text text-anchor="start" x="11.5" y="-243.4" font-family="Arial" font-size="7.00">FamilyName</text>
<polygon fill="none" stroke="black" points="56.5,-238 56.5,-252 90.5,-252 90.5,-238 56.5,-238"/>
<text text-anchor="start" x="59.5" y="-243.4" font-family="Arial" font-size="7.00">string</text>
<polygon fill="none" stroke="black" points="90.5,-238 90.5,-252 119.5,-252 119.5,-238 90.5,-238"/>
<polygon fill="none" stroke="black" points="8.5,-224 8.5,-238 56.5,-238 56.5,-224 8.5,-224"/>
<text text-anchor="start" x="11.5" y="-229.4" font-family="Arial" font-size="7.00">GivenNames</text>
<polygon fill="none" stroke="black" points="56.5,-224 56.5,-238 90.5,-238 90.5,-224 56.5,-224"/>
<text text-anchor="start" x="59.5" y="-229.4" font-family="Arial" font-size="7.00">string</text>
<polygon fill="none" stroke="black" points="90.5,-224 90.5,-238 119.5,-238 119.5,-224 90.5,-224"/>
<polygon fill="none" stroke="black" points="8.5,-210 8.5,-224 56.5,-224 56.5,-210 8.5,-210"/>
<text text-anchor="start" x="11.5" y="-215.4" font-family="Arial" font-size="7.00">Alias</text>
<polygon fill="none" stroke="black" points="56.5,-210 56.5,-224 90.5,-224 90.5,-210 56.5,-210"/>
<text text-anchor="start" x="59.5" y="-215.4" font-family="Arial" font-size="7.00">string</text>
<polygon fill="none" stroke="black" points="90.5,-210 90.5,-224 119.5,-224 119.5,-210 90.5,-210"/>
<text text-anchor="start" x="93.5" y="-215.4" font-family="Arial" font-size="7.00">many</text>
<polygon fill="none" stroke="black" points="8.5,-196 8.5,-210 56.5,-210 56.5,-196 8.5,-196"/>
<text text-anchor="start" x="11.5" y="-201.4" font-family="Arial" font-size="7.00">BirthDate</text>
<polygon fill="none" stroke="black" points="56.5,-196 56.5,-210 90.5,-210 90.5,-196 56.5,-196"/>
<text text-anchor="start" x="59.5" y="-201.4" font-family="Arial" font-size="7.00">date</text>
<polygon fill="none" stroke="black" points="90.5,-196 90.5,-210 119.5,-210 119.5,-196 90.5,-196"/>
<polygon fill="none" stroke="black" points="8.5,-182 8.5,-196 56.5,-196 56.5,-182 8.5,-182"/>
<text text-anchor="start" x="11.5" y="-187.4" font-family="Arial" font-size="7.00">Gender</text>
<polygon fill="none" stroke="black" points="56.5,-182 56.5,-196 90.5,-196 90.5,-182 56.5,-182"/>
<text text-anchor="start" x="59.5" y="-187.4" font-family="Arial" font-size="7.00">lookup</text>
<polygon fill="none" stroke="black" points="90.5,-182 90.5,-196 119.5,-196 119.5,-182 90.5,-182"/>
<polygon fill="none" stroke="black" points="8.5,-168 8.5,-182 56.5,-182 56.5,-168 8.5,-168"/>
<text text-anchor="start" x="11.5" y="-173.4" font-family="Arial" font-size="7.00">Identifier</text>
<polygon fill="none" stroke="black" points="56.5,-168 56.5,-182 90.5,-182 90.5,-168 56.5,-168"/>
<text text-anchor="start" x="59.5" y="-173.4" font-family="Arial" font-size="7.00">Identifier</text>
<polygon fill="none" stroke="black" points="90.5,-168 90.5,-182 119.5,-182 119.5,-168 90.5,-168"/>
<text text-anchor="start" x="93.5" y="-173.4" font-family="Arial" font-size="7.00">many</text>
</a>
</g>
</g>
<!-- Case&#45;&gt;Person -->
<g id="edge1" class="edge">
<title>Case&#45;&gt;Person</title>
<path fill="none" stroke="black" d="M219.96,-477.16C184.57,-461.69 144.03,-438.47 117.5,-406 94.83,-378.25 81.65,-340.99 74,-308.07"/>
<polygon fill="black" stroke="black" points="77.36,-307.03 71.8,-298.01 70.52,-308.52 77.36,-307.03"/>
<text text-anchor="middle" x="126.5" y="-372.4" font-family="Arial" font-size="7.00">about</text>
</g>
<!-- RiskAssessment -->
<g id="node6" class="node">
<title>RiskAssessment</title>
<g id="a_node6"><a xlink:href="#RiskAssessment" xlink:title="&lt;TABLE&gt;">
<polygon fill="lightblue" stroke="transparent" points="355.5,-388 355.5,-402 470.5,-402 470.5,-388 355.5,-388"/>
<polygon fill="none" stroke="black" points="355.5,-388 355.5,-402 470.5,-402 470.5,-388 355.5,-388"/>
<text text-anchor="start" x="385" y="-393.4" font-family="Arial" font-size="7.00"> RiskAssessment</text>
<polygon fill="lightblue" stroke="transparent" points="355.5,-374 355.5,-388 391.5,-388 391.5,-374 355.5,-374"/>
<polygon fill="none" stroke="black" points="355.5,-374 355.5,-388 391.5,-388 391.5,-374 355.5,-374"/>
<text text-anchor="start" x="360" y="-379.4" font-family="Arial" font-size="7.00">Attribute</text>
<polygon fill="lightblue" stroke="transparent" points="391.5,-374 391.5,-388 441.5,-388 441.5,-374 391.5,-374"/>
<polygon fill="none" stroke="black" points="391.5,-374 391.5,-388 441.5,-388 441.5,-374 391.5,-374"/>
<text text-anchor="start" x="408.5" y="-379.4" font-family="Arial" font-size="7.00">Field</text>
<polygon fill="lightblue" stroke="transparent" points="441.5,-374 441.5,-388 470.5,-388 470.5,-374 441.5,-374"/>
<polygon fill="none" stroke="black" points="441.5,-374 441.5,-388 470.5,-388 470.5,-374 441.5,-374"/>
<text text-anchor="start" x="444.5" y="-379.4" font-family="Arial" font-size="7.00">Occurs</text>
<polygon fill="none" stroke="black" points="355.5,-360 355.5,-374 391.5,-374 391.5,-360 355.5,-360"/>
<text text-anchor="start" x="358.5" y="-365.4" font-family="Arial" font-size="7.00">Date</text>
<polygon fill="none" stroke="black" points="391.5,-360 391.5,-374 441.5,-374 441.5,-360 391.5,-360"/>
<text text-anchor="start" x="394.5" y="-365.4" font-family="Arial" font-size="7.00">date</text>
<polygon fill="none" stroke="black" points="441.5,-360 441.5,-374 470.5,-374 470.5,-360 441.5,-360"/>
<polygon fill="none" stroke="black" points="355.5,-346 355.5,-360 391.5,-360 391.5,-346 355.5,-346"/>
<text text-anchor="start" x="358.5" y="-351.4" font-family="Arial" font-size="7.00">Category</text>
<polygon fill="none" stroke="black" points="391.5,-346 391.5,-360 441.5,-360 441.5,-346 391.5,-346"/>
<text text-anchor="start" x="394.5" y="-351.4" font-family="Arial" font-size="7.00">Characteristic</text>
<polygon fill="none" stroke="black" points="441.5,-346 441.5,-360 470.5,-360 470.5,-346 441.5,-346"/>
</a>
</g>
</g>
<!-- Case&#45;&gt;RiskAssessment -->
<g id="edge3" class="edge">
<title>Case&#45;&gt;RiskAssessment</title>
<path fill="none" stroke="black" d="M341.65,-449.98C353.23,-437.73 365.36,-424.89 376.25,-413.37"/>
<polygon fill="black" stroke="black" points="378.88,-415.68 383.21,-406 373.79,-410.87 378.88,-415.68"/>
<text text-anchor="middle" x="369.5" y="-426.4" font-family="Arial" font-size="7.00">risk</text>
</g>
<!-- Household&#45;&gt;Person -->
<g id="edge6" class="edge">
<title>Household&#45;&gt;Person</title>
<path fill="none" stroke="black" d="M183.58,-341.99C168.81,-328.48 151.29,-312.46 135.5,-298 135.24,-297.76 134.98,-297.53 134.72,-297.29"/>
<polygon fill="black" stroke="black" points="136.84,-294.48 127.1,-290.31 132.11,-299.64 136.84,-294.48"/>
<text text-anchor="middle" x="177" y="-318.4" font-family="Arial" font-size="7.00">contains</text>
</g>
<!-- Residence -->
<g id="node5" class="node">
<title>Residence</title>
<g id="a_node5"><a xlink:href="#Residence" xlink:title="&lt;TABLE&gt;">
<polygon fill="lightblue" stroke="transparent" points="153.5,-266 153.5,-280 282.5,-280 282.5,-266 153.5,-266"/>
<polygon fill="none" stroke="black" points="153.5,-266 153.5,-280 282.5,-280 282.5,-266 153.5,-266"/>
<text text-anchor="start" x="200" y="-271.4" font-family="Arial" font-size="7.00"> Residence</text>
<polygon fill="lightblue" stroke="transparent" points="153.5,-252 153.5,-266 203.5,-266 203.5,-252 153.5,-252"/>
<polygon fill="none" stroke="black" points="153.5,-252 153.5,-266 203.5,-266 203.5,-252 153.5,-252"/>
<text text-anchor="start" x="165" y="-257.4" font-family="Arial" font-size="7.00">Attribute</text>
<polygon fill="lightblue" stroke="transparent" points="203.5,-252 203.5,-266 253.5,-266 253.5,-252 203.5,-252"/>
<polygon fill="none" stroke="black" points="203.5,-252 203.5,-266 253.5,-266 253.5,-252 203.5,-252"/>
<text text-anchor="start" x="220.5" y="-257.4" font-family="Arial" font-size="7.00">Field</text>
<polygon fill="lightblue" stroke="transparent" points="253.5,-252 253.5,-266 282.5,-266 282.5,-252 253.5,-252"/>
<polygon fill="none" stroke="black" points="253.5,-252 253.5,-266 282.5,-266 282.5,-252 253.5,-252"/>
<text text-anchor="start" x="256.5" y="-257.4" font-family="Arial" font-size="7.00">Occurs</text>
<polygon fill="none" stroke="black" points="153.5,-238 153.5,-252 203.5,-252 203.5,-238 153.5,-238"/>
<text text-anchor="start" x="156.5" y="-243.4" font-family="Arial" font-size="7.00">Address</text>
<polygon fill="none" stroke="black" points="203.5,-238 203.5,-252 253.5,-252 253.5,-238 203.5,-238"/>
<text text-anchor="start" x="206.5" y="-243.4" font-family="Arial" font-size="7.00">Address</text>
<polygon fill="none" stroke="black" points="253.5,-238 253.5,-252 282.5,-252 282.5,-238 253.5,-238"/>
<polygon fill="none" stroke="black" points="153.5,-224 153.5,-238 203.5,-238 203.5,-224 153.5,-224"/>
<text text-anchor="start" x="156.5" y="-229.4" font-family="Arial" font-size="7.00">Characteristic</text>
<polygon fill="none" stroke="black" points="203.5,-224 203.5,-238 253.5,-238 253.5,-224 203.5,-224"/>
<text text-anchor="start" x="206.5" y="-229.4" font-family="Arial" font-size="7.00">Characteristic</text>
<polygon fill="none" stroke="black" points="253.5,-224 253.5,-238 282.5,-238 282.5,-224 253.5,-224"/>
<text text-anchor="start" x="256.5" y="-229.4" font-family="Arial" font-size="7.00">many</text>
<polygon fill="none" stroke="black" points="153.5,-210 153.5,-224 203.5,-224 203.5,-210 153.5,-210"/>
<text text-anchor="start" x="156.5" y="-215.4" font-family="Arial" font-size="7.00">Identifier</text>
<polygon fill="none" stroke="black" points="203.5,-210 203.5,-224 253.5,-224 253.5,-210 203.5,-210"/>
<text text-anchor="start" x="206.5" y="-215.4" font-family="Arial" font-size="7.00">Identifier</text>
<polygon fill="none" stroke="black" points="253.5,-210 253.5,-224 282.5,-224 282.5,-210 253.5,-210"/>
<text text-anchor="start" x="256.5" y="-215.4" font-family="Arial" font-size="7.00">many</text>
<polygon fill="none" stroke="black" points="153.5,-196 153.5,-210 203.5,-210 203.5,-196 153.5,-196"/>
<text text-anchor="start" x="156.5" y="-201.4" font-family="Arial" font-size="7.00">Position</text>
<polygon fill="none" stroke="black" points="203.5,-196 203.5,-210 253.5,-210 253.5,-196 203.5,-196"/>
<text text-anchor="start" x="206.5" y="-201.4" font-family="Arial" font-size="7.00">Position</text>
<polygon fill="none" stroke="black" points="253.5,-196 253.5,-210 282.5,-210 282.5,-196 253.5,-196"/>
<polygon fill="none" stroke="black" points="153.5,-182 153.5,-196 203.5,-196 203.5,-182 153.5,-182"/>
<text text-anchor="start" x="156.5" y="-187.4" font-family="Arial" font-size="7.00">Area</text>
<polygon fill="none" stroke="black" points="203.5,-182 203.5,-196 253.5,-196 253.5,-182 203.5,-182"/>
<text text-anchor="start" x="206.5" y="-187.4" font-family="Arial" font-size="7.00">Identifier</text>
<polygon fill="none" stroke="black" points="253.5,-182 253.5,-196 282.5,-196 282.5,-182 253.5,-182"/>
<text text-anchor="start" x="256.5" y="-187.4" font-family="Arial" font-size="7.00">many</text>
</a>
</g>
</g>
<!-- Household&#45;&gt;Residence -->
<g id="edge5" class="edge">
<title>Household&#45;&gt;Residence</title>
<path fill="none" stroke="black" d="M217.5,-341.71C217.5,-327.73 217.5,-310.74 217.5,-294.35"/>
<polygon fill="black" stroke="black" points="221,-294.25 217.5,-284.25 214,-294.25 221,-294.25"/>
<text text-anchor="middle" x="233" y="-318.4" font-family="Arial" font-size="7.00">resides at</text>
</g>
<!-- RiskAssessment&#45;&gt;Organisation -->
<g id="edge7" class="edge">
<title>RiskAssessment&#45;&gt;Organisation</title>
<path fill="none" stroke="black" d="M395.62,-341.79C389.36,-328.66 382.95,-312.97 379.5,-298 366.77,-242.67 365.14,-178.19 366.35,-130.47"/>
<polygon fill="black" stroke="black" points="369.85,-130.34 366.66,-120.24 362.86,-130.13 369.85,-130.34"/>
<text text-anchor="middle" x="384" y="-229.4" font-family="Arial" font-size="7.00">by</text>
</g>
<!-- nodeStratificationPolicy -->
<g id="node7" class="node">
<title>nodeStratificationPolicy</title>
<g id="a_node7"><a xlink:href="#StratificationPolicy" xlink:title="Stratification\nPolicy">
<ellipse fill="lightblue" stroke="black" cx="433.5" cy="-231" rx="36" ry="29"/>
<text text-anchor="middle" x="433.5" y="-233.4" font-family="Arial" font-size="7.00">Stratification</text>
<text text-anchor="middle" x="433.5" y="-225.4" font-family="Arial" font-size="7.00">Policy</text>
</a>
</g>
</g>
<!-- RiskAssessment&#45;&gt;nodeStratificationPolicy -->
<g id="edge8" class="edge">
<title>RiskAssessment&#45;&gt;nodeStratificationPolicy</title>
<path fill="none" stroke="black" d="M417.16,-341.71C420.31,-320.56 424.49,-292.5 427.83,-270.05"/>
<polygon fill="black" stroke="black" points="431.34,-270.27 429.35,-259.86 424.42,-269.24 431.34,-270.27"/>
<text text-anchor="middle" x="432.5" y="-318.4" font-family="Arial" font-size="7.00">applies</text>
</g>
<!-- nodeStratificationPolicy&#45;&gt;Organisation -->
<g id="edge9" class="edge">
<title>nodeStratificationPolicy&#45;&gt;Organisation</title>
<path fill="none" stroke="black" d="M423.38,-202.85C416.04,-183.16 405.76,-155.6 396.22,-130"/>
<polygon fill="black" stroke="black" points="399.38,-128.46 392.61,-120.31 392.82,-130.9 399.38,-128.46"/>
<text text-anchor="middle" x="422" y="-140.4" font-family="Arial" font-size="7.00">designed by</text>
</g>
</g>
</svg>
