<?xml version="1.0" encoding="UTF-8" standalone="no"?>
<!DOCTYPE svg PUBLIC "-//W3C//DTD SVG 1.1//EN"
 "http://www.w3.org/Graphics/SVG/1.1/DTD/svg11.dtd">
<!-- Generated by graphviz version 2.44.1 (20200629.0846)
 -->
<!-- Pages: 1 -->
<svg width="484pt" height="564pt"
 viewBox="0.00 0.00 484.00 564.00" xmlns="http://www.w3.org/2000/svg" xmlns:xlink="http://www.w3.org/1999/xlink">
<g id="graph0" class="graph" transform="scale(1 1) rotate(0) translate(4 560)">
<polygon fill="white" stroke="transparent" points="-4,4 -4,-560 480,-560 480,4 -4,4"/>
<!-- Case -->
<g id="node1" class="node">
<title>Case</title>
<g id="a_node1"><a xlink:href="#Case" xlink:title="&lt;TABLE&gt;">
<polygon fill="lightblue" stroke="transparent" points="228,-538 228,-552 356,-552 356,-538 228,-538"/>
<polygon fill="none" stroke="black" points="228,-538 228,-552 356,-552 356,-538 228,-538"/>
<text text-anchor="start" x="282.5" y="-543.4" font-family="Arial" font-size="7.00"> Case</text>
<polygon fill="lightblue" stroke="transparent" points="228,-524 228,-538 277,-538 277,-524 228,-524"/>
<polygon fill="none" stroke="black" points="228,-524 228,-538 277,-538 277,-524 228,-524"/>
<text text-anchor="start" x="239" y="-529.4" font-family="Arial" font-size="7.00">Attribute</text>
<polygon fill="lightblue" stroke="transparent" points="277,-524 277,-538 327,-538 327,-524 277,-524"/>
<polygon fill="none" stroke="black" points="277,-524 277,-538 327,-538 327,-524 277,-524"/>
<text text-anchor="start" x="294" y="-529.4" font-family="Arial" font-size="7.00">Field</text>
<polygon fill="lightblue" stroke="transparent" points="327,-524 327,-538 356,-538 356,-524 327,-524"/>
<polygon fill="none" stroke="black" points="327,-524 327,-538 356,-538 356,-524 327,-524"/>
<text text-anchor="start" x="330" y="-529.4" font-family="Arial" font-size="7.00">Occurs</text>
<polygon fill="none" stroke="black" points="228,-510 228,-524 277,-524 277,-510 228,-510"/>
<text text-anchor="start" x="231" y="-515.4" font-family="Arial" font-size="7.00">Reference</text>
<polygon fill="none" stroke="black" points="277,-510 277,-524 327,-524 327,-510 277,-510"/>
<text text-anchor="start" x="280" y="-515.4" font-family="Arial" font-size="7.00">Identifier</text>
<polygon fill="none" stroke="black" points="327,-510 327,-524 356,-524 356,-510 327,-510"/>
<polygon fill="none" stroke="black" points="228,-496 228,-510 277,-510 277,-496 228,-496"/>
<text text-anchor="start" x="231" y="-501.4" font-family="Arial" font-size="7.00">Status</text>
<polygon fill="none" stroke="black" points="277,-496 277,-510 327,-510 327,-496 277,-496"/>
<text text-anchor="start" x="280" y="-501.4" font-family="Arial" font-size="7.00">lookup</text>
<polygon fill="none" stroke="black" points="327,-496 327,-510 356,-510 356,-496 327,-496"/>
<polygon fill="none" stroke="black" points="228,-482 228,-496 277,-496 277,-482 228,-482"/>
<text text-anchor="start" x="231" y="-487.4" font-family="Arial" font-size="7.00">RiskCategory</text>
<polygon fill="none" stroke="black" points="277,-482 277,-496 327,-496 327,-482 277,-482"/>
<text text-anchor="start" x="280" y="-487.4" font-family="Arial" font-size="7.00">Characteristic</text>
<polygon fill="none" stroke="black" points="327,-482 327,-496 356,-496 356,-482 327,-482"/>
<polygon fill="none" stroke="black" points="228,-468 228,-482 277,-482 277,-468 228,-468"/>
<text text-anchor="start" x="231" y="-473.4" font-family="Arial" font-size="7.00">DateRaised</text>
<polygon fill="none" stroke="black" points="277,-468 277,-482 327,-482 327,-468 277,-468"/>
<text text-anchor="start" x="280" y="-473.4" font-family="Arial" font-size="7.00">date</text>
<polygon fill="none" stroke="black" points="327,-468 327,-482 356,-482 356,-468 327,-468"/>
<polygon fill="none" stroke="black" points="228,-454 228,-468 277,-468 277,-454 228,-454"/>
<text text-anchor="start" x="231" y="-459.4" font-family="Arial" font-size="7.00">DateClosed</text>
<polygon fill="none" stroke="black" points="277,-454 277,-468 327,-468 327,-454 277,-454"/>
<text text-anchor="start" x="280" y="-459.4" font-family="Arial" font-size="7.00">date</text>
<polygon fill="none" stroke="black" points="327,-454 327,-468 356,-468 356,-454 327,-454"/>
</a>
</g>
</g>
<!-- Household -->
<g id="node2" class="node">
<title>Household</title>
<g id="a_node2"><a xlink:href="#Household" xlink:title="&lt;TABLE&gt;">
<polygon fill="lightblue" stroke="transparent" points="153,-388 153,-402 282,-402 282,-388 153,-388"/>
<polygon fill="none" stroke="black" points="153,-388 153,-402 282,-402 282,-388 153,-388"/>
<text text-anchor="start" x="199.5" y="-393.4" font-family="Arial" font-size="7.00"> Household</text>
<polygon fill="lightblue" stroke="transparent" points="153,-374 153,-388 203,-388 203,-374 153,-374"/>
<polygon fill="none" stroke="black" points="153,-374 153,-388 203,-388 203,-374 153,-374"/>
<text text-anchor="start" x="164.5" y="-379.4" font-family="Arial" font-size="7.00">Attribute</text>
<polygon fill="lightblue" stroke="transparent" points="203,-374 203,-388 253,-388 253,-374 203,-374"/>
<polygon fill="none" stroke="black" points="203,-374 203,-388 253,-388 253,-374 203,-374"/>
<text text-anchor="start" x="220" y="-379.4" font-family="Arial" font-size="7.00">Field</text>
<polygon fill="lightblue" stroke="transparent" points="253,-374 253,-388 282,-388 282,-374 253,-374"/>
<polygon fill="none" stroke="black" points="253,-374 253,-388 282,-388 282,-374 253,-374"/>
<text text-anchor="start" x="256" y="-379.4" font-family="Arial" font-size="7.00">Occurs</text>
<polygon fill="none" stroke="black" points="153,-360 153,-374 203,-374 203,-360 153,-360"/>
<text text-anchor="start" x="156" y="-365.4" font-family="Arial" font-size="7.00">Characteristic</text>
<polygon fill="none" stroke="black" points="203,-360 203,-374 253,-374 253,-360 203,-360"/>
<text text-anchor="start" x="206" y="-365.4" font-family="Arial" font-size="7.00">Characteristic</text>
<polygon fill="none" stroke="black" points="253,-360 253,-374 282,-374 282,-360 253,-360"/>
<text text-anchor="start" x="256" y="-365.4" font-family="Arial" font-size="7.00">many</text>
<polygon fill="none" stroke="black" points="153,-346 153,-360 203,-360 203,-346 153,-346"/>
<text text-anchor="start" x="156" y="-351.4" font-family="Arial" font-size="7.00">Identifier</text>
<polygon fill="none" stroke="black" points="203,-346 203,-360 253,-360 253,-346 203,-346"/>
<text text-anchor="start" x="206" y="-351.4" font-family="Arial" font-size="7.00">Identifier</text>
<polygon fill="none" stroke="black" points="253,-346 253,-360 282,-360 282,-346 253,-346"/>
<text text-anchor="start" x="256" y="-351.4" font-family="Arial" font-size="7.00">many</text>
</a>
</g>
</g>
<!-- Case&#45;&gt;Household -->
<g id="edge2" class="edge">
<title>Case&#45;&gt;Household</title>
<path fill="none" stroke="black" d="M261.28,-449.98C254.32,-438.19 247.04,-425.87 240.44,-414.69"/>
<polygon fill="black" stroke="black" points="243.41,-412.83 235.31,-406 237.38,-416.39 243.41,-412.83"/>
<text text-anchor="middle" x="260" y="-426.4" font-family="Arial" font-size="7.00">about</text>
</g>
<!-- Organisation -->
<g id="node3" class="node">
<title>Organisation</title>
<g id="a_node3"><a xlink:href="#Organisation" xlink:title="&lt;TABLE&gt;">
<polygon fill="lightblue" stroke="transparent" points="306,-102 306,-116 435,-116 435,-102 306,-102"/>
<polygon fill="none" stroke="black" points="306,-102 306,-116 435,-116 435,-102 306,-102"/>
<text text-anchor="start" x="349.5" y="-107.4" font-family="Arial" font-size="7.00"> Organisation</text>
<polygon fill="lightblue" stroke="transparent" points="306,-88 306,-102 359,-102 359,-88 306,-88"/>
<polygon fill="none" stroke="black" points="306,-88 306,-102 359,-102 359,-88 306,-88"/>
<text text-anchor="start" x="319" y="-93.4" font-family="Arial" font-size="7.00">Attribute</text>
<polygon fill="lightblue" stroke="transparent" points="359,-88 359,-102 406,-102 406,-88 359,-88"/>
<polygon fill="none" stroke="black" points="359,-88 359,-102 406,-102 406,-88 359,-88"/>
<text text-anchor="start" x="374.5" y="-93.4" font-family="Arial" font-size="7.00">Field</text>
<polygon fill="lightblue" stroke="transparent" points="406,-88 406,-102 435,-102 435,-88 406,-88"/>
<polygon fill="none" stroke="black" points="406,-88 406,-102 435,-102 435,-88 406,-88"/>
<text text-anchor="start" x="409" y="-93.4" font-family="Arial" font-size="7.00">Occurs</text>
<polygon fill="none" stroke="black" points="306,-74 306,-88 359,-88 359,-74 306,-74"/>
<text text-anchor="start" x="309" y="-79.4" font-family="Arial" font-size="7.00">Identifier</text>
<polygon fill="none" stroke="black" points="359,-74 359,-88 406,-88 406,-74 359,-74"/>
<text text-anchor="start" x="362" y="-79.4" font-family="Arial" font-size="7.00">Identifier</text>
<polygon fill="none" stroke="black" points="406,-74 406,-88 435,-88 435,-74 406,-74"/>
<text text-anchor="start" x="409" y="-79.4" font-family="Arial" font-size="7.00">many</text>
<polygon fill="none" stroke="black" points="306,-60 306,-74 359,-74 359,-60 306,-60"/>
<text text-anchor="start" x="309" y="-65.4" font-family="Arial" font-size="7.00">Type</text>
<polygon fill="none" stroke="black" points="359,-60 359,-74 406,-74 406,-60 359,-60"/>
<text text-anchor="start" x="362" y="-65.4" font-family="Arial" font-size="7.00">lookup</text>
<polygon fill="none" stroke="black" points="406,-60 406,-74 435,-74 435,-60 406,-60"/>
<polygon fill="none" stroke="black" points="306,-46 306,-60 359,-60 359,-46 306,-46"/>
<text text-anchor="start" x="309" y="-51.4" font-family="Arial" font-size="7.00">Name</text>
<polygon fill="none" stroke="black" points="359,-46 359,-60 406,-60 406,-46 359,-46"/>
<text text-anchor="start" x="362" y="-51.4" font-family="Arial" font-size="7.00">string</text>
<polygon fill="none" stroke="black" points="406,-46 406,-60 435,-60 435,-46 406,-46"/>
<polygon fill="none" stroke="black" points="306,-32 306,-46 359,-46 359,-32 306,-32"/>
<text text-anchor="start" x="309" y="-37.4" font-family="Arial" font-size="7.00">Department</text>
<polygon fill="none" stroke="black" points="359,-32 359,-46 406,-46 406,-32 359,-32"/>
<text text-anchor="start" x="362" y="-37.4" font-family="Arial" font-size="7.00">string</text>
<polygon fill="none" stroke="black" points="406,-32 406,-46 435,-46 435,-32 406,-32"/>
<polygon fill="none" stroke="black" points="306,-18 306,-32 359,-32 359,-18 306,-18"/>
<text text-anchor="start" x="309" y="-23.4" font-family="Arial" font-size="7.00">ContactPerson</text>
<polygon fill="none" stroke="black" points="359,-18 359,-32 406,-32 406,-18 359,-18"/>
<text text-anchor="start" x="362" y="-23.4" font-family="Arial" font-size="7.00">string</text>
<polygon fill="none" stroke="black" points="406,-18 406,-32 435,-32 435,-18 406,-18"/>
<polygon fill="none" stroke="black" points="306,-4 306,-18 359,-18 359,-4 306,-4"/>
<text text-anchor="start" x="309" y="-9.4" font-family="Arial" font-size="7.00">ContactPoint</text>
<polygon fill="none" stroke="black" points="359,-4 359,-18 406,-18 406,-4 359,-4"/>
<text text-anchor="start" x="362" y="-9.4" font-family="Arial" font-size="7.00">ContactPoint</text>
<polygon fill="none" stroke="black" points="406,-4 406,-18 435,-18 435,-4 406,-4"/>
<text text-anchor="start" x="409" y="-9.4" font-family="Arial" font-size="7.00">many</text>
</a>
</g>
</g>
<!-- Case&#45;&gt;Organisation -->
<g id="edge4" class="edge">
<title>Case&#45;&gt;Organisation</title>
<path fill="none" stroke="black" d="M301.25,-449.68C315.32,-370.15 342.1,-218.76 357.76,-130.22"/>
<polygon fill="black" stroke="black" points="361.22,-130.72 359.52,-120.27 354.33,-129.51 361.22,-130.72"/>
<text text-anchor="middle" x="343.5" y="-318.4" font-family="Arial" font-size="7.00">assigned to</text>
</g>
<!-- Person -->
<g id="node4" class="node">
<title>Person</title>
<g id="a_node4"><a xlink:href="#Person" xlink:title="&lt;TABLE&gt;">
<polygon fill="lightblue" stroke="transparent" points="8,-280 8,-294 118,-294 118,-280 8,-280"/>
<polygon fill="none" stroke="black" points="8,-280 8,-294 118,-294 118,-280 8,-280"/>
<text text-anchor="start" x="50.5" y="-285.4" font-family="Arial" font-size="7.00"> Person</text>
<polygon fill="lightblue" stroke="transparent" points="8,-266 8,-280 55,-280 55,-266 8,-266"/>
<polygon fill="none" stroke="black" points="8,-266 8,-280 55,-280 55,-266 8,-266"/>
<text text-anchor="start" x="18" y="-271.4" font-family="Arial" font-size="7.00">Attribute</text>
<polygon fill="lightblue" stroke="transparent" points="55,-266 55,-280 89,-280 89,-266 55,-266"/>
<polygon fill="none" stroke="black" points="55,-266 55,-280 89,-280 89,-266 55,-266"/>
<text text-anchor="start" x="64" y="-271.4" font-family="Arial" font-size="7.00">Field</text>
<polygon fill="lightblue" stroke="transparent" points="89,-266 89,-280 118,-280 118,-266 89,-266"/>
<polygon fill="none" stroke="black" points="89,-266 89,-280 118,-280 118,-266 89,-266"/>
<text text-anchor="start" x="92" y="-271.4" font-family="Arial" font-size="7.00">Occurs</text>
<polygon fill="none" stroke="black" points="8,-252 8,-266 55,-266 55,-252 8,-252"/>
<text text-anchor="start" x="11" y="-257.4" font-family="Arial" font-size="7.00">Title</text>
<polygon fill="none" stroke="black" points="55,-252 55,-266 89,-266 89,-252 55,-252"/>
<text text-anchor="start" x="58" y="-257.4" font-family="Arial" font-size="7.00">string</text>
<polygon fill="none" stroke="black" points="89,-252 89,-266 118,-266 118,-252 89,-252"/>
<polygon fill="none" stroke="black" points="8,-238 8,-252 55,-252 55,-238 8,-238"/>
<text text-anchor="start" x="11" y="-243.4" font-family="Arial" font-size="7.00">FamilyName</text>
<polygon fill="none" stroke="black" points="55,-238 55,-252 89,-252 89,-238 55,-238"/>
<text text-anchor="start" x="58" y="-243.4" font-family="Arial" font-size="7.00">string</text>
<polygon fill="none" stroke="black" points="89,-238 89,-252 118,-252 118,-238 89,-238"/>
<polygon fill="none" stroke="black" points="8,-224 8,-238 55,-238 55,-224 8,-224"/>
<text text-anchor="start" x="11" y="-229.4" font-family="Arial" font-size="7.00">GivenNames</text>
<polygon fill="none" stroke="black" points="55,-224 55,-238 89,-238 89,-224 55,-224"/>
<text text-anchor="start" x="58" y="-229.4" font-family="Arial" font-size="7.00">string</text>
<polygon fill="none" stroke="black" points="89,-224 89,-238 118,-238 118,-224 89,-224"/>
<polygon fill="none" stroke="black" points="8,-210 8,-224 55,-224 55,-210 8,-210"/>
<text text-anchor="start" x="11" y="-215.4" font-family="Arial" font-size="7.00">Alias</text>
<polygon fill="none" stroke="black" points="55,-210 55,-224 89,-224 89,-210 55,-210"/>
<text text-anchor="start" x="58" y="-215.4" font-family="Arial" font-size="7.00">string</text>
<polygon fill="none" stroke="black" points="89,-210 89,-224 118,-224 118,-210 89,-210"/>
<text text-anchor="start" x="92" y="-215.4" font-family="Arial" font-size="7.00">many</text>
<polygon fill="none" stroke="black" points="8,-196 8,-210 55,-210 55,-196 8,-196"/>
<text text-anchor="start" x="11" y="-201.4" font-family="Arial" font-size="7.00">BirthDate</text>
<polygon fill="none" stroke="black" points="55,-196 55,-210 89,-210 89,-196 55,-196"/>
<text text-anchor="start" x="58" y="-201.4" font-family="Arial" font-size="7.00">date</text>
<polygon fill="none" stroke="black" points="89,-196 89,-210 118,-210 118,-196 89,-196"/>
<polygon fill="none" stroke="black" points="8,-182 8,-196 55,-196 55,-182 8,-182"/>
<text text-anchor="start" x="11" y="-187.4" font-family="Arial" font-size="7.00">Gender</text>
<polygon fill="none" stroke="black" points="55,-182 55,-196 89,-196 89,-182 55,-182"/>
<text text-anchor="start" x="58" y="-187.4" font-family="Arial" font-size="7.00">lookup</text>
<polygon fill="none" stroke="black" points="89,-182 89,-196 118,-196 118,-182 89,-182"/>
<polygon fill="none" stroke="black" points="8,-168 8,-182 55,-182 55,-168 8,-168"/>
<text text-anchor="start" x="11" y="-173.4" font-family="Arial" font-size="7.00">Identifier</text>
<polygon fill="none" stroke="black" points="55,-168 55,-182 89,-182 89,-168 55,-168"/>
<text text-anchor="start" x="58" y="-173.4" font-family="Arial" font-size="7.00">Identifier</text>
<polygon fill="none" stroke="black" points="89,-168 89,-182 118,-182 118,-168 89,-168"/>
<text text-anchor="start" x="92" y="-173.4" font-family="Arial" font-size="7.00">many</text>
</a>
</g>
</g>
<!-- Case&#45;&gt;Person -->
<g id="edge1" class="edge">
<title>Case&#45;&gt;Person</title>
<path fill="none" stroke="black" d="M219.9,-477.35C184.41,-461.89 143.64,-438.61 117,-406 94.33,-378.25 81.15,-340.99 73.5,-308.07"/>
<polygon fill="black" stroke="black" points="76.86,-307.03 71.3,-298.01 70.02,-308.52 76.86,-307.03"/>
<text text-anchor="middle" x="126" y="-372.4" font-family="Arial" font-size="7.00">about</text>
</g>
<!-- RiskAssessment -->
<g id="node6" class="node">
<title>RiskAssessment</title>
<g id="a_node6"><a xlink:href="#RiskAssessment" xlink:title="&lt;TABLE&gt;">
<polygon fill="lightblue" stroke="transparent" points="354,-388 354,-402 468,-402 468,-388 354,-388"/>
<polygon fill="none" stroke="black" points="354,-388 354,-402 468,-402 468,-388 354,-388"/>
<text text-anchor="start" x="383" y="-393.4" font-family="Arial" font-size="7.00"> RiskAssessment</text>
<polygon fill="lightblue" stroke="transparent" points="354,-374 354,-388 389,-388 389,-374 354,-374"/>
<polygon fill="none" stroke="black" points="354,-374 354,-388 389,-388 389,-374 354,-374"/>
<text text-anchor="start" x="358" y="-379.4" font-family="Arial" font-size="7.00">Attribute</text>
<polygon fill="lightblue" stroke="transparent" points="389,-374 389,-388 439,-388 439,-374 389,-374"/>
<polygon fill="none" stroke="black" points="389,-374 389,-388 439,-388 439,-374 389,-374"/>
<text text-anchor="start" x="406" y="-379.4" font-family="Arial" font-size="7.00">Field</text>
<polygon fill="lightblue" stroke="transparent" points="439,-374 439,-388 468,-388 468,-374 439,-374"/>
<polygon fill="none" stroke="black" points="439,-374 439,-388 468,-388 468,-374 439,-374"/>
<text text-anchor="start" x="442" y="-379.4" font-family="Arial" font-size="7.00">Occurs</text>
<polygon fill="none" stroke="black" points="354,-360 354,-374 389,-374 389,-360 354,-360"/>
<text text-anchor="start" x="357" y="-365.4" font-family="Arial" font-size="7.00">Date</text>
<polygon fill="none" stroke="black" points="389,-360 389,-374 439,-374 439,-360 389,-360"/>
<text text-anchor="start" x="392" y="-365.4" font-family="Arial" font-size="7.00">date</text>
<polygon fill="none" stroke="black" points="439,-360 439,-374 468,-374 468,-360 439,-360"/>
<polygon fill="none" stroke="black" points="354,-346 354,-360 389,-360 389,-346 354,-346"/>
<text text-anchor="start" x="357" y="-351.4" font-family="Arial" font-size="7.00">Category</text>
<polygon fill="none" stroke="black" points="389,-346 389,-360 439,-360 439,-346 389,-346"/>
<text text-anchor="start" x="392" y="-351.4" font-family="Arial" font-size="7.00">Characteristic</text>
<polygon fill="none" stroke="black" points="439,-346 439,-360 468,-360 468,-346 439,-346"/>
</a>
</g>
</g>
<!-- Case&#45;&gt;RiskAssessment -->
<g id="edge3" class="edge">
<title>Case&#45;&gt;RiskAssessment</title>
<path fill="none" stroke="black" d="M340.75,-449.98C352.22,-437.73 364.25,-424.89 375.05,-413.37"/>
<polygon fill="black" stroke="black" points="377.67,-415.69 381.95,-406 372.56,-410.91 377.67,-415.69"/>
<text text-anchor="middle" x="369" y="-426.4" font-family="Arial" font-size="7.00">risk</text>
</g>
<!-- Household&#45;&gt;Person -->
<g id="edge6" class="edge">
<title>Household&#45;&gt;Person</title>
<path fill="none" stroke="black" d="M183.08,-341.99C168.31,-328.48 150.79,-312.46 135,-298 134.55,-297.59 134.1,-297.18 133.65,-296.76"/>
<polygon fill="black" stroke="black" points="135.95,-294.13 126.21,-289.95 131.22,-299.29 135.95,-294.13"/>
<text text-anchor="middle" x="176.5" y="-318.4" font-family="Arial" font-size="7.00">contains</text>
</g>
<!-- Residence -->
<g id="node5" class="node">
<title>Residence</title>
<g id="a_node5"><a xlink:href="#Residence" xlink:title="&lt;TABLE&gt;">
<polygon fill="lightblue" stroke="transparent" points="153,-266 153,-280 282,-280 282,-266 153,-266"/>
<polygon fill="none" stroke="black" points="153,-266 153,-280 282,-280 282,-266 153,-266"/>
<text text-anchor="start" x="199.5" y="-271.4" font-family="Arial" font-size="7.00"> Residence</text>
<polygon fill="lightblue" stroke="transparent" points="153,-252 153,-266 203,-266 203,-252 153,-252"/>
<polygon fill="none" stroke="black" points="153,-252 153,-266 203,-266 203,-252 153,-252"/>
<text text-anchor="start" x="164.5" y="-257.4" font-family="Arial" font-size="7.00">Attribute</text>
<polygon fill="lightblue" stroke="transparent" points="203,-252 203,-266 253,-266 253,-252 203,-252"/>
<polygon fill="none" stroke="black" points="203,-252 203,-266 253,-266 253,-252 203,-252"/>
<text text-anchor="start" x="220" y="-257.4" font-family="Arial" font-size="7.00">Field</text>
<polygon fill="lightblue" stroke="transparent" points="253,-252 253,-266 282,-266 282,-252 253,-252"/>
<polygon fill="none" stroke="black" points="253,-252 253,-266 282,-266 282,-252 253,-252"/>
<text text-anchor="start" x="256" y="-257.4" font-family="Arial" font-size="7.00">Occurs</text>
<polygon fill="none" stroke="black" points="153,-238 153,-252 203,-252 203,-238 153,-238"/>
<text text-anchor="start" x="156" y="-243.4" font-family="Arial" font-size="7.00">Address</text>
<polygon fill="none" stroke="black" points="203,-238 203,-252 253,-252 253,-238 203,-238"/>
<text text-anchor="start" x="206" y="-243.4" font-family="Arial" font-size="7.00">Address</text>
<polygon fill="none" stroke="black" points="253,-238 253,-252 282,-252 282,-238 253,-238"/>
<polygon fill="none" stroke="black" points="153,-224 153,-238 203,-238 203,-224 153,-224"/>
<text text-anchor="start" x="156" y="-229.4" font-family="Arial" font-size="7.00">Characteristic</text>
<polygon fill="none" stroke="black" points="203,-224 203,-238 253,-238 253,-224 203,-224"/>
<text text-anchor="start" x="206" y="-229.4" font-family="Arial" font-size="7.00">Characteristic</text>
<polygon fill="none" stroke="black" points="253,-224 253,-238 282,-238 282,-224 253,-224"/>
<text text-anchor="start" x="256" y="-229.4" font-family="Arial" font-size="7.00">many</text>
<polygon fill="none" stroke="black" points="153,-210 153,-224 203,-224 203,-210 153,-210"/>
<text text-anchor="start" x="156" y="-215.4" font-family="Arial" font-size="7.00">Identifier</text>
<polygon fill="none" stroke="black" points="203,-210 203,-224 253,-224 253,-210 203,-210"/>
<text text-anchor="start" x="206" y="-215.4" font-family="Arial" font-size="7.00">Identifier</text>
<polygon fill="none" stroke="black" points="253,-210 253,-224 282,-224 282,-210 253,-210"/>
<text text-anchor="start" x="256" y="-215.4" font-family="Arial" font-size="7.00">many</text>
<polygon fill="none" stroke="black" points="153,-196 153,-210 203,-210 203,-196 153,-196"/>
<text text-anchor="start" x="156" y="-201.4" font-family="Arial" font-size="7.00">Position</text>
<polygon fill="none" stroke="black" points="203,-196 203,-210 253,-210 253,-196 203,-196"/>
<text text-anchor="start" x="206" y="-201.4" font-family="Arial" font-size="7.00">Position</text>
<polygon fill="none" stroke="black" points="253,-196 253,-210 282,-210 282,-196 253,-196"/>
<polygon fill="none" stroke="black" points="153,-182 153,-196 203,-196 203,-182 153,-182"/>
<text text-anchor="start" x="156" y="-187.4" font-family="Arial" font-size="7.00">Area</text>
<polygon fill="none" stroke="black" points="203,-182 203,-196 253,-196 253,-182 203,-182"/>
<text text-anchor="start" x="206" y="-187.4" font-family="Arial" font-size="7.00">Identifier</text>
<polygon fill="none" stroke="black" points="253,-182 253,-196 282,-196 282,-182 253,-182"/>
<text text-anchor="start" x="256" y="-187.4" font-family="Arial" font-size="7.00">many</text>
</a>
</g>
</g>
<!-- Household&#45;&gt;Residence -->
<g id="edge5" class="edge">
<title>Household&#45;&gt;Residence</title>
<path fill="none" stroke="black" d="M217,-341.71C217,-327.73 217,-310.74 217,-294.35"/>
<polygon fill="black" stroke="black" points="220.5,-294.25 217,-284.25 213.5,-294.25 220.5,-294.25"/>
<text text-anchor="middle" x="232.5" y="-318.4" font-family="Arial" font-size="7.00">resides at</text>
</g>
<!-- RiskAssessment&#45;&gt;Organisation -->
<g id="edge7" class="edge">
<title>RiskAssessment&#45;&gt;Organisation</title>
<path fill="none" stroke="black" d="M394.64,-341.74C388.56,-328.6 382.35,-312.92 379,-298 366.58,-242.6 364.92,-178.13 366.05,-130.42"/>
<polygon fill="black" stroke="black" points="369.55,-130.3 366.33,-120.2 362.55,-130.1 369.55,-130.3"/>
<text text-anchor="middle" x="383" y="-229.4" font-family="Arial" font-size="7.00">by</text>
</g>
<!-- nodeStratificationPolicy -->
<g id="node7" class="node">
<title>nodeStratificationPolicy</title>
<g id="a_node7"><a xlink:href="#StratificationPolicy" xlink:title="Stratification\nPolicy">
<ellipse fill="lightblue" stroke="black" cx="432" cy="-231" rx="36" ry="29"/>
<text text-anchor="middle" x="432" y="-233.4" font-family="Arial" font-size="7.00">Stratification</text>
<text text-anchor="middle" x="432" y="-225.4" font-family="Arial" font-size="7.00">Policy</text>
</a>
</g>
</g>
<!-- RiskAssessment&#45;&gt;nodeStratificationPolicy -->
<g id="edge8" class="edge">
<title>RiskAssessment&#45;&gt;nodeStratificationPolicy</title>
<path fill="none" stroke="black" d="M415.66,-341.71C418.81,-320.56 422.99,-292.5 426.33,-270.05"/>
<polygon fill="black" stroke="black" points="429.84,-270.27 427.85,-259.86 422.92,-269.24 429.84,-270.27"/>
<text text-anchor="middle" x="431" y="-318.4" font-family="Arial" font-size="7.00">applies</text>
</g>
<!-- nodeStratificationPolicy&#45;&gt;Organisation -->
<g id="edge9" class="edge">
<title>nodeStratificationPolicy&#45;&gt;Organisation</title>
<path fill="none" stroke="black" d="M422.04,-202.85C414.81,-183.16 404.7,-155.6 395.32,-130"/>
<polygon fill="black" stroke="black" points="398.49,-128.49 391.76,-120.31 391.92,-130.91 398.49,-128.49"/>
<text text-anchor="middle" x="420" y="-140.4" font-family="Arial" font-size="7.00">designed by</text>
</g>
</g>
</svg>
