<?xml version="1.0" encoding="UTF-8" standalone="no"?>
<!DOCTYPE svg PUBLIC "-//W3C//DTD SVG 1.1//EN"
 "http://www.w3.org/Graphics/SVG/1.1/DTD/svg11.dtd">
<!-- Generated by graphviz version 2.44.1 (20200629.0846)
 -->
<!-- Pages: 1 -->
<svg width="461pt" height="386pt"
 viewBox="0.00 0.00 461.00 386.00" xmlns="http://www.w3.org/2000/svg" xmlns:xlink="http://www.w3.org/1999/xlink">
<g id="graph0" class="graph" transform="scale(1 1) rotate(0) translate(4 382)">
<polygon fill="white" stroke="transparent" points="-4,4 -4,-382 457,-382 457,4 -4,4"/>
<!-- Attribute -->
<g id="node1" class="node">
<title>Attribute</title>
<g id="a_node1"><a xlink:href="#Attribute" xlink:title="&lt;TABLE&gt;">
<polygon fill="lightblue" stroke="transparent" points="208.5,-360 208.5,-374 337.5,-374 337.5,-360 208.5,-360"/>
<polygon fill="none" stroke="black" points="208.5,-360 208.5,-374 337.5,-374 337.5,-360 208.5,-360"/>
<text text-anchor="start" x="258.5" y="-365.4" font-family="Arial" font-size="7.00"> Attribute</text>
<polygon fill="lightblue" stroke="transparent" points="208.5,-346 208.5,-360 258.5,-360 258.5,-346 208.5,-346"/>
<polygon fill="none" stroke="black" points="208.5,-346 208.5,-360 258.5,-360 258.5,-346 208.5,-346"/>
<text text-anchor="start" x="220" y="-351.4" font-family="Arial" font-size="7.00">Attribute</text>
<polygon fill="lightblue" stroke="transparent" points="258.5,-346 258.5,-360 308.5,-360 308.5,-346 258.5,-346"/>
<polygon fill="none" stroke="black" points="258.5,-346 258.5,-360 308.5,-360 308.5,-346 258.5,-346"/>
<text text-anchor="start" x="275.5" y="-351.4" font-family="Arial" font-size="7.00">Field</text>
<polygon fill="lightblue" stroke="transparent" points="308.5,-346 308.5,-360 337.5,-360 337.5,-346 308.5,-346"/>
<polygon fill="none" stroke="black" points="308.5,-346 308.5,-360 337.5,-360 337.5,-346 308.5,-346"/>
<text text-anchor="start" x="311.5" y="-351.4" font-family="Arial" font-size="7.00">Occurs</text>
<polygon fill="none" stroke="black" points="208.5,-332 208.5,-346 258.5,-346 258.5,-332 208.5,-332"/>
<text text-anchor="start" x="211.5" y="-337.4" font-family="Arial" font-size="7.00">Type</text>
<polygon fill="none" stroke="black" points="258.5,-332 258.5,-346 308.5,-346 308.5,-332 258.5,-332"/>
<text text-anchor="start" x="261.5" y="-337.4" font-family="Arial" font-size="7.00">lookup</text>
<polygon fill="none" stroke="black" points="308.5,-332 308.5,-346 337.5,-346 337.5,-332 308.5,-332"/>
<polygon fill="none" stroke="black" points="208.5,-318 208.5,-332 258.5,-332 258.5,-318 208.5,-318"/>
<text text-anchor="start" x="211.5" y="-323.4" font-family="Arial" font-size="7.00">Characteristic</text>
<polygon fill="none" stroke="black" points="258.5,-318 258.5,-332 308.5,-332 308.5,-318 258.5,-318"/>
<text text-anchor="start" x="261.5" y="-323.4" font-family="Arial" font-size="7.00">Characteristic</text>
<polygon fill="none" stroke="black" points="308.5,-318 308.5,-332 337.5,-332 337.5,-318 308.5,-318"/>
<polygon fill="none" stroke="black" points="208.5,-304 208.5,-318 258.5,-318 258.5,-304 208.5,-304"/>
<text text-anchor="start" x="211.5" y="-309.4" font-family="Arial" font-size="7.00">Date</text>
<polygon fill="none" stroke="black" points="258.5,-304 258.5,-318 308.5,-318 308.5,-304 258.5,-304"/>
<text text-anchor="start" x="261.5" y="-309.4" font-family="Arial" font-size="7.00">date</text>
<polygon fill="none" stroke="black" points="308.5,-304 308.5,-318 337.5,-318 337.5,-304 308.5,-304"/>
<polygon fill="none" stroke="black" points="208.5,-290 208.5,-304 258.5,-304 258.5,-290 208.5,-290"/>
<text text-anchor="start" x="211.5" y="-295.4" font-family="Arial" font-size="7.00">EndDate</text>
<polygon fill="none" stroke="black" points="258.5,-290 258.5,-304 308.5,-304 308.5,-290 258.5,-290"/>
<text text-anchor="start" x="261.5" y="-295.4" font-family="Arial" font-size="7.00">date</text>
<polygon fill="none" stroke="black" points="308.5,-290 308.5,-304 337.5,-304 337.5,-290 308.5,-290"/>
</a>
</g>
</g>
<!-- Household -->
<g id="node2" class="node">
<title>Household</title>
<g id="a_node2"><a xlink:href="#Household" xlink:title="&lt;TABLE&gt;">
<polygon fill="lightblue" stroke="transparent" points="63.5,-224 63.5,-238 192.5,-238 192.5,-224 63.5,-224"/>
<polygon fill="none" stroke="black" points="63.5,-224 63.5,-238 192.5,-238 192.5,-224 63.5,-224"/>
<text text-anchor="start" x="110" y="-229.4" font-family="Arial" font-size="7.00"> Household</text>
<polygon fill="lightblue" stroke="transparent" points="63.5,-210 63.5,-224 113.5,-224 113.5,-210 63.5,-210"/>
<polygon fill="none" stroke="black" points="63.5,-210 63.5,-224 113.5,-224 113.5,-210 63.5,-210"/>
<text text-anchor="start" x="75" y="-215.4" font-family="Arial" font-size="7.00">Attribute</text>
<polygon fill="lightblue" stroke="transparent" points="113.5,-210 113.5,-224 163.5,-224 163.5,-210 113.5,-210"/>
<polygon fill="none" stroke="black" points="113.5,-210 113.5,-224 163.5,-224 163.5,-210 113.5,-210"/>
<text text-anchor="start" x="130.5" y="-215.4" font-family="Arial" font-size="7.00">Field</text>
<polygon fill="lightblue" stroke="transparent" points="163.5,-210 163.5,-224 192.5,-224 192.5,-210 163.5,-210"/>
<polygon fill="none" stroke="black" points="163.5,-210 163.5,-224 192.5,-224 192.5,-210 163.5,-210"/>
<text text-anchor="start" x="166.5" y="-215.4" font-family="Arial" font-size="7.00">Occurs</text>
<polygon fill="none" stroke="black" points="63.5,-196 63.5,-210 113.5,-210 113.5,-196 63.5,-196"/>
<text text-anchor="start" x="66.5" y="-201.4" font-family="Arial" font-size="7.00">Characteristic</text>
<polygon fill="none" stroke="black" points="113.5,-196 113.5,-210 163.5,-210 163.5,-196 113.5,-196"/>
<text text-anchor="start" x="116.5" y="-201.4" font-family="Arial" font-size="7.00">Characteristic</text>
<polygon fill="none" stroke="black" points="163.5,-196 163.5,-210 192.5,-210 192.5,-196 163.5,-196"/>
<text text-anchor="start" x="166.5" y="-201.4" font-family="Arial" font-size="7.00">many</text>
<polygon fill="none" stroke="black" points="63.5,-182 63.5,-196 113.5,-196 113.5,-182 63.5,-182"/>
<text text-anchor="start" x="66.5" y="-187.4" font-family="Arial" font-size="7.00">Identifier</text>
<polygon fill="none" stroke="black" points="113.5,-182 113.5,-196 163.5,-196 163.5,-182 113.5,-182"/>
<text text-anchor="start" x="116.5" y="-187.4" font-family="Arial" font-size="7.00">Identifier</text>
<polygon fill="none" stroke="black" points="163.5,-182 163.5,-196 192.5,-196 192.5,-182 163.5,-182"/>
<text text-anchor="start" x="166.5" y="-187.4" font-family="Arial" font-size="7.00">many</text>
</a>
</g>
</g>
<!-- Attribute&#45;&gt;Household -->
<g id="edge2" class="edge">
<title>Attribute&#45;&gt;Household</title>
<path fill="none" stroke="black" d="M218.09,-285.98C203.18,-273.63 187.17,-260.38 172.82,-248.51"/>
<polygon fill="black" stroke="black" points="174.97,-245.75 165.04,-242.07 170.51,-251.14 174.97,-245.75"/>
<text text-anchor="middle" x="205.5" y="-262.4" font-family="Arial" font-size="7.00">about</text>
</g>
<!-- Person -->
<g id="node4" class="node">
<title>Person</title>
<g id="a_node4"><a xlink:href="#Person" xlink:title="&lt;TABLE&gt;">
<polygon fill="lightblue" stroke="transparent" points="171.5,-116 171.5,-130 282.5,-130 282.5,-116 171.5,-116"/>
<polygon fill="none" stroke="black" points="171.5,-116 171.5,-130 282.5,-130 282.5,-116 171.5,-116"/>
<text text-anchor="start" x="214.5" y="-121.4" font-family="Arial" font-size="7.00"> Person</text>
<polygon fill="lightblue" stroke="transparent" points="171.5,-102 171.5,-116 219.5,-116 219.5,-102 171.5,-102"/>
<polygon fill="none" stroke="black" points="171.5,-102 171.5,-116 219.5,-116 219.5,-102 171.5,-102"/>
<text text-anchor="start" x="182" y="-107.4" font-family="Arial" font-size="7.00">Attribute</text>
<polygon fill="lightblue" stroke="transparent" points="219.5,-102 219.5,-116 253.5,-116 253.5,-102 219.5,-102"/>
<polygon fill="none" stroke="black" points="219.5,-102 219.5,-116 253.5,-116 253.5,-102 219.5,-102"/>
<text text-anchor="start" x="228.5" y="-107.4" font-family="Arial" font-size="7.00">Field</text>
<polygon fill="lightblue" stroke="transparent" points="253.5,-102 253.5,-116 282.5,-116 282.5,-102 253.5,-102"/>
<polygon fill="none" stroke="black" points="253.5,-102 253.5,-116 282.5,-116 282.5,-102 253.5,-102"/>
<text text-anchor="start" x="256.5" y="-107.4" font-family="Arial" font-size="7.00">Occurs</text>
<polygon fill="none" stroke="black" points="171.5,-88 171.5,-102 219.5,-102 219.5,-88 171.5,-88"/>
<text text-anchor="start" x="174.5" y="-93.4" font-family="Arial" font-size="7.00">Title</text>
<polygon fill="none" stroke="black" points="219.5,-88 219.5,-102 253.5,-102 253.5,-88 219.5,-88"/>
<text text-anchor="start" x="222.5" y="-93.4" font-family="Arial" font-size="7.00">string</text>
<polygon fill="none" stroke="black" points="253.5,-88 253.5,-102 282.5,-102 282.5,-88 253.5,-88"/>
<polygon fill="none" stroke="black" points="171.5,-74 171.5,-88 219.5,-88 219.5,-74 171.5,-74"/>
<text text-anchor="start" x="174.5" y="-79.4" font-family="Arial" font-size="7.00">FamilyName</text>
<polygon fill="none" stroke="black" points="219.5,-74 219.5,-88 253.5,-88 253.5,-74 219.5,-74"/>
<text text-anchor="start" x="222.5" y="-79.4" font-family="Arial" font-size="7.00">string</text>
<polygon fill="none" stroke="black" points="253.5,-74 253.5,-88 282.5,-88 282.5,-74 253.5,-74"/>
<polygon fill="none" stroke="black" points="171.5,-60 171.5,-74 219.5,-74 219.5,-60 171.5,-60"/>
<text text-anchor="start" x="174.5" y="-65.4" font-family="Arial" font-size="7.00">GivenNames</text>
<polygon fill="none" stroke="black" points="219.5,-60 219.5,-74 253.5,-74 253.5,-60 219.5,-60"/>
<text text-anchor="start" x="222.5" y="-65.4" font-family="Arial" font-size="7.00">string</text>
<polygon fill="none" stroke="black" points="253.5,-60 253.5,-74 282.5,-74 282.5,-60 253.5,-60"/>
<polygon fill="none" stroke="black" points="171.5,-46 171.5,-60 219.5,-60 219.5,-46 171.5,-46"/>
<text text-anchor="start" x="174.5" y="-51.4" font-family="Arial" font-size="7.00">NickName</text>
<polygon fill="none" stroke="black" points="219.5,-46 219.5,-60 253.5,-60 253.5,-46 219.5,-46"/>
<text text-anchor="start" x="222.5" y="-51.4" font-family="Arial" font-size="7.00">string</text>
<polygon fill="none" stroke="black" points="253.5,-46 253.5,-60 282.5,-60 282.5,-46 253.5,-46"/>
<text text-anchor="start" x="256.5" y="-51.4" font-family="Arial" font-size="7.00">many</text>
<polygon fill="none" stroke="black" points="171.5,-32 171.5,-46 219.5,-46 219.5,-32 171.5,-32"/>
<text text-anchor="start" x="174.5" y="-37.4" font-family="Arial" font-size="7.00">BirthDate</text>
<polygon fill="none" stroke="black" points="219.5,-32 219.5,-46 253.5,-46 253.5,-32 219.5,-32"/>
<text text-anchor="start" x="222.5" y="-37.4" font-family="Arial" font-size="7.00">date</text>
<polygon fill="none" stroke="black" points="253.5,-32 253.5,-46 282.5,-46 282.5,-32 253.5,-32"/>
<polygon fill="none" stroke="black" points="171.5,-18 171.5,-32 219.5,-32 219.5,-18 171.5,-18"/>
<text text-anchor="start" x="174.5" y="-23.4" font-family="Arial" font-size="7.00">Gender</text>
<polygon fill="none" stroke="black" points="219.5,-18 219.5,-32 253.5,-32 253.5,-18 219.5,-18"/>
<text text-anchor="start" x="222.5" y="-23.4" font-family="Arial" font-size="7.00">lookup</text>
<polygon fill="none" stroke="black" points="253.5,-18 253.5,-32 282.5,-32 282.5,-18 253.5,-18"/>
<polygon fill="none" stroke="black" points="171.5,-4 171.5,-18 219.5,-18 219.5,-4 171.5,-4"/>
<text text-anchor="start" x="174.5" y="-9.4" font-family="Arial" font-size="7.00">Identifier</text>
<polygon fill="none" stroke="black" points="219.5,-4 219.5,-18 253.5,-18 253.5,-4 219.5,-4"/>
<text text-anchor="start" x="222.5" y="-9.4" font-family="Arial" font-size="7.00">Identifier</text>
<polygon fill="none" stroke="black" points="253.5,-4 253.5,-18 282.5,-18 282.5,-4 253.5,-4"/>
<text text-anchor="start" x="256.5" y="-9.4" font-family="Arial" font-size="7.00">many</text>
</a>
</g>
</g>
<!-- Attribute&#45;&gt;Person -->
<g id="edge1" class="edge">
<title>Attribute&#45;&gt;Person</title>
<path fill="none" stroke="black" d="M256.98,-285.68C252.71,-271.8 248.44,-256.4 245.5,-242 239.02,-210.3 234.64,-174.88 231.74,-144.3"/>
<polygon fill="black" stroke="black" points="235.21,-143.77 230.81,-134.13 228.24,-144.41 235.21,-143.77"/>
<text text-anchor="middle" x="254.5" y="-208.4" font-family="Arial" font-size="7.00">about</text>
</g>
<!-- nodeProvenance -->
<g id="node6" class="node">
<title>nodeProvenance</title>
<g id="a_node6"><a xlink:href="#Provenance" xlink:title="Provenance">
<ellipse fill="lightblue" stroke="black" cx="308.5" cy="-210" rx="36" ry="29"/>
<text text-anchor="middle" x="308.5" y="-208.4" font-family="Arial" font-size="7.00">Provenance</text>
</a>
</g>
</g>
<!-- Attribute&#45;&gt;nodeProvenance -->
<g id="edge3" class="edge">
<title>Attribute&#45;&gt;nodeProvenance</title>
<path fill="none" stroke="black" d="M286.01,-285.98C289.75,-273.51 293.77,-260.11 297.36,-248.15"/>
<polygon fill="black" stroke="black" points="300.73,-249.07 300.25,-238.48 294.03,-247.06 300.73,-249.07"/>
<text text-anchor="middle" x="300.5" y="-262.4" font-family="Arial" font-size="7.00">has</text>
</g>
<!-- Household&#45;&gt;Person -->
<g id="edge6" class="edge">
<title>Household&#45;&gt;Person</title>
<path fill="none" stroke="black" d="M149.47,-177.71C156.9,-167.13 165.54,-154.82 174.3,-142.34"/>
<polygon fill="black" stroke="black" points="177.18,-144.34 180.06,-134.14 171.45,-140.32 177.18,-144.34"/>
<text text-anchor="middle" x="179" y="-154.4" font-family="Arial" font-size="7.00">contains</text>
</g>
<!-- Residence -->
<g id="node5" class="node">
<title>Residence</title>
<g id="a_node5"><a xlink:href="#Residence" xlink:title="&lt;TABLE&gt;">
<polygon fill="lightblue" stroke="transparent" points="8.5,-102 8.5,-116 137.5,-116 137.5,-102 8.5,-102"/>
<polygon fill="none" stroke="black" points="8.5,-102 8.5,-116 137.5,-116 137.5,-102 8.5,-102"/>
<text text-anchor="start" x="55" y="-107.4" font-family="Arial" font-size="7.00"> Residence</text>
<polygon fill="lightblue" stroke="transparent" points="8.5,-88 8.5,-102 58.5,-102 58.5,-88 8.5,-88"/>
<polygon fill="none" stroke="black" points="8.5,-88 8.5,-102 58.5,-102 58.5,-88 8.5,-88"/>
<text text-anchor="start" x="20" y="-93.4" font-family="Arial" font-size="7.00">Attribute</text>
<polygon fill="lightblue" stroke="transparent" points="58.5,-88 58.5,-102 108.5,-102 108.5,-88 58.5,-88"/>
<polygon fill="none" stroke="black" points="58.5,-88 58.5,-102 108.5,-102 108.5,-88 58.5,-88"/>
<text text-anchor="start" x="75.5" y="-93.4" font-family="Arial" font-size="7.00">Field</text>
<polygon fill="lightblue" stroke="transparent" points="108.5,-88 108.5,-102 137.5,-102 137.5,-88 108.5,-88"/>
<polygon fill="none" stroke="black" points="108.5,-88 108.5,-102 137.5,-102 137.5,-88 108.5,-88"/>
<text text-anchor="start" x="111.5" y="-93.4" font-family="Arial" font-size="7.00">Occurs</text>
<polygon fill="none" stroke="black" points="8.5,-74 8.5,-88 58.5,-88 58.5,-74 8.5,-74"/>
<text text-anchor="start" x="11.5" y="-79.4" font-family="Arial" font-size="7.00">Address</text>
<polygon fill="none" stroke="black" points="58.5,-74 58.5,-88 108.5,-88 108.5,-74 58.5,-74"/>
<text text-anchor="start" x="61.5" y="-79.4" font-family="Arial" font-size="7.00">Address</text>
<polygon fill="none" stroke="black" points="108.5,-74 108.5,-88 137.5,-88 137.5,-74 108.5,-74"/>
<polygon fill="none" stroke="black" points="8.5,-60 8.5,-74 58.5,-74 58.5,-60 8.5,-60"/>
<text text-anchor="start" x="11.5" y="-65.4" font-family="Arial" font-size="7.00">Characteristic</text>
<polygon fill="none" stroke="black" points="58.5,-60 58.5,-74 108.5,-74 108.5,-60 58.5,-60"/>
<text text-anchor="start" x="61.5" y="-65.4" font-family="Arial" font-size="7.00">Characteristic</text>
<polygon fill="none" stroke="black" points="108.5,-60 108.5,-74 137.5,-74 137.5,-60 108.5,-60"/>
<text text-anchor="start" x="111.5" y="-65.4" font-family="Arial" font-size="7.00">many</text>
<polygon fill="none" stroke="black" points="8.5,-46 8.5,-60 58.5,-60 58.5,-46 8.5,-46"/>
<text text-anchor="start" x="11.5" y="-51.4" font-family="Arial" font-size="7.00">Identifier</text>
<polygon fill="none" stroke="black" points="58.5,-46 58.5,-60 108.5,-60 108.5,-46 58.5,-46"/>
<text text-anchor="start" x="61.5" y="-51.4" font-family="Arial" font-size="7.00">Identifier</text>
<polygon fill="none" stroke="black" points="108.5,-46 108.5,-60 137.5,-60 137.5,-46 108.5,-46"/>
<text text-anchor="start" x="111.5" y="-51.4" font-family="Arial" font-size="7.00">many</text>
<polygon fill="none" stroke="black" points="8.5,-32 8.5,-46 58.5,-46 58.5,-32 8.5,-32"/>
<text text-anchor="start" x="11.5" y="-37.4" font-family="Arial" font-size="7.00">Position</text>
<polygon fill="none" stroke="black" points="58.5,-32 58.5,-46 108.5,-46 108.5,-32 58.5,-32"/>
<text text-anchor="start" x="61.5" y="-37.4" font-family="Arial" font-size="7.00">Position</text>
<polygon fill="none" stroke="black" points="108.5,-32 108.5,-46 137.5,-46 137.5,-32 108.5,-32"/>
<polygon fill="none" stroke="black" points="8.5,-18 8.5,-32 58.5,-32 58.5,-18 8.5,-18"/>
<text text-anchor="start" x="11.5" y="-23.4" font-family="Arial" font-size="7.00">Area</text>
<polygon fill="none" stroke="black" points="58.5,-18 58.5,-32 108.5,-32 108.5,-18 58.5,-18"/>
<text text-anchor="start" x="61.5" y="-23.4" font-family="Arial" font-size="7.00">Identifier</text>
<polygon fill="none" stroke="black" points="108.5,-18 108.5,-32 137.5,-32 137.5,-18 108.5,-18"/>
<text text-anchor="start" x="111.5" y="-23.4" font-family="Arial" font-size="7.00">many</text>
</a>
</g>
</g>
<!-- Household&#45;&gt;Residence -->
<g id="edge5" class="edge">
<title>Household&#45;&gt;Residence</title>
<path fill="none" stroke="black" d="M115.29,-177.71C109.79,-163.6 103.09,-146.42 96.64,-129.89"/>
<polygon fill="black" stroke="black" points="99.78,-128.3 92.88,-120.25 93.26,-130.84 99.78,-128.3"/>
<text text-anchor="middle" x="124" y="-154.4" font-family="Arial" font-size="7.00">resides at</text>
</g>
<!-- Organisation -->
<g id="node3" class="node">
<title>Organisation</title>
<g id="a_node3"><a xlink:href="#Organisation" xlink:title="&lt;TABLE&gt;">
<polygon fill="lightblue" stroke="transparent" points="316.5,-109 316.5,-123 445.5,-123 445.5,-109 316.5,-109"/>
<polygon fill="none" stroke="black" points="316.5,-109 316.5,-123 445.5,-123 445.5,-109 316.5,-109"/>
<text text-anchor="start" x="360" y="-114.4" font-family="Arial" font-size="7.00"> Organisation</text>
<polygon fill="lightblue" stroke="transparent" points="316.5,-95 316.5,-109 369.5,-109 369.5,-95 316.5,-95"/>
<polygon fill="none" stroke="black" points="316.5,-95 316.5,-109 369.5,-109 369.5,-95 316.5,-95"/>
<text text-anchor="start" x="329.5" y="-100.4" font-family="Arial" font-size="7.00">Attribute</text>
<polygon fill="lightblue" stroke="transparent" points="369.5,-95 369.5,-109 416.5,-109 416.5,-95 369.5,-95"/>
<polygon fill="none" stroke="black" points="369.5,-95 369.5,-109 416.5,-109 416.5,-95 369.5,-95"/>
<text text-anchor="start" x="385" y="-100.4" font-family="Arial" font-size="7.00">Field</text>
<polygon fill="lightblue" stroke="transparent" points="416.5,-95 416.5,-109 445.5,-109 445.5,-95 416.5,-95"/>
<polygon fill="none" stroke="black" points="416.5,-95 416.5,-109 445.5,-109 445.5,-95 416.5,-95"/>
<text text-anchor="start" x="419.5" y="-100.4" font-family="Arial" font-size="7.00">Occurs</text>
<polygon fill="none" stroke="black" points="316.5,-81 316.5,-95 369.5,-95 369.5,-81 316.5,-81"/>
<text text-anchor="start" x="319.5" y="-86.4" font-family="Arial" font-size="7.00">Identifier</text>
<polygon fill="none" stroke="black" points="369.5,-81 369.5,-95 416.5,-95 416.5,-81 369.5,-81"/>
<text text-anchor="start" x="372.5" y="-86.4" font-family="Arial" font-size="7.00">Identifier</text>
<polygon fill="none" stroke="black" points="416.5,-81 416.5,-95 445.5,-95 445.5,-81 416.5,-81"/>
<text text-anchor="start" x="419.5" y="-86.4" font-family="Arial" font-size="7.00">many</text>
<polygon fill="none" stroke="black" points="316.5,-67 316.5,-81 369.5,-81 369.5,-67 316.5,-67"/>
<text text-anchor="start" x="319.5" y="-72.4" font-family="Arial" font-size="7.00">Type</text>
<polygon fill="none" stroke="black" points="369.5,-67 369.5,-81 416.5,-81 416.5,-67 369.5,-67"/>
<text text-anchor="start" x="372.5" y="-72.4" font-family="Arial" font-size="7.00">lookup</text>
<polygon fill="none" stroke="black" points="416.5,-67 416.5,-81 445.5,-81 445.5,-67 416.5,-67"/>
<polygon fill="none" stroke="black" points="316.5,-53 316.5,-67 369.5,-67 369.5,-53 316.5,-53"/>
<text text-anchor="start" x="319.5" y="-58.4" font-family="Arial" font-size="7.00">Name</text>
<polygon fill="none" stroke="black" points="369.5,-53 369.5,-67 416.5,-67 416.5,-53 369.5,-53"/>
<text text-anchor="start" x="372.5" y="-58.4" font-family="Arial" font-size="7.00">string</text>
<polygon fill="none" stroke="black" points="416.5,-53 416.5,-67 445.5,-67 445.5,-53 416.5,-53"/>
<polygon fill="none" stroke="black" points="316.5,-39 316.5,-53 369.5,-53 369.5,-39 316.5,-39"/>
<text text-anchor="start" x="319.5" y="-44.4" font-family="Arial" font-size="7.00">Department</text>
<polygon fill="none" stroke="black" points="369.5,-39 369.5,-53 416.5,-53 416.5,-39 369.5,-39"/>
<text text-anchor="start" x="372.5" y="-44.4" font-family="Arial" font-size="7.00">string</text>
<polygon fill="none" stroke="black" points="416.5,-39 416.5,-53 445.5,-53 445.5,-39 416.5,-39"/>
<polygon fill="none" stroke="black" points="316.5,-25 316.5,-39 369.5,-39 369.5,-25 316.5,-25"/>
<text text-anchor="start" x="319.5" y="-30.4" font-family="Arial" font-size="7.00">ContactPerson</text>
<polygon fill="none" stroke="black" points="369.5,-25 369.5,-39 416.5,-39 416.5,-25 369.5,-25"/>
<text text-anchor="start" x="372.5" y="-30.4" font-family="Arial" font-size="7.00">string</text>
<polygon fill="none" stroke="black" points="416.5,-25 416.5,-39 445.5,-39 445.5,-25 416.5,-25"/>
<polygon fill="none" stroke="black" points="316.5,-11 316.5,-25 369.5,-25 369.5,-11 316.5,-11"/>
<text text-anchor="start" x="319.5" y="-16.4" font-family="Arial" font-size="7.00">ContactPoint</text>
<polygon fill="none" stroke="black" points="369.5,-11 369.5,-25 416.5,-25 416.5,-11 369.5,-11"/>
<text text-anchor="start" x="372.5" y="-16.4" font-family="Arial" font-size="7.00">ContactPoint</text>
<polygon fill="none" stroke="black" points="416.5,-11 416.5,-25 445.5,-25 445.5,-11 416.5,-11"/>
<text text-anchor="start" x="419.5" y="-16.4" font-family="Arial" font-size="7.00">many</text>
</a>
</g>
</g>
<!-- Organisation&#45;&gt;Attribute -->
<g id="edge7" class="edge">
<title>Organisation&#45;&gt;Attribute</title>
<path fill="none" stroke="black" d="M379.79,-127.33C377.35,-162.21 370.64,-206.32 353.5,-242 347.39,-254.73 338.85,-266.94 329.61,-278.02"/>
<polygon fill="black" stroke="black" points="326.69,-276.04 322.77,-285.88 331.97,-280.63 326.69,-276.04"/>
<text text-anchor="middle" x="387.5" y="-208.4" font-family="Arial" font-size="7.00">receives</text>
</g>
<!-- nodeProvenance&#45;&gt;Organisation -->
<g id="edge4" class="edge">
<title>nodeProvenance&#45;&gt;Organisation</title>
<path fill="none" stroke="black" d="M316.79,-181.55C320.02,-172.01 324.02,-161.37 328.5,-152 331.01,-146.75 333.77,-141.41 336.67,-136.1"/>
<polygon fill="black" stroke="black" points="339.81,-137.65 341.66,-127.22 333.71,-134.22 339.81,-137.65"/>
<text text-anchor="middle" x="347.5" y="-154.4" font-family="Arial" font-size="7.00">asserted by</text>
</g>
</g>
</svg>
