<?xml version="1.0" encoding="UTF-8" standalone="no"?>
<!DOCTYPE svg PUBLIC "-//W3C//DTD SVG 1.1//EN"
 "http://www.w3.org/Graphics/SVG/1.1/DTD/svg11.dtd">
<!-- Generated by graphviz version 2.44.1 (20200629.0846)
 -->
<!-- Pages: 1 -->
<svg width="343pt" height="550pt"
 viewBox="0.00 0.00 342.50 550.00" xmlns="http://www.w3.org/2000/svg" xmlns:xlink="http://www.w3.org/1999/xlink">
<g id="graph0" class="graph" transform="scale(1 1) rotate(0) translate(4 546)">
<polygon fill="white" stroke="transparent" points="-4,4 -4,-546 338.5,-546 338.5,4 -4,4"/>
<!-- Attribute -->
<g id="node1" class="node">
<title>Attribute</title>
<g id="a_node1"><a xlink:href="#Attribute" xlink:title="&lt;TABLE&gt;">
<polygon fill="lightblue" stroke="transparent" points="162.5,-360 162.5,-374 291.5,-374 291.5,-360 162.5,-360"/>
<polygon fill="none" stroke="black" points="162.5,-360 162.5,-374 291.5,-374 291.5,-360 162.5,-360"/>
<text text-anchor="start" x="213" y="-365.4" font-family="Arial" font-size="7.00"> Attribute</text>
<polygon fill="lightblue" stroke="transparent" points="162.5,-346 162.5,-360 212.5,-360 212.5,-346 162.5,-346"/>
<polygon fill="none" stroke="black" points="162.5,-346 162.5,-360 212.5,-360 212.5,-346 162.5,-346"/>
<text text-anchor="start" x="174" y="-351.4" font-family="Arial" font-size="7.00">Attribute</text>
<polygon fill="lightblue" stroke="transparent" points="212.5,-346 212.5,-360 262.5,-360 262.5,-346 212.5,-346"/>
<polygon fill="none" stroke="black" points="212.5,-346 212.5,-360 262.5,-360 262.5,-346 212.5,-346"/>
<text text-anchor="start" x="229.5" y="-351.4" font-family="Arial" font-size="7.00">Field</text>
<polygon fill="lightblue" stroke="transparent" points="262.5,-346 262.5,-360 291.5,-360 291.5,-346 262.5,-346"/>
<polygon fill="none" stroke="black" points="262.5,-346 262.5,-360 291.5,-360 291.5,-346 262.5,-346"/>
<text text-anchor="start" x="265.5" y="-351.4" font-family="Arial" font-size="7.00">Occurs</text>
<polygon fill="none" stroke="black" points="162.5,-332 162.5,-346 212.5,-346 212.5,-332 162.5,-332"/>
<text text-anchor="start" x="165.5" y="-337.4" font-family="Arial" font-size="7.00">Type</text>
<polygon fill="none" stroke="black" points="212.5,-332 212.5,-346 262.5,-346 262.5,-332 212.5,-332"/>
<text text-anchor="start" x="215.5" y="-337.4" font-family="Arial" font-size="7.00">lookup</text>
<polygon fill="none" stroke="black" points="262.5,-332 262.5,-346 291.5,-346 291.5,-332 262.5,-332"/>
<polygon fill="none" stroke="black" points="162.5,-318 162.5,-332 212.5,-332 212.5,-318 162.5,-318"/>
<text text-anchor="start" x="165.5" y="-323.4" font-family="Arial" font-size="7.00">Characteristic</text>
<polygon fill="none" stroke="black" points="212.5,-318 212.5,-332 262.5,-332 262.5,-318 212.5,-318"/>
<text text-anchor="start" x="215.5" y="-323.4" font-family="Arial" font-size="7.00">Characteristic</text>
<polygon fill="none" stroke="black" points="262.5,-318 262.5,-332 291.5,-332 291.5,-318 262.5,-318"/>
<polygon fill="none" stroke="black" points="162.5,-304 162.5,-318 212.5,-318 212.5,-304 162.5,-304"/>
<text text-anchor="start" x="165.5" y="-309.4" font-family="Arial" font-size="7.00">Date</text>
<polygon fill="none" stroke="black" points="212.5,-304 212.5,-318 262.5,-318 262.5,-304 212.5,-304"/>
<text text-anchor="start" x="215.5" y="-309.4" font-family="Arial" font-size="7.00">date</text>
<polygon fill="none" stroke="black" points="262.5,-304 262.5,-318 291.5,-318 291.5,-304 262.5,-304"/>
<polygon fill="none" stroke="black" points="162.5,-290 162.5,-304 212.5,-304 212.5,-290 162.5,-290"/>
<text text-anchor="start" x="165.5" y="-295.4" font-family="Arial" font-size="7.00">EndDate</text>
<polygon fill="none" stroke="black" points="212.5,-290 212.5,-304 262.5,-304 262.5,-290 212.5,-290"/>
<text text-anchor="start" x="215.5" y="-295.4" font-family="Arial" font-size="7.00">date</text>
<polygon fill="none" stroke="black" points="262.5,-290 262.5,-304 291.5,-304 291.5,-290 262.5,-290"/>
</a>
</g>
</g>
<!-- Household -->
<g id="node2" class="node">
<title>Household</title>
<g id="a_node2"><a xlink:href="#Household" xlink:title="&lt;TABLE&gt;">
<polygon fill="lightblue" stroke="transparent" points="53.5,-224 53.5,-238 182.5,-238 182.5,-224 53.5,-224"/>
<polygon fill="none" stroke="black" points="53.5,-224 53.5,-238 182.5,-238 182.5,-224 53.5,-224"/>
<text text-anchor="start" x="100" y="-229.4" font-family="Arial" font-size="7.00"> Household</text>
<polygon fill="lightblue" stroke="transparent" points="53.5,-210 53.5,-224 103.5,-224 103.5,-210 53.5,-210"/>
<polygon fill="none" stroke="black" points="53.5,-210 53.5,-224 103.5,-224 103.5,-210 53.5,-210"/>
<text text-anchor="start" x="65" y="-215.4" font-family="Arial" font-size="7.00">Attribute</text>
<polygon fill="lightblue" stroke="transparent" points="103.5,-210 103.5,-224 153.5,-224 153.5,-210 103.5,-210"/>
<polygon fill="none" stroke="black" points="103.5,-210 103.5,-224 153.5,-224 153.5,-210 103.5,-210"/>
<text text-anchor="start" x="120.5" y="-215.4" font-family="Arial" font-size="7.00">Field</text>
<polygon fill="lightblue" stroke="transparent" points="153.5,-210 153.5,-224 182.5,-224 182.5,-210 153.5,-210"/>
<polygon fill="none" stroke="black" points="153.5,-210 153.5,-224 182.5,-224 182.5,-210 153.5,-210"/>
<text text-anchor="start" x="156.5" y="-215.4" font-family="Arial" font-size="7.00">Occurs</text>
<polygon fill="none" stroke="black" points="53.5,-196 53.5,-210 103.5,-210 103.5,-196 53.5,-196"/>
<text text-anchor="start" x="56.5" y="-201.4" font-family="Arial" font-size="7.00">Characteristic</text>
<polygon fill="none" stroke="black" points="103.5,-196 103.5,-210 153.5,-210 153.5,-196 103.5,-196"/>
<text text-anchor="start" x="106.5" y="-201.4" font-family="Arial" font-size="7.00">Characteristic</text>
<polygon fill="none" stroke="black" points="153.5,-196 153.5,-210 182.5,-210 182.5,-196 153.5,-196"/>
<text text-anchor="start" x="156.5" y="-201.4" font-family="Arial" font-size="7.00">many</text>
<polygon fill="none" stroke="black" points="53.5,-182 53.5,-196 103.5,-196 103.5,-182 53.5,-182"/>
<text text-anchor="start" x="56.5" y="-187.4" font-family="Arial" font-size="7.00">Identifier</text>
<polygon fill="none" stroke="black" points="103.5,-182 103.5,-196 153.5,-196 153.5,-182 103.5,-182"/>
<text text-anchor="start" x="106.5" y="-187.4" font-family="Arial" font-size="7.00">Identifier</text>
<polygon fill="none" stroke="black" points="153.5,-182 153.5,-196 182.5,-196 182.5,-182 153.5,-182"/>
<text text-anchor="start" x="156.5" y="-187.4" font-family="Arial" font-size="7.00">many</text>
</a>
</g>
</g>
<!-- Attribute&#45;&gt;Household -->
<g id="edge2" class="edge">
<title>Attribute&#45;&gt;Household</title>
<path fill="none" stroke="black" d="M185.6,-285.98C174.7,-273.97 163.02,-261.12 152.47,-249.5"/>
<polygon fill="black" stroke="black" points="155.03,-247.12 145.72,-242.07 149.85,-251.82 155.03,-247.12"/>
<text text-anchor="middle" x="178.5" y="-262.4" font-family="Arial" font-size="7.00">about</text>
</g>
<!-- Person -->
<g id="node4" class="node">
<title>Person</title>
<g id="a_node4"><a xlink:href="#Person" xlink:title="&lt;TABLE&gt;">
<polygon fill="lightblue" stroke="transparent" points="171.5,-116 171.5,-130 281.5,-130 281.5,-116 171.5,-116"/>
<polygon fill="none" stroke="black" points="171.5,-116 171.5,-130 281.5,-130 281.5,-116 171.5,-116"/>
<text text-anchor="start" x="214" y="-121.4" font-family="Arial" font-size="7.00"> Person</text>
<polygon fill="lightblue" stroke="transparent" points="171.5,-102 171.5,-116 218.5,-116 218.5,-102 171.5,-102"/>
<polygon fill="none" stroke="black" points="171.5,-102 171.5,-116 218.5,-116 218.5,-102 171.5,-102"/>
<text text-anchor="start" x="181.5" y="-107.4" font-family="Arial" font-size="7.00">Attribute</text>
<polygon fill="lightblue" stroke="transparent" points="218.5,-102 218.5,-116 252.5,-116 252.5,-102 218.5,-102"/>
<polygon fill="none" stroke="black" points="218.5,-102 218.5,-116 252.5,-116 252.5,-102 218.5,-102"/>
<text text-anchor="start" x="227.5" y="-107.4" font-family="Arial" font-size="7.00">Field</text>
<polygon fill="lightblue" stroke="transparent" points="252.5,-102 252.5,-116 281.5,-116 281.5,-102 252.5,-102"/>
<polygon fill="none" stroke="black" points="252.5,-102 252.5,-116 281.5,-116 281.5,-102 252.5,-102"/>
<text text-anchor="start" x="255.5" y="-107.4" font-family="Arial" font-size="7.00">Occurs</text>
<polygon fill="none" stroke="black" points="171.5,-88 171.5,-102 218.5,-102 218.5,-88 171.5,-88"/>
<text text-anchor="start" x="174.5" y="-93.4" font-family="Arial" font-size="7.00">Title</text>
<polygon fill="none" stroke="black" points="218.5,-88 218.5,-102 252.5,-102 252.5,-88 218.5,-88"/>
<text text-anchor="start" x="221.5" y="-93.4" font-family="Arial" font-size="7.00">string</text>
<polygon fill="none" stroke="black" points="252.5,-88 252.5,-102 281.5,-102 281.5,-88 252.5,-88"/>
<polygon fill="none" stroke="black" points="171.5,-74 171.5,-88 218.5,-88 218.5,-74 171.5,-74"/>
<text text-anchor="start" x="174.5" y="-79.4" font-family="Arial" font-size="7.00">FamilyName</text>
<polygon fill="none" stroke="black" points="218.5,-74 218.5,-88 252.5,-88 252.5,-74 218.5,-74"/>
<text text-anchor="start" x="221.5" y="-79.4" font-family="Arial" font-size="7.00">string</text>
<polygon fill="none" stroke="black" points="252.5,-74 252.5,-88 281.5,-88 281.5,-74 252.5,-74"/>
<polygon fill="none" stroke="black" points="171.5,-60 171.5,-74 218.5,-74 218.5,-60 171.5,-60"/>
<text text-anchor="start" x="174.5" y="-65.4" font-family="Arial" font-size="7.00">GivenNames</text>
<polygon fill="none" stroke="black" points="218.5,-60 218.5,-74 252.5,-74 252.5,-60 218.5,-60"/>
<text text-anchor="start" x="221.5" y="-65.4" font-family="Arial" font-size="7.00">string</text>
<polygon fill="none" stroke="black" points="252.5,-60 252.5,-74 281.5,-74 281.5,-60 252.5,-60"/>
<polygon fill="none" stroke="black" points="171.5,-46 171.5,-60 218.5,-60 218.5,-46 171.5,-46"/>
<text text-anchor="start" x="174.5" y="-51.4" font-family="Arial" font-size="7.00">Alias</text>
<polygon fill="none" stroke="black" points="218.5,-46 218.5,-60 252.5,-60 252.5,-46 218.5,-46"/>
<text text-anchor="start" x="221.5" y="-51.4" font-family="Arial" font-size="7.00">string</text>
<polygon fill="none" stroke="black" points="252.5,-46 252.5,-60 281.5,-60 281.5,-46 252.5,-46"/>
<text text-anchor="start" x="255.5" y="-51.4" font-family="Arial" font-size="7.00">many</text>
<polygon fill="none" stroke="black" points="171.5,-32 171.5,-46 218.5,-46 218.5,-32 171.5,-32"/>
<text text-anchor="start" x="174.5" y="-37.4" font-family="Arial" font-size="7.00">BirthDate</text>
<polygon fill="none" stroke="black" points="218.5,-32 218.5,-46 252.5,-46 252.5,-32 218.5,-32"/>
<text text-anchor="start" x="221.5" y="-37.4" font-family="Arial" font-size="7.00">date</text>
<polygon fill="none" stroke="black" points="252.5,-32 252.5,-46 281.5,-46 281.5,-32 252.5,-32"/>
<polygon fill="none" stroke="black" points="171.5,-18 171.5,-32 218.5,-32 218.5,-18 171.5,-18"/>
<text text-anchor="start" x="174.5" y="-23.4" font-family="Arial" font-size="7.00">Gender</text>
<polygon fill="none" stroke="black" points="218.5,-18 218.5,-32 252.5,-32 252.5,-18 218.5,-18"/>
<text text-anchor="start" x="221.5" y="-23.4" font-family="Arial" font-size="7.00">lookup</text>
<polygon fill="none" stroke="black" points="252.5,-18 252.5,-32 281.5,-32 281.5,-18 252.5,-18"/>
<polygon fill="none" stroke="black" points="171.5,-4 171.5,-18 218.5,-18 218.5,-4 171.5,-4"/>
<text text-anchor="start" x="174.5" y="-9.4" font-family="Arial" font-size="7.00">Identifier</text>
<polygon fill="none" stroke="black" points="218.5,-4 218.5,-18 252.5,-18 252.5,-4 218.5,-4"/>
<text text-anchor="start" x="221.5" y="-9.4" font-family="Arial" font-size="7.00">Identifier</text>
<polygon fill="none" stroke="black" points="252.5,-4 252.5,-18 281.5,-18 281.5,-4 252.5,-4"/>
<text text-anchor="start" x="255.5" y="-9.4" font-family="Arial" font-size="7.00">many</text>
</a>
</g>
</g>
<!-- Attribute&#45;&gt;Person -->
<g id="edge1" class="edge">
<title>Attribute&#45;&gt;Person</title>
<path fill="none" stroke="black" d="M226.5,-285.79C226.5,-247.01 226.5,-190.31 226.5,-144.48"/>
<polygon fill="black" stroke="black" points="230,-144.29 226.5,-134.29 223,-144.29 230,-144.29"/>
<text text-anchor="middle" x="235.5" y="-208.4" font-family="Arial" font-size="7.00">about</text>
</g>
<!-- nodeProvenance -->
<g id="node6" class="node">
<title>nodeProvenance</title>
<g id="a_node6"><a xlink:href="#Provenance" xlink:title="Provenance">
<ellipse fill="lightblue" stroke="black" cx="298.5" cy="-210" rx="36" ry="29"/>
<text text-anchor="middle" x="298.5" y="-208.4" font-family="Arial" font-size="7.00">Provenance</text>
</a>
</g>
</g>
<!-- Attribute&#45;&gt;nodeProvenance -->
<g id="edge3" class="edge">
<title>Attribute&#45;&gt;nodeProvenance</title>
<path fill="none" stroke="black" d="M253.51,-285.98C261.61,-272.49 270.35,-257.92 277.95,-245.25"/>
<polygon fill="black" stroke="black" points="281.12,-246.78 283.26,-236.4 275.11,-243.17 281.12,-246.78"/>
<text text-anchor="middle" x="275.5" y="-262.4" font-family="Arial" font-size="7.00">has</text>
</g>
<!-- Household&#45;&gt;Person -->
<g id="edge5" class="edge">
<title>Household&#45;&gt;Person</title>
<path fill="none" stroke="black" d="M141.69,-177.71C149.87,-167.13 159.39,-154.82 169.03,-142.34"/>
<polygon fill="black" stroke="black" points="172.02,-144.19 175.37,-134.14 166.48,-139.91 172.02,-144.19"/>
<text text-anchor="middle" x="173" y="-154.4" font-family="Arial" font-size="7.00">contains</text>
</g>
<!-- Residence -->
<g id="node5" class="node">
<title>Residence</title>
<g id="a_node5"><a xlink:href="#Residence" xlink:title="&lt;TABLE&gt;">
<polygon fill="lightblue" stroke="transparent" points="8.5,-102 8.5,-116 137.5,-116 137.5,-102 8.5,-102"/>
<polygon fill="none" stroke="black" points="8.5,-102 8.5,-116 137.5,-116 137.5,-102 8.5,-102"/>
<text text-anchor="start" x="55" y="-107.4" font-family="Arial" font-size="7.00"> Residence</text>
<polygon fill="lightblue" stroke="transparent" points="8.5,-88 8.5,-102 58.5,-102 58.5,-88 8.5,-88"/>
<polygon fill="none" stroke="black" points="8.5,-88 8.5,-102 58.5,-102 58.5,-88 8.5,-88"/>
<text text-anchor="start" x="20" y="-93.4" font-family="Arial" font-size="7.00">Attribute</text>
<polygon fill="lightblue" stroke="transparent" points="58.5,-88 58.5,-102 108.5,-102 108.5,-88 58.5,-88"/>
<polygon fill="none" stroke="black" points="58.5,-88 58.5,-102 108.5,-102 108.5,-88 58.5,-88"/>
<text text-anchor="start" x="75.5" y="-93.4" font-family="Arial" font-size="7.00">Field</text>
<polygon fill="lightblue" stroke="transparent" points="108.5,-88 108.5,-102 137.5,-102 137.5,-88 108.5,-88"/>
<polygon fill="none" stroke="black" points="108.5,-88 108.5,-102 137.5,-102 137.5,-88 108.5,-88"/>
<text text-anchor="start" x="111.5" y="-93.4" font-family="Arial" font-size="7.00">Occurs</text>
<polygon fill="none" stroke="black" points="8.5,-74 8.5,-88 58.5,-88 58.5,-74 8.5,-74"/>
<text text-anchor="start" x="11.5" y="-79.4" font-family="Arial" font-size="7.00">Address</text>
<polygon fill="none" stroke="black" points="58.5,-74 58.5,-88 108.5,-88 108.5,-74 58.5,-74"/>
<text text-anchor="start" x="61.5" y="-79.4" font-family="Arial" font-size="7.00">Address</text>
<polygon fill="none" stroke="black" points="108.5,-74 108.5,-88 137.5,-88 137.5,-74 108.5,-74"/>
<polygon fill="none" stroke="black" points="8.5,-60 8.5,-74 58.5,-74 58.5,-60 8.5,-60"/>
<text text-anchor="start" x="11.5" y="-65.4" font-family="Arial" font-size="7.00">Characteristic</text>
<polygon fill="none" stroke="black" points="58.5,-60 58.5,-74 108.5,-74 108.5,-60 58.5,-60"/>
<text text-anchor="start" x="61.5" y="-65.4" font-family="Arial" font-size="7.00">Characteristic</text>
<polygon fill="none" stroke="black" points="108.5,-60 108.5,-74 137.5,-74 137.5,-60 108.5,-60"/>
<text text-anchor="start" x="111.5" y="-65.4" font-family="Arial" font-size="7.00">many</text>
<polygon fill="none" stroke="black" points="8.5,-46 8.5,-60 58.5,-60 58.5,-46 8.5,-46"/>
<text text-anchor="start" x="11.5" y="-51.4" font-family="Arial" font-size="7.00">Identifier</text>
<polygon fill="none" stroke="black" points="58.5,-46 58.5,-60 108.5,-60 108.5,-46 58.5,-46"/>
<text text-anchor="start" x="61.5" y="-51.4" font-family="Arial" font-size="7.00">Identifier</text>
<polygon fill="none" stroke="black" points="108.5,-46 108.5,-60 137.5,-60 137.5,-46 108.5,-46"/>
<text text-anchor="start" x="111.5" y="-51.4" font-family="Arial" font-size="7.00">many</text>
<polygon fill="none" stroke="black" points="8.5,-32 8.5,-46 58.5,-46 58.5,-32 8.5,-32"/>
<text text-anchor="start" x="11.5" y="-37.4" font-family="Arial" font-size="7.00">Position</text>
<polygon fill="none" stroke="black" points="58.5,-32 58.5,-46 108.5,-46 108.5,-32 58.5,-32"/>
<text text-anchor="start" x="61.5" y="-37.4" font-family="Arial" font-size="7.00">Position</text>
<polygon fill="none" stroke="black" points="108.5,-32 108.5,-46 137.5,-46 137.5,-32 108.5,-32"/>
<polygon fill="none" stroke="black" points="8.5,-18 8.5,-32 58.5,-32 58.5,-18 8.5,-18"/>
<text text-anchor="start" x="11.5" y="-23.4" font-family="Arial" font-size="7.00">Area</text>
<polygon fill="none" stroke="black" points="58.5,-18 58.5,-32 108.5,-32 108.5,-18 58.5,-18"/>
<text text-anchor="start" x="61.5" y="-23.4" font-family="Arial" font-size="7.00">Identifier</text>
<polygon fill="none" stroke="black" points="108.5,-18 108.5,-32 137.5,-32 137.5,-18 108.5,-18"/>
<text text-anchor="start" x="111.5" y="-23.4" font-family="Arial" font-size="7.00">many</text>
</a>
</g>
</g>
<!-- Household&#45;&gt;Residence -->
<g id="edge4" class="edge">
<title>Household&#45;&gt;Residence</title>
<path fill="none" stroke="black" d="M107.51,-177.71C103.01,-163.6 97.53,-146.42 92.25,-129.89"/>
<polygon fill="black" stroke="black" points="95.55,-128.72 89.18,-120.25 88.88,-130.84 95.55,-128.72"/>
<text text-anchor="middle" x="118" y="-154.4" font-family="Arial" font-size="7.00">resides at</text>
</g>
<!-- Organisation -->
<g id="node3" class="node">
<title>Organisation</title>
<g id="a_node3"><a xlink:href="#Organisation" xlink:title="&lt;TABLE&gt;">
<polygon fill="lightblue" stroke="transparent" points="162.5,-524 162.5,-538 291.5,-538 291.5,-524 162.5,-524"/>
<polygon fill="none" stroke="black" points="162.5,-524 162.5,-538 291.5,-538 291.5,-524 162.5,-524"/>
<text text-anchor="start" x="206" y="-529.4" font-family="Arial" font-size="7.00"> Organisation</text>
<polygon fill="lightblue" stroke="transparent" points="162.5,-510 162.5,-524 215.5,-524 215.5,-510 162.5,-510"/>
<polygon fill="none" stroke="black" points="162.5,-510 162.5,-524 215.5,-524 215.5,-510 162.5,-510"/>
<text text-anchor="start" x="175.5" y="-515.4" font-family="Arial" font-size="7.00">Attribute</text>
<polygon fill="lightblue" stroke="transparent" points="215.5,-510 215.5,-524 262.5,-524 262.5,-510 215.5,-510"/>
<polygon fill="none" stroke="black" points="215.5,-510 215.5,-524 262.5,-524 262.5,-510 215.5,-510"/>
<text text-anchor="start" x="231" y="-515.4" font-family="Arial" font-size="7.00">Field</text>
<polygon fill="lightblue" stroke="transparent" points="262.5,-510 262.5,-524 291.5,-524 291.5,-510 262.5,-510"/>
<polygon fill="none" stroke="black" points="262.5,-510 262.5,-524 291.5,-524 291.5,-510 262.5,-510"/>
<text text-anchor="start" x="265.5" y="-515.4" font-family="Arial" font-size="7.00">Occurs</text>
<polygon fill="none" stroke="black" points="162.5,-496 162.5,-510 215.5,-510 215.5,-496 162.5,-496"/>
<text text-anchor="start" x="165.5" y="-501.4" font-family="Arial" font-size="7.00">Identifier</text>
<polygon fill="none" stroke="black" points="215.5,-496 215.5,-510 262.5,-510 262.5,-496 215.5,-496"/>
<text text-anchor="start" x="218.5" y="-501.4" font-family="Arial" font-size="7.00">Identifier</text>
<polygon fill="none" stroke="black" points="262.5,-496 262.5,-510 291.5,-510 291.5,-496 262.5,-496"/>
<text text-anchor="start" x="265.5" y="-501.4" font-family="Arial" font-size="7.00">many</text>
<polygon fill="none" stroke="black" points="162.5,-482 162.5,-496 215.5,-496 215.5,-482 162.5,-482"/>
<text text-anchor="start" x="165.5" y="-487.4" font-family="Arial" font-size="7.00">Type</text>
<polygon fill="none" stroke="black" points="215.5,-482 215.5,-496 262.5,-496 262.5,-482 215.5,-482"/>
<text text-anchor="start" x="218.5" y="-487.4" font-family="Arial" font-size="7.00">lookup</text>
<polygon fill="none" stroke="black" points="262.5,-482 262.5,-496 291.5,-496 291.5,-482 262.5,-482"/>
<polygon fill="none" stroke="black" points="162.5,-468 162.5,-482 215.5,-482 215.5,-468 162.5,-468"/>
<text text-anchor="start" x="165.5" y="-473.4" font-family="Arial" font-size="7.00">Name</text>
<polygon fill="none" stroke="black" points="215.5,-468 215.5,-482 262.5,-482 262.5,-468 215.5,-468"/>
<text text-anchor="start" x="218.5" y="-473.4" font-family="Arial" font-size="7.00">string</text>
<polygon fill="none" stroke="black" points="262.5,-468 262.5,-482 291.5,-482 291.5,-468 262.5,-468"/>
<polygon fill="none" stroke="black" points="162.5,-454 162.5,-468 215.5,-468 215.5,-454 162.5,-454"/>
<text text-anchor="start" x="165.5" y="-459.4" font-family="Arial" font-size="7.00">Department</text>
<polygon fill="none" stroke="black" points="215.5,-454 215.5,-468 262.5,-468 262.5,-454 215.5,-454"/>
<text text-anchor="start" x="218.5" y="-459.4" font-family="Arial" font-size="7.00">string</text>
<polygon fill="none" stroke="black" points="262.5,-454 262.5,-468 291.5,-468 291.5,-454 262.5,-454"/>
<polygon fill="none" stroke="black" points="162.5,-440 162.5,-454 215.5,-454 215.5,-440 162.5,-440"/>
<text text-anchor="start" x="165.5" y="-445.4" font-family="Arial" font-size="7.00">ContactPerson</text>
<polygon fill="none" stroke="black" points="215.5,-440 215.5,-454 262.5,-454 262.5,-440 215.5,-440"/>
<text text-anchor="start" x="218.5" y="-445.4" font-family="Arial" font-size="7.00">string</text>
<polygon fill="none" stroke="black" points="262.5,-440 262.5,-454 291.5,-454 291.5,-440 262.5,-440"/>
<polygon fill="none" stroke="black" points="162.5,-426 162.5,-440 215.5,-440 215.5,-426 162.5,-426"/>
<text text-anchor="start" x="165.5" y="-431.4" font-family="Arial" font-size="7.00">ContactPoint</text>
<polygon fill="none" stroke="black" points="215.5,-426 215.5,-440 262.5,-440 262.5,-426 215.5,-426"/>
<text text-anchor="start" x="218.5" y="-431.4" font-family="Arial" font-size="7.00">ContactPoint</text>
<polygon fill="none" stroke="black" points="262.5,-426 262.5,-440 291.5,-440 291.5,-426 262.5,-426"/>
<text text-anchor="start" x="265.5" y="-431.4" font-family="Arial" font-size="7.00">many</text>
</a>
</g>
</g>
<!-- Organisation&#45;&gt;Attribute -->
<g id="edge6" class="edge">
<title>Organisation&#45;&gt;Attribute</title>
<path fill="none" stroke="black" d="M202.6,-421.89C201.22,-413.26 200.95,-404.45 202.5,-396 202.99,-393.34 203.59,-390.65 204.27,-387.95"/>
<polygon fill="black" stroke="black" points="207.67,-388.78 207.06,-378.2 200.94,-386.85 207.67,-388.78"/>
<text text-anchor="middle" x="216" y="-398.4" font-family="Arial" font-size="7.00">receives</text>
</g>
<!-- Organisation&#45;&gt;Attribute -->
<g id="edge7" class="edge">
<title>Organisation&#45;&gt;Attribute</title>
<path fill="none" stroke="black" d="M229.49,-421.56C229.66,-412.98 229.7,-404.27 229.5,-396 229.44,-393.46 229.37,-390.87 229.28,-388.25"/>
<polygon fill="black" stroke="black" points="232.77,-387.94 228.91,-378.07 225.78,-388.19 232.77,-387.94"/>
<text text-anchor="middle" x="244" y="-398.4" font-family="Arial" font-size="7.00">provides</text>
</g>
</g>
</svg>
