<?xml version="1.0" encoding="UTF-8" standalone="no"?>
<!DOCTYPE svg PUBLIC "-//W3C//DTD SVG 1.1//EN"
 "http://www.w3.org/Graphics/SVG/1.1/DTD/svg11.dtd">
<!-- Generated by graphviz version 2.44.1 (20200629.0846)
 -->
<!-- Pages: 1 -->
<svg width="290pt" height="194pt"
 viewBox="0.00 0.00 290.00 194.00" xmlns="http://www.w3.org/2000/svg" xmlns:xlink="http://www.w3.org/1999/xlink">
<g id="graph0" class="graph" transform="scale(1 1) rotate(0) translate(4 190)">
<polygon fill="white" stroke="transparent" points="-4,4 -4,-190 286,-190 286,4 -4,4"/>
<!-- table_port1 -->
<g id="node1" class="node">
<title>table_port1</title>
<polygon fill="lightblue" stroke="transparent" points="188,-60 188,-74 221,-74 221,-60 188,-60"/>
<polygon fill="none" stroke="black" points="188,-60 188,-74 221,-74 221,-60 188,-60"/>
<text text-anchor="start" x="191" y="-65.4" font-family="Arial" font-size="7.00">Attribute</text>
<polygon fill="lightblue" stroke="transparent" points="221,-60 221,-74 245,-74 245,-60 221,-60"/>
<polygon fill="none" stroke="black" points="221,-60 221,-74 245,-74 245,-60 221,-60"/>
<text text-anchor="start" x="225" y="-65.4" font-family="Arial" font-size="7.00">Type</text>
<polygon fill="lightblue" stroke="transparent" points="245,-60 245,-74 274,-74 274,-60 245,-60"/>
<polygon fill="none" stroke="black" points="245,-60 245,-74 274,-74 274,-60 245,-60"/>
<text text-anchor="start" x="248" y="-65.4" font-family="Arial" font-size="7.00">Occurs</text>
<polygon fill="none" stroke="black" points="188,-46 188,-60 221,-60 221,-46 188,-46"/>
<text text-anchor="start" x="191" y="-51.4" font-family="Arial" font-size="7.00">Scheme</text>
<polygon fill="none" stroke="black" points="221,-46 221,-60 245,-60 245,-46 221,-46"/>
<text text-anchor="start" x="224" y="-51.4" font-family="Arial" font-size="7.00">string</text>
<polygon fill="none" stroke="black" points="245,-46 245,-60 274,-60 274,-46 245,-46"/>
<polygon fill="none" stroke="black" points="188,-32 188,-46 221,-46 221,-32 188,-32"/>
<text text-anchor="start" x="191" y="-37.4" font-family="Arial" font-size="7.00">Term</text>
<polygon fill="none" stroke="black" points="221,-32 221,-46 245,-46 245,-32 221,-32"/>
<text text-anchor="start" x="224" y="-37.4" font-family="Arial" font-size="7.00">string</text>
<polygon fill="none" stroke="black" points="245,-32 245,-46 274,-46 274,-32 245,-32"/>
<polygon fill="none" stroke="black" points="188,-18 188,-32 221,-32 221,-18 188,-18"/>
<text text-anchor="start" x="191" y="-23.4" font-family="Arial" font-size="7.00">URI</text>
<polygon fill="none" stroke="black" points="221,-18 221,-32 245,-32 245,-18 221,-18"/>
<text text-anchor="start" x="224" y="-23.4" font-family="Arial" font-size="7.00">string</text>
<polygon fill="none" stroke="black" points="245,-18 245,-32 274,-32 274,-18 245,-18"/>
<polygon fill="none" stroke="black" points="188,-4 188,-18 221,-18 221,-4 188,-4"/>
<text text-anchor="start" x="191" y="-9.4" font-family="Arial" font-size="7.00">Value</text>
<polygon fill="none" stroke="black" points="221,-4 221,-18 245,-18 245,-4 221,-4"/>
<text text-anchor="start" x="224" y="-9.4" font-family="Arial" font-size="7.00">string</text>
<polygon fill="none" stroke="black" points="245,-4 245,-18 274,-18 274,-4 245,-4"/>
</g>
<!-- Action -->
<g id="node2" class="node">
<title>Action</title>
<g id="a_node2"><a xlink:href="#Action" xlink:title="&lt;TABLE&gt;">
<polygon fill="lightblue" stroke="transparent" points="70,-168 70,-182 182,-182 182,-168 70,-168"/>
<polygon fill="none" stroke="black" points="70,-168 70,-182 182,-182 182,-168 70,-168"/>
<text text-anchor="start" x="115" y="-173.4" font-family="Arial" font-size="7.00"> Action</text>
<polygon fill="lightblue" stroke="transparent" points="70,-154 70,-168 103,-168 103,-154 70,-154"/>
<polygon fill="none" stroke="black" points="70,-154 70,-168 103,-168 103,-154 70,-154"/>
<text text-anchor="start" x="73" y="-159.4" font-family="Arial" font-size="7.00">Attribute</text>
<polygon fill="lightblue" stroke="transparent" points="103,-154 103,-168 153,-168 153,-154 103,-154"/>
<polygon fill="none" stroke="black" points="103,-154 103,-168 153,-168 153,-154 103,-154"/>
<text text-anchor="start" x="120" y="-159.4" font-family="Arial" font-size="7.00">Field</text>
<polygon fill="lightblue" stroke="transparent" points="153,-154 153,-168 182,-168 182,-154 153,-154"/>
<polygon fill="none" stroke="black" points="153,-154 153,-168 182,-168 182,-154 153,-154"/>
<text text-anchor="start" x="156" y="-159.4" font-family="Arial" font-size="7.00">Occurs</text>
<polygon fill="none" stroke="black" points="70,-140 70,-154 103,-154 103,-140 70,-140"/>
<text text-anchor="start" x="73" y="-145.4" font-family="Arial" font-size="7.00">Type</text>
<polygon fill="none" stroke="black" points="103,-140 103,-154 153,-154 153,-140 103,-140"/>
<text text-anchor="start" x="106" y="-145.4" font-family="Arial" font-size="7.00">Characteristic</text>
<polygon fill="none" stroke="black" points="153,-140 153,-154 182,-154 182,-140 153,-140"/>
<polygon fill="none" stroke="black" points="70,-126 70,-140 103,-140 103,-126 70,-126"/>
<text text-anchor="start" x="73" y="-131.4" font-family="Arial" font-size="7.00">Date</text>
<polygon fill="none" stroke="black" points="103,-126 103,-140 153,-140 153,-126 103,-126"/>
<text text-anchor="start" x="106" y="-131.4" font-family="Arial" font-size="7.00">date</text>
<polygon fill="none" stroke="black" points="153,-126 153,-140 182,-140 182,-126 153,-126"/>
</a>
</g>
</g>
<!-- Action&#45;&gt;table_port1 -->
<g id="edge1" class="edge">
<title>Action:1&#45;&gt;table_port1</title>
<path fill="none" stroke="black" d="M183,-147C214.15,-147 225.21,-108.78 229.07,-78.03"/>
</g>
<!-- Concept_Delivery\nOrganisation -->
<g id="node3" class="node">
<title>Concept_Delivery\nOrganisation</title>
<g id="a_node3"><a xlink:href="#Action" xlink:title="Delivery\nOrganisation">
<ellipse fill="lightblue" stroke="black" cx="36" cy="-39" rx="36" ry="29"/>
<text text-anchor="middle" x="36" y="-41.4" font-family="Arial" font-size="7.00">Delivery</text>
<text text-anchor="middle" x="36" y="-33.4" font-family="Arial" font-size="7.00">Organisation</text>
</a>
</g>
</g>
<!-- Action&#45;&gt;Concept_Delivery\nOrganisation -->
<g id="edge2" class="edge">
<title>Action&#45;&gt;Concept_Delivery\nOrganisation</title>
<path fill="none" stroke="black" d="M101.17,-121.82C88.76,-106.25 73.78,-87.43 61.31,-71.77"/>
<polygon fill="black" stroke="black" points="64.01,-69.55 55.04,-63.91 58.53,-73.91 64.01,-69.55"/>
<text text-anchor="middle" x="91.5" y="-98.4" font-family="Arial" font-size="7.00">by</text>
</g>
<!-- Concept_Need -->
<g id="node4" class="node">
<title>Concept_Need</title>
<g id="a_node4"><a xlink:href="#Action" xlink:title="Need">
<ellipse fill="lightblue" stroke="black" cx="126" cy="-39" rx="36" ry="29"/>
<text text-anchor="middle" x="126" y="-37.4" font-family="Arial" font-size="7.00">Need</text>
</a>
</g>
</g>
<!-- Action&#45;&gt;Concept_Need -->
<g id="edge3" class="edge">
<title>Action&#45;&gt;Concept_Need</title>
<path fill="none" stroke="black" d="M126,-121.82C126,-108.5 126,-92.8 126,-78.74"/>
<polygon fill="black" stroke="black" points="129.5,-78.37 126,-68.37 122.5,-78.37 129.5,-78.37"/>
<text text-anchor="middle" x="142.5" y="-98.4" font-family="Arial" font-size="7.00">addresses</text>
</g>
</g>
</svg>
