<?xml version="1.0" encoding="UTF-8" standalone="no"?>
<!DOCTYPE svg PUBLIC "-//W3C//DTD SVG 1.1//EN"
 "http://www.w3.org/Graphics/SVG/1.1/DTD/svg11.dtd">
<!-- Generated by graphviz version 2.44.1 (20200629.0846)
 -->
<!-- Pages: 1 -->
<svg width="380pt" height="324pt"
 viewBox="0.00 0.00 380.00 324.00" xmlns="http://www.w3.org/2000/svg" xmlns:xlink="http://www.w3.org/1999/xlink">
<g id="graph0" class="graph" transform="scale(1 1) rotate(0) translate(4 320)">
<polygon fill="white" stroke="transparent" points="-4,4 -4,-320 376,-320 376,4 -4,4"/>
<!-- table_port22 -->
<g id="node1" class="node">
<title>table_port22</title>
<polygon fill="lightblue" stroke="transparent" points="278,-60 278,-74 311,-74 311,-60 278,-60"/>
<polygon fill="none" stroke="black" points="278,-60 278,-74 311,-74 311,-60 278,-60"/>
<text text-anchor="start" x="281" y="-65.4" font-family="Arial" font-size="7.00">Attribute</text>
<polygon fill="lightblue" stroke="transparent" points="311,-60 311,-74 335,-74 335,-60 311,-60"/>
<polygon fill="none" stroke="black" points="311,-60 311,-74 335,-74 335,-60 311,-60"/>
<text text-anchor="start" x="315" y="-65.4" font-family="Arial" font-size="7.00">Type</text>
<polygon fill="lightblue" stroke="transparent" points="335,-60 335,-74 364,-74 364,-60 335,-60"/>
<polygon fill="none" stroke="black" points="335,-60 335,-74 364,-74 364,-60 335,-60"/>
<text text-anchor="start" x="338" y="-65.4" font-family="Arial" font-size="7.00">Occurs</text>
<polygon fill="none" stroke="black" points="278,-46 278,-60 311,-60 311,-46 278,-46"/>
<text text-anchor="start" x="281" y="-51.4" font-family="Arial" font-size="7.00">Scheme</text>
<polygon fill="none" stroke="black" points="311,-46 311,-60 335,-60 335,-46 311,-46"/>
<text text-anchor="start" x="314" y="-51.4" font-family="Arial" font-size="7.00">string</text>
<polygon fill="none" stroke="black" points="335,-46 335,-60 364,-60 364,-46 335,-46"/>
<polygon fill="none" stroke="black" points="278,-32 278,-46 311,-46 311,-32 278,-32"/>
<text text-anchor="start" x="281" y="-37.4" font-family="Arial" font-size="7.00">Term</text>
<polygon fill="none" stroke="black" points="311,-32 311,-46 335,-46 335,-32 311,-32"/>
<text text-anchor="start" x="314" y="-37.4" font-family="Arial" font-size="7.00">string</text>
<polygon fill="none" stroke="black" points="335,-32 335,-46 364,-46 364,-32 335,-32"/>
<polygon fill="none" stroke="black" points="278,-18 278,-32 311,-32 311,-18 278,-18"/>
<text text-anchor="start" x="281" y="-23.4" font-family="Arial" font-size="7.00">URI</text>
<polygon fill="none" stroke="black" points="311,-18 311,-32 335,-32 335,-18 311,-18"/>
<text text-anchor="start" x="314" y="-23.4" font-family="Arial" font-size="7.00">string</text>
<polygon fill="none" stroke="black" points="335,-18 335,-32 364,-32 364,-18 335,-18"/>
<polygon fill="none" stroke="black" points="278,-4 278,-18 311,-18 311,-4 278,-4"/>
<text text-anchor="start" x="281" y="-9.4" font-family="Arial" font-size="7.00">Value</text>
<polygon fill="none" stroke="black" points="311,-4 311,-18 335,-18 335,-4 311,-4"/>
<text text-anchor="start" x="314" y="-9.4" font-family="Arial" font-size="7.00">string</text>
<polygon fill="none" stroke="black" points="335,-4 335,-18 364,-18 364,-4 335,-4"/>
</g>
<!-- Attribute -->
<g id="node2" class="node">
<title>Attribute</title>
<g id="a_node2"><a xlink:href="#Attribute" xlink:title="&lt;TABLE&gt;">
<polygon fill="lightblue" stroke="transparent" points="107,-196 107,-210 236,-210 236,-196 107,-196"/>
<polygon fill="none" stroke="black" points="107,-196 107,-210 236,-210 236,-196 107,-196"/>
<text text-anchor="start" x="157.5" y="-201.4" font-family="Arial" font-size="7.00"> Attribute</text>
<polygon fill="lightblue" stroke="transparent" points="107,-182 107,-196 157,-196 157,-182 107,-182"/>
<polygon fill="none" stroke="black" points="107,-182 107,-196 157,-196 157,-182 107,-182"/>
<text text-anchor="start" x="118.5" y="-187.4" font-family="Arial" font-size="7.00">Attribute</text>
<polygon fill="lightblue" stroke="transparent" points="157,-182 157,-196 207,-196 207,-182 157,-182"/>
<polygon fill="none" stroke="black" points="157,-182 157,-196 207,-196 207,-182 157,-182"/>
<text text-anchor="start" x="174" y="-187.4" font-family="Arial" font-size="7.00">Field</text>
<polygon fill="lightblue" stroke="transparent" points="207,-182 207,-196 236,-196 236,-182 207,-182"/>
<polygon fill="none" stroke="black" points="207,-182 207,-196 236,-196 236,-182 207,-182"/>
<text text-anchor="start" x="210" y="-187.4" font-family="Arial" font-size="7.00">Occurs</text>
<polygon fill="none" stroke="black" points="107,-168 107,-182 157,-182 157,-168 107,-168"/>
<text text-anchor="start" x="110" y="-173.4" font-family="Arial" font-size="7.00">Type</text>
<polygon fill="none" stroke="black" points="157,-168 157,-182 207,-182 207,-168 157,-168"/>
<text text-anchor="start" x="160" y="-173.4" font-family="Arial" font-size="7.00">lookup</text>
<polygon fill="none" stroke="black" points="207,-168 207,-182 236,-182 236,-168 207,-168"/>
<polygon fill="none" stroke="black" points="107,-154 107,-168 157,-168 157,-154 107,-154"/>
<text text-anchor="start" x="110" y="-159.4" font-family="Arial" font-size="7.00">Characteristic</text>
<polygon fill="none" stroke="black" points="157,-154 157,-168 207,-168 207,-154 157,-154"/>
<text text-anchor="start" x="160" y="-159.4" font-family="Arial" font-size="7.00">Characteristic</text>
<polygon fill="none" stroke="black" points="207,-154 207,-168 236,-168 236,-154 207,-154"/>
<polygon fill="none" stroke="black" points="107,-140 107,-154 157,-154 157,-140 107,-140"/>
<text text-anchor="start" x="110" y="-145.4" font-family="Arial" font-size="7.00">Date</text>
<polygon fill="none" stroke="black" points="157,-140 157,-154 207,-154 207,-140 157,-140"/>
<text text-anchor="start" x="160" y="-145.4" font-family="Arial" font-size="7.00">date</text>
<polygon fill="none" stroke="black" points="207,-140 207,-154 236,-154 236,-140 207,-140"/>
<polygon fill="none" stroke="black" points="107,-126 107,-140 157,-140 157,-126 107,-126"/>
<text text-anchor="start" x="110" y="-131.4" font-family="Arial" font-size="7.00">EndDate</text>
<polygon fill="none" stroke="black" points="157,-126 157,-140 207,-140 207,-126 157,-126"/>
<text text-anchor="start" x="160" y="-131.4" font-family="Arial" font-size="7.00">date</text>
<polygon fill="none" stroke="black" points="207,-126 207,-140 236,-140 236,-126 207,-126"/>
</a>
</g>
</g>
<!-- Attribute&#45;&gt;table_port22 -->
<g id="edge1" class="edge">
<title>Attribute:22&#45;&gt;table_port22</title>
<path fill="none" stroke="black" d="M237,-161C277.92,-161 300.5,-113.73 311.68,-78.29"/>
</g>
<!-- Concept_Person -->
<g id="node3" class="node">
<title>Concept_Person</title>
<g id="a_node3"><a xlink:href="#Attribute" xlink:title="Person">
<ellipse fill="lightblue" stroke="black" cx="36" cy="-39" rx="36" ry="29"/>
<text text-anchor="middle" x="36" y="-37.4" font-family="Arial" font-size="7.00">Person</text>
</a>
</g>
</g>
<!-- Attribute&#45;&gt;Concept_Person -->
<g id="edge2" class="edge">
<title>Attribute&#45;&gt;Concept_Person</title>
<path fill="none" stroke="black" d="M123.02,-121.87C104.1,-104.06 82.93,-84.15 66.21,-68.42"/>
<polygon fill="black" stroke="black" points="68.54,-65.81 58.86,-61.51 63.75,-70.91 68.54,-65.81"/>
<text text-anchor="middle" x="113" y="-98.4" font-family="Arial" font-size="7.00">about</text>
</g>
<!-- Concept_Household -->
<g id="node4" class="node">
<title>Concept_Household</title>
<g id="a_node4"><a xlink:href="#Attribute" xlink:title="Household">
<ellipse fill="lightblue" stroke="black" cx="126" cy="-39" rx="36" ry="29"/>
<text text-anchor="middle" x="126" y="-37.4" font-family="Arial" font-size="7.00">Household</text>
</a>
</g>
</g>
<!-- Attribute&#45;&gt;Concept_Household -->
<g id="edge3" class="edge">
<title>Attribute&#45;&gt;Concept_Household</title>
<path fill="none" stroke="black" d="M155.01,-121.87C149.8,-107.18 144.09,-91.06 139.12,-77.04"/>
<polygon fill="black" stroke="black" points="142.29,-75.5 135.65,-67.24 135.69,-77.84 142.29,-75.5"/>
<text text-anchor="middle" x="158" y="-98.4" font-family="Arial" font-size="7.00">about</text>
</g>
<!-- Concept_Provenance -->
<g id="node5" class="node">
<title>Concept_Provenance</title>
<g id="a_node5"><a xlink:href="#Attribute" xlink:title="Provenance">
<ellipse fill="lightblue" stroke="black" cx="216" cy="-39" rx="36" ry="29"/>
<text text-anchor="middle" x="216" y="-37.4" font-family="Arial" font-size="7.00">Provenance</text>
</a>
</g>
</g>
<!-- Attribute&#45;&gt;Concept_Provenance -->
<g id="edge4" class="edge">
<title>Attribute&#45;&gt;Concept_Provenance</title>
<path fill="none" stroke="black" d="M186.99,-121.87C192.2,-107.18 197.91,-91.06 202.88,-77.04"/>
<polygon fill="black" stroke="black" points="206.31,-77.84 206.35,-67.24 199.71,-75.5 206.31,-77.84"/>
<text text-anchor="middle" x="200" y="-98.4" font-family="Arial" font-size="7.00">has</text>
</g>
<!-- ConceptOf_Lead\nOrganisation -->
<g id="node6" class="node">
<title>ConceptOf_Lead\nOrganisation</title>
<g id="a_node6"><a xlink:href="#Attribute" xlink:title="Lead\nOrganisation">
<ellipse fill="lightblue" stroke="black" cx="81" cy="-287" rx="36" ry="29"/>
<text text-anchor="middle" x="81" y="-289.4" font-family="Arial" font-size="7.00">Lead</text>
<text text-anchor="middle" x="81" y="-281.4" font-family="Arial" font-size="7.00">Organisation</text>
</a>
</g>
</g>
<!-- ConceptOf_Lead\nOrganisation&#45;&gt;Attribute -->
<g id="edge5" class="edge">
<title>ConceptOf_Lead\nOrganisation&#45;&gt;Attribute</title>
<path fill="none" stroke="black" d="M99.43,-262.04C108.29,-250.53 119.28,-236.23 129.97,-222.33"/>
<polygon fill="black" stroke="black" points="132.89,-224.28 136.22,-214.22 127.35,-220.01 132.89,-224.28"/>
<text text-anchor="middle" x="134.5" y="-234.4" font-family="Arial" font-size="7.00">receives</text>
</g>
<!-- ConceptOf_Risk\nAssessment -->
<g id="node7" class="node">
<title>ConceptOf_Risk\nAssessment</title>
<g id="a_node7"><a xlink:href="#Attribute" xlink:title="Risk\nAssessment">
<ellipse fill="lightblue" stroke="black" cx="171" cy="-287" rx="36" ry="29"/>
<text text-anchor="middle" x="171" y="-289.4" font-family="Arial" font-size="7.00">Risk</text>
<text text-anchor="middle" x="171" y="-281.4" font-family="Arial" font-size="7.00">Assessment</text>
</a>
</g>
</g>
<!-- ConceptOf_Risk\nAssessment&#45;&gt;Attribute -->
<g id="edge6" class="edge">
<title>ConceptOf_Risk\nAssessment&#45;&gt;Attribute</title>
<path fill="none" stroke="black" d="M171,-257.98C171,-247.83 171,-235.99 171,-224.32"/>
<polygon fill="black" stroke="black" points="174.5,-224.16 171,-214.16 167.5,-224.16 174.5,-224.16"/>
<text text-anchor="middle" x="179" y="-234.4" font-family="Arial" font-size="7.00">uses</text>
</g>
<!-- ConceptOf_Source\nOrganisation -->
<g id="node8" class="node">
<title>ConceptOf_Source\nOrganisation</title>
<g id="a_node8"><a xlink:href="#Attribute" xlink:title="Source\nOrganisation">
<ellipse fill="lightblue" stroke="black" cx="261" cy="-287" rx="36" ry="29"/>
<text text-anchor="middle" x="261" y="-289.4" font-family="Arial" font-size="7.00">Source</text>
<text text-anchor="middle" x="261" y="-281.4" font-family="Arial" font-size="7.00">Organisation</text>
</a>
</g>
</g>
<!-- ConceptOf_Source\nOrganisation&#45;&gt;Attribute -->
<g id="edge7" class="edge">
<title>ConceptOf_Source\nOrganisation&#45;&gt;Attribute</title>
<path fill="none" stroke="black" d="M242.57,-262.04C233.71,-250.53 222.72,-236.23 212.03,-222.33"/>
<polygon fill="black" stroke="black" points="214.65,-220.01 205.78,-214.22 209.11,-224.28 214.65,-220.01"/>
<text text-anchor="middle" x="237.5" y="-234.4" font-family="Arial" font-size="7.00">provides</text>
</g>
</g>
</svg>
