<?xml version="1.0" encoding="UTF-8" standalone="no"?>
<!DOCTYPE svg PUBLIC "-//W3C//DTD SVG 1.1//EN"
 "http://www.w3.org/Graphics/SVG/1.1/DTD/svg11.dtd">
<!-- Generated by graphviz version 2.44.1 (20200629.0846)
 -->
<!-- Pages: 1 -->
<svg width="618pt" height="338pt"
 viewBox="0.00 0.00 618.00 338.00" xmlns="http://www.w3.org/2000/svg" xmlns:xlink="http://www.w3.org/1999/xlink">
<g id="graph0" class="graph" transform="scale(1 1) rotate(0) translate(4 334)">
<polygon fill="white" stroke="transparent" points="-4,4 -4,-334 614,-334 614,4 -4,4"/>
<!-- table_port23 -->
<g id="node1" class="node">
<title>table_port23</title>
<polygon fill="lightblue" stroke="transparent" points="488,-53 488,-67 542,-67 542,-53 488,-53"/>
<polygon fill="none" stroke="black" points="488,-53 488,-67 542,-67 542,-53 488,-53"/>
<text text-anchor="start" x="501.5" y="-58.4" font-family="Arial" font-size="7.00">Attribute</text>
<polygon fill="lightblue" stroke="transparent" points="542,-53 542,-67 573,-67 573,-53 542,-53"/>
<polygon fill="none" stroke="black" points="542,-53 542,-67 573,-67 573,-53 542,-53"/>
<text text-anchor="start" x="549.5" y="-58.4" font-family="Arial" font-size="7.00">Type</text>
<polygon fill="lightblue" stroke="transparent" points="573,-53 573,-67 602,-67 602,-53 573,-53"/>
<polygon fill="none" stroke="black" points="573,-53 573,-67 602,-67 602,-53 573,-53"/>
<text text-anchor="start" x="576" y="-58.4" font-family="Arial" font-size="7.00">Occurs</text>
<polygon fill="none" stroke="black" points="488,-39 488,-53 542,-53 542,-39 488,-39"/>
<text text-anchor="start" x="491" y="-44.4" font-family="Arial" font-size="7.00">Scheme</text>
<polygon fill="none" stroke="black" points="542,-39 542,-53 573,-53 573,-39 542,-39"/>
<text text-anchor="start" x="545" y="-44.4" font-family="Arial" font-size="7.00">string</text>
<polygon fill="none" stroke="black" points="573,-39 573,-53 602,-53 602,-39 573,-39"/>
<polygon fill="none" stroke="black" points="488,-25 488,-39 542,-39 542,-25 488,-25"/>
<text text-anchor="start" x="491" y="-30.4" font-family="Arial" font-size="7.00">Reference</text>
<polygon fill="none" stroke="black" points="542,-25 542,-39 573,-39 573,-25 542,-25"/>
<text text-anchor="start" x="545" y="-30.4" font-family="Arial" font-size="7.00">string</text>
<polygon fill="none" stroke="black" points="573,-25 573,-39 602,-39 602,-25 573,-25"/>
<polygon fill="none" stroke="black" points="488,-11 488,-25 542,-25 542,-11 488,-11"/>
<text text-anchor="start" x="491" y="-16.4" font-family="Arial" font-size="7.00">Pseudonimised</text>
<polygon fill="none" stroke="black" points="542,-11 542,-25 573,-25 573,-11 542,-11"/>
<text text-anchor="start" x="545" y="-16.4" font-family="Arial" font-size="7.00">boolean</text>
<polygon fill="none" stroke="black" points="573,-11 573,-25 602,-25 602,-11 573,-11"/>
</g>
<!-- Case -->
<g id="node2" class="node">
<title>Case</title>
<g id="a_node2"><a xlink:href="#Case" xlink:title="&lt;TABLE&gt;">
<polygon fill="lightblue" stroke="transparent" points="197,-210 197,-224 326,-224 326,-210 197,-210"/>
<polygon fill="none" stroke="black" points="197,-210 197,-224 326,-224 326,-210 197,-210"/>
<text text-anchor="start" x="252" y="-215.4" font-family="Arial" font-size="7.00"> Case</text>
<polygon fill="lightblue" stroke="transparent" points="197,-196 197,-210 247,-210 247,-196 197,-196"/>
<polygon fill="none" stroke="black" points="197,-196 197,-210 247,-210 247,-196 197,-196"/>
<text text-anchor="start" x="208.5" y="-201.4" font-family="Arial" font-size="7.00">Attribute</text>
<polygon fill="lightblue" stroke="transparent" points="247,-196 247,-210 297,-210 297,-196 247,-196"/>
<polygon fill="none" stroke="black" points="247,-196 247,-210 297,-210 297,-196 247,-196"/>
<text text-anchor="start" x="264" y="-201.4" font-family="Arial" font-size="7.00">Field</text>
<polygon fill="lightblue" stroke="transparent" points="297,-196 297,-210 326,-210 326,-196 297,-196"/>
<polygon fill="none" stroke="black" points="297,-196 297,-210 326,-210 326,-196 297,-196"/>
<text text-anchor="start" x="300" y="-201.4" font-family="Arial" font-size="7.00">Occurs</text>
<polygon fill="none" stroke="black" points="197,-182 197,-196 247,-196 247,-182 197,-182"/>
<text text-anchor="start" x="200" y="-187.4" font-family="Arial" font-size="7.00">Reference</text>
<polygon fill="none" stroke="black" points="247,-182 247,-196 297,-196 297,-182 247,-182"/>
<text text-anchor="start" x="250" y="-187.4" font-family="Arial" font-size="7.00">Identifier</text>
<polygon fill="none" stroke="black" points="297,-182 297,-196 326,-196 326,-182 297,-182"/>
<polygon fill="none" stroke="black" points="197,-168 197,-182 247,-182 247,-168 197,-168"/>
<text text-anchor="start" x="200" y="-173.4" font-family="Arial" font-size="7.00">Status</text>
<polygon fill="none" stroke="black" points="247,-168 247,-182 297,-182 297,-168 247,-168"/>
<text text-anchor="start" x="250" y="-173.4" font-family="Arial" font-size="7.00">lookup</text>
<polygon fill="none" stroke="black" points="297,-168 297,-182 326,-182 326,-168 297,-168"/>
<polygon fill="none" stroke="black" points="197,-154 197,-168 247,-168 247,-154 197,-154"/>
<text text-anchor="start" x="200" y="-159.4" font-family="Arial" font-size="7.00">RiskCategory</text>
<polygon fill="none" stroke="black" points="247,-154 247,-168 297,-168 297,-154 247,-154"/>
<text text-anchor="start" x="250" y="-159.4" font-family="Arial" font-size="7.00">Characteristic</text>
<polygon fill="none" stroke="black" points="297,-154 297,-168 326,-168 326,-154 297,-154"/>
<polygon fill="none" stroke="black" points="197,-140 197,-154 247,-154 247,-140 197,-140"/>
<text text-anchor="start" x="200" y="-145.4" font-family="Arial" font-size="7.00">DateRaised</text>
<polygon fill="none" stroke="black" points="247,-140 247,-154 297,-154 297,-140 247,-140"/>
<text text-anchor="start" x="250" y="-145.4" font-family="Arial" font-size="7.00">date</text>
<polygon fill="none" stroke="black" points="297,-140 297,-154 326,-154 326,-140 297,-140"/>
<polygon fill="none" stroke="black" points="197,-126 197,-140 247,-140 247,-126 197,-126"/>
<text text-anchor="start" x="200" y="-131.4" font-family="Arial" font-size="7.00">DateClosed</text>
<polygon fill="none" stroke="black" points="247,-126 247,-140 297,-140 297,-126 247,-126"/>
<text text-anchor="start" x="250" y="-131.4" font-family="Arial" font-size="7.00">date</text>
<polygon fill="none" stroke="black" points="297,-126 297,-140 326,-140 326,-126 297,-126"/>
</a>
</g>
</g>
<!-- Case&#45;&gt;table_port23 -->
<g id="edge1" class="edge">
<title>Case:23&#45;&gt;table_port23</title>
<path fill="none" stroke="black" d="M327,-189C409.75,-189 484.18,-114.93 520.89,-71.24"/>
</g>
<!-- table_port24 -->
<g id="node3" class="node">
<title>table_port24</title>
<polygon fill="lightblue" stroke="transparent" points="368,-60 368,-74 401,-74 401,-60 368,-60"/>
<polygon fill="none" stroke="black" points="368,-60 368,-74 401,-74 401,-60 368,-60"/>
<text text-anchor="start" x="371" y="-65.4" font-family="Arial" font-size="7.00">Attribute</text>
<polygon fill="lightblue" stroke="transparent" points="401,-60 401,-74 425,-74 425,-60 401,-60"/>
<polygon fill="none" stroke="black" points="401,-60 401,-74 425,-74 425,-60 401,-60"/>
<text text-anchor="start" x="405" y="-65.4" font-family="Arial" font-size="7.00">Type</text>
<polygon fill="lightblue" stroke="transparent" points="425,-60 425,-74 454,-74 454,-60 425,-60"/>
<polygon fill="none" stroke="black" points="425,-60 425,-74 454,-74 454,-60 425,-60"/>
<text text-anchor="start" x="428" y="-65.4" font-family="Arial" font-size="7.00">Occurs</text>
<polygon fill="none" stroke="black" points="368,-46 368,-60 401,-60 401,-46 368,-46"/>
<text text-anchor="start" x="371" y="-51.4" font-family="Arial" font-size="7.00">Scheme</text>
<polygon fill="none" stroke="black" points="401,-46 401,-60 425,-60 425,-46 401,-46"/>
<text text-anchor="start" x="404" y="-51.4" font-family="Arial" font-size="7.00">string</text>
<polygon fill="none" stroke="black" points="425,-46 425,-60 454,-60 454,-46 425,-46"/>
<polygon fill="none" stroke="black" points="368,-32 368,-46 401,-46 401,-32 368,-32"/>
<text text-anchor="start" x="371" y="-37.4" font-family="Arial" font-size="7.00">Term</text>
<polygon fill="none" stroke="black" points="401,-32 401,-46 425,-46 425,-32 401,-32"/>
<text text-anchor="start" x="404" y="-37.4" font-family="Arial" font-size="7.00">string</text>
<polygon fill="none" stroke="black" points="425,-32 425,-46 454,-46 454,-32 425,-32"/>
<polygon fill="none" stroke="black" points="368,-18 368,-32 401,-32 401,-18 368,-18"/>
<text text-anchor="start" x="371" y="-23.4" font-family="Arial" font-size="7.00">URI</text>
<polygon fill="none" stroke="black" points="401,-18 401,-32 425,-32 425,-18 401,-18"/>
<text text-anchor="start" x="404" y="-23.4" font-family="Arial" font-size="7.00">string</text>
<polygon fill="none" stroke="black" points="425,-18 425,-32 454,-32 454,-18 425,-18"/>
<polygon fill="none" stroke="black" points="368,-4 368,-18 401,-18 401,-4 368,-4"/>
<text text-anchor="start" x="371" y="-9.4" font-family="Arial" font-size="7.00">Value</text>
<polygon fill="none" stroke="black" points="401,-4 401,-18 425,-18 425,-4 401,-4"/>
<text text-anchor="start" x="404" y="-9.4" font-family="Arial" font-size="7.00">string</text>
<polygon fill="none" stroke="black" points="425,-4 425,-18 454,-18 454,-4 425,-4"/>
</g>
<!-- Case&#45;&gt;table_port24 -->
<g id="edge2" class="edge">
<title>Case:24&#45;&gt;table_port24</title>
<path fill="none" stroke="black" d="M327,-161C367.92,-161 390.5,-113.73 401.68,-78.29"/>
</g>
<!-- Concept_Person -->
<g id="node4" class="node">
<title>Concept_Person</title>
<g id="a_node4"><a xlink:href="#Case" xlink:title="Person">
<ellipse fill="lightblue" stroke="black" cx="36" cy="-39" rx="36" ry="29"/>
<text text-anchor="middle" x="36" y="-37.4" font-family="Arial" font-size="7.00">Person</text>
</a>
</g>
</g>
<!-- Case&#45;&gt;Concept_Person -->
<g id="edge3" class="edge">
<title>Case&#45;&gt;Concept_Person</title>
<path fill="none" stroke="black" d="M188.46,-139.73C154.81,-122.73 114.86,-100.95 81,-78 76.45,-74.92 71.83,-71.45 67.36,-67.9"/>
<polygon fill="black" stroke="black" points="69.5,-65.13 59.55,-61.49 65.06,-70.54 69.5,-65.13"/>
<text text-anchor="middle" x="128" y="-98.4" font-family="Arial" font-size="7.00">about</text>
</g>
<!-- Concept_Household -->
<g id="node5" class="node">
<title>Concept_Household</title>
<g id="a_node5"><a xlink:href="#Case" xlink:title="Household">
<ellipse fill="lightblue" stroke="black" cx="126" cy="-39" rx="36" ry="29"/>
<text text-anchor="middle" x="126" y="-37.4" font-family="Arial" font-size="7.00">Household</text>
</a>
</g>
</g>
<!-- Case&#45;&gt;Concept_Household -->
<g id="edge4" class="edge">
<title>Case&#45;&gt;Concept_Household</title>
<path fill="none" stroke="black" d="M208.42,-121.81C190.48,-104 171.05,-84.72 155.57,-69.35"/>
<polygon fill="black" stroke="black" points="157.88,-66.71 148.31,-62.15 152.95,-71.68 157.88,-66.71"/>
<text text-anchor="middle" x="199" y="-98.4" font-family="Arial" font-size="7.00">about</text>
</g>
<!-- Concept_Risk\nAssessment -->
<g id="node6" class="node">
<title>Concept_Risk\nAssessment</title>
<g id="a_node6"><a xlink:href="#Case" xlink:title="Risk\nAssessment">
<ellipse fill="lightblue" stroke="black" cx="216" cy="-39" rx="36" ry="29"/>
<text text-anchor="middle" x="216" y="-41.4" font-family="Arial" font-size="7.00">Risk</text>
<text text-anchor="middle" x="216" y="-33.4" font-family="Arial" font-size="7.00">Assessment</text>
</a>
</g>
</g>
<!-- Case&#45;&gt;Concept_Risk\nAssessment -->
<g id="edge5" class="edge">
<title>Case&#45;&gt;Concept_Risk\nAssessment</title>
<path fill="none" stroke="black" d="M243.47,-121.81C238.43,-106.79 233.03,-90.72 228.37,-76.84"/>
<polygon fill="black" stroke="black" points="231.62,-75.53 225.12,-67.16 224.99,-77.76 231.62,-75.53"/>
<text text-anchor="middle" x="244" y="-98.4" font-family="Arial" font-size="7.00">risk</text>
</g>
<!-- Concept_Responsible\nOrganisation -->
<g id="node7" class="node">
<title>Concept_Responsible\nOrganisation</title>
<g id="a_node7"><a xlink:href="#Case" xlink:title="Responsible\nOrganisation">
<ellipse fill="lightblue" stroke="black" cx="306" cy="-39" rx="36" ry="29"/>
<text text-anchor="middle" x="306" y="-41.4" font-family="Arial" font-size="7.00">Responsible</text>
<text text-anchor="middle" x="306" y="-33.4" font-family="Arial" font-size="7.00">Organisation</text>
</a>
</g>
</g>
<!-- Case&#45;&gt;Concept_Responsible\nOrganisation -->
<g id="edge6" class="edge">
<title>Case&#45;&gt;Concept_Responsible\nOrganisation</title>
<path fill="none" stroke="black" d="M278.53,-121.81C283.57,-106.79 288.97,-90.72 293.63,-76.84"/>
<polygon fill="black" stroke="black" points="297.01,-77.76 296.88,-67.16 290.38,-75.53 297.01,-77.76"/>
<text text-anchor="middle" x="304.5" y="-98.4" font-family="Arial" font-size="7.00">assigned to</text>
</g>
<!-- ConceptOf_Contact\nEvent -->
<g id="node8" class="node">
<title>ConceptOf_Contact\nEvent</title>
<g id="a_node8"><a xlink:href="#Case" xlink:title="Contact\nEvent">
<ellipse fill="lightblue" stroke="black" cx="126" cy="-301" rx="36" ry="29"/>
<text text-anchor="middle" x="126" y="-303.4" font-family="Arial" font-size="7.00">Contact</text>
<text text-anchor="middle" x="126" y="-295.4" font-family="Arial" font-size="7.00">Event</text>
</a>
</g>
</g>
<!-- ConceptOf_Contact\nEvent&#45;&gt;Case -->
<g id="edge7" class="edge">
<title>ConceptOf_Contact\nEvent&#45;&gt;Case</title>
<path fill="none" stroke="black" d="M149.21,-278.68C162.35,-266.61 179.5,-250.86 196.4,-235.33"/>
<polygon fill="black" stroke="black" points="199.14,-237.57 204.14,-228.23 194.41,-232.41 199.14,-237.57"/>
<text text-anchor="middle" x="191" y="-248.4" font-family="Arial" font-size="7.00">about</text>
</g>
<!-- ConceptOf_Need -->
<g id="node9" class="node">
<title>ConceptOf_Need</title>
<g id="a_node9"><a xlink:href="#Case" xlink:title="Need">
<ellipse fill="lightblue" stroke="black" cx="216" cy="-301" rx="36" ry="29"/>
<text text-anchor="middle" x="216" y="-299.4" font-family="Arial" font-size="7.00">Need</text>
</a>
</g>
</g>
<!-- ConceptOf_Need&#45;&gt;Case -->
<g id="edge8" class="edge">
<title>ConceptOf_Need&#45;&gt;Case</title>
<path fill="none" stroke="black" d="M225.88,-272.79C229.67,-262.33 234.17,-249.93 238.66,-237.55"/>
<polygon fill="black" stroke="black" points="241.96,-238.72 242.09,-228.12 235.38,-236.33 241.96,-238.72"/>
<text text-anchor="middle" x="243" y="-248.4" font-family="Arial" font-size="7.00">case</text>
</g>
<!-- ConceptOf_Outcome -->
<g id="node10" class="node">
<title>ConceptOf_Outcome</title>
<g id="a_node10"><a xlink:href="#Case" xlink:title="Outcome">
<ellipse fill="lightblue" stroke="black" cx="306" cy="-301" rx="36" ry="29"/>
<text text-anchor="middle" x="306" y="-299.4" font-family="Arial" font-size="7.00">Outcome</text>
</a>
</g>
</g>
<!-- ConceptOf_Outcome&#45;&gt;Case -->
<g id="edge9" class="edge">
<title>ConceptOf_Outcome&#45;&gt;Case</title>
<path fill="none" stroke="black" d="M296.12,-272.79C292.33,-262.33 287.83,-249.93 283.34,-237.55"/>
<polygon fill="black" stroke="black" points="286.62,-236.33 279.91,-228.12 280.04,-238.72 286.62,-236.33"/>
<text text-anchor="middle" x="291.5" y="-248.4" font-family="Arial" font-size="7.00">of</text>
</g>
<!-- ConceptOf_Situation\nAssessment -->
<g id="node11" class="node">
<title>ConceptOf_Situation\nAssessment</title>
<g id="a_node11"><a xlink:href="#Case" xlink:title="Situation\nAssessment">
<ellipse fill="lightblue" stroke="black" cx="396" cy="-301" rx="36" ry="29"/>
<text text-anchor="middle" x="396" y="-303.4" font-family="Arial" font-size="7.00">Situation</text>
<text text-anchor="middle" x="396" y="-295.4" font-family="Arial" font-size="7.00">Assessment</text>
</a>
</g>
</g>
<!-- ConceptOf_Situation\nAssessment&#45;&gt;Case -->
<g id="edge10" class="edge">
<title>ConceptOf_Situation\nAssessment&#45;&gt;Case</title>
<path fill="none" stroke="black" d="M372.79,-278.68C359.65,-266.61 342.5,-250.86 325.6,-235.33"/>
<polygon fill="black" stroke="black" points="327.59,-232.41 317.86,-228.23 322.86,-237.57 327.59,-232.41"/>
<text text-anchor="middle" x="347.5" y="-248.4" font-family="Arial" font-size="7.00">of</text>
</g>
</g>
</svg>
