<?xml version="1.0" encoding="UTF-8" standalone="no"?>
<!DOCTYPE svg PUBLIC "-//W3C//DTD SVG 1.1//EN"
 "http://www.w3.org/Graphics/SVG/1.1/DTD/svg11.dtd">
<!-- Generated by graphviz version 2.44.1 (20200629.0846)
 -->
<!-- Pages: 1 -->
<svg width="290pt" height="236pt"
 viewBox="0.00 0.00 290.00 236.00" xmlns="http://www.w3.org/2000/svg" xmlns:xlink="http://www.w3.org/1999/xlink">
<g id="graph0" class="graph" transform="scale(1 1) rotate(0) translate(4 232)">
<polygon fill="white" stroke="transparent" points="-4,4 -4,-232 286,-232 286,4 -4,4"/>
<!-- table_port25 -->
<g id="node1" class="node">
<title>table_port25</title>
<polygon fill="lightblue" stroke="transparent" points="188,-60 188,-74 221,-74 221,-60 188,-60"/>
<polygon fill="none" stroke="black" points="188,-60 188,-74 221,-74 221,-60 188,-60"/>
<text text-anchor="start" x="191" y="-65.4" font-family="Arial" font-size="7.00">Attribute</text>
<polygon fill="lightblue" stroke="transparent" points="221,-60 221,-74 245,-74 245,-60 221,-60"/>
<polygon fill="none" stroke="black" points="221,-60 221,-74 245,-74 245,-60 221,-60"/>
<text text-anchor="start" x="225" y="-65.4" font-family="Arial" font-size="7.00">Type</text>
<polygon fill="lightblue" stroke="transparent" points="245,-60 245,-74 274,-74 274,-60 245,-60"/>
<polygon fill="none" stroke="black" points="245,-60 245,-74 274,-74 274,-60 245,-60"/>
<text text-anchor="start" x="248" y="-65.4" font-family="Arial" font-size="7.00">Occurs</text>
<polygon fill="none" stroke="black" points="188,-46 188,-60 221,-60 221,-46 188,-46"/>
<text text-anchor="start" x="191" y="-51.4" font-family="Arial" font-size="7.00">Scheme</text>
<polygon fill="none" stroke="black" points="221,-46 221,-60 245,-60 245,-46 221,-46"/>
<text text-anchor="start" x="224" y="-51.4" font-family="Arial" font-size="7.00">string</text>
<polygon fill="none" stroke="black" points="245,-46 245,-60 274,-60 274,-46 245,-46"/>
<polygon fill="none" stroke="black" points="188,-32 188,-46 221,-46 221,-32 188,-32"/>
<text text-anchor="start" x="191" y="-37.4" font-family="Arial" font-size="7.00">Term</text>
<polygon fill="none" stroke="black" points="221,-32 221,-46 245,-46 245,-32 221,-32"/>
<text text-anchor="start" x="224" y="-37.4" font-family="Arial" font-size="7.00">string</text>
<polygon fill="none" stroke="black" points="245,-32 245,-46 274,-46 274,-32 245,-32"/>
<polygon fill="none" stroke="black" points="188,-18 188,-32 221,-32 221,-18 188,-18"/>
<text text-anchor="start" x="191" y="-23.4" font-family="Arial" font-size="7.00">URI</text>
<polygon fill="none" stroke="black" points="221,-18 221,-32 245,-32 245,-18 221,-18"/>
<text text-anchor="start" x="224" y="-23.4" font-family="Arial" font-size="7.00">string</text>
<polygon fill="none" stroke="black" points="245,-18 245,-32 274,-32 274,-18 245,-18"/>
<polygon fill="none" stroke="black" points="188,-4 188,-18 221,-18 221,-4 188,-4"/>
<text text-anchor="start" x="191" y="-9.4" font-family="Arial" font-size="7.00">Value</text>
<polygon fill="none" stroke="black" points="221,-4 221,-18 245,-18 245,-4 221,-4"/>
<text text-anchor="start" x="224" y="-9.4" font-family="Arial" font-size="7.00">string</text>
<polygon fill="none" stroke="black" points="245,-4 245,-18 274,-18 274,-4 245,-4"/>
</g>
<!-- ContactEvent -->
<g id="node2" class="node">
<title>ContactEvent</title>
<g id="a_node2"><a xlink:href="#ContactEvent" xlink:title="&lt;TABLE&gt;">
<polygon fill="lightblue" stroke="transparent" points="57,-210 57,-224 195,-224 195,-210 57,-210"/>
<polygon fill="none" stroke="black" points="57,-210 57,-224 195,-224 195,-210 57,-210"/>
<text text-anchor="start" x="103" y="-215.4" font-family="Arial" font-size="7.00"> ContactEvent</text>
<polygon fill="lightblue" stroke="transparent" points="57,-196 57,-210 116,-210 116,-196 57,-196"/>
<polygon fill="none" stroke="black" points="57,-196 57,-210 116,-210 116,-196 57,-196"/>
<text text-anchor="start" x="73" y="-201.4" font-family="Arial" font-size="7.00">Attribute</text>
<polygon fill="lightblue" stroke="transparent" points="116,-196 116,-210 166,-210 166,-196 116,-196"/>
<polygon fill="none" stroke="black" points="116,-196 116,-210 166,-210 166,-196 116,-196"/>
<text text-anchor="start" x="133" y="-201.4" font-family="Arial" font-size="7.00">Field</text>
<polygon fill="lightblue" stroke="transparent" points="166,-196 166,-210 195,-210 195,-196 166,-196"/>
<polygon fill="none" stroke="black" points="166,-196 166,-210 195,-210 195,-196 166,-196"/>
<text text-anchor="start" x="169" y="-201.4" font-family="Arial" font-size="7.00">Occurs</text>
<polygon fill="none" stroke="black" points="57,-182 57,-196 116,-196 116,-182 57,-182"/>
<text text-anchor="start" x="60" y="-187.4" font-family="Arial" font-size="7.00">Date</text>
<polygon fill="none" stroke="black" points="116,-182 116,-196 166,-196 166,-182 116,-182"/>
<text text-anchor="start" x="119" y="-187.4" font-family="Arial" font-size="7.00">date</text>
<polygon fill="none" stroke="black" points="166,-182 166,-196 195,-196 195,-182 166,-182"/>
<polygon fill="none" stroke="black" points="57,-168 57,-182 116,-182 116,-168 57,-168"/>
<text text-anchor="start" x="60" y="-173.4" font-family="Arial" font-size="7.00">ContactRole</text>
<polygon fill="none" stroke="black" points="116,-168 116,-182 166,-182 166,-168 116,-168"/>
<text text-anchor="start" x="119" y="-173.4" font-family="Arial" font-size="7.00">Characteristic</text>
<polygon fill="none" stroke="black" points="166,-168 166,-182 195,-182 195,-168 166,-168"/>
<polygon fill="none" stroke="black" points="57,-154 57,-168 116,-168 116,-154 57,-154"/>
<text text-anchor="start" x="60" y="-159.4" font-family="Arial" font-size="7.00">ContactPerson</text>
<polygon fill="none" stroke="black" points="116,-154 116,-168 166,-168 166,-154 116,-154"/>
<text text-anchor="start" x="119" y="-159.4" font-family="Arial" font-size="7.00">string</text>
<polygon fill="none" stroke="black" points="166,-154 166,-168 195,-168 195,-154 166,-154"/>
<polygon fill="none" stroke="black" points="57,-140 57,-154 116,-154 116,-140 57,-140"/>
<text text-anchor="start" x="60" y="-145.4" font-family="Arial" font-size="7.00">ContactMethod</text>
<polygon fill="none" stroke="black" points="116,-140 116,-154 166,-154 166,-140 116,-140"/>
<text text-anchor="start" x="119" y="-145.4" font-family="Arial" font-size="7.00">lookup</text>
<polygon fill="none" stroke="black" points="166,-140 166,-154 195,-154 195,-140 166,-140"/>
<polygon fill="none" stroke="black" points="57,-126 57,-140 116,-140 116,-126 57,-126"/>
<text text-anchor="start" x="60" y="-131.4" font-family="Arial" font-size="7.00">ContactDirection</text>
<polygon fill="none" stroke="black" points="116,-126 116,-140 166,-140 166,-126 116,-126"/>
<text text-anchor="start" x="119" y="-131.4" font-family="Arial" font-size="7.00">lookup</text>
<polygon fill="none" stroke="black" points="166,-126 166,-140 195,-140 195,-126 166,-126"/>
</a>
</g>
</g>
<!-- ContactEvent&#45;&gt;table_port25 -->
<g id="edge1" class="edge">
<title>ContactEvent:25&#45;&gt;table_port25</title>
<path fill="none" stroke="black" d="M196,-175C236.19,-175 238.98,-118.24 235.97,-78.32"/>
</g>
<!-- Concept_Case -->
<g id="node3" class="node">
<title>Concept_Case</title>
<g id="a_node3"><a xlink:href="#ContactEvent" xlink:title="Case">
<ellipse fill="lightblue" stroke="black" cx="36" cy="-39" rx="36" ry="29"/>
<text text-anchor="middle" x="36" y="-37.4" font-family="Arial" font-size="7.00">Case</text>
</a>
</g>
</g>
<!-- ContactEvent&#45;&gt;Concept_Case -->
<g id="edge2" class="edge">
<title>ContactEvent&#45;&gt;Concept_Case</title>
<path fill="none" stroke="black" d="M90.95,-121.81C80.07,-105.62 68.39,-88.22 58.6,-73.64"/>
<polygon fill="black" stroke="black" points="61.25,-71.32 52.77,-64.97 55.44,-75.22 61.25,-71.32"/>
<text text-anchor="middle" x="88" y="-98.4" font-family="Arial" font-size="7.00">about</text>
</g>
<!-- Concept_Responsible\nOrganisation -->
<g id="node4" class="node">
<title>Concept_Responsible\nOrganisation</title>
<g id="a_node4"><a xlink:href="#ContactEvent" xlink:title="Responsible\nOrganisation">
<ellipse fill="lightblue" stroke="black" cx="126" cy="-39" rx="36" ry="29"/>
<text text-anchor="middle" x="126" y="-41.4" font-family="Arial" font-size="7.00">Responsible</text>
<text text-anchor="middle" x="126" y="-33.4" font-family="Arial" font-size="7.00">Organisation</text>
</a>
</g>
</g>
<!-- ContactEvent&#45;&gt;Concept_Responsible\nOrganisation -->
<g id="edge3" class="edge">
<title>ContactEvent&#45;&gt;Concept_Responsible\nOrganisation</title>
<path fill="none" stroke="black" d="M126,-121.81C126,-107.43 126,-92.09 126,-78.63"/>
<polygon fill="black" stroke="black" points="129.5,-78.28 126,-68.28 122.5,-78.28 129.5,-78.28"/>
<text text-anchor="middle" x="149" y="-98.4" font-family="Arial" font-size="7.00">passes info to</text>
</g>
</g>
</svg>
