<?xml version="1.0" encoding="UTF-8" standalone="no"?>
<!DOCTYPE svg PUBLIC "-//W3C//DTD SVG 1.1//EN"
 "http://www.w3.org/Graphics/SVG/1.1/DTD/svg11.dtd">
<!-- Generated by graphviz version 2.44.1 (20200629.0846)
 -->
<!-- Pages: 1 -->
<svg width="139pt" height="188pt"
 viewBox="0.00 0.00 139.00 188.00" xmlns="http://www.w3.org/2000/svg" xmlns:xlink="http://www.w3.org/1999/xlink">
<g id="graph0" class="graph" transform="scale(1 1) rotate(0) translate(4 184)">
<polygon fill="white" stroke="transparent" points="-4,4 -4,-184 135,-184 135,4 -4,4"/>
<!-- ContactEvent -->
<g id="node1" class="node">
<title>ContactEvent</title>
<g id="a_node1"><a xlink:href="#ContactEvent" xlink:title="&lt;TABLE&gt;">
<polygon fill="lightblue" stroke="transparent" points="8.5,-162 8.5,-176 123.5,-176 123.5,-162 8.5,-162"/>
<polygon fill="none" stroke="black" points="8.5,-162 8.5,-176 123.5,-176 123.5,-162 8.5,-162"/>
<text text-anchor="start" x="43" y="-167.4" font-family="Arial" font-size="7.00"> ContactEvent</text>
<polygon fill="lightblue" stroke="transparent" points="8.5,-148 8.5,-162 67.5,-162 67.5,-148 8.5,-148"/>
<polygon fill="none" stroke="black" points="8.5,-148 8.5,-162 67.5,-162 67.5,-148 8.5,-148"/>
<text text-anchor="start" x="24.5" y="-153.4" font-family="Arial" font-size="7.00">Attribute</text>
<polygon fill="lightblue" stroke="transparent" points="67.5,-148 67.5,-162 94.5,-162 94.5,-148 67.5,-148"/>
<polygon fill="none" stroke="black" points="67.5,-148 67.5,-162 94.5,-162 94.5,-148 67.5,-148"/>
<text text-anchor="start" x="73" y="-153.4" font-family="Arial" font-size="7.00">Field</text>
<polygon fill="lightblue" stroke="transparent" points="94.5,-148 94.5,-162 123.5,-162 123.5,-148 94.5,-148"/>
<polygon fill="none" stroke="black" points="94.5,-148 94.5,-162 123.5,-162 123.5,-148 94.5,-148"/>
<text text-anchor="start" x="97.5" y="-153.4" font-family="Arial" font-size="7.00">Occurs</text>
<polygon fill="none" stroke="black" points="8.5,-134 8.5,-148 67.5,-148 67.5,-134 8.5,-134"/>
<text text-anchor="start" x="11.5" y="-139.4" font-family="Arial" font-size="7.00">Date</text>
<polygon fill="none" stroke="black" points="67.5,-134 67.5,-148 94.5,-148 94.5,-134 67.5,-134"/>
<text text-anchor="start" x="70.5" y="-139.4" font-family="Arial" font-size="7.00">date</text>
<polygon fill="none" stroke="black" points="94.5,-134 94.5,-148 123.5,-148 123.5,-134 94.5,-134"/>
<polygon fill="none" stroke="black" points="8.5,-120 8.5,-134 67.5,-134 67.5,-120 8.5,-120"/>
<text text-anchor="start" x="11.5" y="-125.4" font-family="Arial" font-size="7.00">ContactMethod</text>
<polygon fill="none" stroke="black" points="67.5,-120 67.5,-134 94.5,-134 94.5,-120 67.5,-120"/>
<text text-anchor="start" x="70.5" y="-125.4" font-family="Arial" font-size="7.00">lookup</text>
<polygon fill="none" stroke="black" points="94.5,-120 94.5,-134 123.5,-134 123.5,-120 94.5,-120"/>
<polygon fill="none" stroke="black" points="8.5,-106 8.5,-120 67.5,-120 67.5,-106 8.5,-106"/>
<text text-anchor="start" x="11.5" y="-111.4" font-family="Arial" font-size="7.00">ContactDirection</text>
<polygon fill="none" stroke="black" points="67.5,-106 67.5,-120 94.5,-120 94.5,-106 67.5,-106"/>
<text text-anchor="start" x="70.5" y="-111.4" font-family="Arial" font-size="7.00">lookup</text>
<polygon fill="none" stroke="black" points="94.5,-106 94.5,-120 123.5,-120 123.5,-106 94.5,-106"/>
</a>
</g>
</g>
<!-- Concept_Case -->
<g id="node2" class="node">
<title>Concept_Case</title>
<g id="a_node2"><a xlink:href="#ContactEvent" xlink:title="Case">
<ellipse fill="lightblue" stroke="black" cx="65.5" cy="-29" rx="36" ry="29"/>
<text text-anchor="middle" x="65.5" y="-27.4" font-family="Arial" font-size="7.00">Case</text>
</a>
</g>
</g>
<!-- ContactEvent&#45;&gt;Concept_Case -->
<g id="edge1" class="edge">
<title>ContactEvent&#45;&gt;Concept_Case</title>
<path fill="none" stroke="black" d="M65.5,-101.84C65.5,-90.93 65.5,-79.04 65.5,-68.13"/>
<polygon fill="black" stroke="black" points="69,-68.04 65.5,-58.04 62,-68.04 69,-68.04"/>
<text text-anchor="middle" x="73.5" y="-78.4" font-family="Arial" font-size="7.00">case</text>
</g>
</g>
</svg>
