<?xml version="1.0" encoding="UTF-8" standalone="no"?>
<!DOCTYPE svg PUBLIC "-//W3C//DTD SVG 1.1//EN"
 "http://www.w3.org/Graphics/SVG/1.1/DTD/svg11.dtd">
<!-- Generated by graphviz version 2.44.1 (20200629.0846)
 -->
<!-- Pages: 1 -->
<svg width="438pt" height="296pt"
 viewBox="0.00 0.00 438.00 296.00" xmlns="http://www.w3.org/2000/svg" xmlns:xlink="http://www.w3.org/1999/xlink">
<g id="graph0" class="graph" transform="scale(1 1) rotate(0) translate(4 292)">
<polygon fill="white" stroke="transparent" points="-4,4 -4,-292 434,-292 434,4 -4,4"/>
<!-- table_port5 -->
<g id="node1" class="node">
<title>table_port5</title>
<polygon fill="lightblue" stroke="transparent" points="336,-60 336,-74 369,-74 369,-60 336,-60"/>
<polygon fill="none" stroke="black" points="336,-60 336,-74 369,-74 369,-60 336,-60"/>
<text text-anchor="start" x="339" y="-65.4" font-family="Arial" font-size="7.00">Attribute</text>
<polygon fill="lightblue" stroke="transparent" points="369,-60 369,-74 393,-74 393,-60 369,-60"/>
<polygon fill="none" stroke="black" points="369,-60 369,-74 393,-74 393,-60 369,-60"/>
<text text-anchor="start" x="373" y="-65.4" font-family="Arial" font-size="7.00">Type</text>
<polygon fill="lightblue" stroke="transparent" points="393,-60 393,-74 422,-74 422,-60 393,-60"/>
<polygon fill="none" stroke="black" points="393,-60 393,-74 422,-74 422,-60 393,-60"/>
<text text-anchor="start" x="396" y="-65.4" font-family="Arial" font-size="7.00">Occurs</text>
<polygon fill="none" stroke="black" points="336,-46 336,-60 369,-60 369,-46 336,-46"/>
<text text-anchor="start" x="339" y="-51.4" font-family="Arial" font-size="7.00">Scheme</text>
<polygon fill="none" stroke="black" points="369,-46 369,-60 393,-60 393,-46 369,-46"/>
<text text-anchor="start" x="372" y="-51.4" font-family="Arial" font-size="7.00">string</text>
<polygon fill="none" stroke="black" points="393,-46 393,-60 422,-60 422,-46 393,-46"/>
<polygon fill="none" stroke="black" points="336,-32 336,-46 369,-46 369,-32 336,-32"/>
<text text-anchor="start" x="339" y="-37.4" font-family="Arial" font-size="7.00">Term</text>
<polygon fill="none" stroke="black" points="369,-32 369,-46 393,-46 393,-32 369,-32"/>
<text text-anchor="start" x="372" y="-37.4" font-family="Arial" font-size="7.00">string</text>
<polygon fill="none" stroke="black" points="393,-32 393,-46 422,-46 422,-32 393,-32"/>
<polygon fill="none" stroke="black" points="336,-18 336,-32 369,-32 369,-18 336,-18"/>
<text text-anchor="start" x="339" y="-23.4" font-family="Arial" font-size="7.00">URI</text>
<polygon fill="none" stroke="black" points="369,-18 369,-32 393,-32 393,-18 369,-18"/>
<text text-anchor="start" x="372" y="-23.4" font-family="Arial" font-size="7.00">string</text>
<polygon fill="none" stroke="black" points="393,-18 393,-32 422,-32 422,-18 393,-18"/>
<polygon fill="none" stroke="black" points="336,-4 336,-18 369,-18 369,-4 336,-4"/>
<text text-anchor="start" x="339" y="-9.4" font-family="Arial" font-size="7.00">Value</text>
<polygon fill="none" stroke="black" points="369,-4 369,-18 393,-18 393,-4 369,-4"/>
<text text-anchor="start" x="372" y="-9.4" font-family="Arial" font-size="7.00">string</text>
<polygon fill="none" stroke="black" points="393,-4 393,-18 422,-18 422,-4 393,-4"/>
</g>
<!-- Household -->
<g id="node2" class="node">
<title>Household</title>
<g id="a_node2"><a xlink:href="#Household" xlink:title="&lt;TABLE&gt;">
<polygon fill="lightblue" stroke="transparent" points="96,-168 96,-182 225,-182 225,-168 96,-168"/>
<polygon fill="none" stroke="black" points="96,-168 96,-182 225,-182 225,-168 96,-168"/>
<text text-anchor="start" x="142.5" y="-173.4" font-family="Arial" font-size="7.00"> Household</text>
<polygon fill="lightblue" stroke="transparent" points="96,-154 96,-168 146,-168 146,-154 96,-154"/>
<polygon fill="none" stroke="black" points="96,-154 96,-168 146,-168 146,-154 96,-154"/>
<text text-anchor="start" x="107.5" y="-159.4" font-family="Arial" font-size="7.00">Attribute</text>
<polygon fill="lightblue" stroke="transparent" points="146,-154 146,-168 196,-168 196,-154 146,-154"/>
<polygon fill="none" stroke="black" points="146,-154 146,-168 196,-168 196,-154 146,-154"/>
<text text-anchor="start" x="163" y="-159.4" font-family="Arial" font-size="7.00">Field</text>
<polygon fill="lightblue" stroke="transparent" points="196,-154 196,-168 225,-168 225,-154 196,-154"/>
<polygon fill="none" stroke="black" points="196,-154 196,-168 225,-168 225,-154 196,-154"/>
<text text-anchor="start" x="199" y="-159.4" font-family="Arial" font-size="7.00">Occurs</text>
<polygon fill="none" stroke="black" points="96,-140 96,-154 146,-154 146,-140 96,-140"/>
<text text-anchor="start" x="99" y="-145.4" font-family="Arial" font-size="7.00">Characteristic</text>
<polygon fill="none" stroke="black" points="146,-140 146,-154 196,-154 196,-140 146,-140"/>
<text text-anchor="start" x="149" y="-145.4" font-family="Arial" font-size="7.00">Characteristic</text>
<polygon fill="none" stroke="black" points="196,-140 196,-154 225,-154 225,-140 196,-140"/>
<text text-anchor="start" x="199" y="-145.4" font-family="Arial" font-size="7.00">many</text>
<polygon fill="none" stroke="black" points="96,-126 96,-140 146,-140 146,-126 96,-126"/>
<text text-anchor="start" x="99" y="-131.4" font-family="Arial" font-size="7.00">Identifier</text>
<polygon fill="none" stroke="black" points="146,-126 146,-140 196,-140 196,-126 146,-126"/>
<text text-anchor="start" x="149" y="-131.4" font-family="Arial" font-size="7.00">Identifier</text>
<polygon fill="none" stroke="black" points="196,-126 196,-140 225,-140 225,-126 196,-126"/>
<text text-anchor="start" x="199" y="-131.4" font-family="Arial" font-size="7.00">many</text>
</a>
</g>
</g>
<!-- Household&#45;&gt;table_port5 -->
<g id="edge1" class="edge">
<title>Household:5&#45;&gt;table_port5</title>
<path fill="none" stroke="black" d="M226,-147C275.59,-147 320.56,-108.78 348.71,-78.03"/>
</g>
<!-- table_port6 -->
<g id="node3" class="node">
<title>table_port6</title>
<polygon fill="lightblue" stroke="transparent" points="188,-53 188,-67 242,-67 242,-53 188,-53"/>
<polygon fill="none" stroke="black" points="188,-53 188,-67 242,-67 242,-53 188,-53"/>
<text text-anchor="start" x="201.5" y="-58.4" font-family="Arial" font-size="7.00">Attribute</text>
<polygon fill="lightblue" stroke="transparent" points="242,-53 242,-67 273,-67 273,-53 242,-53"/>
<polygon fill="none" stroke="black" points="242,-53 242,-67 273,-67 273,-53 242,-53"/>
<text text-anchor="start" x="249.5" y="-58.4" font-family="Arial" font-size="7.00">Type</text>
<polygon fill="lightblue" stroke="transparent" points="273,-53 273,-67 302,-67 302,-53 273,-53"/>
<polygon fill="none" stroke="black" points="273,-53 273,-67 302,-67 302,-53 273,-53"/>
<text text-anchor="start" x="276" y="-58.4" font-family="Arial" font-size="7.00">Occurs</text>
<polygon fill="none" stroke="black" points="188,-39 188,-53 242,-53 242,-39 188,-39"/>
<text text-anchor="start" x="191" y="-44.4" font-family="Arial" font-size="7.00">Scheme</text>
<polygon fill="none" stroke="black" points="242,-39 242,-53 273,-53 273,-39 242,-39"/>
<text text-anchor="start" x="245" y="-44.4" font-family="Arial" font-size="7.00">string</text>
<polygon fill="none" stroke="black" points="273,-39 273,-53 302,-53 302,-39 273,-39"/>
<polygon fill="none" stroke="black" points="188,-25 188,-39 242,-39 242,-25 188,-25"/>
<text text-anchor="start" x="191" y="-30.4" font-family="Arial" font-size="7.00">Reference</text>
<polygon fill="none" stroke="black" points="242,-25 242,-39 273,-39 273,-25 242,-25"/>
<text text-anchor="start" x="245" y="-30.4" font-family="Arial" font-size="7.00">string</text>
<polygon fill="none" stroke="black" points="273,-25 273,-39 302,-39 302,-25 273,-25"/>
<polygon fill="none" stroke="black" points="188,-11 188,-25 242,-25 242,-11 188,-11"/>
<text text-anchor="start" x="191" y="-16.4" font-family="Arial" font-size="7.00">Pseudonimised</text>
<polygon fill="none" stroke="black" points="242,-11 242,-25 273,-25 273,-11 242,-11"/>
<text text-anchor="start" x="245" y="-16.4" font-family="Arial" font-size="7.00">boolean</text>
<polygon fill="none" stroke="black" points="273,-11 273,-25 302,-25 302,-11 273,-11"/>
</g>
<!-- Household&#45;&gt;table_port6 -->
<g id="edge2" class="edge">
<title>Household:6&#45;&gt;table_port6</title>
<path fill="none" stroke="black" d="M226,-133C251.79,-133 253.15,-98.24 250.31,-71.23"/>
</g>
<!-- Concept_Residence -->
<g id="node4" class="node">
<title>Concept_Residence</title>
<g id="a_node4"><a xlink:href="#Household" xlink:title="Residence">
<ellipse fill="lightblue" stroke="black" cx="36" cy="-39" rx="36" ry="29"/>
<text text-anchor="middle" x="36" y="-37.4" font-family="Arial" font-size="7.00">Residence</text>
</a>
</g>
</g>
<!-- Household&#45;&gt;Concept_Residence -->
<g id="edge3" class="edge">
<title>Household&#45;&gt;Concept_Residence</title>
<path fill="none" stroke="black" d="M125.79,-121.82C107.51,-105.17 85.17,-84.81 67.35,-68.57"/>
<polygon fill="black" stroke="black" points="69.26,-65.57 59.51,-61.42 64.54,-70.75 69.26,-65.57"/>
<text text-anchor="middle" x="121.5" y="-98.4" font-family="Arial" font-size="7.00">resides at</text>
</g>
<!-- Concept_Person -->
<g id="node5" class="node">
<title>Concept_Person</title>
<g id="a_node5"><a xlink:href="#Household" xlink:title="Person">
<ellipse fill="lightblue" stroke="black" cx="126" cy="-39" rx="36" ry="29"/>
<text text-anchor="middle" x="126" y="-37.4" font-family="Arial" font-size="7.00">Person</text>
</a>
</g>
</g>
<!-- Household&#45;&gt;Concept_Person -->
<g id="edge4" class="edge">
<title>Household&#45;&gt;Concept_Person</title>
<path fill="none" stroke="black" d="M150.62,-121.82C146.47,-108.02 141.55,-91.68 137.21,-77.24"/>
<polygon fill="black" stroke="black" points="140.54,-76.18 134.31,-67.61 133.84,-78.19 140.54,-76.18"/>
<text text-anchor="middle" x="159.5" y="-98.4" font-family="Arial" font-size="7.00">contains</text>
</g>
<!-- ConceptOf_Attribute -->
<g id="node6" class="node">
<title>ConceptOf_Attribute</title>
<g id="a_node6"><a xlink:href="#Household" xlink:title="Attribute">
<ellipse fill="lightblue" stroke="black" cx="70" cy="-259" rx="36" ry="29"/>
<text text-anchor="middle" x="70" y="-257.4" font-family="Arial" font-size="7.00">Attribute</text>
</a>
</g>
</g>
<!-- ConceptOf_Attribute&#45;&gt;Household -->
<g id="edge5" class="edge">
<title>ConceptOf_Attribute&#45;&gt;Household</title>
<path fill="none" stroke="black" d="M90.2,-234.88C100.68,-222.89 113.78,-207.9 125.79,-194.16"/>
<polygon fill="black" stroke="black" points="128.76,-196.07 132.7,-186.24 123.49,-191.47 128.76,-196.07"/>
<text text-anchor="middle" x="124" y="-206.4" font-family="Arial" font-size="7.00">about</text>
</g>
<!-- ConceptOf_Case -->
<g id="node7" class="node">
<title>ConceptOf_Case</title>
<g id="a_node7"><a xlink:href="#Household" xlink:title="Case">
<ellipse fill="lightblue" stroke="black" cx="160" cy="-259" rx="36" ry="29"/>
<text text-anchor="middle" x="160" y="-257.4" font-family="Arial" font-size="7.00">Case</text>
</a>
</g>
</g>
<!-- ConceptOf_Case&#45;&gt;Household -->
<g id="edge6" class="edge">
<title>ConceptOf_Case&#45;&gt;Household</title>
<path fill="none" stroke="black" d="M160,-229.85C160,-219.46 160,-207.45 160,-196.14"/>
<polygon fill="black" stroke="black" points="163.5,-196.01 160,-186.01 156.5,-196.01 163.5,-196.01"/>
<text text-anchor="middle" x="169" y="-206.4" font-family="Arial" font-size="7.00">about</text>
</g>
<!-- ConceptOf_Need -->
<g id="node8" class="node">
<title>ConceptOf_Need</title>
<g id="a_node8"><a xlink:href="#Household" xlink:title="Need">
<ellipse fill="lightblue" stroke="black" cx="250" cy="-259" rx="36" ry="29"/>
<text text-anchor="middle" x="250" y="-257.4" font-family="Arial" font-size="7.00">Need</text>
</a>
</g>
</g>
<!-- ConceptOf_Need&#45;&gt;Household -->
<g id="edge7" class="edge">
<title>ConceptOf_Need&#45;&gt;Household</title>
<path fill="none" stroke="black" d="M229.8,-234.88C219.32,-222.89 206.22,-207.9 194.21,-194.16"/>
<polygon fill="black" stroke="black" points="196.51,-191.47 187.3,-186.24 191.24,-196.07 196.51,-191.47"/>
<text text-anchor="middle" x="216" y="-206.4" font-family="Arial" font-size="7.00">about</text>
</g>
</g>
</svg>
