<?xml version="1.0" encoding="UTF-8" standalone="no"?>
<!DOCTYPE svg PUBLIC "-//W3C//DTD SVG 1.1//EN"
 "http://www.w3.org/Graphics/SVG/1.1/DTD/svg11.dtd">
<!-- Generated by graphviz version 2.44.1 (20200629.0846)
 -->
<!-- Pages: 1 -->
<svg width="470pt" height="338pt"
 viewBox="0.00 0.00 470.00 338.00" xmlns="http://www.w3.org/2000/svg" xmlns:xlink="http://www.w3.org/1999/xlink">
<g id="graph0" class="graph" transform="scale(1 1) rotate(0) translate(4 334)">
<polygon fill="white" stroke="transparent" points="-4,4 -4,-334 466,-334 466,4 -4,4"/>
<!-- table_port7 -->
<g id="node1" class="node">
<title>table_port7</title>
<polygon fill="lightblue" stroke="transparent" points="368,-60 368,-74 401,-74 401,-60 368,-60"/>
<polygon fill="none" stroke="black" points="368,-60 368,-74 401,-74 401,-60 368,-60"/>
<text text-anchor="start" x="371" y="-65.4" font-family="Arial" font-size="7.00">Attribute</text>
<polygon fill="lightblue" stroke="transparent" points="401,-60 401,-74 425,-74 425,-60 401,-60"/>
<polygon fill="none" stroke="black" points="401,-60 401,-74 425,-74 425,-60 401,-60"/>
<text text-anchor="start" x="405" y="-65.4" font-family="Arial" font-size="7.00">Type</text>
<polygon fill="lightblue" stroke="transparent" points="425,-60 425,-74 454,-74 454,-60 425,-60"/>
<polygon fill="none" stroke="black" points="425,-60 425,-74 454,-74 454,-60 425,-60"/>
<text text-anchor="start" x="428" y="-65.4" font-family="Arial" font-size="7.00">Occurs</text>
<polygon fill="none" stroke="black" points="368,-46 368,-60 401,-60 401,-46 368,-46"/>
<text text-anchor="start" x="371" y="-51.4" font-family="Arial" font-size="7.00">Scheme</text>
<polygon fill="none" stroke="black" points="401,-46 401,-60 425,-60 425,-46 401,-46"/>
<text text-anchor="start" x="404" y="-51.4" font-family="Arial" font-size="7.00">string</text>
<polygon fill="none" stroke="black" points="425,-46 425,-60 454,-60 454,-46 425,-46"/>
<polygon fill="none" stroke="black" points="368,-32 368,-46 401,-46 401,-32 368,-32"/>
<text text-anchor="start" x="371" y="-37.4" font-family="Arial" font-size="7.00">Term</text>
<polygon fill="none" stroke="black" points="401,-32 401,-46 425,-46 425,-32 401,-32"/>
<text text-anchor="start" x="404" y="-37.4" font-family="Arial" font-size="7.00">string</text>
<polygon fill="none" stroke="black" points="425,-32 425,-46 454,-46 454,-32 425,-32"/>
<polygon fill="none" stroke="black" points="368,-18 368,-32 401,-32 401,-18 368,-18"/>
<text text-anchor="start" x="371" y="-23.4" font-family="Arial" font-size="7.00">URI</text>
<polygon fill="none" stroke="black" points="401,-18 401,-32 425,-32 425,-18 401,-18"/>
<text text-anchor="start" x="404" y="-23.4" font-family="Arial" font-size="7.00">string</text>
<polygon fill="none" stroke="black" points="425,-18 425,-32 454,-32 454,-18 425,-18"/>
<polygon fill="none" stroke="black" points="368,-4 368,-18 401,-18 401,-4 368,-4"/>
<text text-anchor="start" x="371" y="-9.4" font-family="Arial" font-size="7.00">Value</text>
<polygon fill="none" stroke="black" points="401,-4 401,-18 425,-18 425,-4 401,-4"/>
<text text-anchor="start" x="404" y="-9.4" font-family="Arial" font-size="7.00">string</text>
<polygon fill="none" stroke="black" points="425,-4 425,-18 454,-18 454,-4 425,-4"/>
</g>
<!-- Need -->
<g id="node2" class="node">
<title>Need</title>
<g id="a_node2"><a xlink:href="#Need" xlink:title="&lt;TABLE&gt;">
<polygon fill="lightblue" stroke="transparent" points="155,-210 155,-224 277,-224 277,-210 155,-210"/>
<polygon fill="none" stroke="black" points="155,-210 155,-224 277,-224 277,-210 155,-210"/>
<text text-anchor="start" x="206.5" y="-215.4" font-family="Arial" font-size="7.00"> Need</text>
<polygon fill="lightblue" stroke="transparent" points="155,-196 155,-210 198,-210 198,-196 155,-196"/>
<polygon fill="none" stroke="black" points="155,-196 155,-210 198,-210 198,-196 155,-196"/>
<text text-anchor="start" x="163" y="-201.4" font-family="Arial" font-size="7.00">Attribute</text>
<polygon fill="lightblue" stroke="transparent" points="198,-196 198,-210 248,-210 248,-196 198,-196"/>
<polygon fill="none" stroke="black" points="198,-196 198,-210 248,-210 248,-196 198,-196"/>
<text text-anchor="start" x="215" y="-201.4" font-family="Arial" font-size="7.00">Field</text>
<polygon fill="lightblue" stroke="transparent" points="248,-196 248,-210 277,-210 277,-196 248,-196"/>
<polygon fill="none" stroke="black" points="248,-196 248,-210 277,-210 277,-196 248,-196"/>
<text text-anchor="start" x="251" y="-201.4" font-family="Arial" font-size="7.00">Occurs</text>
<polygon fill="none" stroke="black" points="155,-182 155,-196 198,-196 198,-182 155,-182"/>
<text text-anchor="start" x="158" y="-187.4" font-family="Arial" font-size="7.00">Type</text>
<polygon fill="none" stroke="black" points="198,-182 198,-196 248,-196 248,-182 198,-182"/>
<text text-anchor="start" x="201" y="-187.4" font-family="Arial" font-size="7.00">Characteristic</text>
<polygon fill="none" stroke="black" points="248,-182 248,-196 277,-196 277,-182 248,-182"/>
<text text-anchor="start" x="251" y="-187.4" font-family="Arial" font-size="7.00">once</text>
<polygon fill="none" stroke="black" points="155,-168 155,-182 198,-182 198,-168 155,-168"/>
<text text-anchor="start" x="158" y="-173.4" font-family="Arial" font-size="7.00">Rationale</text>
<polygon fill="none" stroke="black" points="198,-168 198,-182 248,-182 248,-168 198,-168"/>
<text text-anchor="start" x="201" y="-173.4" font-family="Arial" font-size="7.00">text</text>
<polygon fill="none" stroke="black" points="248,-168 248,-182 277,-182 277,-168 248,-168"/>
<polygon fill="none" stroke="black" points="155,-154 155,-168 198,-168 198,-154 155,-154"/>
<text text-anchor="start" x="158" y="-159.4" font-family="Arial" font-size="7.00">Date</text>
<polygon fill="none" stroke="black" points="198,-154 198,-168 248,-168 248,-154 198,-154"/>
<text text-anchor="start" x="201" y="-159.4" font-family="Arial" font-size="7.00">date</text>
<polygon fill="none" stroke="black" points="248,-154 248,-168 277,-168 277,-154 248,-154"/>
<polygon fill="none" stroke="black" points="155,-140 155,-154 198,-154 198,-140 155,-140"/>
<text text-anchor="start" x="158" y="-145.4" font-family="Arial" font-size="7.00">EndDate</text>
<polygon fill="none" stroke="black" points="198,-140 198,-154 248,-154 248,-140 198,-140"/>
<text text-anchor="start" x="201" y="-145.4" font-family="Arial" font-size="7.00">date</text>
<polygon fill="none" stroke="black" points="248,-140 248,-154 277,-154 277,-140 248,-140"/>
<polygon fill="none" stroke="black" points="155,-126 155,-140 198,-140 198,-126 155,-126"/>
<text text-anchor="start" x="158" y="-131.4" font-family="Arial" font-size="7.00">Target Date</text>
<polygon fill="none" stroke="black" points="198,-126 198,-140 248,-140 248,-126 198,-126"/>
<text text-anchor="start" x="201" y="-131.4" font-family="Arial" font-size="7.00">date</text>
<polygon fill="none" stroke="black" points="248,-126 248,-140 277,-140 277,-126 248,-126"/>
</a>
</g>
</g>
<!-- Need&#45;&gt;table_port7 -->
<g id="edge1" class="edge">
<title>Need:7&#45;&gt;table_port7</title>
<path fill="none" stroke="black" d="M278,-189C337.29,-189 376.72,-122.52 396.36,-78.37"/>
</g>
<!-- Concept_Person -->
<g id="node3" class="node">
<title>Concept_Person</title>
<g id="a_node3"><a xlink:href="#Need" xlink:title="Person">
<ellipse fill="lightblue" stroke="black" cx="36" cy="-39" rx="36" ry="29"/>
<text text-anchor="middle" x="36" y="-37.4" font-family="Arial" font-size="7.00">Person</text>
</a>
</g>
</g>
<!-- Need&#45;&gt;Concept_Person -->
<g id="edge2" class="edge">
<title>Need&#45;&gt;Concept_Person</title>
<path fill="none" stroke="black" d="M146.86,-126.49C125.48,-111.36 102.02,-94.3 81,-78 76.66,-74.63 72.15,-71 67.75,-67.37"/>
<polygon fill="black" stroke="black" points="69.9,-64.61 59.98,-60.89 65.42,-69.98 69.9,-64.61"/>
<text text-anchor="middle" x="123" y="-98.4" font-family="Arial" font-size="7.00">about</text>
</g>
<!-- Concept_Household -->
<g id="node4" class="node">
<title>Concept_Household</title>
<g id="a_node4"><a xlink:href="#Need" xlink:title="Household">
<ellipse fill="lightblue" stroke="black" cx="126" cy="-39" rx="36" ry="29"/>
<text text-anchor="middle" x="126" y="-37.4" font-family="Arial" font-size="7.00">Household</text>
</a>
</g>
</g>
<!-- Need&#45;&gt;Concept_Household -->
<g id="edge3" class="edge">
<title>Need&#45;&gt;Concept_Household</title>
<path fill="none" stroke="black" d="M180.95,-121.81C170.07,-105.62 158.39,-88.22 148.6,-73.64"/>
<polygon fill="black" stroke="black" points="151.25,-71.32 142.77,-64.97 145.44,-75.22 151.25,-71.32"/>
<text text-anchor="middle" x="178" y="-98.4" font-family="Arial" font-size="7.00">about</text>
</g>
<!-- Concept_Case -->
<g id="node5" class="node">
<title>Concept_Case</title>
<g id="a_node5"><a xlink:href="#Need" xlink:title="Case">
<ellipse fill="lightblue" stroke="black" cx="216" cy="-39" rx="36" ry="29"/>
<text text-anchor="middle" x="216" y="-37.4" font-family="Arial" font-size="7.00">Case</text>
</a>
</g>
</g>
<!-- Need&#45;&gt;Concept_Case -->
<g id="edge4" class="edge">
<title>Need&#45;&gt;Concept_Case</title>
<path fill="none" stroke="black" d="M216,-121.81C216,-107.43 216,-92.09 216,-78.63"/>
<polygon fill="black" stroke="black" points="219.5,-78.28 216,-68.28 212.5,-78.28 219.5,-78.28"/>
<text text-anchor="middle" x="224" y="-98.4" font-family="Arial" font-size="7.00">case</text>
</g>
<!-- Concept_Delivery\nOrganisation -->
<g id="node6" class="node">
<title>Concept_Delivery\nOrganisation</title>
<g id="a_node6"><a xlink:href="#Need" xlink:title="Delivery\nOrganisation">
<ellipse fill="lightblue" stroke="black" cx="306" cy="-39" rx="36" ry="29"/>
<text text-anchor="middle" x="306" y="-41.4" font-family="Arial" font-size="7.00">Delivery</text>
<text text-anchor="middle" x="306" y="-33.4" font-family="Arial" font-size="7.00">Organisation</text>
</a>
</g>
</g>
<!-- Need&#45;&gt;Concept_Delivery\nOrganisation -->
<g id="edge5" class="edge">
<title>Need&#45;&gt;Concept_Delivery\nOrganisation</title>
<path fill="none" stroke="black" d="M251.05,-121.81C261.93,-105.62 273.61,-88.22 283.4,-73.64"/>
<polygon fill="black" stroke="black" points="286.56,-75.22 289.23,-64.97 280.75,-71.32 286.56,-75.22"/>
<text text-anchor="middle" x="283" y="-98.4" font-family="Arial" font-size="7.00">referred to</text>
</g>
<!-- ConceptOf_Action -->
<g id="node7" class="node">
<title>ConceptOf_Action</title>
<g id="a_node7"><a xlink:href="#Need" xlink:title="Action">
<ellipse fill="lightblue" stroke="black" cx="126" cy="-301" rx="36" ry="29"/>
<text text-anchor="middle" x="126" y="-299.4" font-family="Arial" font-size="7.00">Action</text>
</a>
</g>
</g>
<!-- ConceptOf_Action&#45;&gt;Need -->
<g id="edge6" class="edge">
<title>ConceptOf_Action&#45;&gt;Need</title>
<path fill="none" stroke="black" d="M143.78,-275.5C152,-264.17 162.17,-250.17 172.25,-236.28"/>
<polygon fill="black" stroke="black" points="175.12,-238.29 178.16,-228.14 169.45,-234.18 175.12,-238.29"/>
<text text-anchor="middle" x="179.5" y="-248.4" font-family="Arial" font-size="7.00">addresses</text>
</g>
<!-- ConceptOf_Outcome -->
<g id="node8" class="node">
<title>ConceptOf_Outcome</title>
<g id="a_node8"><a xlink:href="#Need" xlink:title="Outcome">
<ellipse fill="lightblue" stroke="black" cx="216" cy="-301" rx="36" ry="29"/>
<text text-anchor="middle" x="216" y="-299.4" font-family="Arial" font-size="7.00">Outcome</text>
</a>
</g>
</g>
<!-- ConceptOf_Outcome&#45;&gt;Need -->
<g id="edge7" class="edge">
<title>ConceptOf_Outcome&#45;&gt;Need</title>
<path fill="none" stroke="black" d="M216,-271.86C216,-261.91 216,-250.29 216,-238.63"/>
<polygon fill="black" stroke="black" points="219.5,-238.42 216,-228.42 212.5,-238.42 219.5,-238.42"/>
<text text-anchor="middle" x="219.5" y="-248.4" font-family="Arial" font-size="7.00">of</text>
</g>
<!-- ConceptOf_Plan -->
<g id="node9" class="node">
<title>ConceptOf_Plan</title>
<g id="a_node9"><a xlink:href="#Need" xlink:title="Plan">
<ellipse fill="lightblue" stroke="black" cx="306" cy="-301" rx="36" ry="29"/>
<text text-anchor="middle" x="306" y="-299.4" font-family="Arial" font-size="7.00">Plan</text>
</a>
</g>
</g>
<!-- ConceptOf_Plan&#45;&gt;Need -->
<g id="edge8" class="edge">
<title>ConceptOf_Plan&#45;&gt;Need</title>
<path fill="none" stroke="black" d="M288.22,-275.5C280,-264.17 269.83,-250.17 259.75,-236.28"/>
<polygon fill="black" stroke="black" points="262.55,-234.18 253.84,-228.14 256.88,-238.29 262.55,-234.18"/>
<text text-anchor="middle" x="280" y="-248.4" font-family="Arial" font-size="7.00">about</text>
</g>
</g>
</svg>
