<?xml version="1.0" encoding="UTF-8" standalone="no"?>
<!DOCTYPE svg PUBLIC "-//W3C//DTD SVG 1.1//EN"
 "http://www.w3.org/Graphics/SVG/1.1/DTD/svg11.dtd">
<!-- Generated by graphviz version 2.44.1 (20200629.0846)
 -->
<!-- Pages: 1 -->
<svg width="352pt" height="338pt"
 viewBox="0.00 0.00 352.00 338.00" xmlns="http://www.w3.org/2000/svg" xmlns:xlink="http://www.w3.org/1999/xlink">
<g id="graph0" class="graph" transform="scale(1 1) rotate(0) translate(4 334)">
<polygon fill="white" stroke="transparent" points="-4,4 -4,-334 348,-334 348,4 -4,4"/>
<!-- table_port29 -->
<g id="node1" class="node">
<title>table_port29</title>
<polygon fill="lightblue" stroke="transparent" points="222,-46 222,-60 276,-60 276,-46 222,-46"/>
<polygon fill="none" stroke="black" points="222,-46 222,-60 276,-60 276,-46 222,-46"/>
<text text-anchor="start" x="235.5" y="-51.4" font-family="Arial" font-size="7.00">Attribute</text>
<polygon fill="lightblue" stroke="transparent" points="276,-46 276,-60 307,-60 307,-46 276,-46"/>
<polygon fill="none" stroke="black" points="276,-46 276,-60 307,-60 307,-46 276,-46"/>
<text text-anchor="start" x="283.5" y="-51.4" font-family="Arial" font-size="7.00">Type</text>
<polygon fill="lightblue" stroke="transparent" points="307,-46 307,-60 336,-60 336,-46 307,-46"/>
<polygon fill="none" stroke="black" points="307,-46 307,-60 336,-60 336,-46 307,-46"/>
<text text-anchor="start" x="310" y="-51.4" font-family="Arial" font-size="7.00">Occurs</text>
<polygon fill="none" stroke="black" points="222,-32 222,-46 276,-46 276,-32 222,-32"/>
<text text-anchor="start" x="225" y="-37.4" font-family="Arial" font-size="7.00">Scheme</text>
<polygon fill="none" stroke="black" points="276,-32 276,-46 307,-46 307,-32 276,-32"/>
<text text-anchor="start" x="279" y="-37.4" font-family="Arial" font-size="7.00">string</text>
<polygon fill="none" stroke="black" points="307,-32 307,-46 336,-46 336,-32 307,-32"/>
<polygon fill="none" stroke="black" points="222,-18 222,-32 276,-32 276,-18 222,-18"/>
<text text-anchor="start" x="225" y="-23.4" font-family="Arial" font-size="7.00">Reference</text>
<polygon fill="none" stroke="black" points="276,-18 276,-32 307,-32 307,-18 276,-18"/>
<text text-anchor="start" x="279" y="-23.4" font-family="Arial" font-size="7.00">string</text>
<polygon fill="none" stroke="black" points="307,-18 307,-32 336,-32 336,-18 307,-18"/>
<polygon fill="none" stroke="black" points="222,-4 222,-18 276,-18 276,-4 222,-4"/>
<text text-anchor="start" x="225" y="-9.4" font-family="Arial" font-size="7.00">Pseudonimised</text>
<polygon fill="none" stroke="black" points="276,-4 276,-18 307,-18 307,-4 276,-4"/>
<text text-anchor="start" x="279" y="-9.4" font-family="Arial" font-size="7.00">boolean</text>
<polygon fill="none" stroke="black" points="307,-4 307,-18 336,-18 336,-4 307,-4"/>
</g>
<!-- Organisation -->
<g id="node2" class="node">
<title>Organisation</title>
<g id="a_node2"><a xlink:href="#Organisation" xlink:title="&lt;TABLE&gt;">
<polygon fill="lightblue" stroke="transparent" points="28,-210 28,-224 157,-224 157,-210 28,-210"/>
<polygon fill="none" stroke="black" points="28,-210 28,-224 157,-224 157,-210 28,-210"/>
<text text-anchor="start" x="71.5" y="-215.4" font-family="Arial" font-size="7.00"> Organisation</text>
<polygon fill="lightblue" stroke="transparent" points="28,-196 28,-210 81,-210 81,-196 28,-196"/>
<polygon fill="none" stroke="black" points="28,-196 28,-210 81,-210 81,-196 28,-196"/>
<text text-anchor="start" x="41" y="-201.4" font-family="Arial" font-size="7.00">Attribute</text>
<polygon fill="lightblue" stroke="transparent" points="81,-196 81,-210 128,-210 128,-196 81,-196"/>
<polygon fill="none" stroke="black" points="81,-196 81,-210 128,-210 128,-196 81,-196"/>
<text text-anchor="start" x="96.5" y="-201.4" font-family="Arial" font-size="7.00">Field</text>
<polygon fill="lightblue" stroke="transparent" points="128,-196 128,-210 157,-210 157,-196 128,-196"/>
<polygon fill="none" stroke="black" points="128,-196 128,-210 157,-210 157,-196 128,-196"/>
<text text-anchor="start" x="131" y="-201.4" font-family="Arial" font-size="7.00">Occurs</text>
<polygon fill="none" stroke="black" points="28,-182 28,-196 81,-196 81,-182 28,-182"/>
<text text-anchor="start" x="31" y="-187.4" font-family="Arial" font-size="7.00">Identifier</text>
<polygon fill="none" stroke="black" points="81,-182 81,-196 128,-196 128,-182 81,-182"/>
<text text-anchor="start" x="84" y="-187.4" font-family="Arial" font-size="7.00">Identifier</text>
<polygon fill="none" stroke="black" points="128,-182 128,-196 157,-196 157,-182 128,-182"/>
<text text-anchor="start" x="131" y="-187.4" font-family="Arial" font-size="7.00">many</text>
<polygon fill="none" stroke="black" points="28,-168 28,-182 81,-182 81,-168 28,-168"/>
<text text-anchor="start" x="31" y="-173.4" font-family="Arial" font-size="7.00">Type</text>
<polygon fill="none" stroke="black" points="81,-168 81,-182 128,-182 128,-168 81,-168"/>
<text text-anchor="start" x="84" y="-173.4" font-family="Arial" font-size="7.00">lookup</text>
<polygon fill="none" stroke="black" points="128,-168 128,-182 157,-182 157,-168 128,-168"/>
<polygon fill="none" stroke="black" points="28,-154 28,-168 81,-168 81,-154 28,-154"/>
<text text-anchor="start" x="31" y="-159.4" font-family="Arial" font-size="7.00">Name</text>
<polygon fill="none" stroke="black" points="81,-154 81,-168 128,-168 128,-154 81,-154"/>
<text text-anchor="start" x="84" y="-159.4" font-family="Arial" font-size="7.00">string</text>
<polygon fill="none" stroke="black" points="128,-154 128,-168 157,-168 157,-154 128,-154"/>
<polygon fill="none" stroke="black" points="28,-140 28,-154 81,-154 81,-140 28,-140"/>
<text text-anchor="start" x="31" y="-145.4" font-family="Arial" font-size="7.00">Department</text>
<polygon fill="none" stroke="black" points="81,-140 81,-154 128,-154 128,-140 81,-140"/>
<text text-anchor="start" x="84" y="-145.4" font-family="Arial" font-size="7.00">string</text>
<polygon fill="none" stroke="black" points="128,-140 128,-154 157,-154 157,-140 128,-140"/>
<polygon fill="none" stroke="black" points="28,-126 28,-140 81,-140 81,-126 28,-126"/>
<text text-anchor="start" x="31" y="-131.4" font-family="Arial" font-size="7.00">ContactPerson</text>
<polygon fill="none" stroke="black" points="81,-126 81,-140 128,-140 128,-126 81,-126"/>
<text text-anchor="start" x="84" y="-131.4" font-family="Arial" font-size="7.00">string</text>
<polygon fill="none" stroke="black" points="128,-126 128,-140 157,-140 157,-126 128,-126"/>
<polygon fill="none" stroke="black" points="28,-112 28,-126 81,-126 81,-112 28,-112"/>
<text text-anchor="start" x="31" y="-117.4" font-family="Arial" font-size="7.00">ContactPoint</text>
<polygon fill="none" stroke="black" points="81,-112 81,-126 128,-126 128,-112 81,-112"/>
<text text-anchor="start" x="84" y="-117.4" font-family="Arial" font-size="7.00">ContactPoint</text>
<polygon fill="none" stroke="black" points="128,-112 128,-126 157,-126 157,-112 128,-112"/>
<text text-anchor="start" x="131" y="-117.4" font-family="Arial" font-size="7.00">many</text>
</a>
</g>
</g>
<!-- Organisation&#45;&gt;table_port29 -->
<g id="edge1" class="edge">
<title>Organisation:29&#45;&gt;table_port29</title>
<path fill="none" stroke="black" d="M158,-189C220.55,-189 255.41,-109.72 270.27,-64.19"/>
</g>
<!-- table_port30 -->
<g id="node3" class="node">
<title>table_port30</title>
<polygon fill="lightblue" stroke="transparent" points="99,-39 99,-53 132,-53 132,-39 99,-39"/>
<polygon fill="none" stroke="black" points="99,-39 99,-53 132,-53 132,-39 99,-39"/>
<text text-anchor="start" x="102" y="-44.4" font-family="Arial" font-size="7.00">Attribute</text>
<polygon fill="lightblue" stroke="transparent" points="132,-39 132,-53 159,-53 159,-39 132,-39"/>
<polygon fill="none" stroke="black" points="132,-39 132,-53 159,-53 159,-39 132,-39"/>
<text text-anchor="start" x="137.5" y="-44.4" font-family="Arial" font-size="7.00">Type</text>
<polygon fill="lightblue" stroke="transparent" points="159,-39 159,-53 188,-53 188,-39 159,-39"/>
<polygon fill="none" stroke="black" points="159,-39 159,-53 188,-53 188,-39 159,-39"/>
<text text-anchor="start" x="162" y="-44.4" font-family="Arial" font-size="7.00">Occurs</text>
<polygon fill="none" stroke="black" points="99,-25 99,-39 132,-39 132,-25 99,-25"/>
<text text-anchor="start" x="102" y="-30.4" font-family="Arial" font-size="7.00">System</text>
<polygon fill="none" stroke="black" points="132,-25 132,-39 159,-39 159,-25 132,-25"/>
<text text-anchor="start" x="135" y="-30.4" font-family="Arial" font-size="7.00">lookup</text>
<polygon fill="none" stroke="black" points="159,-25 159,-39 188,-39 188,-25 159,-25"/>
<polygon fill="none" stroke="black" points="99,-11 99,-25 132,-25 132,-11 99,-11"/>
<text text-anchor="start" x="102" y="-16.4" font-family="Arial" font-size="7.00">Value</text>
<polygon fill="none" stroke="black" points="132,-11 132,-25 159,-25 159,-11 132,-11"/>
<text text-anchor="start" x="135" y="-16.4" font-family="Arial" font-size="7.00">string</text>
<polygon fill="none" stroke="black" points="159,-11 159,-25 188,-25 188,-11 159,-11"/>
</g>
<!-- Organisation&#45;&gt;table_port30 -->
<g id="edge2" class="edge">
<title>Organisation:30&#45;&gt;table_port30</title>
<path fill="none" stroke="black" d="M143,-111C143,-92.99 143,-72.64 143,-57.24"/>
</g>
<!-- Concept_Attribute -->
<g id="node4" class="node">
<title>Concept_Attribute</title>
<g id="a_node4"><a xlink:href="#LeadOrganisation" xlink:title="Attribute">
<ellipse fill="lightblue" stroke="black" cx="36" cy="-32" rx="36" ry="29"/>
<text text-anchor="middle" x="36" y="-30.4" font-family="Arial" font-size="7.00">Attribute</text>
</a>
</g>
</g>
<!-- Organisation&#45;&gt;Concept_Attribute -->
<g id="edge3" class="edge">
<title>Organisation&#45;&gt;Concept_Attribute</title>
<path fill="none" stroke="black" d="M67.27,-107.84C61.78,-94.69 56.12,-81.14 51.14,-69.24"/>
<polygon fill="black" stroke="black" points="54.23,-67.55 47.15,-59.67 47.77,-70.25 54.23,-67.55"/>
<text text-anchor="middle" x="73" y="-84.4" font-family="Arial" font-size="7.00">receives</text>
</g>
<!-- ConceptOf_Risk\nAssessment -->
<g id="node5" class="node">
<title>ConceptOf_Risk\nAssessment</title>
<g id="a_node5"><a xlink:href="#LeadOrganisation" xlink:title="Risk\nAssessment">
<ellipse fill="lightblue" stroke="black" cx="47" cy="-301" rx="36" ry="29"/>
<text text-anchor="middle" x="47" y="-303.4" font-family="Arial" font-size="7.00">Risk</text>
<text text-anchor="middle" x="47" y="-295.4" font-family="Arial" font-size="7.00">Assessment</text>
</a>
</g>
</g>
<!-- ConceptOf_Risk\nAssessment&#45;&gt;Organisation -->
<g id="edge4" class="edge">
<title>ConceptOf_Risk\nAssessment&#45;&gt;Organisation</title>
<path fill="none" stroke="black" d="M56.32,-272.86C59.87,-262.53 64.1,-250.23 68.38,-237.77"/>
<polygon fill="black" stroke="black" points="71.71,-238.84 71.65,-228.25 65.09,-236.57 71.71,-238.84"/>
<text text-anchor="middle" x="70.5" y="-248.4" font-family="Arial" font-size="7.00">by</text>
</g>
<!-- ConceptOf_Stratification\nPolicy -->
<g id="node6" class="node">
<title>ConceptOf_Stratification\nPolicy</title>
<g id="a_node6"><a xlink:href="#LeadOrganisation" xlink:title="Stratification\nPolicy">
<ellipse fill="lightblue" stroke="black" cx="137" cy="-301" rx="36" ry="29"/>
<text text-anchor="middle" x="137" y="-303.4" font-family="Arial" font-size="7.00">Stratification</text>
<text text-anchor="middle" x="137" y="-295.4" font-family="Arial" font-size="7.00">Policy</text>
</a>
</g>
</g>
<!-- ConceptOf_Stratification\nPolicy&#45;&gt;Organisation -->
<g id="edge5" class="edge">
<title>ConceptOf_Stratification\nPolicy&#45;&gt;Organisation</title>
<path fill="none" stroke="black" d="M127.68,-272.86C124.13,-262.53 119.9,-250.23 115.62,-237.77"/>
<polygon fill="black" stroke="black" points="118.91,-236.57 112.35,-228.25 112.29,-238.84 118.91,-236.57"/>
<text text-anchor="middle" x="140.5" y="-248.4" font-family="Arial" font-size="7.00">designed by</text>
</g>
</g>
</svg>
