<?xml version="1.0" encoding="UTF-8" standalone="no"?>
<!DOCTYPE svg PUBLIC "-//W3C//DTD SVG 1.1//EN"
 "http://www.w3.org/Graphics/SVG/1.1/DTD/svg11.dtd">
<!-- Generated by graphviz version 2.44.1 (20200629.0846)
 -->
<!-- Pages: 1 -->
<svg width="800pt" height="338pt"
 viewBox="0.00 0.00 800.00 338.00" xmlns="http://www.w3.org/2000/svg" xmlns:xlink="http://www.w3.org/1999/xlink">
<g id="graph0" class="graph" transform="scale(1 1) rotate(0) translate(4 334)">
<polygon fill="white" stroke="transparent" points="-4,4 -4,-334 796,-334 796,4 -4,4"/>
<!-- table_port9 -->
<g id="node1" class="node">
<title>table_port9</title>
<polygon fill="lightblue" stroke="transparent" points="526,-46 526,-60 580,-60 580,-46 526,-46"/>
<polygon fill="none" stroke="black" points="526,-46 526,-60 580,-60 580,-46 526,-46"/>
<text text-anchor="start" x="539.5" y="-51.4" font-family="Arial" font-size="7.00">Attribute</text>
<polygon fill="lightblue" stroke="transparent" points="580,-46 580,-60 611,-60 611,-46 580,-46"/>
<polygon fill="none" stroke="black" points="580,-46 580,-60 611,-60 611,-46 580,-46"/>
<text text-anchor="start" x="587.5" y="-51.4" font-family="Arial" font-size="7.00">Type</text>
<polygon fill="lightblue" stroke="transparent" points="611,-46 611,-60 640,-60 640,-46 611,-46"/>
<polygon fill="none" stroke="black" points="611,-46 611,-60 640,-60 640,-46 611,-46"/>
<text text-anchor="start" x="614" y="-51.4" font-family="Arial" font-size="7.00">Occurs</text>
<polygon fill="none" stroke="black" points="526,-32 526,-46 580,-46 580,-32 526,-32"/>
<text text-anchor="start" x="529" y="-37.4" font-family="Arial" font-size="7.00">Scheme</text>
<polygon fill="none" stroke="black" points="580,-32 580,-46 611,-46 611,-32 580,-32"/>
<text text-anchor="start" x="583" y="-37.4" font-family="Arial" font-size="7.00">string</text>
<polygon fill="none" stroke="black" points="611,-32 611,-46 640,-46 640,-32 611,-32"/>
<polygon fill="none" stroke="black" points="526,-18 526,-32 580,-32 580,-18 526,-18"/>
<text text-anchor="start" x="529" y="-23.4" font-family="Arial" font-size="7.00">Reference</text>
<polygon fill="none" stroke="black" points="580,-18 580,-32 611,-32 611,-18 580,-18"/>
<text text-anchor="start" x="583" y="-23.4" font-family="Arial" font-size="7.00">string</text>
<polygon fill="none" stroke="black" points="611,-18 611,-32 640,-32 640,-18 611,-18"/>
<polygon fill="none" stroke="black" points="526,-4 526,-18 580,-18 580,-4 526,-4"/>
<text text-anchor="start" x="529" y="-9.4" font-family="Arial" font-size="7.00">Pseudonimised</text>
<polygon fill="none" stroke="black" points="580,-4 580,-18 611,-18 611,-4 580,-4"/>
<text text-anchor="start" x="583" y="-9.4" font-family="Arial" font-size="7.00">boolean</text>
<polygon fill="none" stroke="black" points="611,-4 611,-18 640,-18 640,-4 611,-4"/>
</g>
<!-- Organisation -->
<g id="node2" class="node">
<title>Organisation</title>
<g id="a_node2"><a xlink:href="#Organisation" xlink:title="&lt;TABLE&gt;">
<polygon fill="lightblue" stroke="transparent" points="332,-210 332,-224 461,-224 461,-210 332,-210"/>
<polygon fill="none" stroke="black" points="332,-210 332,-224 461,-224 461,-210 332,-210"/>
<text text-anchor="start" x="375.5" y="-215.4" font-family="Arial" font-size="7.00"> Organisation</text>
<polygon fill="lightblue" stroke="transparent" points="332,-196 332,-210 385,-210 385,-196 332,-196"/>
<polygon fill="none" stroke="black" points="332,-196 332,-210 385,-210 385,-196 332,-196"/>
<text text-anchor="start" x="345" y="-201.4" font-family="Arial" font-size="7.00">Attribute</text>
<polygon fill="lightblue" stroke="transparent" points="385,-196 385,-210 432,-210 432,-196 385,-196"/>
<polygon fill="none" stroke="black" points="385,-196 385,-210 432,-210 432,-196 385,-196"/>
<text text-anchor="start" x="400.5" y="-201.4" font-family="Arial" font-size="7.00">Field</text>
<polygon fill="lightblue" stroke="transparent" points="432,-196 432,-210 461,-210 461,-196 432,-196"/>
<polygon fill="none" stroke="black" points="432,-196 432,-210 461,-210 461,-196 432,-196"/>
<text text-anchor="start" x="435" y="-201.4" font-family="Arial" font-size="7.00">Occurs</text>
<polygon fill="none" stroke="black" points="332,-182 332,-196 385,-196 385,-182 332,-182"/>
<text text-anchor="start" x="335" y="-187.4" font-family="Arial" font-size="7.00">Identifier</text>
<polygon fill="none" stroke="black" points="385,-182 385,-196 432,-196 432,-182 385,-182"/>
<text text-anchor="start" x="388" y="-187.4" font-family="Arial" font-size="7.00">Identifier</text>
<polygon fill="none" stroke="black" points="432,-182 432,-196 461,-196 461,-182 432,-182"/>
<text text-anchor="start" x="435" y="-187.4" font-family="Arial" font-size="7.00">many</text>
<polygon fill="none" stroke="black" points="332,-168 332,-182 385,-182 385,-168 332,-168"/>
<text text-anchor="start" x="335" y="-173.4" font-family="Arial" font-size="7.00">Type</text>
<polygon fill="none" stroke="black" points="385,-168 385,-182 432,-182 432,-168 385,-168"/>
<text text-anchor="start" x="388" y="-173.4" font-family="Arial" font-size="7.00">lookup</text>
<polygon fill="none" stroke="black" points="432,-168 432,-182 461,-182 461,-168 432,-168"/>
<polygon fill="none" stroke="black" points="332,-154 332,-168 385,-168 385,-154 332,-154"/>
<text text-anchor="start" x="335" y="-159.4" font-family="Arial" font-size="7.00">Name</text>
<polygon fill="none" stroke="black" points="385,-154 385,-168 432,-168 432,-154 385,-154"/>
<text text-anchor="start" x="388" y="-159.4" font-family="Arial" font-size="7.00">string</text>
<polygon fill="none" stroke="black" points="432,-154 432,-168 461,-168 461,-154 432,-154"/>
<polygon fill="none" stroke="black" points="332,-140 332,-154 385,-154 385,-140 332,-140"/>
<text text-anchor="start" x="335" y="-145.4" font-family="Arial" font-size="7.00">Department</text>
<polygon fill="none" stroke="black" points="385,-140 385,-154 432,-154 432,-140 385,-140"/>
<text text-anchor="start" x="388" y="-145.4" font-family="Arial" font-size="7.00">string</text>
<polygon fill="none" stroke="black" points="432,-140 432,-154 461,-154 461,-140 432,-140"/>
<polygon fill="none" stroke="black" points="332,-126 332,-140 385,-140 385,-126 332,-126"/>
<text text-anchor="start" x="335" y="-131.4" font-family="Arial" font-size="7.00">ContactPerson</text>
<polygon fill="none" stroke="black" points="385,-126 385,-140 432,-140 432,-126 385,-126"/>
<text text-anchor="start" x="388" y="-131.4" font-family="Arial" font-size="7.00">string</text>
<polygon fill="none" stroke="black" points="432,-126 432,-140 461,-140 461,-126 432,-126"/>
<polygon fill="none" stroke="black" points="332,-112 332,-126 385,-126 385,-112 332,-112"/>
<text text-anchor="start" x="335" y="-117.4" font-family="Arial" font-size="7.00">ContactPoint</text>
<polygon fill="none" stroke="black" points="385,-112 385,-126 432,-126 432,-112 385,-112"/>
<text text-anchor="start" x="388" y="-117.4" font-family="Arial" font-size="7.00">ContactPoint</text>
<polygon fill="none" stroke="black" points="432,-112 432,-126 461,-126 461,-112 432,-112"/>
<text text-anchor="start" x="435" y="-117.4" font-family="Arial" font-size="7.00">many</text>
</a>
</g>
</g>
<!-- Organisation&#45;&gt;table_port9 -->
<g id="edge1" class="edge">
<title>Organisation:9&#45;&gt;table_port9</title>
<path fill="none" stroke="black" d="M462,-189C524.55,-189 559.41,-109.72 574.27,-64.19"/>
</g>
<!-- table_port10 -->
<g id="node3" class="node">
<title>table_port10</title>
<polygon fill="lightblue" stroke="transparent" points="403,-39 403,-53 436,-53 436,-39 403,-39"/>
<polygon fill="none" stroke="black" points="403,-39 403,-53 436,-53 436,-39 403,-39"/>
<text text-anchor="start" x="406" y="-44.4" font-family="Arial" font-size="7.00">Attribute</text>
<polygon fill="lightblue" stroke="transparent" points="436,-39 436,-53 463,-53 463,-39 436,-39"/>
<polygon fill="none" stroke="black" points="436,-39 436,-53 463,-53 463,-39 436,-39"/>
<text text-anchor="start" x="441.5" y="-44.4" font-family="Arial" font-size="7.00">Type</text>
<polygon fill="lightblue" stroke="transparent" points="463,-39 463,-53 492,-53 492,-39 463,-39"/>
<polygon fill="none" stroke="black" points="463,-39 463,-53 492,-53 492,-39 463,-39"/>
<text text-anchor="start" x="466" y="-44.4" font-family="Arial" font-size="7.00">Occurs</text>
<polygon fill="none" stroke="black" points="403,-25 403,-39 436,-39 436,-25 403,-25"/>
<text text-anchor="start" x="406" y="-30.4" font-family="Arial" font-size="7.00">System</text>
<polygon fill="none" stroke="black" points="436,-25 436,-39 463,-39 463,-25 436,-25"/>
<text text-anchor="start" x="439" y="-30.4" font-family="Arial" font-size="7.00">lookup</text>
<polygon fill="none" stroke="black" points="463,-25 463,-39 492,-39 492,-25 463,-25"/>
<polygon fill="none" stroke="black" points="403,-11 403,-25 436,-25 436,-11 403,-11"/>
<text text-anchor="start" x="406" y="-16.4" font-family="Arial" font-size="7.00">Value</text>
<polygon fill="none" stroke="black" points="436,-11 436,-25 463,-25 463,-11 436,-11"/>
<text text-anchor="start" x="439" y="-16.4" font-family="Arial" font-size="7.00">string</text>
<polygon fill="none" stroke="black" points="463,-11 463,-25 492,-25 492,-11 463,-11"/>
</g>
<!-- Organisation&#45;&gt;table_port10 -->
<g id="edge2" class="edge">
<title>Organisation:10&#45;&gt;table_port10</title>
<path fill="none" stroke="black" d="M447,-111C447,-92.99 447,-72.64 447,-57.24"/>
</g>
<!-- Concept_Attribute -->
<g id="node4" class="node">
<title>Concept_Attribute</title>
<g id="a_node4"><a xlink:href="#LeadOrganisation" xlink:title="Attribute">
<ellipse fill="lightblue" stroke="black" cx="340" cy="-32" rx="36" ry="29"/>
<text text-anchor="middle" x="340" y="-30.4" font-family="Arial" font-size="7.00">Attribute</text>
</a>
</g>
</g>
<!-- Organisation&#45;&gt;Concept_Attribute -->
<g id="edge3" class="edge">
<title>Organisation&#45;&gt;Concept_Attribute</title>
<path fill="none" stroke="black" d="M371.27,-107.84C365.78,-94.69 360.12,-81.14 355.14,-69.24"/>
<polygon fill="black" stroke="black" points="358.23,-67.55 351.15,-59.67 351.77,-70.25 358.23,-67.55"/>
<text text-anchor="middle" x="377" y="-84.4" font-family="Arial" font-size="7.00">receives</text>
</g>
<!-- ConceptOf_Risk\nAssessment -->
<g id="node5" class="node">
<title>ConceptOf_Risk\nAssessment</title>
<g id="a_node5"><a xlink:href="#LeadOrganisation" xlink:title="Risk\nAssessment">
<ellipse fill="lightblue" stroke="black" cx="36" cy="-301" rx="36" ry="29"/>
<text text-anchor="middle" x="36" y="-303.4" font-family="Arial" font-size="7.00">Risk</text>
<text text-anchor="middle" x="36" y="-295.4" font-family="Arial" font-size="7.00">Assessment</text>
</a>
</g>
</g>
<!-- ConceptOf_Risk\nAssessment&#45;&gt;Organisation -->
<g id="edge4" class="edge">
<title>ConceptOf_Risk\nAssessment&#45;&gt;Organisation</title>
<path fill="none" stroke="black" d="M63.02,-281.74C68.81,-278.24 75,-274.8 81,-272 157.14,-236.5 248.89,-207.99 313.68,-190.04"/>
<polygon fill="black" stroke="black" points="314.72,-193.39 323.44,-187.36 312.87,-186.64 314.72,-193.39"/>
<text text-anchor="middle" x="144.5" y="-248.4" font-family="Arial" font-size="7.00">by</text>
</g>
<!-- ConceptOf_Stratification\nPolicy -->
<g id="node6" class="node">
<title>ConceptOf_Stratification\nPolicy</title>
<g id="a_node6"><a xlink:href="#LeadOrganisation" xlink:title="Stratification\nPolicy">
<ellipse fill="lightblue" stroke="black" cx="126" cy="-301" rx="36" ry="29"/>
<text text-anchor="middle" x="126" y="-303.4" font-family="Arial" font-size="7.00">Stratification</text>
<text text-anchor="middle" x="126" y="-295.4" font-family="Arial" font-size="7.00">Policy</text>
</a>
</g>
</g>
<!-- ConceptOf_Stratification\nPolicy&#45;&gt;Organisation -->
<g id="edge5" class="edge">
<title>ConceptOf_Stratification\nPolicy&#45;&gt;Organisation</title>
<path fill="none" stroke="black" d="M153.76,-281.96C159.39,-278.52 165.33,-275.05 171,-272 217.37,-247.09 270.88,-222.44 314.09,-203.49"/>
<polygon fill="black" stroke="black" points="315.66,-206.63 323.43,-199.42 312.86,-200.21 315.66,-206.63"/>
<text text-anchor="middle" x="239.5" y="-248.4" font-family="Arial" font-size="7.00">designed by</text>
</g>
<!-- ConceptOf_Case -->
<g id="node7" class="node">
<title>ConceptOf_Case</title>
<g id="a_node7"><a xlink:href="#ResponsibleOrganisation" xlink:title="Case">
<ellipse fill="lightblue" stroke="black" cx="216" cy="-301" rx="36" ry="29"/>
<text text-anchor="middle" x="216" y="-299.4" font-family="Arial" font-size="7.00">Case</text>
</a>
</g>
</g>
<!-- ConceptOf_Case&#45;&gt;Organisation -->
<g id="edge6" class="edge">
<title>ConceptOf_Case&#45;&gt;Organisation</title>
<path fill="none" stroke="black" d="M242.17,-280.95C261.44,-266.93 288.74,-247.06 315,-227.95"/>
<polygon fill="black" stroke="black" points="317.09,-230.76 323.11,-222.05 312.97,-225.1 317.09,-230.76"/>
<text text-anchor="middle" x="308.5" y="-248.4" font-family="Arial" font-size="7.00">assigned to</text>
</g>
<!-- ConceptOf_Contact\nEvent -->
<g id="node8" class="node">
<title>ConceptOf_Contact\nEvent</title>
<g id="a_node8"><a xlink:href="#ResponsibleOrganisation" xlink:title="Contact\nEvent">
<ellipse fill="lightblue" stroke="black" cx="306" cy="-301" rx="36" ry="29"/>
<text text-anchor="middle" x="306" y="-303.4" font-family="Arial" font-size="7.00">Contact</text>
<text text-anchor="middle" x="306" y="-295.4" font-family="Arial" font-size="7.00">Event</text>
</a>
</g>
</g>
<!-- ConceptOf_Contact\nEvent&#45;&gt;Organisation -->
<g id="edge7" class="edge">
<title>ConceptOf_Contact\nEvent&#45;&gt;Organisation</title>
<path fill="none" stroke="black" d="M322.93,-275.36C330.56,-264.25 339.99,-250.53 349.5,-236.68"/>
<polygon fill="black" stroke="black" points="352.65,-238.29 355.42,-228.06 346.88,-234.32 352.65,-238.29"/>
<text text-anchor="middle" x="366" y="-248.4" font-family="Arial" font-size="7.00">passes info to</text>
</g>
<!-- ConceptOf_Situation\nAssessment -->
<g id="node9" class="node">
<title>ConceptOf_Situation\nAssessment</title>
<g id="a_node9"><a xlink:href="#ResponsibleOrganisation" xlink:title="Situation\nAssessment">
<ellipse fill="lightblue" stroke="black" cx="396" cy="-301" rx="36" ry="29"/>
<text text-anchor="middle" x="396" y="-303.4" font-family="Arial" font-size="7.00">Situation</text>
<text text-anchor="middle" x="396" y="-295.4" font-family="Arial" font-size="7.00">Assessment</text>
</a>
</g>
</g>
<!-- ConceptOf_Situation\nAssessment&#45;&gt;Organisation -->
<g id="edge8" class="edge">
<title>ConceptOf_Situation\nAssessment&#45;&gt;Organisation</title>
<path fill="none" stroke="black" d="M396,-271.9C396,-261.85 396,-250.05 396,-238.08"/>
<polygon fill="black" stroke="black" points="399.5,-238.02 396,-228.02 392.5,-238.02 399.5,-238.02"/>
<text text-anchor="middle" x="400.5" y="-248.4" font-family="Arial" font-size="7.00">by</text>
</g>
<!-- ConceptOf_Action -->
<g id="node10" class="node">
<title>ConceptOf_Action</title>
<g id="a_node10"><a xlink:href="#DeliveryOrganisation" xlink:title="Action">
<ellipse fill="lightblue" stroke="black" cx="486" cy="-301" rx="36" ry="29"/>
<text text-anchor="middle" x="486" y="-299.4" font-family="Arial" font-size="7.00">Action</text>
</a>
</g>
</g>
<!-- ConceptOf_Action&#45;&gt;Organisation -->
<g id="edge9" class="edge">
<title>ConceptOf_Action&#45;&gt;Organisation</title>
<path fill="none" stroke="black" d="M469.07,-275.36C461.44,-264.25 452.01,-250.53 442.5,-236.68"/>
<polygon fill="black" stroke="black" points="445.12,-234.32 436.58,-228.06 439.35,-238.29 445.12,-234.32"/>
<text text-anchor="middle" x="458.5" y="-248.4" font-family="Arial" font-size="7.00">by</text>
</g>
<!-- ConceptOf_Need -->
<g id="node11" class="node">
<title>ConceptOf_Need</title>
<g id="a_node11"><a xlink:href="#DeliveryOrganisation" xlink:title="Need">
<ellipse fill="lightblue" stroke="black" cx="576" cy="-301" rx="36" ry="29"/>
<text text-anchor="middle" x="576" y="-299.4" font-family="Arial" font-size="7.00">Need</text>
</a>
</g>
</g>
<!-- ConceptOf_Need&#45;&gt;Organisation -->
<g id="edge10" class="edge">
<title>ConceptOf_Need&#45;&gt;Organisation</title>
<path fill="none" stroke="black" d="M549.83,-280.95C530.56,-266.93 503.26,-247.06 477,-227.95"/>
<polygon fill="black" stroke="black" points="479.03,-225.1 468.89,-222.05 474.91,-230.76 479.03,-225.1"/>
<text text-anchor="middle" x="529" y="-248.4" font-family="Arial" font-size="7.00">referred to</text>
</g>
<!-- ConceptOf_Plan -->
<g id="node12" class="node">
<title>ConceptOf_Plan</title>
<g id="a_node12"><a xlink:href="#DeliveryOrganisation" xlink:title="Plan">
<ellipse fill="lightblue" stroke="black" cx="666" cy="-301" rx="36" ry="29"/>
<text text-anchor="middle" x="666" y="-299.4" font-family="Arial" font-size="7.00">Plan</text>
</a>
</g>
</g>
<!-- ConceptOf_Plan&#45;&gt;Organisation -->
<g id="edge11" class="edge">
<title>ConceptOf_Plan&#45;&gt;Organisation</title>
<path fill="none" stroke="black" d="M638.24,-281.96C632.61,-278.52 626.67,-275.05 621,-272 574.63,-247.09 521.12,-222.44 477.91,-203.49"/>
<polygon fill="black" stroke="black" points="479.14,-200.21 468.57,-199.42 476.34,-206.63 479.14,-200.21"/>
<text text-anchor="middle" x="588.5" y="-248.4" font-family="Arial" font-size="7.00">of</text>
</g>
<!-- ConceptOf_Provenance -->
<g id="node13" class="node">
<title>ConceptOf_Provenance</title>
<g id="a_node13"><a xlink:href="#SourceOrganisation" xlink:title="Provenance">
<ellipse fill="lightblue" stroke="black" cx="756" cy="-301" rx="36" ry="29"/>
<text text-anchor="middle" x="756" y="-299.4" font-family="Arial" font-size="7.00">Provenance</text>
</a>
</g>
</g>
<!-- ConceptOf_Provenance&#45;&gt;Organisation -->
<g id="edge12" class="edge">
<title>ConceptOf_Provenance&#45;&gt;Organisation</title>
<path fill="none" stroke="black" d="M728.98,-281.74C723.19,-278.24 717,-274.8 711,-272 634.86,-236.5 543.11,-207.99 478.32,-190.04"/>
<polygon fill="black" stroke="black" points="479.13,-186.64 468.56,-187.36 477.28,-193.39 479.13,-186.64"/>
<text text-anchor="middle" x="688" y="-248.4" font-family="Arial" font-size="7.00">asserted by</text>
</g>
</g>
</svg>
