<?xml version="1.0" encoding="UTF-8" standalone="no"?>
<!DOCTYPE svg PUBLIC "-//W3C//DTD SVG 1.1//EN"
 "http://www.w3.org/Graphics/SVG/1.1/DTD/svg11.dtd">
<!-- Generated by graphviz version 2.44.1 (20200629.0846)
 -->
<!-- Pages: 1 -->
<svg width="710pt" height="338pt"
 viewBox="0.00 0.00 710.00 338.00" xmlns="http://www.w3.org/2000/svg" xmlns:xlink="http://www.w3.org/1999/xlink">
<g id="graph0" class="graph" transform="scale(1 1) rotate(0) translate(4 334)">
<polygon fill="white" stroke="transparent" points="-4,4 -4,-334 706,-334 706,4 -4,4"/>
<!-- table_port29 -->
<g id="node1" class="node">
<title>table_port29</title>
<polygon fill="lightblue" stroke="transparent" points="482,-46 482,-60 536,-60 536,-46 482,-46"/>
<polygon fill="none" stroke="black" points="482,-46 482,-60 536,-60 536,-46 482,-46"/>
<text text-anchor="start" x="495.5" y="-51.4" font-family="Arial" font-size="7.00">Attribute</text>
<polygon fill="lightblue" stroke="transparent" points="536,-46 536,-60 567,-60 567,-46 536,-46"/>
<polygon fill="none" stroke="black" points="536,-46 536,-60 567,-60 567,-46 536,-46"/>
<text text-anchor="start" x="543.5" y="-51.4" font-family="Arial" font-size="7.00">Type</text>
<polygon fill="lightblue" stroke="transparent" points="567,-46 567,-60 596,-60 596,-46 567,-46"/>
<polygon fill="none" stroke="black" points="567,-46 567,-60 596,-60 596,-46 567,-46"/>
<text text-anchor="start" x="570" y="-51.4" font-family="Arial" font-size="7.00">Occurs</text>
<polygon fill="none" stroke="black" points="482,-32 482,-46 536,-46 536,-32 482,-32"/>
<text text-anchor="start" x="485" y="-37.4" font-family="Arial" font-size="7.00">Scheme</text>
<polygon fill="none" stroke="black" points="536,-32 536,-46 567,-46 567,-32 536,-32"/>
<text text-anchor="start" x="539" y="-37.4" font-family="Arial" font-size="7.00">string</text>
<polygon fill="none" stroke="black" points="567,-32 567,-46 596,-46 596,-32 567,-32"/>
<polygon fill="none" stroke="black" points="482,-18 482,-32 536,-32 536,-18 482,-18"/>
<text text-anchor="start" x="485" y="-23.4" font-family="Arial" font-size="7.00">Reference</text>
<polygon fill="none" stroke="black" points="536,-18 536,-32 567,-32 567,-18 536,-18"/>
<text text-anchor="start" x="539" y="-23.4" font-family="Arial" font-size="7.00">string</text>
<polygon fill="none" stroke="black" points="567,-18 567,-32 596,-32 596,-18 567,-18"/>
<polygon fill="none" stroke="black" points="482,-4 482,-18 536,-18 536,-4 482,-4"/>
<text text-anchor="start" x="485" y="-9.4" font-family="Arial" font-size="7.00">Pseudonimised</text>
<polygon fill="none" stroke="black" points="536,-4 536,-18 567,-18 567,-4 536,-4"/>
<text text-anchor="start" x="539" y="-9.4" font-family="Arial" font-size="7.00">boolean</text>
<polygon fill="none" stroke="black" points="567,-4 567,-18 596,-18 596,-4 567,-4"/>
</g>
<!-- Organisation -->
<g id="node2" class="node">
<title>Organisation</title>
<g id="a_node2"><a xlink:href="#Organisation" xlink:title="&lt;TABLE&gt;">
<polygon fill="lightblue" stroke="transparent" points="287,-210 287,-224 416,-224 416,-210 287,-210"/>
<polygon fill="none" stroke="black" points="287,-210 287,-224 416,-224 416,-210 287,-210"/>
<text text-anchor="start" x="330.5" y="-215.4" font-family="Arial" font-size="7.00"> Organisation</text>
<polygon fill="lightblue" stroke="transparent" points="287,-196 287,-210 340,-210 340,-196 287,-196"/>
<polygon fill="none" stroke="black" points="287,-196 287,-210 340,-210 340,-196 287,-196"/>
<text text-anchor="start" x="300" y="-201.4" font-family="Arial" font-size="7.00">Attribute</text>
<polygon fill="lightblue" stroke="transparent" points="340,-196 340,-210 387,-210 387,-196 340,-196"/>
<polygon fill="none" stroke="black" points="340,-196 340,-210 387,-210 387,-196 340,-196"/>
<text text-anchor="start" x="355.5" y="-201.4" font-family="Arial" font-size="7.00">Field</text>
<polygon fill="lightblue" stroke="transparent" points="387,-196 387,-210 416,-210 416,-196 387,-196"/>
<polygon fill="none" stroke="black" points="387,-196 387,-210 416,-210 416,-196 387,-196"/>
<text text-anchor="start" x="390" y="-201.4" font-family="Arial" font-size="7.00">Occurs</text>
<polygon fill="none" stroke="black" points="287,-182 287,-196 340,-196 340,-182 287,-182"/>
<text text-anchor="start" x="290" y="-187.4" font-family="Arial" font-size="7.00">Identifier</text>
<polygon fill="none" stroke="black" points="340,-182 340,-196 387,-196 387,-182 340,-182"/>
<text text-anchor="start" x="343" y="-187.4" font-family="Arial" font-size="7.00">Identifier</text>
<polygon fill="none" stroke="black" points="387,-182 387,-196 416,-196 416,-182 387,-182"/>
<text text-anchor="start" x="390" y="-187.4" font-family="Arial" font-size="7.00">many</text>
<polygon fill="none" stroke="black" points="287,-168 287,-182 340,-182 340,-168 287,-168"/>
<text text-anchor="start" x="290" y="-173.4" font-family="Arial" font-size="7.00">Type</text>
<polygon fill="none" stroke="black" points="340,-168 340,-182 387,-182 387,-168 340,-168"/>
<text text-anchor="start" x="343" y="-173.4" font-family="Arial" font-size="7.00">lookup</text>
<polygon fill="none" stroke="black" points="387,-168 387,-182 416,-182 416,-168 387,-168"/>
<polygon fill="none" stroke="black" points="287,-154 287,-168 340,-168 340,-154 287,-154"/>
<text text-anchor="start" x="290" y="-159.4" font-family="Arial" font-size="7.00">Name</text>
<polygon fill="none" stroke="black" points="340,-154 340,-168 387,-168 387,-154 340,-154"/>
<text text-anchor="start" x="343" y="-159.4" font-family="Arial" font-size="7.00">string</text>
<polygon fill="none" stroke="black" points="387,-154 387,-168 416,-168 416,-154 387,-154"/>
<polygon fill="none" stroke="black" points="287,-140 287,-154 340,-154 340,-140 287,-140"/>
<text text-anchor="start" x="290" y="-145.4" font-family="Arial" font-size="7.00">Department</text>
<polygon fill="none" stroke="black" points="340,-140 340,-154 387,-154 387,-140 340,-140"/>
<text text-anchor="start" x="343" y="-145.4" font-family="Arial" font-size="7.00">string</text>
<polygon fill="none" stroke="black" points="387,-140 387,-154 416,-154 416,-140 387,-140"/>
<polygon fill="none" stroke="black" points="287,-126 287,-140 340,-140 340,-126 287,-126"/>
<text text-anchor="start" x="290" y="-131.4" font-family="Arial" font-size="7.00">ContactPerson</text>
<polygon fill="none" stroke="black" points="340,-126 340,-140 387,-140 387,-126 340,-126"/>
<text text-anchor="start" x="343" y="-131.4" font-family="Arial" font-size="7.00">string</text>
<polygon fill="none" stroke="black" points="387,-126 387,-140 416,-140 416,-126 387,-126"/>
<polygon fill="none" stroke="black" points="287,-112 287,-126 340,-126 340,-112 287,-112"/>
<text text-anchor="start" x="290" y="-117.4" font-family="Arial" font-size="7.00">ContactPoint</text>
<polygon fill="none" stroke="black" points="340,-112 340,-126 387,-126 387,-112 340,-112"/>
<text text-anchor="start" x="343" y="-117.4" font-family="Arial" font-size="7.00">ContactPoint</text>
<polygon fill="none" stroke="black" points="387,-112 387,-126 416,-126 416,-112 387,-112"/>
<text text-anchor="start" x="390" y="-117.4" font-family="Arial" font-size="7.00">many</text>
</a>
</g>
</g>
<!-- Organisation&#45;&gt;table_port29 -->
<g id="edge1" class="edge">
<title>Organisation:29&#45;&gt;table_port29</title>
<path fill="none" stroke="black" d="M417,-189C479.75,-189 515.03,-109.72 530.12,-64.19"/>
</g>
<!-- table_port30 -->
<g id="node3" class="node">
<title>table_port30</title>
<polygon fill="lightblue" stroke="transparent" points="359,-39 359,-53 392,-53 392,-39 359,-39"/>
<polygon fill="none" stroke="black" points="359,-39 359,-53 392,-53 392,-39 359,-39"/>
<text text-anchor="start" x="362" y="-44.4" font-family="Arial" font-size="7.00">Attribute</text>
<polygon fill="lightblue" stroke="transparent" points="392,-39 392,-53 419,-53 419,-39 392,-39"/>
<polygon fill="none" stroke="black" points="392,-39 392,-53 419,-53 419,-39 392,-39"/>
<text text-anchor="start" x="397.5" y="-44.4" font-family="Arial" font-size="7.00">Type</text>
<polygon fill="lightblue" stroke="transparent" points="419,-39 419,-53 448,-53 448,-39 419,-39"/>
<polygon fill="none" stroke="black" points="419,-39 419,-53 448,-53 448,-39 419,-39"/>
<text text-anchor="start" x="422" y="-44.4" font-family="Arial" font-size="7.00">Occurs</text>
<polygon fill="none" stroke="black" points="359,-25 359,-39 392,-39 392,-25 359,-25"/>
<text text-anchor="start" x="362" y="-30.4" font-family="Arial" font-size="7.00">System</text>
<polygon fill="none" stroke="black" points="392,-25 392,-39 419,-39 419,-25 392,-25"/>
<text text-anchor="start" x="395" y="-30.4" font-family="Arial" font-size="7.00">lookup</text>
<polygon fill="none" stroke="black" points="419,-25 419,-39 448,-39 448,-25 419,-25"/>
<polygon fill="none" stroke="black" points="359,-11 359,-25 392,-25 392,-11 359,-11"/>
<text text-anchor="start" x="362" y="-16.4" font-family="Arial" font-size="7.00">Value</text>
<polygon fill="none" stroke="black" points="392,-11 392,-25 419,-25 419,-11 392,-11"/>
<text text-anchor="start" x="395" y="-16.4" font-family="Arial" font-size="7.00">string</text>
<polygon fill="none" stroke="black" points="419,-11 419,-25 448,-25 448,-11 419,-11"/>
</g>
<!-- Organisation&#45;&gt;table_port30 -->
<g id="edge2" class="edge">
<title>Organisation:30&#45;&gt;table_port30</title>
<path fill="none" stroke="black" d="M402,-111C402,-92.99 402.27,-72.64 402.53,-57.24"/>
</g>
<!-- Concept_Attribute -->
<g id="node4" class="node">
<title>Concept_Attribute</title>
<g id="a_node4"><a xlink:href="#SourceOrganisation" xlink:title="Attribute">
<ellipse fill="lightblue" stroke="black" cx="296" cy="-32" rx="36" ry="29"/>
<text text-anchor="middle" x="296" y="-30.4" font-family="Arial" font-size="7.00">Attribute</text>
</a>
</g>
</g>
<!-- Organisation&#45;&gt;Concept_Attribute -->
<g id="edge3" class="edge">
<title>Organisation&#45;&gt;Concept_Attribute</title>
<path fill="none" stroke="black" d="M308.72,-107.93C305.72,-102.05 303.08,-96.03 301,-90 298.99,-84.16 297.66,-77.8 296.8,-71.51"/>
<polygon fill="black" stroke="black" points="300.24,-70.71 295.76,-61.11 293.27,-71.41 300.24,-70.71"/>
<text text-anchor="middle" x="314.5" y="-84.4" font-family="Arial" font-size="7.00">receives</text>
</g>
<!-- Organisation&#45;&gt;Concept_Attribute -->
<g id="edge12" class="edge">
<title>Organisation&#45;&gt;Concept_Attribute</title>
<path fill="none" stroke="black" d="M337.52,-107.63C334.79,-98.88 331.63,-90.09 328,-82 325.58,-76.6 322.6,-71.11 319.44,-65.86"/>
<polygon fill="black" stroke="black" points="322.34,-63.89 314.03,-57.31 316.42,-67.63 322.34,-63.89"/>
<text text-anchor="middle" x="343.5" y="-84.4" font-family="Arial" font-size="7.00">provides</text>
</g>
<!-- ConceptOf_Risk\nAssessment -->
<g id="node5" class="node">
<title>ConceptOf_Risk\nAssessment</title>
<g id="a_node5"><a xlink:href="#LeadOrganisation" xlink:title="Risk\nAssessment">
<ellipse fill="lightblue" stroke="black" cx="36" cy="-301" rx="36" ry="29"/>
<text text-anchor="middle" x="36" y="-303.4" font-family="Arial" font-size="7.00">Risk</text>
<text text-anchor="middle" x="36" y="-295.4" font-family="Arial" font-size="7.00">Assessment</text>
</a>
</g>
</g>
<!-- ConceptOf_Risk\nAssessment&#45;&gt;Organisation -->
<g id="edge4" class="edge">
<title>ConceptOf_Risk\nAssessment&#45;&gt;Organisation</title>
<path fill="none" stroke="black" d="M63.61,-281.67C69.25,-278.25 75.23,-274.86 81,-272 142.05,-241.71 214.34,-214.57 268.74,-195.75"/>
<polygon fill="black" stroke="black" points="270.02,-199.02 278.34,-192.46 267.75,-192.4 270.02,-199.02"/>
<text text-anchor="middle" x="136" y="-248.4" font-family="Arial" font-size="7.00">by</text>
</g>
<!-- ConceptOf_Stratification\nPolicy -->
<g id="node6" class="node">
<title>ConceptOf_Stratification\nPolicy</title>
<g id="a_node6"><a xlink:href="#LeadOrganisation" xlink:title="Stratification\nPolicy">
<ellipse fill="lightblue" stroke="black" cx="126" cy="-301" rx="36" ry="29"/>
<text text-anchor="middle" x="126" y="-303.4" font-family="Arial" font-size="7.00">Stratification</text>
<text text-anchor="middle" x="126" y="-295.4" font-family="Arial" font-size="7.00">Policy</text>
</a>
</g>
</g>
<!-- ConceptOf_Stratification\nPolicy&#45;&gt;Organisation -->
<g id="edge5" class="edge">
<title>ConceptOf_Stratification\nPolicy&#45;&gt;Organisation</title>
<path fill="none" stroke="black" d="M153.99,-282.36C159.6,-278.89 165.47,-275.3 171,-272 202.94,-252.94 238.41,-232.49 269.36,-214.87"/>
<polygon fill="black" stroke="black" points="271.42,-217.73 278.39,-209.74 267.97,-211.64 271.42,-217.73"/>
<text text-anchor="middle" x="235" y="-248.4" font-family="Arial" font-size="7.00">designed by</text>
</g>
<!-- ConceptOf_Case -->
<g id="node7" class="node">
<title>ConceptOf_Case</title>
<g id="a_node7"><a xlink:href="#ResponsibleOrganisation" xlink:title="Case">
<ellipse fill="lightblue" stroke="black" cx="216" cy="-301" rx="36" ry="29"/>
<text text-anchor="middle" x="216" y="-299.4" font-family="Arial" font-size="7.00">Case</text>
</a>
</g>
</g>
<!-- ConceptOf_Case&#45;&gt;Organisation -->
<g id="edge6" class="edge">
<title>ConceptOf_Case&#45;&gt;Organisation</title>
<path fill="none" stroke="black" d="M238.6,-278.07C250.9,-266.14 266.84,-250.66 282.84,-235.14"/>
<polygon fill="black" stroke="black" points="285.44,-237.5 290.18,-228.02 280.56,-232.47 285.44,-237.5"/>
<text text-anchor="middle" x="290.5" y="-248.4" font-family="Arial" font-size="7.00">assigned to</text>
</g>
<!-- ConceptOf_Contact\nEvent -->
<g id="node8" class="node">
<title>ConceptOf_Contact\nEvent</title>
<g id="a_node8"><a xlink:href="#ResponsibleOrganisation" xlink:title="Contact\nEvent">
<ellipse fill="lightblue" stroke="black" cx="306" cy="-301" rx="36" ry="29"/>
<text text-anchor="middle" x="306" y="-303.4" font-family="Arial" font-size="7.00">Contact</text>
<text text-anchor="middle" x="306" y="-295.4" font-family="Arial" font-size="7.00">Event</text>
</a>
</g>
</g>
<!-- ConceptOf_Contact\nEvent&#45;&gt;Organisation -->
<g id="edge7" class="edge">
<title>ConceptOf_Contact\nEvent&#45;&gt;Organisation</title>
<path fill="none" stroke="black" d="M315.32,-272.86C318.87,-262.53 323.1,-250.23 327.38,-237.77"/>
<polygon fill="black" stroke="black" points="330.71,-238.84 330.65,-228.25 324.09,-236.57 330.71,-238.84"/>
<text text-anchor="middle" x="347.5" y="-248.4" font-family="Arial" font-size="7.00">passes info to</text>
</g>
<!-- ConceptOf_Situation\nAssessment -->
<g id="node9" class="node">
<title>ConceptOf_Situation\nAssessment</title>
<g id="a_node9"><a xlink:href="#ResponsibleOrganisation" xlink:title="Situation\nAssessment">
<ellipse fill="lightblue" stroke="black" cx="396" cy="-301" rx="36" ry="29"/>
<text text-anchor="middle" x="396" y="-303.4" font-family="Arial" font-size="7.00">Situation</text>
<text text-anchor="middle" x="396" y="-295.4" font-family="Arial" font-size="7.00">Assessment</text>
</a>
</g>
</g>
<!-- ConceptOf_Situation\nAssessment&#45;&gt;Organisation -->
<g id="edge8" class="edge">
<title>ConceptOf_Situation\nAssessment&#45;&gt;Organisation</title>
<path fill="none" stroke="black" d="M386.68,-272.86C383.13,-262.53 378.9,-250.23 374.62,-237.77"/>
<polygon fill="black" stroke="black" points="377.91,-236.57 371.35,-228.25 371.29,-238.84 377.91,-236.57"/>
<text text-anchor="middle" x="384" y="-248.4" font-family="Arial" font-size="7.00">by</text>
</g>
<!-- ConceptOf_Action -->
<g id="node10" class="node">
<title>ConceptOf_Action</title>
<g id="a_node10"><a xlink:href="#DeliveryOrganisation" xlink:title="Action">
<ellipse fill="lightblue" stroke="black" cx="486" cy="-301" rx="36" ry="29"/>
<text text-anchor="middle" x="486" y="-299.4" font-family="Arial" font-size="7.00">Action</text>
</a>
</g>
</g>
<!-- ConceptOf_Action&#45;&gt;Organisation -->
<g id="edge9" class="edge">
<title>ConceptOf_Action&#45;&gt;Organisation</title>
<path fill="none" stroke="black" d="M463.4,-278.07C451.1,-266.14 435.16,-250.66 419.16,-235.14"/>
<polygon fill="black" stroke="black" points="421.44,-232.47 411.82,-228.02 416.56,-237.5 421.44,-232.47"/>
<text text-anchor="middle" x="442" y="-248.4" font-family="Arial" font-size="7.00">by</text>
</g>
<!-- ConceptOf_Need -->
<g id="node11" class="node">
<title>ConceptOf_Need</title>
<g id="a_node11"><a xlink:href="#DeliveryOrganisation" xlink:title="Need">
<ellipse fill="lightblue" stroke="black" cx="576" cy="-301" rx="36" ry="29"/>
<text text-anchor="middle" x="576" y="-299.4" font-family="Arial" font-size="7.00">Need</text>
</a>
</g>
</g>
<!-- ConceptOf_Need&#45;&gt;Organisation -->
<g id="edge10" class="edge">
<title>ConceptOf_Need&#45;&gt;Organisation</title>
<path fill="none" stroke="black" d="M548.01,-282.36C542.4,-278.89 536.53,-275.3 531,-272 499.06,-252.94 463.59,-232.49 432.64,-214.87"/>
<polygon fill="black" stroke="black" points="434.03,-211.64 423.61,-209.74 430.58,-217.73 434.03,-211.64"/>
<text text-anchor="middle" x="512.5" y="-248.4" font-family="Arial" font-size="7.00">referred to</text>
</g>
<!-- ConceptOf_Plan -->
<g id="node12" class="node">
<title>ConceptOf_Plan</title>
<g id="a_node12"><a xlink:href="#DeliveryOrganisation" xlink:title="Plan">
<ellipse fill="lightblue" stroke="black" cx="666" cy="-301" rx="36" ry="29"/>
<text text-anchor="middle" x="666" y="-299.4" font-family="Arial" font-size="7.00">Plan</text>
</a>
</g>
</g>
<!-- ConceptOf_Plan&#45;&gt;Organisation -->
<g id="edge11" class="edge">
<title>ConceptOf_Plan&#45;&gt;Organisation</title>
<path fill="none" stroke="black" d="M638.39,-281.67C632.75,-278.25 626.77,-274.86 621,-272 559.95,-241.71 487.66,-214.57 433.26,-195.75"/>
<polygon fill="black" stroke="black" points="434.25,-192.4 423.66,-192.46 431.98,-199.02 434.25,-192.4"/>
<text text-anchor="middle" x="581.5" y="-248.4" font-family="Arial" font-size="7.00">of</text>
</g>
</g>
</svg>
