<?xml version="1.0" encoding="UTF-8" standalone="no"?>
<!DOCTYPE svg PUBLIC "-//W3C//DTD SVG 1.1//EN"
 "http://www.w3.org/Graphics/SVG/1.1/DTD/svg11.dtd">
<!-- Generated by graphviz version 2.44.1 (20200629.0846)
 -->
<!-- Pages: 1 -->
<svg width="290pt" height="208pt"
 viewBox="0.00 0.00 290.00 208.00" xmlns="http://www.w3.org/2000/svg" xmlns:xlink="http://www.w3.org/1999/xlink">
<g id="graph0" class="graph" transform="scale(1 1) rotate(0) translate(4 204)">
<polygon fill="white" stroke="transparent" points="-4,4 -4,-204 286,-204 286,4 -4,4"/>
<!-- table_port31 -->
<g id="node1" class="node">
<title>table_port31</title>
<polygon fill="lightblue" stroke="transparent" points="188,-60 188,-74 221,-74 221,-60 188,-60"/>
<polygon fill="none" stroke="black" points="188,-60 188,-74 221,-74 221,-60 188,-60"/>
<text text-anchor="start" x="191" y="-65.4" font-family="Arial" font-size="7.00">Attribute</text>
<polygon fill="lightblue" stroke="transparent" points="221,-60 221,-74 245,-74 245,-60 221,-60"/>
<polygon fill="none" stroke="black" points="221,-60 221,-74 245,-74 245,-60 221,-60"/>
<text text-anchor="start" x="225" y="-65.4" font-family="Arial" font-size="7.00">Type</text>
<polygon fill="lightblue" stroke="transparent" points="245,-60 245,-74 274,-74 274,-60 245,-60"/>
<polygon fill="none" stroke="black" points="245,-60 245,-74 274,-74 274,-60 245,-60"/>
<text text-anchor="start" x="248" y="-65.4" font-family="Arial" font-size="7.00">Occurs</text>
<polygon fill="none" stroke="black" points="188,-46 188,-60 221,-60 221,-46 188,-46"/>
<text text-anchor="start" x="191" y="-51.4" font-family="Arial" font-size="7.00">Scheme</text>
<polygon fill="none" stroke="black" points="221,-46 221,-60 245,-60 245,-46 221,-46"/>
<text text-anchor="start" x="224" y="-51.4" font-family="Arial" font-size="7.00">string</text>
<polygon fill="none" stroke="black" points="245,-46 245,-60 274,-60 274,-46 245,-46"/>
<polygon fill="none" stroke="black" points="188,-32 188,-46 221,-46 221,-32 188,-32"/>
<text text-anchor="start" x="191" y="-37.4" font-family="Arial" font-size="7.00">Term</text>
<polygon fill="none" stroke="black" points="221,-32 221,-46 245,-46 245,-32 221,-32"/>
<text text-anchor="start" x="224" y="-37.4" font-family="Arial" font-size="7.00">string</text>
<polygon fill="none" stroke="black" points="245,-32 245,-46 274,-46 274,-32 245,-32"/>
<polygon fill="none" stroke="black" points="188,-18 188,-32 221,-32 221,-18 188,-18"/>
<text text-anchor="start" x="191" y="-23.4" font-family="Arial" font-size="7.00">URI</text>
<polygon fill="none" stroke="black" points="221,-18 221,-32 245,-32 245,-18 221,-18"/>
<text text-anchor="start" x="224" y="-23.4" font-family="Arial" font-size="7.00">string</text>
<polygon fill="none" stroke="black" points="245,-18 245,-32 274,-32 274,-18 245,-18"/>
<polygon fill="none" stroke="black" points="188,-4 188,-18 221,-18 221,-4 188,-4"/>
<text text-anchor="start" x="191" y="-9.4" font-family="Arial" font-size="7.00">Value</text>
<polygon fill="none" stroke="black" points="221,-4 221,-18 245,-18 245,-4 221,-4"/>
<text text-anchor="start" x="224" y="-9.4" font-family="Arial" font-size="7.00">string</text>
<polygon fill="none" stroke="black" points="245,-4 245,-18 274,-18 274,-4 245,-4"/>
</g>
<!-- Outcome -->
<g id="node2" class="node">
<title>Outcome</title>
<g id="a_node2"><a xlink:href="#Outcome" xlink:title="&lt;TABLE&gt;">
<polygon fill="lightblue" stroke="transparent" points="66,-182 66,-196 187,-196 187,-182 66,-182"/>
<polygon fill="none" stroke="black" points="66,-182 66,-196 187,-196 187,-182 66,-182"/>
<text text-anchor="start" x="111" y="-187.4" font-family="Arial" font-size="7.00"> Outcome</text>
<polygon fill="lightblue" stroke="transparent" points="66,-168 66,-182 108,-182 108,-168 66,-168"/>
<polygon fill="none" stroke="black" points="66,-168 66,-182 108,-182 108,-168 66,-168"/>
<text text-anchor="start" x="73.5" y="-173.4" font-family="Arial" font-size="7.00">Attribute</text>
<polygon fill="lightblue" stroke="transparent" points="108,-168 108,-182 158,-182 158,-168 108,-168"/>
<polygon fill="none" stroke="black" points="108,-168 108,-182 158,-182 158,-168 108,-168"/>
<text text-anchor="start" x="125" y="-173.4" font-family="Arial" font-size="7.00">Field</text>
<polygon fill="lightblue" stroke="transparent" points="158,-168 158,-182 187,-182 187,-168 158,-168"/>
<polygon fill="none" stroke="black" points="158,-168 158,-182 187,-182 187,-168 158,-168"/>
<text text-anchor="start" x="161" y="-173.4" font-family="Arial" font-size="7.00">Occurs</text>
<polygon fill="none" stroke="black" points="66,-154 66,-168 108,-168 108,-154 66,-154"/>
<text text-anchor="start" x="69" y="-159.4" font-family="Arial" font-size="7.00">Category</text>
<polygon fill="none" stroke="black" points="108,-154 108,-168 158,-168 158,-154 108,-154"/>
<text text-anchor="start" x="111" y="-159.4" font-family="Arial" font-size="7.00">Characteristic</text>
<polygon fill="none" stroke="black" points="158,-154 158,-168 187,-168 187,-154 158,-154"/>
<polygon fill="none" stroke="black" points="66,-140 66,-154 108,-154 108,-140 66,-140"/>
<text text-anchor="start" x="69" y="-145.4" font-family="Arial" font-size="7.00">Description</text>
<polygon fill="none" stroke="black" points="108,-140 108,-154 158,-154 158,-140 108,-140"/>
<text text-anchor="start" x="111" y="-145.4" font-family="Arial" font-size="7.00">text</text>
<polygon fill="none" stroke="black" points="158,-140 158,-154 187,-154 187,-140 158,-140"/>
<polygon fill="none" stroke="black" points="66,-126 66,-140 108,-140 108,-126 66,-126"/>
<text text-anchor="start" x="69" y="-131.4" font-family="Arial" font-size="7.00">Date</text>
<polygon fill="none" stroke="black" points="108,-126 108,-140 158,-140 158,-126 108,-126"/>
<text text-anchor="start" x="111" y="-131.4" font-family="Arial" font-size="7.00">date</text>
<polygon fill="none" stroke="black" points="158,-126 158,-140 187,-140 187,-126 158,-126"/>
</a>
</g>
</g>
<!-- Outcome&#45;&gt;table_port31 -->
<g id="edge1" class="edge">
<title>Outcome:31&#45;&gt;table_port31</title>
<path fill="none" stroke="black" d="M188,-161C223.67,-161 231.55,-113.73 232.44,-78.29"/>
</g>
<!-- Concept_Case -->
<g id="node3" class="node">
<title>Concept_Case</title>
<g id="a_node3"><a xlink:href="#Outcome" xlink:title="Case">
<ellipse fill="lightblue" stroke="black" cx="36" cy="-39" rx="36" ry="29"/>
<text text-anchor="middle" x="36" y="-37.4" font-family="Arial" font-size="7.00">Case</text>
</a>
</g>
</g>
<!-- Outcome&#45;&gt;Concept_Case -->
<g id="edge2" class="edge">
<title>Outcome&#45;&gt;Concept_Case</title>
<path fill="none" stroke="black" d="M97.28,-121.7C85.38,-105.84 71.74,-87.65 60.35,-72.46"/>
<polygon fill="black" stroke="black" points="63.07,-70.27 54.27,-64.37 57.47,-74.47 63.07,-70.27"/>
<text text-anchor="middle" x="87.5" y="-98.4" font-family="Arial" font-size="7.00">of</text>
</g>
<!-- Concept_Need -->
<g id="node4" class="node">
<title>Concept_Need</title>
<g id="a_node4"><a xlink:href="#Outcome" xlink:title="Need">
<ellipse fill="lightblue" stroke="black" cx="126" cy="-39" rx="36" ry="29"/>
<text text-anchor="middle" x="126" y="-37.4" font-family="Arial" font-size="7.00">Need</text>
</a>
</g>
</g>
<!-- Outcome&#45;&gt;Concept_Need -->
<g id="edge3" class="edge">
<title>Outcome&#45;&gt;Concept_Need</title>
<path fill="none" stroke="black" d="M126,-121.7C126,-107.82 126,-92.14 126,-78.26"/>
<polygon fill="black" stroke="black" points="129.5,-78.06 126,-68.06 122.5,-78.06 129.5,-78.06"/>
<text text-anchor="middle" x="129.5" y="-98.4" font-family="Arial" font-size="7.00">of</text>
</g>
</g>
</svg>
