<?xml version="1.0" encoding="UTF-8" standalone="no"?>
<!DOCTYPE svg PUBLIC "-//W3C//DTD SVG 1.1//EN"
 "http://www.w3.org/Graphics/SVG/1.1/DTD/svg11.dtd">
<!-- Generated by graphviz version 2.44.1 (20200629.0846)
 -->
<!-- Pages: 1 -->
<svg width="350pt" height="345pt"
 viewBox="0.00 0.00 350.00 345.00" xmlns="http://www.w3.org/2000/svg" xmlns:xlink="http://www.w3.org/1999/xlink">
<g id="graph0" class="graph" transform="scale(1 1) rotate(0) translate(4 341)">
<polygon fill="white" stroke="transparent" points="-4,4 -4,-341 346,-341 346,4 -4,4"/>
<!-- table_port32 -->
<g id="node1" class="node">
<title>table_port32</title>
<polygon fill="lightblue" stroke="transparent" points="155,-46 155,-60 209,-60 209,-46 155,-46"/>
<polygon fill="none" stroke="black" points="155,-46 155,-60 209,-60 209,-46 155,-46"/>
<text text-anchor="start" x="168.5" y="-51.4" font-family="Arial" font-size="7.00">Attribute</text>
<polygon fill="lightblue" stroke="transparent" points="209,-46 209,-60 240,-60 240,-46 209,-46"/>
<polygon fill="none" stroke="black" points="209,-46 209,-60 240,-60 240,-46 209,-46"/>
<text text-anchor="start" x="216.5" y="-51.4" font-family="Arial" font-size="7.00">Type</text>
<polygon fill="lightblue" stroke="transparent" points="240,-46 240,-60 269,-60 269,-46 240,-46"/>
<polygon fill="none" stroke="black" points="240,-46 240,-60 269,-60 269,-46 240,-46"/>
<text text-anchor="start" x="243" y="-51.4" font-family="Arial" font-size="7.00">Occurs</text>
<polygon fill="none" stroke="black" points="155,-32 155,-46 209,-46 209,-32 155,-32"/>
<text text-anchor="start" x="158" y="-37.4" font-family="Arial" font-size="7.00">Scheme</text>
<polygon fill="none" stroke="black" points="209,-32 209,-46 240,-46 240,-32 209,-32"/>
<text text-anchor="start" x="212" y="-37.4" font-family="Arial" font-size="7.00">string</text>
<polygon fill="none" stroke="black" points="240,-32 240,-46 269,-46 269,-32 240,-32"/>
<polygon fill="none" stroke="black" points="155,-18 155,-32 209,-32 209,-18 155,-18"/>
<text text-anchor="start" x="158" y="-23.4" font-family="Arial" font-size="7.00">Reference</text>
<polygon fill="none" stroke="black" points="209,-18 209,-32 240,-32 240,-18 209,-18"/>
<text text-anchor="start" x="212" y="-23.4" font-family="Arial" font-size="7.00">string</text>
<polygon fill="none" stroke="black" points="240,-18 240,-32 269,-32 269,-18 240,-18"/>
<polygon fill="none" stroke="black" points="155,-4 155,-18 209,-18 209,-4 155,-4"/>
<text text-anchor="start" x="158" y="-9.4" font-family="Arial" font-size="7.00">Pseudonimised</text>
<polygon fill="none" stroke="black" points="209,-4 209,-18 240,-18 240,-4 209,-4"/>
<text text-anchor="start" x="212" y="-9.4" font-family="Arial" font-size="7.00">boolean</text>
<polygon fill="none" stroke="black" points="240,-4 240,-18 269,-18 269,-4 240,-4"/>
</g>
<!-- Person -->
<g id="node2" class="node">
<title>Person</title>
<g id="a_node2"><a xlink:href="#Person" xlink:title="&lt;TABLE&gt;">
<polygon fill="lightblue" stroke="transparent" points="116,-217 116,-231 226,-231 226,-217 116,-217"/>
<polygon fill="none" stroke="black" points="116,-217 116,-231 226,-231 226,-217 116,-217"/>
<text text-anchor="start" x="158.5" y="-222.4" font-family="Arial" font-size="7.00"> Person</text>
<polygon fill="lightblue" stroke="transparent" points="116,-203 116,-217 163,-217 163,-203 116,-203"/>
<polygon fill="none" stroke="black" points="116,-203 116,-217 163,-217 163,-203 116,-203"/>
<text text-anchor="start" x="126" y="-208.4" font-family="Arial" font-size="7.00">Attribute</text>
<polygon fill="lightblue" stroke="transparent" points="163,-203 163,-217 197,-217 197,-203 163,-203"/>
<polygon fill="none" stroke="black" points="163,-203 163,-217 197,-217 197,-203 163,-203"/>
<text text-anchor="start" x="172" y="-208.4" font-family="Arial" font-size="7.00">Field</text>
<polygon fill="lightblue" stroke="transparent" points="197,-203 197,-217 226,-217 226,-203 197,-203"/>
<polygon fill="none" stroke="black" points="197,-203 197,-217 226,-217 226,-203 197,-203"/>
<text text-anchor="start" x="200" y="-208.4" font-family="Arial" font-size="7.00">Occurs</text>
<polygon fill="none" stroke="black" points="116,-189 116,-203 163,-203 163,-189 116,-189"/>
<text text-anchor="start" x="119" y="-194.4" font-family="Arial" font-size="7.00">Title</text>
<polygon fill="none" stroke="black" points="163,-189 163,-203 197,-203 197,-189 163,-189"/>
<text text-anchor="start" x="166" y="-194.4" font-family="Arial" font-size="7.00">string</text>
<polygon fill="none" stroke="black" points="197,-189 197,-203 226,-203 226,-189 197,-189"/>
<polygon fill="none" stroke="black" points="116,-175 116,-189 163,-189 163,-175 116,-175"/>
<text text-anchor="start" x="119" y="-180.4" font-family="Arial" font-size="7.00">FamilyName</text>
<polygon fill="none" stroke="black" points="163,-175 163,-189 197,-189 197,-175 163,-175"/>
<text text-anchor="start" x="166" y="-180.4" font-family="Arial" font-size="7.00">string</text>
<polygon fill="none" stroke="black" points="197,-175 197,-189 226,-189 226,-175 197,-175"/>
<polygon fill="none" stroke="black" points="116,-161 116,-175 163,-175 163,-161 116,-161"/>
<text text-anchor="start" x="119" y="-166.4" font-family="Arial" font-size="7.00">GivenNames</text>
<polygon fill="none" stroke="black" points="163,-161 163,-175 197,-175 197,-161 163,-161"/>
<text text-anchor="start" x="166" y="-166.4" font-family="Arial" font-size="7.00">string</text>
<polygon fill="none" stroke="black" points="197,-161 197,-175 226,-175 226,-161 197,-161"/>
<polygon fill="none" stroke="black" points="116,-147 116,-161 163,-161 163,-147 116,-147"/>
<text text-anchor="start" x="119" y="-152.4" font-family="Arial" font-size="7.00">Alias</text>
<polygon fill="none" stroke="black" points="163,-147 163,-161 197,-161 197,-147 163,-147"/>
<text text-anchor="start" x="166" y="-152.4" font-family="Arial" font-size="7.00">string</text>
<polygon fill="none" stroke="black" points="197,-147 197,-161 226,-161 226,-147 197,-147"/>
<text text-anchor="start" x="200" y="-152.4" font-family="Arial" font-size="7.00">many</text>
<polygon fill="none" stroke="black" points="116,-133 116,-147 163,-147 163,-133 116,-133"/>
<text text-anchor="start" x="119" y="-138.4" font-family="Arial" font-size="7.00">BirthDate</text>
<polygon fill="none" stroke="black" points="163,-133 163,-147 197,-147 197,-133 163,-133"/>
<text text-anchor="start" x="166" y="-138.4" font-family="Arial" font-size="7.00">date</text>
<polygon fill="none" stroke="black" points="197,-133 197,-147 226,-147 226,-133 197,-133"/>
<polygon fill="none" stroke="black" points="116,-119 116,-133 163,-133 163,-119 116,-119"/>
<text text-anchor="start" x="119" y="-124.4" font-family="Arial" font-size="7.00">Gender</text>
<polygon fill="none" stroke="black" points="163,-119 163,-133 197,-133 197,-119 163,-119"/>
<text text-anchor="start" x="166" y="-124.4" font-family="Arial" font-size="7.00">lookup</text>
<polygon fill="none" stroke="black" points="197,-119 197,-133 226,-133 226,-119 197,-119"/>
<polygon fill="none" stroke="black" points="116,-105 116,-119 163,-119 163,-105 116,-105"/>
<text text-anchor="start" x="119" y="-110.4" font-family="Arial" font-size="7.00">Identifier</text>
<polygon fill="none" stroke="black" points="163,-105 163,-119 197,-119 197,-105 163,-105"/>
<text text-anchor="start" x="166" y="-110.4" font-family="Arial" font-size="7.00">Identifier</text>
<polygon fill="none" stroke="black" points="197,-105 197,-119 226,-119 226,-105 197,-105"/>
<text text-anchor="start" x="200" y="-110.4" font-family="Arial" font-size="7.00">many</text>
</a>
</g>
</g>
<!-- Person&#45;&gt;table_port32 -->
<g id="edge1" class="edge">
<title>Person:32&#45;&gt;table_port32</title>
<path fill="none" stroke="black" d="M212,-104C212,-90.93 212,-76.52 212,-64.1"/>
</g>
<!-- ConceptOf_Attribute -->
<g id="node3" class="node">
<title>ConceptOf_Attribute</title>
<g id="a_node3"><a xlink:href="#Person" xlink:title="Attribute">
<ellipse fill="lightblue" stroke="black" cx="36" cy="-308" rx="36" ry="29"/>
<text text-anchor="middle" x="36" y="-306.4" font-family="Arial" font-size="7.00">Attribute</text>
</a>
</g>
</g>
<!-- ConceptOf_Attribute&#45;&gt;Person -->
<g id="edge2" class="edge">
<title>ConceptOf_Attribute&#45;&gt;Person</title>
<path fill="none" stroke="black" d="M57.69,-284.83C69.58,-272.67 85.07,-256.84 100.75,-240.81"/>
<polygon fill="black" stroke="black" points="103.47,-243.04 107.96,-233.44 98.46,-238.14 103.47,-243.04"/>
<text text-anchor="middle" x="97" y="-255.4" font-family="Arial" font-size="7.00">about</text>
</g>
<!-- ConceptOf_Case -->
<g id="node4" class="node">
<title>ConceptOf_Case</title>
<g id="a_node4"><a xlink:href="#Person" xlink:title="Case">
<ellipse fill="lightblue" stroke="black" cx="126" cy="-308" rx="36" ry="29"/>
<text text-anchor="middle" x="126" y="-306.4" font-family="Arial" font-size="7.00">Case</text>
</a>
</g>
</g>
<!-- ConceptOf_Case&#45;&gt;Person -->
<g id="edge3" class="edge">
<title>ConceptOf_Case&#45;&gt;Person</title>
<path fill="none" stroke="black" d="M134.89,-279.74C138.24,-269.47 142.23,-257.23 146.32,-244.69"/>
<polygon fill="black" stroke="black" points="149.68,-245.67 149.45,-235.08 143.03,-243.5 149.68,-245.67"/>
<text text-anchor="middle" x="153" y="-255.4" font-family="Arial" font-size="7.00">about</text>
</g>
<!-- ConceptOf_Household -->
<g id="node5" class="node">
<title>ConceptOf_Household</title>
<g id="a_node5"><a xlink:href="#Person" xlink:title="Household">
<ellipse fill="lightblue" stroke="black" cx="216" cy="-308" rx="36" ry="29"/>
<text text-anchor="middle" x="216" y="-306.4" font-family="Arial" font-size="7.00">Household</text>
</a>
</g>
</g>
<!-- ConceptOf_Household&#45;&gt;Person -->
<g id="edge4" class="edge">
<title>ConceptOf_Household&#45;&gt;Person</title>
<path fill="none" stroke="black" d="M207.11,-279.74C203.76,-269.47 199.77,-257.23 195.68,-244.69"/>
<polygon fill="black" stroke="black" points="198.97,-243.5 192.55,-235.08 192.32,-245.67 198.97,-243.5"/>
<text text-anchor="middle" x="214.5" y="-255.4" font-family="Arial" font-size="7.00">contains</text>
</g>
<!-- ConceptOf_Need -->
<g id="node6" class="node">
<title>ConceptOf_Need</title>
<g id="a_node6"><a xlink:href="#Person" xlink:title="Need">
<ellipse fill="lightblue" stroke="black" cx="306" cy="-308" rx="36" ry="29"/>
<text text-anchor="middle" x="306" y="-306.4" font-family="Arial" font-size="7.00">Need</text>
</a>
</g>
</g>
<!-- ConceptOf_Need&#45;&gt;Person -->
<g id="edge5" class="edge">
<title>ConceptOf_Need&#45;&gt;Person</title>
<path fill="none" stroke="black" d="M284.31,-284.83C272.42,-272.67 256.93,-256.84 241.25,-240.81"/>
<polygon fill="black" stroke="black" points="243.54,-238.14 234.04,-233.44 238.53,-243.04 243.54,-238.14"/>
<text text-anchor="middle" x="267" y="-255.4" font-family="Arial" font-size="7.00">about</text>
</g>
</g>
</svg>
