<?xml version="1.0" encoding="UTF-8" standalone="no"?>
<!DOCTYPE svg PUBLIC "-//W3C//DTD SVG 1.1//EN"
 "http://www.w3.org/Graphics/SVG/1.1/DTD/svg11.dtd">
<!-- Generated by graphviz version 2.44.1 (20200629.0846)
 -->
<!-- Pages: 1 -->
<svg width="350pt" height="345pt"
 viewBox="0.00 0.00 350.00 345.00" xmlns="http://www.w3.org/2000/svg" xmlns:xlink="http://www.w3.org/1999/xlink">
<g id="graph0" class="graph" transform="scale(1 1) rotate(0) translate(4 341)">
<polygon fill="white" stroke="transparent" points="-4,4 -4,-341 346,-341 346,4 -4,4"/>
<!-- table_port32 -->
<g id="node1" class="node">
<title>table_port32</title>
<polygon fill="lightblue" stroke="transparent" points="156,-46 156,-60 210,-60 210,-46 156,-46"/>
<polygon fill="none" stroke="black" points="156,-46 156,-60 210,-60 210,-46 156,-46"/>
<text text-anchor="start" x="169.5" y="-51.4" font-family="Arial" font-size="7.00">Attribute</text>
<polygon fill="lightblue" stroke="transparent" points="210,-46 210,-60 241,-60 241,-46 210,-46"/>
<polygon fill="none" stroke="black" points="210,-46 210,-60 241,-60 241,-46 210,-46"/>
<text text-anchor="start" x="217.5" y="-51.4" font-family="Arial" font-size="7.00">Type</text>
<polygon fill="lightblue" stroke="transparent" points="241,-46 241,-60 270,-60 270,-46 241,-46"/>
<polygon fill="none" stroke="black" points="241,-46 241,-60 270,-60 270,-46 241,-46"/>
<text text-anchor="start" x="244" y="-51.4" font-family="Arial" font-size="7.00">Occurs</text>
<polygon fill="none" stroke="black" points="156,-32 156,-46 210,-46 210,-32 156,-32"/>
<text text-anchor="start" x="159" y="-37.4" font-family="Arial" font-size="7.00">Scheme</text>
<polygon fill="none" stroke="black" points="210,-32 210,-46 241,-46 241,-32 210,-32"/>
<text text-anchor="start" x="213" y="-37.4" font-family="Arial" font-size="7.00">string</text>
<polygon fill="none" stroke="black" points="241,-32 241,-46 270,-46 270,-32 241,-32"/>
<polygon fill="none" stroke="black" points="156,-18 156,-32 210,-32 210,-18 156,-18"/>
<text text-anchor="start" x="159" y="-23.4" font-family="Arial" font-size="7.00">Reference</text>
<polygon fill="none" stroke="black" points="210,-18 210,-32 241,-32 241,-18 210,-18"/>
<text text-anchor="start" x="213" y="-23.4" font-family="Arial" font-size="7.00">string</text>
<polygon fill="none" stroke="black" points="241,-18 241,-32 270,-32 270,-18 241,-18"/>
<polygon fill="none" stroke="black" points="156,-4 156,-18 210,-18 210,-4 156,-4"/>
<text text-anchor="start" x="159" y="-9.4" font-family="Arial" font-size="7.00">Pseudonimised</text>
<polygon fill="none" stroke="black" points="210,-4 210,-18 241,-18 241,-4 210,-4"/>
<text text-anchor="start" x="213" y="-9.4" font-family="Arial" font-size="7.00">boolean</text>
<polygon fill="none" stroke="black" points="241,-4 241,-18 270,-18 270,-4 241,-4"/>
</g>
<!-- Person -->
<g id="node2" class="node">
<title>Person</title>
<g id="a_node2"><a xlink:href="#Person" xlink:title="&lt;TABLE&gt;">
<polygon fill="lightblue" stroke="transparent" points="116,-217 116,-231 227,-231 227,-217 116,-217"/>
<polygon fill="none" stroke="black" points="116,-217 116,-231 227,-231 227,-217 116,-217"/>
<text text-anchor="start" x="159" y="-222.4" font-family="Arial" font-size="7.00"> Person</text>
<polygon fill="lightblue" stroke="transparent" points="116,-203 116,-217 164,-217 164,-203 116,-203"/>
<polygon fill="none" stroke="black" points="116,-203 116,-217 164,-217 164,-203 116,-203"/>
<text text-anchor="start" x="126.5" y="-208.4" font-family="Arial" font-size="7.00">Attribute</text>
<polygon fill="lightblue" stroke="transparent" points="164,-203 164,-217 198,-217 198,-203 164,-203"/>
<polygon fill="none" stroke="black" points="164,-203 164,-217 198,-217 198,-203 164,-203"/>
<text text-anchor="start" x="173" y="-208.4" font-family="Arial" font-size="7.00">Field</text>
<polygon fill="lightblue" stroke="transparent" points="198,-203 198,-217 227,-217 227,-203 198,-203"/>
<polygon fill="none" stroke="black" points="198,-203 198,-217 227,-217 227,-203 198,-203"/>
<text text-anchor="start" x="201" y="-208.4" font-family="Arial" font-size="7.00">Occurs</text>
<polygon fill="none" stroke="black" points="116,-189 116,-203 164,-203 164,-189 116,-189"/>
<text text-anchor="start" x="119" y="-194.4" font-family="Arial" font-size="7.00">Title</text>
<polygon fill="none" stroke="black" points="164,-189 164,-203 198,-203 198,-189 164,-189"/>
<text text-anchor="start" x="167" y="-194.4" font-family="Arial" font-size="7.00">string</text>
<polygon fill="none" stroke="black" points="198,-189 198,-203 227,-203 227,-189 198,-189"/>
<polygon fill="none" stroke="black" points="116,-175 116,-189 164,-189 164,-175 116,-175"/>
<text text-anchor="start" x="119" y="-180.4" font-family="Arial" font-size="7.00">FamilyName</text>
<polygon fill="none" stroke="black" points="164,-175 164,-189 198,-189 198,-175 164,-175"/>
<text text-anchor="start" x="167" y="-180.4" font-family="Arial" font-size="7.00">string</text>
<polygon fill="none" stroke="black" points="198,-175 198,-189 227,-189 227,-175 198,-175"/>
<polygon fill="none" stroke="black" points="116,-161 116,-175 164,-175 164,-161 116,-161"/>
<text text-anchor="start" x="119" y="-166.4" font-family="Arial" font-size="7.00">GivenNames</text>
<polygon fill="none" stroke="black" points="164,-161 164,-175 198,-175 198,-161 164,-161"/>
<text text-anchor="start" x="167" y="-166.4" font-family="Arial" font-size="7.00">string</text>
<polygon fill="none" stroke="black" points="198,-161 198,-175 227,-175 227,-161 198,-161"/>
<polygon fill="none" stroke="black" points="116,-147 116,-161 164,-161 164,-147 116,-147"/>
<text text-anchor="start" x="119" y="-152.4" font-family="Arial" font-size="7.00">Alias</text>
<polygon fill="none" stroke="black" points="164,-147 164,-161 198,-161 198,-147 164,-147"/>
<text text-anchor="start" x="167" y="-152.4" font-family="Arial" font-size="7.00">string</text>
<polygon fill="none" stroke="black" points="198,-147 198,-161 227,-161 227,-147 198,-147"/>
<text text-anchor="start" x="201" y="-152.4" font-family="Arial" font-size="7.00">many</text>
<polygon fill="none" stroke="black" points="116,-133 116,-147 164,-147 164,-133 116,-133"/>
<text text-anchor="start" x="119" y="-138.4" font-family="Arial" font-size="7.00">BirthDate</text>
<polygon fill="none" stroke="black" points="164,-133 164,-147 198,-147 198,-133 164,-133"/>
<text text-anchor="start" x="167" y="-138.4" font-family="Arial" font-size="7.00">date</text>
<polygon fill="none" stroke="black" points="198,-133 198,-147 227,-147 227,-133 198,-133"/>
<polygon fill="none" stroke="black" points="116,-119 116,-133 164,-133 164,-119 116,-119"/>
<text text-anchor="start" x="119" y="-124.4" font-family="Arial" font-size="7.00">Gender</text>
<polygon fill="none" stroke="black" points="164,-119 164,-133 198,-133 198,-119 164,-119"/>
<text text-anchor="start" x="167" y="-124.4" font-family="Arial" font-size="7.00">lookup</text>
<polygon fill="none" stroke="black" points="198,-119 198,-133 227,-133 227,-119 198,-119"/>
<polygon fill="none" stroke="black" points="116,-105 116,-119 164,-119 164,-105 116,-105"/>
<text text-anchor="start" x="119" y="-110.4" font-family="Arial" font-size="7.00">Identifier</text>
<polygon fill="none" stroke="black" points="164,-105 164,-119 198,-119 198,-105 164,-105"/>
<text text-anchor="start" x="167" y="-110.4" font-family="Arial" font-size="7.00">Identifier</text>
<polygon fill="none" stroke="black" points="198,-105 198,-119 227,-119 227,-105 198,-105"/>
<text text-anchor="start" x="201" y="-110.4" font-family="Arial" font-size="7.00">many</text>
</a>
</g>
</g>
<!-- Person&#45;&gt;table_port32 -->
<g id="edge1" class="edge">
<title>Person:32&#45;&gt;table_port32</title>
<path fill="none" stroke="black" d="M213,-104C213,-90.93 213,-76.52 213,-64.1"/>
</g>
<!-- ConceptOf_Attribute -->
<g id="node3" class="node">
<title>ConceptOf_Attribute</title>
<g id="a_node3"><a xlink:href="#Person" xlink:title="Attribute">
<ellipse fill="lightblue" stroke="black" cx="36" cy="-308" rx="36" ry="29"/>
<text text-anchor="middle" x="36" y="-306.4" font-family="Arial" font-size="7.00">Attribute</text>
</a>
</g>
</g>
<!-- ConceptOf_Attribute&#45;&gt;Person -->
<g id="edge2" class="edge">
<title>ConceptOf_Attribute&#45;&gt;Person</title>
<path fill="none" stroke="black" d="M57.69,-284.83C69.45,-272.8 84.73,-257.19 100.24,-241.33"/>
<polygon fill="black" stroke="black" points="102.88,-243.64 107.37,-234.04 97.87,-238.75 102.88,-243.64"/>
<text text-anchor="middle" x="97" y="-255.4" font-family="Arial" font-size="7.00">about</text>
</g>
<!-- ConceptOf_Case -->
<g id="node4" class="node">
<title>ConceptOf_Case</title>
<g id="a_node4"><a xlink:href="#Person" xlink:title="Case">
<ellipse fill="lightblue" stroke="black" cx="126" cy="-308" rx="36" ry="29"/>
<text text-anchor="middle" x="126" y="-306.4" font-family="Arial" font-size="7.00">Case</text>
</a>
</g>
</g>
<!-- ConceptOf_Case&#45;&gt;Person -->
<g id="edge3" class="edge">
<title>ConceptOf_Case&#45;&gt;Person</title>
<path fill="none" stroke="black" d="M134.89,-279.74C138.24,-269.47 142.23,-257.23 146.32,-244.69"/>
<polygon fill="black" stroke="black" points="149.68,-245.67 149.45,-235.08 143.03,-243.5 149.68,-245.67"/>
<text text-anchor="middle" x="153" y="-255.4" font-family="Arial" font-size="7.00">about</text>
</g>
<!-- ConceptOf_Household -->
<g id="node5" class="node">
<title>ConceptOf_Household</title>
<g id="a_node5"><a xlink:href="#Person" xlink:title="Household">
<ellipse fill="lightblue" stroke="black" cx="216" cy="-308" rx="36" ry="29"/>
<text text-anchor="middle" x="216" y="-306.4" font-family="Arial" font-size="7.00">Household</text>
</a>
</g>
</g>
<!-- ConceptOf_Household&#45;&gt;Person -->
<g id="edge4" class="edge">
<title>ConceptOf_Household&#45;&gt;Person</title>
<path fill="none" stroke="black" d="M207.11,-279.74C203.76,-269.47 199.77,-257.23 195.68,-244.69"/>
<polygon fill="black" stroke="black" points="198.97,-243.5 192.55,-235.08 192.32,-245.67 198.97,-243.5"/>
<text text-anchor="middle" x="214.5" y="-255.4" font-family="Arial" font-size="7.00">contains</text>
</g>
<!-- ConceptOf_Need -->
<g id="node6" class="node">
<title>ConceptOf_Need</title>
<g id="a_node6"><a xlink:href="#Person" xlink:title="Need">
<ellipse fill="lightblue" stroke="black" cx="306" cy="-308" rx="36" ry="29"/>
<text text-anchor="middle" x="306" y="-306.4" font-family="Arial" font-size="7.00">Need</text>
</a>
</g>
</g>
<!-- ConceptOf_Need&#45;&gt;Person -->
<g id="edge5" class="edge">
<title>ConceptOf_Need&#45;&gt;Person</title>
<path fill="none" stroke="black" d="M284.31,-284.83C272.55,-272.8 257.27,-257.19 241.76,-241.33"/>
<polygon fill="black" stroke="black" points="244.13,-238.75 234.63,-234.04 239.12,-243.64 244.13,-238.75"/>
<text text-anchor="middle" x="267" y="-255.4" font-family="Arial" font-size="7.00">about</text>
</g>
</g>
</svg>
