<?xml version="1.0" encoding="UTF-8" standalone="no"?>
<!DOCTYPE svg PUBLIC "-//W3C//DTD SVG 1.1//EN"
 "http://www.w3.org/Graphics/SVG/1.1/DTD/svg11.dtd">
<!-- Generated by graphviz version 2.44.1 (20200629.0846)
 -->
<!-- Pages: 1 -->
<svg width="290pt" height="236pt"
 viewBox="0.00 0.00 290.00 236.00" xmlns="http://www.w3.org/2000/svg" xmlns:xlink="http://www.w3.org/1999/xlink">
<g id="graph0" class="graph" transform="scale(1 1) rotate(0) translate(4 232)">
<polygon fill="white" stroke="transparent" points="-4,4 -4,-232 286,-232 286,4 -4,4"/>
<!-- table_port33 -->
<g id="node1" class="node">
<title>table_port33</title>
<polygon fill="lightblue" stroke="transparent" points="188,-60 188,-74 221,-74 221,-60 188,-60"/>
<polygon fill="none" stroke="black" points="188,-60 188,-74 221,-74 221,-60 188,-60"/>
<text text-anchor="start" x="191" y="-65.4" font-family="Arial" font-size="7.00">Attribute</text>
<polygon fill="lightblue" stroke="transparent" points="221,-60 221,-74 245,-74 245,-60 221,-60"/>
<polygon fill="none" stroke="black" points="221,-60 221,-74 245,-74 245,-60 221,-60"/>
<text text-anchor="start" x="225" y="-65.4" font-family="Arial" font-size="7.00">Type</text>
<polygon fill="lightblue" stroke="transparent" points="245,-60 245,-74 274,-74 274,-60 245,-60"/>
<polygon fill="none" stroke="black" points="245,-60 245,-74 274,-74 274,-60 245,-60"/>
<text text-anchor="start" x="248" y="-65.4" font-family="Arial" font-size="7.00">Occurs</text>
<polygon fill="none" stroke="black" points="188,-46 188,-60 221,-60 221,-46 188,-46"/>
<text text-anchor="start" x="191" y="-51.4" font-family="Arial" font-size="7.00">Scheme</text>
<polygon fill="none" stroke="black" points="221,-46 221,-60 245,-60 245,-46 221,-46"/>
<text text-anchor="start" x="224" y="-51.4" font-family="Arial" font-size="7.00">string</text>
<polygon fill="none" stroke="black" points="245,-46 245,-60 274,-60 274,-46 245,-46"/>
<polygon fill="none" stroke="black" points="188,-32 188,-46 221,-46 221,-32 188,-32"/>
<text text-anchor="start" x="191" y="-37.4" font-family="Arial" font-size="7.00">Term</text>
<polygon fill="none" stroke="black" points="221,-32 221,-46 245,-46 245,-32 221,-32"/>
<text text-anchor="start" x="224" y="-37.4" font-family="Arial" font-size="7.00">string</text>
<polygon fill="none" stroke="black" points="245,-32 245,-46 274,-46 274,-32 245,-32"/>
<polygon fill="none" stroke="black" points="188,-18 188,-32 221,-32 221,-18 188,-18"/>
<text text-anchor="start" x="191" y="-23.4" font-family="Arial" font-size="7.00">URI</text>
<polygon fill="none" stroke="black" points="221,-18 221,-32 245,-32 245,-18 221,-18"/>
<text text-anchor="start" x="224" y="-23.4" font-family="Arial" font-size="7.00">string</text>
<polygon fill="none" stroke="black" points="245,-18 245,-32 274,-32 274,-18 245,-18"/>
<polygon fill="none" stroke="black" points="188,-4 188,-18 221,-18 221,-4 188,-4"/>
<text text-anchor="start" x="191" y="-9.4" font-family="Arial" font-size="7.00">Value</text>
<polygon fill="none" stroke="black" points="221,-4 221,-18 245,-18 245,-4 221,-4"/>
<text text-anchor="start" x="224" y="-9.4" font-family="Arial" font-size="7.00">string</text>
<polygon fill="none" stroke="black" points="245,-4 245,-18 274,-18 274,-4 245,-4"/>
</g>
<!-- Plan -->
<g id="node2" class="node">
<title>Plan</title>
<g id="a_node2"><a xlink:href="#Plan" xlink:title="&lt;TABLE&gt;">
<polygon fill="lightblue" stroke="transparent" points="63,-210 63,-224 189,-224 189,-210 63,-210"/>
<polygon fill="none" stroke="black" points="63,-210 63,-224 189,-224 189,-210 63,-210"/>
<text text-anchor="start" x="118" y="-215.4" font-family="Arial" font-size="7.00"> Plan</text>
<polygon fill="lightblue" stroke="transparent" points="63,-196 63,-210 110,-210 110,-196 63,-196"/>
<polygon fill="none" stroke="black" points="63,-196 63,-210 110,-210 110,-196 63,-196"/>
<text text-anchor="start" x="73" y="-201.4" font-family="Arial" font-size="7.00">Attribute</text>
<polygon fill="lightblue" stroke="transparent" points="110,-196 110,-210 160,-210 160,-196 110,-196"/>
<polygon fill="none" stroke="black" points="110,-196 110,-210 160,-210 160,-196 110,-196"/>
<text text-anchor="start" x="127" y="-201.4" font-family="Arial" font-size="7.00">Field</text>
<polygon fill="lightblue" stroke="transparent" points="160,-196 160,-210 189,-210 189,-196 160,-196"/>
<polygon fill="none" stroke="black" points="160,-196 160,-210 189,-210 189,-196 160,-196"/>
<text text-anchor="start" x="163" y="-201.4" font-family="Arial" font-size="7.00">Occurs</text>
<polygon fill="none" stroke="black" points="63,-182 63,-196 110,-196 110,-182 63,-182"/>
<text text-anchor="start" x="66" y="-187.4" font-family="Arial" font-size="7.00">Description</text>
<polygon fill="none" stroke="black" points="110,-182 110,-196 160,-196 160,-182 110,-182"/>
<text text-anchor="start" x="113" y="-187.4" font-family="Arial" font-size="7.00">text</text>
<polygon fill="none" stroke="black" points="160,-182 160,-196 189,-196 189,-182 160,-182"/>
<polygon fill="none" stroke="black" points="63,-168 63,-182 110,-182 110,-168 63,-168"/>
<text text-anchor="start" x="66" y="-173.4" font-family="Arial" font-size="7.00">ActivityType</text>
<polygon fill="none" stroke="black" points="110,-168 110,-182 160,-182 160,-168 110,-168"/>
<text text-anchor="start" x="113" y="-173.4" font-family="Arial" font-size="7.00">Characteristic</text>
<polygon fill="none" stroke="black" points="160,-168 160,-182 189,-182 189,-168 160,-168"/>
<text text-anchor="start" x="163" y="-173.4" font-family="Arial" font-size="7.00">many</text>
<polygon fill="none" stroke="black" points="63,-154 63,-168 110,-168 110,-154 63,-154"/>
<text text-anchor="start" x="66" y="-159.4" font-family="Arial" font-size="7.00">Status</text>
<polygon fill="none" stroke="black" points="110,-154 110,-168 160,-168 160,-154 110,-154"/>
<text text-anchor="start" x="113" y="-159.4" font-family="Arial" font-size="7.00">lookup</text>
<polygon fill="none" stroke="black" points="160,-154 160,-168 189,-168 189,-154 160,-154"/>
<polygon fill="none" stroke="black" points="63,-140 63,-154 110,-154 110,-140 63,-140"/>
<text text-anchor="start" x="66" y="-145.4" font-family="Arial" font-size="7.00">StartDate</text>
<polygon fill="none" stroke="black" points="110,-140 110,-154 160,-154 160,-140 110,-140"/>
<text text-anchor="start" x="113" y="-145.4" font-family="Arial" font-size="7.00">date</text>
<polygon fill="none" stroke="black" points="160,-140 160,-154 189,-154 189,-140 160,-140"/>
<polygon fill="none" stroke="black" points="63,-126 63,-140 110,-140 110,-126 63,-126"/>
<text text-anchor="start" x="66" y="-131.4" font-family="Arial" font-size="7.00">EndDate</text>
<polygon fill="none" stroke="black" points="110,-126 110,-140 160,-140 160,-126 110,-126"/>
<text text-anchor="start" x="113" y="-131.4" font-family="Arial" font-size="7.00">date</text>
<polygon fill="none" stroke="black" points="160,-126 160,-140 189,-140 189,-126 160,-126"/>
</a>
</g>
</g>
<!-- Plan&#45;&gt;table_port33 -->
<g id="edge1" class="edge">
<title>Plan:33&#45;&gt;table_port33</title>
<path fill="none" stroke="black" d="M190,-175C230.66,-175 235.83,-118.24 234.44,-78.32"/>
</g>
<!-- Concept_Need -->
<g id="node3" class="node">
<title>Concept_Need</title>
<g id="a_node3"><a xlink:href="#Plan" xlink:title="Need">
<ellipse fill="lightblue" stroke="black" cx="36" cy="-39" rx="36" ry="29"/>
<text text-anchor="middle" x="36" y="-37.4" font-family="Arial" font-size="7.00">Need</text>
</a>
</g>
</g>
<!-- Plan&#45;&gt;Concept_Need -->
<g id="edge2" class="edge">
<title>Plan&#45;&gt;Concept_Need</title>
<path fill="none" stroke="black" d="M90.95,-121.81C80.07,-105.62 68.39,-88.22 58.6,-73.64"/>
<polygon fill="black" stroke="black" points="61.25,-71.32 52.77,-64.97 55.44,-75.22 61.25,-71.32"/>
<text text-anchor="middle" x="88" y="-98.4" font-family="Arial" font-size="7.00">about</text>
</g>
<!-- Concept_Delivery\nOrganisation -->
<g id="node4" class="node">
<title>Concept_Delivery\nOrganisation</title>
<g id="a_node4"><a xlink:href="#Plan" xlink:title="Delivery\nOrganisation">
<ellipse fill="lightblue" stroke="black" cx="126" cy="-39" rx="36" ry="29"/>
<text text-anchor="middle" x="126" y="-41.4" font-family="Arial" font-size="7.00">Delivery</text>
<text text-anchor="middle" x="126" y="-33.4" font-family="Arial" font-size="7.00">Organisation</text>
</a>
</g>
</g>
<!-- Plan&#45;&gt;Concept_Delivery\nOrganisation -->
<g id="edge3" class="edge">
<title>Plan&#45;&gt;Concept_Delivery\nOrganisation</title>
<path fill="none" stroke="black" d="M126,-121.81C126,-107.43 126,-92.09 126,-78.63"/>
<polygon fill="black" stroke="black" points="129.5,-78.28 126,-68.28 122.5,-78.28 129.5,-78.28"/>
<text text-anchor="middle" x="129.5" y="-98.4" font-family="Arial" font-size="7.00">of</text>
</g>
</g>
</svg>
