<?xml version="1.0" encoding="UTF-8" standalone="no"?>
<!DOCTYPE svg PUBLIC "-//W3C//DTD SVG 1.1//EN"
 "http://www.w3.org/Graphics/SVG/1.1/DTD/svg11.dtd">
<!-- Generated by graphviz version 2.44.1 (20200629.0846)
 -->
<!-- Pages: 1 -->
<svg width="290pt" height="236pt"
 viewBox="0.00 0.00 290.00 236.00" xmlns="http://www.w3.org/2000/svg" xmlns:xlink="http://www.w3.org/1999/xlink">
<g id="graph0" class="graph" transform="scale(1 1) rotate(0) translate(4 232)">
<polygon fill="white" stroke="transparent" points="-4,4 -4,-232 286,-232 286,4 -4,4"/>
<!-- table_port33 -->
<g id="node1" class="node">
<title>table_port33</title>
<polygon fill="lightblue" stroke="transparent" points="188,-60 188,-74 221,-74 221,-60 188,-60"/>
<polygon fill="none" stroke="black" points="188,-60 188,-74 221,-74 221,-60 188,-60"/>
<text text-anchor="start" x="191" y="-65.4" font-family="Arial" font-size="7.00">Attribute</text>
<polygon fill="lightblue" stroke="transparent" points="221,-60 221,-74 245,-74 245,-60 221,-60"/>
<polygon fill="none" stroke="black" points="221,-60 221,-74 245,-74 245,-60 221,-60"/>
<text text-anchor="start" x="225" y="-65.4" font-family="Arial" font-size="7.00">Type</text>
<polygon fill="lightblue" stroke="transparent" points="245,-60 245,-74 274,-74 274,-60 245,-60"/>
<polygon fill="none" stroke="black" points="245,-60 245,-74 274,-74 274,-60 245,-60"/>
<text text-anchor="start" x="248" y="-65.4" font-family="Arial" font-size="7.00">Occurs</text>
<polygon fill="none" stroke="black" points="188,-46 188,-60 221,-60 221,-46 188,-46"/>
<text text-anchor="start" x="191" y="-51.4" font-family="Arial" font-size="7.00">Scheme</text>
<polygon fill="none" stroke="black" points="221,-46 221,-60 245,-60 245,-46 221,-46"/>
<text text-anchor="start" x="224" y="-51.4" font-family="Arial" font-size="7.00">string</text>
<polygon fill="none" stroke="black" points="245,-46 245,-60 274,-60 274,-46 245,-46"/>
<polygon fill="none" stroke="black" points="188,-32 188,-46 221,-46 221,-32 188,-32"/>
<text text-anchor="start" x="191" y="-37.4" font-family="Arial" font-size="7.00">Term</text>
<polygon fill="none" stroke="black" points="221,-32 221,-46 245,-46 245,-32 221,-32"/>
<text text-anchor="start" x="224" y="-37.4" font-family="Arial" font-size="7.00">string</text>
<polygon fill="none" stroke="black" points="245,-32 245,-46 274,-46 274,-32 245,-32"/>
<polygon fill="none" stroke="black" points="188,-18 188,-32 221,-32 221,-18 188,-18"/>
<text text-anchor="start" x="191" y="-23.4" font-family="Arial" font-size="7.00">URI</text>
<polygon fill="none" stroke="black" points="221,-18 221,-32 245,-32 245,-18 221,-18"/>
<text text-anchor="start" x="224" y="-23.4" font-family="Arial" font-size="7.00">string</text>
<polygon fill="none" stroke="black" points="245,-18 245,-32 274,-32 274,-18 245,-18"/>
<polygon fill="none" stroke="black" points="188,-4 188,-18 221,-18 221,-4 188,-4"/>
<text text-anchor="start" x="191" y="-9.4" font-family="Arial" font-size="7.00">Value</text>
<polygon fill="none" stroke="black" points="221,-4 221,-18 245,-18 245,-4 221,-4"/>
<text text-anchor="start" x="224" y="-9.4" font-family="Arial" font-size="7.00">string</text>
<polygon fill="none" stroke="black" points="245,-4 245,-18 274,-18 274,-4 245,-4"/>
</g>
<!-- Plan -->
<g id="node2" class="node">
<title>Plan</title>
<g id="a_node2"><a xlink:href="#Plan" xlink:title="&lt;TABLE&gt;">
<polygon fill="lightblue" stroke="transparent" points="64,-210 64,-224 188,-224 188,-210 64,-210"/>
<polygon fill="none" stroke="black" points="64,-210 64,-224 188,-224 188,-210 64,-210"/>
<text text-anchor="start" x="118" y="-215.4" font-family="Arial" font-size="7.00"> Plan</text>
<polygon fill="lightblue" stroke="transparent" points="64,-196 64,-210 109,-210 109,-196 64,-196"/>
<polygon fill="none" stroke="black" points="64,-196 64,-210 109,-210 109,-196 64,-196"/>
<text text-anchor="start" x="73" y="-201.4" font-family="Arial" font-size="7.00">Attribute</text>
<polygon fill="lightblue" stroke="transparent" points="109,-196 109,-210 159,-210 159,-196 109,-196"/>
<polygon fill="none" stroke="black" points="109,-196 109,-210 159,-210 159,-196 109,-196"/>
<text text-anchor="start" x="126" y="-201.4" font-family="Arial" font-size="7.00">Field</text>
<polygon fill="lightblue" stroke="transparent" points="159,-196 159,-210 188,-210 188,-196 159,-196"/>
<polygon fill="none" stroke="black" points="159,-196 159,-210 188,-210 188,-196 159,-196"/>
<text text-anchor="start" x="162" y="-201.4" font-family="Arial" font-size="7.00">Occurs</text>
<polygon fill="none" stroke="black" points="64,-182 64,-196 109,-196 109,-182 64,-182"/>
<text text-anchor="start" x="67" y="-187.4" font-family="Arial" font-size="7.00">Description</text>
<polygon fill="none" stroke="black" points="109,-182 109,-196 159,-196 159,-182 109,-182"/>
<text text-anchor="start" x="112" y="-187.4" font-family="Arial" font-size="7.00">text</text>
<polygon fill="none" stroke="black" points="159,-182 159,-196 188,-196 188,-182 159,-182"/>
<polygon fill="none" stroke="black" points="64,-168 64,-182 109,-182 109,-168 64,-168"/>
<text text-anchor="start" x="67" y="-173.4" font-family="Arial" font-size="7.00">ActivityType</text>
<polygon fill="none" stroke="black" points="109,-168 109,-182 159,-182 159,-168 109,-168"/>
<text text-anchor="start" x="112" y="-173.4" font-family="Arial" font-size="7.00">Characteristic</text>
<polygon fill="none" stroke="black" points="159,-168 159,-182 188,-182 188,-168 159,-168"/>
<text text-anchor="start" x="162" y="-173.4" font-family="Arial" font-size="7.00">many</text>
<polygon fill="none" stroke="black" points="64,-154 64,-168 109,-168 109,-154 64,-154"/>
<text text-anchor="start" x="67" y="-159.4" font-family="Arial" font-size="7.00">Status</text>
<polygon fill="none" stroke="black" points="109,-154 109,-168 159,-168 159,-154 109,-154"/>
<text text-anchor="start" x="112" y="-159.4" font-family="Arial" font-size="7.00">lookup</text>
<polygon fill="none" stroke="black" points="159,-154 159,-168 188,-168 188,-154 159,-154"/>
<polygon fill="none" stroke="black" points="64,-140 64,-154 109,-154 109,-140 64,-140"/>
<text text-anchor="start" x="67" y="-145.4" font-family="Arial" font-size="7.00">StartDate</text>
<polygon fill="none" stroke="black" points="109,-140 109,-154 159,-154 159,-140 109,-140"/>
<text text-anchor="start" x="112" y="-145.4" font-family="Arial" font-size="7.00">date</text>
<polygon fill="none" stroke="black" points="159,-140 159,-154 188,-154 188,-140 159,-140"/>
<polygon fill="none" stroke="black" points="64,-126 64,-140 109,-140 109,-126 64,-126"/>
<text text-anchor="start" x="67" y="-131.4" font-family="Arial" font-size="7.00">EndDate</text>
<polygon fill="none" stroke="black" points="109,-126 109,-140 159,-140 159,-126 109,-126"/>
<text text-anchor="start" x="112" y="-131.4" font-family="Arial" font-size="7.00">date</text>
<polygon fill="none" stroke="black" points="159,-126 159,-140 188,-140 188,-126 159,-126"/>
</a>
</g>
</g>
<!-- Plan&#45;&gt;table_port33 -->
<g id="edge1" class="edge">
<title>Plan:33&#45;&gt;table_port33</title>
<path fill="none" stroke="black" d="M189,-175C229.75,-175 235.31,-118.24 234.18,-78.32"/>
</g>
<!-- Concept_Need -->
<g id="node3" class="node">
<title>Concept_Need</title>
<g id="a_node3"><a xlink:href="#Plan" xlink:title="Need">
<ellipse fill="lightblue" stroke="black" cx="36" cy="-39" rx="36" ry="29"/>
<text text-anchor="middle" x="36" y="-37.4" font-family="Arial" font-size="7.00">Need</text>
</a>
</g>
</g>
<!-- Plan&#45;&gt;Concept_Need -->
<g id="edge2" class="edge">
<title>Plan&#45;&gt;Concept_Need</title>
<path fill="none" stroke="black" d="M90.95,-121.81C80.07,-105.62 68.39,-88.22 58.6,-73.64"/>
<polygon fill="black" stroke="black" points="61.25,-71.32 52.77,-64.97 55.44,-75.22 61.25,-71.32"/>
<text text-anchor="middle" x="88" y="-98.4" font-family="Arial" font-size="7.00">about</text>
</g>
<!-- Concept_Delivery\nOrganisation -->
<g id="node4" class="node">
<title>Concept_Delivery\nOrganisation</title>
<g id="a_node4"><a xlink:href="#Plan" xlink:title="Delivery\nOrganisation">
<ellipse fill="lightblue" stroke="black" cx="126" cy="-39" rx="36" ry="29"/>
<text text-anchor="middle" x="126" y="-41.4" font-family="Arial" font-size="7.00">Delivery</text>
<text text-anchor="middle" x="126" y="-33.4" font-family="Arial" font-size="7.00">Organisation</text>
</a>
</g>
</g>
<!-- Plan&#45;&gt;Concept_Delivery\nOrganisation -->
<g id="edge3" class="edge">
<title>Plan&#45;&gt;Concept_Delivery\nOrganisation</title>
<path fill="none" stroke="black" d="M126,-121.81C126,-107.43 126,-92.09 126,-78.63"/>
<polygon fill="black" stroke="black" points="129.5,-78.28 126,-68.28 122.5,-78.28 129.5,-78.28"/>
<text text-anchor="middle" x="129.5" y="-98.4" font-family="Arial" font-size="7.00">of</text>
</g>
</g>
</svg>
