<?xml version="1.0" encoding="UTF-8" standalone="no"?>
<!DOCTYPE svg PUBLIC "-//W3C//DTD SVG 1.1//EN"
 "http://www.w3.org/Graphics/SVG/1.1/DTD/svg11.dtd">
<!-- Generated by graphviz version 2.44.1 (20200629.0846)
 -->
<!-- Pages: 1 -->
<svg width="748pt" height="338pt"
 viewBox="0.00 0.00 747.50 338.00" xmlns="http://www.w3.org/2000/svg" xmlns:xlink="http://www.w3.org/1999/xlink">
<g id="graph0" class="graph" transform="scale(1 1) rotate(0) translate(4 334)">
<polygon fill="white" stroke="transparent" points="-4,4 -4,-334 743.5,-334 743.5,4 -4,4"/>
<!-- table_port34 -->
<g id="node1" class="node">
<title>table_port34</title>
<polygon fill="lightblue" stroke="transparent" points="643,-46 643,-60 679,-60 679,-46 643,-46"/>
<polygon fill="none" stroke="black" points="643,-46 643,-60 679,-60 679,-46 643,-46"/>
<text text-anchor="start" x="647.5" y="-51.4" font-family="Arial" font-size="7.00">Attribute</text>
<polygon fill="lightblue" stroke="transparent" points="679,-46 679,-60 703,-60 703,-46 679,-46"/>
<polygon fill="none" stroke="black" points="679,-46 679,-60 703,-60 703,-46 679,-46"/>
<text text-anchor="start" x="683" y="-51.4" font-family="Arial" font-size="7.00">Type</text>
<polygon fill="lightblue" stroke="transparent" points="703,-46 703,-60 732,-60 732,-46 703,-46"/>
<polygon fill="none" stroke="black" points="703,-46 703,-60 732,-60 732,-46 703,-46"/>
<text text-anchor="start" x="706" y="-51.4" font-family="Arial" font-size="7.00">Occurs</text>
<polygon fill="none" stroke="black" points="643,-32 643,-46 679,-46 679,-32 643,-32"/>
<text text-anchor="start" x="646" y="-37.4" font-family="Arial" font-size="7.00">Line</text>
<polygon fill="none" stroke="black" points="679,-32 679,-46 703,-46 703,-32 679,-32"/>
<text text-anchor="start" x="682" y="-37.4" font-family="Arial" font-size="7.00">string</text>
<polygon fill="none" stroke="black" points="703,-32 703,-46 732,-46 732,-32 703,-32"/>
<text text-anchor="start" x="706" y="-37.4" font-family="Arial" font-size="7.00">many</text>
<polygon fill="none" stroke="black" points="643,-18 643,-32 679,-32 679,-18 643,-18"/>
<text text-anchor="start" x="646" y="-23.4" font-family="Arial" font-size="7.00">Postcode</text>
<polygon fill="none" stroke="black" points="679,-18 679,-32 703,-32 703,-18 679,-18"/>
<text text-anchor="start" x="682" y="-23.4" font-family="Arial" font-size="7.00">string</text>
<polygon fill="none" stroke="black" points="703,-18 703,-32 732,-32 732,-18 703,-18"/>
</g>
<!-- Residence -->
<g id="node2" class="node">
<title>Residence</title>
<g id="a_node2"><a xlink:href="#Residence" xlink:title="&lt;TABLE&gt;">
<polygon fill="lightblue" stroke="transparent" points="247,-210 247,-224 376,-224 376,-210 247,-210"/>
<polygon fill="none" stroke="black" points="247,-210 247,-224 376,-224 376,-210 247,-210"/>
<text text-anchor="start" x="293.5" y="-215.4" font-family="Arial" font-size="7.00"> Residence</text>
<polygon fill="lightblue" stroke="transparent" points="247,-196 247,-210 297,-210 297,-196 247,-196"/>
<polygon fill="none" stroke="black" points="247,-196 247,-210 297,-210 297,-196 247,-196"/>
<text text-anchor="start" x="258.5" y="-201.4" font-family="Arial" font-size="7.00">Attribute</text>
<polygon fill="lightblue" stroke="transparent" points="297,-196 297,-210 347,-210 347,-196 297,-196"/>
<polygon fill="none" stroke="black" points="297,-196 297,-210 347,-210 347,-196 297,-196"/>
<text text-anchor="start" x="314" y="-201.4" font-family="Arial" font-size="7.00">Field</text>
<polygon fill="lightblue" stroke="transparent" points="347,-196 347,-210 376,-210 376,-196 347,-196"/>
<polygon fill="none" stroke="black" points="347,-196 347,-210 376,-210 376,-196 347,-196"/>
<text text-anchor="start" x="350" y="-201.4" font-family="Arial" font-size="7.00">Occurs</text>
<polygon fill="none" stroke="black" points="247,-182 247,-196 297,-196 297,-182 247,-182"/>
<text text-anchor="start" x="250" y="-187.4" font-family="Arial" font-size="7.00">Address</text>
<polygon fill="none" stroke="black" points="297,-182 297,-196 347,-196 347,-182 297,-182"/>
<text text-anchor="start" x="300" y="-187.4" font-family="Arial" font-size="7.00">Address</text>
<polygon fill="none" stroke="black" points="347,-182 347,-196 376,-196 376,-182 347,-182"/>
<polygon fill="none" stroke="black" points="247,-168 247,-182 297,-182 297,-168 247,-168"/>
<text text-anchor="start" x="250" y="-173.4" font-family="Arial" font-size="7.00">Characteristic</text>
<polygon fill="none" stroke="black" points="297,-168 297,-182 347,-182 347,-168 297,-168"/>
<text text-anchor="start" x="300" y="-173.4" font-family="Arial" font-size="7.00">Characteristic</text>
<polygon fill="none" stroke="black" points="347,-168 347,-182 376,-182 376,-168 347,-168"/>
<text text-anchor="start" x="350" y="-173.4" font-family="Arial" font-size="7.00">many</text>
<polygon fill="none" stroke="black" points="247,-154 247,-168 297,-168 297,-154 247,-154"/>
<text text-anchor="start" x="250" y="-159.4" font-family="Arial" font-size="7.00">Identifier</text>
<polygon fill="none" stroke="black" points="297,-154 297,-168 347,-168 347,-154 297,-154"/>
<text text-anchor="start" x="300" y="-159.4" font-family="Arial" font-size="7.00">Identifier</text>
<polygon fill="none" stroke="black" points="347,-154 347,-168 376,-168 376,-154 347,-154"/>
<text text-anchor="start" x="350" y="-159.4" font-family="Arial" font-size="7.00">many</text>
<polygon fill="none" stroke="black" points="247,-140 247,-154 297,-154 297,-140 247,-140"/>
<text text-anchor="start" x="250" y="-145.4" font-family="Arial" font-size="7.00">Position</text>
<polygon fill="none" stroke="black" points="297,-140 297,-154 347,-154 347,-140 297,-140"/>
<text text-anchor="start" x="300" y="-145.4" font-family="Arial" font-size="7.00">Position</text>
<polygon fill="none" stroke="black" points="347,-140 347,-154 376,-154 376,-140 347,-140"/>
<polygon fill="none" stroke="black" points="247,-126 247,-140 297,-140 297,-126 247,-126"/>
<text text-anchor="start" x="250" y="-131.4" font-family="Arial" font-size="7.00">Area</text>
<polygon fill="none" stroke="black" points="297,-126 297,-140 347,-140 347,-126 297,-126"/>
<text text-anchor="start" x="300" y="-131.4" font-family="Arial" font-size="7.00">Identifier</text>
<polygon fill="none" stroke="black" points="347,-126 347,-140 376,-140 376,-126 347,-126"/>
<text text-anchor="start" x="350" y="-131.4" font-family="Arial" font-size="7.00">many</text>
</a>
</g>
</g>
<!-- Residence&#45;&gt;table_port34 -->
<g id="edge1" class="edge">
<title>Residence:34&#45;&gt;table_port34</title>
<path fill="none" stroke="black" d="M377,-189C490.75,-189 606.87,-106.49 658.84,-64.27"/>
</g>
<!-- table_port35 -->
<g id="node3" class="node">
<title>table_port35</title>
<polygon fill="lightblue" stroke="transparent" points="522,-60 522,-74 555,-74 555,-60 522,-60"/>
<polygon fill="none" stroke="black" points="522,-60 522,-74 555,-74 555,-60 522,-60"/>
<text text-anchor="start" x="525" y="-65.4" font-family="Arial" font-size="7.00">Attribute</text>
<polygon fill="lightblue" stroke="transparent" points="555,-60 555,-74 579,-74 579,-60 555,-60"/>
<polygon fill="none" stroke="black" points="555,-60 555,-74 579,-74 579,-60 555,-60"/>
<text text-anchor="start" x="559" y="-65.4" font-family="Arial" font-size="7.00">Type</text>
<polygon fill="lightblue" stroke="transparent" points="579,-60 579,-74 608,-74 608,-60 579,-60"/>
<polygon fill="none" stroke="black" points="579,-60 579,-74 608,-74 608,-60 579,-60"/>
<text text-anchor="start" x="582" y="-65.4" font-family="Arial" font-size="7.00">Occurs</text>
<polygon fill="none" stroke="black" points="522,-46 522,-60 555,-60 555,-46 522,-46"/>
<text text-anchor="start" x="525" y="-51.4" font-family="Arial" font-size="7.00">Scheme</text>
<polygon fill="none" stroke="black" points="555,-46 555,-60 579,-60 579,-46 555,-46"/>
<text text-anchor="start" x="558" y="-51.4" font-family="Arial" font-size="7.00">string</text>
<polygon fill="none" stroke="black" points="579,-46 579,-60 608,-60 608,-46 579,-46"/>
<polygon fill="none" stroke="black" points="522,-32 522,-46 555,-46 555,-32 522,-32"/>
<text text-anchor="start" x="525" y="-37.4" font-family="Arial" font-size="7.00">Term</text>
<polygon fill="none" stroke="black" points="555,-32 555,-46 579,-46 579,-32 555,-32"/>
<text text-anchor="start" x="558" y="-37.4" font-family="Arial" font-size="7.00">string</text>
<polygon fill="none" stroke="black" points="579,-32 579,-46 608,-46 608,-32 579,-32"/>
<polygon fill="none" stroke="black" points="522,-18 522,-32 555,-32 555,-18 522,-18"/>
<text text-anchor="start" x="525" y="-23.4" font-family="Arial" font-size="7.00">URI</text>
<polygon fill="none" stroke="black" points="555,-18 555,-32 579,-32 579,-18 555,-18"/>
<text text-anchor="start" x="558" y="-23.4" font-family="Arial" font-size="7.00">string</text>
<polygon fill="none" stroke="black" points="579,-18 579,-32 608,-32 608,-18 579,-18"/>
<polygon fill="none" stroke="black" points="522,-4 522,-18 555,-18 555,-4 522,-4"/>
<text text-anchor="start" x="525" y="-9.4" font-family="Arial" font-size="7.00">Value</text>
<polygon fill="none" stroke="black" points="555,-4 555,-18 579,-18 579,-4 555,-4"/>
<text text-anchor="start" x="558" y="-9.4" font-family="Arial" font-size="7.00">string</text>
<polygon fill="none" stroke="black" points="579,-4 579,-18 608,-18 608,-4 579,-4"/>
</g>
<!-- Residence&#45;&gt;table_port35 -->
<g id="edge2" class="edge">
<title>Residence:35&#45;&gt;table_port35</title>
<path fill="none" stroke="black" d="M377,-175C443.7,-175 502.95,-118.24 536.36,-78.32"/>
</g>
<!-- table_port36 -->
<g id="node4" class="node">
<title>table_port36</title>
<polygon fill="lightblue" stroke="transparent" points="374,-53 374,-67 428,-67 428,-53 374,-53"/>
<polygon fill="none" stroke="black" points="374,-53 374,-67 428,-67 428,-53 374,-53"/>
<text text-anchor="start" x="387.5" y="-58.4" font-family="Arial" font-size="7.00">Attribute</text>
<polygon fill="lightblue" stroke="transparent" points="428,-53 428,-67 459,-67 459,-53 428,-53"/>
<polygon fill="none" stroke="black" points="428,-53 428,-67 459,-67 459,-53 428,-53"/>
<text text-anchor="start" x="435.5" y="-58.4" font-family="Arial" font-size="7.00">Type</text>
<polygon fill="lightblue" stroke="transparent" points="459,-53 459,-67 488,-67 488,-53 459,-53"/>
<polygon fill="none" stroke="black" points="459,-53 459,-67 488,-67 488,-53 459,-53"/>
<text text-anchor="start" x="462" y="-58.4" font-family="Arial" font-size="7.00">Occurs</text>
<polygon fill="none" stroke="black" points="374,-39 374,-53 428,-53 428,-39 374,-39"/>
<text text-anchor="start" x="377" y="-44.4" font-family="Arial" font-size="7.00">Scheme</text>
<polygon fill="none" stroke="black" points="428,-39 428,-53 459,-53 459,-39 428,-39"/>
<text text-anchor="start" x="431" y="-44.4" font-family="Arial" font-size="7.00">string</text>
<polygon fill="none" stroke="black" points="459,-39 459,-53 488,-53 488,-39 459,-39"/>
<polygon fill="none" stroke="black" points="374,-25 374,-39 428,-39 428,-25 374,-25"/>
<text text-anchor="start" x="377" y="-30.4" font-family="Arial" font-size="7.00">Reference</text>
<polygon fill="none" stroke="black" points="428,-25 428,-39 459,-39 459,-25 428,-25"/>
<text text-anchor="start" x="431" y="-30.4" font-family="Arial" font-size="7.00">string</text>
<polygon fill="none" stroke="black" points="459,-25 459,-39 488,-39 488,-25 459,-25"/>
<polygon fill="none" stroke="black" points="374,-11 374,-25 428,-25 428,-11 374,-11"/>
<text text-anchor="start" x="377" y="-16.4" font-family="Arial" font-size="7.00">Pseudonimised</text>
<polygon fill="none" stroke="black" points="428,-11 428,-25 459,-25 459,-11 428,-11"/>
<text text-anchor="start" x="431" y="-16.4" font-family="Arial" font-size="7.00">boolean</text>
<polygon fill="none" stroke="black" points="459,-11 459,-25 488,-25 488,-11 459,-11"/>
</g>
<!-- Residence&#45;&gt;table_port36 -->
<g id="edge3" class="edge">
<title>Residence:36&#45;&gt;table_port36</title>
<path fill="none" stroke="black" d="M377,-161C416.34,-161 427.22,-107.01 430.1,-71.16"/>
</g>
<!-- table_port37 -->
<g id="node5" class="node">
<title>table_port37</title>
<polygon fill="lightblue" stroke="transparent" points="247,-46 247,-60 281,-60 281,-46 247,-46"/>
<polygon fill="none" stroke="black" points="247,-46 247,-60 281,-60 281,-46 247,-46"/>
<text text-anchor="start" x="250.5" y="-51.4" font-family="Arial" font-size="7.00">Attribute</text>
<polygon fill="lightblue" stroke="transparent" points="281,-46 281,-60 311,-60 311,-46 281,-46"/>
<polygon fill="none" stroke="black" points="281,-46 281,-60 311,-60 311,-46 281,-46"/>
<text text-anchor="start" x="288" y="-51.4" font-family="Arial" font-size="7.00">Type</text>
<polygon fill="lightblue" stroke="transparent" points="311,-46 311,-60 340,-60 340,-46 311,-46"/>
<polygon fill="none" stroke="black" points="311,-46 311,-60 340,-60 340,-46 311,-46"/>
<text text-anchor="start" x="314" y="-51.4" font-family="Arial" font-size="7.00">Occurs</text>
<polygon fill="none" stroke="black" points="247,-32 247,-46 281,-46 281,-32 247,-32"/>
<text text-anchor="start" x="250" y="-37.4" font-family="Arial" font-size="7.00">latitude</text>
<polygon fill="none" stroke="black" points="281,-32 281,-46 311,-46 311,-32 281,-32"/>
<text text-anchor="start" x="284" y="-37.4" font-family="Arial" font-size="7.00">number</text>
<polygon fill="none" stroke="black" points="311,-32 311,-46 340,-46 340,-32 311,-32"/>
<polygon fill="none" stroke="black" points="247,-18 247,-32 281,-32 281,-18 247,-18"/>
<text text-anchor="start" x="250" y="-23.4" font-family="Arial" font-size="7.00">longitude</text>
<polygon fill="none" stroke="black" points="281,-18 281,-32 311,-32 311,-18 281,-18"/>
<text text-anchor="start" x="284" y="-23.4" font-family="Arial" font-size="7.00">number</text>
<polygon fill="none" stroke="black" points="311,-18 311,-32 340,-32 340,-18 311,-18"/>
</g>
<!-- Residence&#45;&gt;table_port37 -->
<g id="edge4" class="edge">
<title>Residence:37&#45;&gt;table_port37</title>
<path fill="none" stroke="black" d="M377,-147C418.92,-147 362.33,-95.56 323.68,-64.01"/>
</g>
<!-- table_port38 -->
<g id="node6" class="node">
<title>table_port38</title>
<polygon fill="lightblue" stroke="transparent" points="98,-53 98,-67 152,-67 152,-53 98,-53"/>
<polygon fill="none" stroke="black" points="98,-53 98,-67 152,-67 152,-53 98,-53"/>
<text text-anchor="start" x="111.5" y="-58.4" font-family="Arial" font-size="7.00">Attribute</text>
<polygon fill="lightblue" stroke="transparent" points="152,-53 152,-67 183,-67 183,-53 152,-53"/>
<polygon fill="none" stroke="black" points="152,-53 152,-67 183,-67 183,-53 152,-53"/>
<text text-anchor="start" x="159.5" y="-58.4" font-family="Arial" font-size="7.00">Type</text>
<polygon fill="lightblue" stroke="transparent" points="183,-53 183,-67 212,-67 212,-53 183,-53"/>
<polygon fill="none" stroke="black" points="183,-53 183,-67 212,-67 212,-53 183,-53"/>
<text text-anchor="start" x="186" y="-58.4" font-family="Arial" font-size="7.00">Occurs</text>
<polygon fill="none" stroke="black" points="98,-39 98,-53 152,-53 152,-39 98,-39"/>
<text text-anchor="start" x="101" y="-44.4" font-family="Arial" font-size="7.00">Scheme</text>
<polygon fill="none" stroke="black" points="152,-39 152,-53 183,-53 183,-39 152,-39"/>
<text text-anchor="start" x="155" y="-44.4" font-family="Arial" font-size="7.00">string</text>
<polygon fill="none" stroke="black" points="183,-39 183,-53 212,-53 212,-39 183,-39"/>
<polygon fill="none" stroke="black" points="98,-25 98,-39 152,-39 152,-25 98,-25"/>
<text text-anchor="start" x="101" y="-30.4" font-family="Arial" font-size="7.00">Reference</text>
<polygon fill="none" stroke="black" points="152,-25 152,-39 183,-39 183,-25 152,-25"/>
<text text-anchor="start" x="155" y="-30.4" font-family="Arial" font-size="7.00">string</text>
<polygon fill="none" stroke="black" points="183,-25 183,-39 212,-39 212,-25 183,-25"/>
<polygon fill="none" stroke="black" points="98,-11 98,-25 152,-25 152,-11 98,-11"/>
<text text-anchor="start" x="101" y="-16.4" font-family="Arial" font-size="7.00">Pseudonimised</text>
<polygon fill="none" stroke="black" points="152,-11 152,-25 183,-25 183,-11 152,-11"/>
<text text-anchor="start" x="155" y="-16.4" font-family="Arial" font-size="7.00">boolean</text>
<polygon fill="none" stroke="black" points="183,-11 183,-25 212,-25 212,-11 183,-11"/>
</g>
<!-- Residence&#45;&gt;table_port38 -->
<g id="edge5" class="edge">
<title>Residence:38&#45;&gt;table_port38</title>
<path fill="none" stroke="black" d="M362,-125C362,-93.65 257.79,-90.41 229,-78 223.96,-75.83 218.79,-73.46 213.63,-71.01"/>
</g>
<!-- Concept_Area -->
<g id="node7" class="node">
<title>Concept_Area</title>
<g id="a_node7"><a xlink:href="#Residence" xlink:title="Area">
<ellipse fill="lightblue" stroke="black" cx="36" cy="-39" rx="36" ry="29"/>
<text text-anchor="middle" x="36" y="-37.4" font-family="Arial" font-size="7.00">Area</text>
</a>
</g>
</g>
<!-- Residence&#45;&gt;Concept_Area -->
<g id="edge6" class="edge">
<title>Residence&#45;&gt;Concept_Area</title>
<path fill="none" stroke="black" d="M238.31,-150.15C191.63,-133.3 130.67,-108.34 81,-78 76.2,-75.07 71.39,-71.64 66.79,-68.07"/>
<polygon fill="black" stroke="black" points="68.75,-65.15 58.78,-61.56 64.33,-70.58 68.75,-65.15"/>
<text text-anchor="middle" x="126" y="-98.4" font-family="Arial" font-size="7.00">in</text>
</g>
<!-- ConceptOf_Household -->
<g id="node8" class="node">
<title>ConceptOf_Household</title>
<g id="a_node8"><a xlink:href="#Residence" xlink:title="Household">
<ellipse fill="lightblue" stroke="black" cx="311" cy="-301" rx="36" ry="29"/>
<text text-anchor="middle" x="311" y="-299.4" font-family="Arial" font-size="7.00">Household</text>
</a>
</g>
</g>
<!-- ConceptOf_Household&#45;&gt;Residence -->
<g id="edge7" class="edge">
<title>ConceptOf_Household&#45;&gt;Residence</title>
<path fill="none" stroke="black" d="M311,-271.86C311,-261.91 311,-250.29 311,-238.63"/>
<polygon fill="black" stroke="black" points="314.5,-238.42 311,-228.42 307.5,-238.42 314.5,-238.42"/>
<text text-anchor="middle" x="326.5" y="-248.4" font-family="Arial" font-size="7.00">resides at</text>
</g>
</g>
</svg>
