<?xml version="1.0" encoding="UTF-8" standalone="no"?>
<!DOCTYPE svg PUBLIC "-//W3C//DTD SVG 1.1//EN"
 "http://www.w3.org/Graphics/SVG/1.1/DTD/svg11.dtd">
<!-- Generated by graphviz version 2.44.1 (20200629.0846)
 -->
<!-- Pages: 1 -->
<svg width="380pt" height="296pt"
 viewBox="0.00 0.00 380.00 296.00" xmlns="http://www.w3.org/2000/svg" xmlns:xlink="http://www.w3.org/1999/xlink">
<g id="graph0" class="graph" transform="scale(1 1) rotate(0) translate(4 292)">
<polygon fill="white" stroke="transparent" points="-4,4 -4,-292 376,-292 376,4 -4,4"/>
<!-- table_port39 -->
<g id="node1" class="node">
<title>table_port39</title>
<polygon fill="lightblue" stroke="transparent" points="278,-60 278,-74 311,-74 311,-60 278,-60"/>
<polygon fill="none" stroke="black" points="278,-60 278,-74 311,-74 311,-60 278,-60"/>
<text text-anchor="start" x="281" y="-65.4" font-family="Arial" font-size="7.00">Attribute</text>
<polygon fill="lightblue" stroke="transparent" points="311,-60 311,-74 335,-74 335,-60 311,-60"/>
<polygon fill="none" stroke="black" points="311,-60 311,-74 335,-74 335,-60 311,-60"/>
<text text-anchor="start" x="315" y="-65.4" font-family="Arial" font-size="7.00">Type</text>
<polygon fill="lightblue" stroke="transparent" points="335,-60 335,-74 364,-74 364,-60 335,-60"/>
<polygon fill="none" stroke="black" points="335,-60 335,-74 364,-74 364,-60 335,-60"/>
<text text-anchor="start" x="338" y="-65.4" font-family="Arial" font-size="7.00">Occurs</text>
<polygon fill="none" stroke="black" points="278,-46 278,-60 311,-60 311,-46 278,-46"/>
<text text-anchor="start" x="281" y="-51.4" font-family="Arial" font-size="7.00">Scheme</text>
<polygon fill="none" stroke="black" points="311,-46 311,-60 335,-60 335,-46 311,-46"/>
<text text-anchor="start" x="314" y="-51.4" font-family="Arial" font-size="7.00">string</text>
<polygon fill="none" stroke="black" points="335,-46 335,-60 364,-60 364,-46 335,-46"/>
<polygon fill="none" stroke="black" points="278,-32 278,-46 311,-46 311,-32 278,-32"/>
<text text-anchor="start" x="281" y="-37.4" font-family="Arial" font-size="7.00">Term</text>
<polygon fill="none" stroke="black" points="311,-32 311,-46 335,-46 335,-32 311,-32"/>
<text text-anchor="start" x="314" y="-37.4" font-family="Arial" font-size="7.00">string</text>
<polygon fill="none" stroke="black" points="335,-32 335,-46 364,-46 364,-32 335,-32"/>
<polygon fill="none" stroke="black" points="278,-18 278,-32 311,-32 311,-18 278,-18"/>
<text text-anchor="start" x="281" y="-23.4" font-family="Arial" font-size="7.00">URI</text>
<polygon fill="none" stroke="black" points="311,-18 311,-32 335,-32 335,-18 311,-18"/>
<text text-anchor="start" x="314" y="-23.4" font-family="Arial" font-size="7.00">string</text>
<polygon fill="none" stroke="black" points="335,-18 335,-32 364,-32 364,-18 335,-18"/>
<polygon fill="none" stroke="black" points="278,-4 278,-18 311,-18 311,-4 278,-4"/>
<text text-anchor="start" x="281" y="-9.4" font-family="Arial" font-size="7.00">Value</text>
<polygon fill="none" stroke="black" points="311,-4 311,-18 335,-18 335,-4 311,-4"/>
<text text-anchor="start" x="314" y="-9.4" font-family="Arial" font-size="7.00">string</text>
<polygon fill="none" stroke="black" points="335,-4 335,-18 364,-18 364,-4 335,-4"/>
</g>
<!-- RiskAssessment -->
<g id="node2" class="node">
<title>RiskAssessment</title>
<g id="a_node2"><a xlink:href="#RiskAssessment" xlink:title="&lt;TABLE&gt;">
<polygon fill="lightblue" stroke="transparent" points="114,-168 114,-182 229,-182 229,-168 114,-168"/>
<polygon fill="none" stroke="black" points="114,-168 114,-182 229,-182 229,-168 114,-168"/>
<text text-anchor="start" x="143.5" y="-173.4" font-family="Arial" font-size="7.00"> RiskAssessment</text>
<polygon fill="lightblue" stroke="transparent" points="114,-154 114,-168 150,-168 150,-154 114,-154"/>
<polygon fill="none" stroke="black" points="114,-154 114,-168 150,-168 150,-154 114,-154"/>
<text text-anchor="start" x="118.5" y="-159.4" font-family="Arial" font-size="7.00">Attribute</text>
<polygon fill="lightblue" stroke="transparent" points="150,-154 150,-168 200,-168 200,-154 150,-154"/>
<polygon fill="none" stroke="black" points="150,-154 150,-168 200,-168 200,-154 150,-154"/>
<text text-anchor="start" x="167" y="-159.4" font-family="Arial" font-size="7.00">Field</text>
<polygon fill="lightblue" stroke="transparent" points="200,-154 200,-168 229,-168 229,-154 200,-154"/>
<polygon fill="none" stroke="black" points="200,-154 200,-168 229,-168 229,-154 200,-154"/>
<text text-anchor="start" x="203" y="-159.4" font-family="Arial" font-size="7.00">Occurs</text>
<polygon fill="none" stroke="black" points="114,-140 114,-154 150,-154 150,-140 114,-140"/>
<text text-anchor="start" x="117" y="-145.4" font-family="Arial" font-size="7.00">Date</text>
<polygon fill="none" stroke="black" points="150,-140 150,-154 200,-154 200,-140 150,-140"/>
<text text-anchor="start" x="153" y="-145.4" font-family="Arial" font-size="7.00">date</text>
<polygon fill="none" stroke="black" points="200,-140 200,-154 229,-154 229,-140 200,-140"/>
<polygon fill="none" stroke="black" points="114,-126 114,-140 150,-140 150,-126 114,-126"/>
<text text-anchor="start" x="117" y="-131.4" font-family="Arial" font-size="7.00">Category</text>
<polygon fill="none" stroke="black" points="150,-126 150,-140 200,-140 200,-126 150,-126"/>
<text text-anchor="start" x="153" y="-131.4" font-family="Arial" font-size="7.00">Characteristic</text>
<polygon fill="none" stroke="black" points="200,-126 200,-140 229,-140 229,-126 200,-126"/>
</a>
</g>
</g>
<!-- RiskAssessment&#45;&gt;table_port39 -->
<g id="edge1" class="edge">
<title>RiskAssessment:39&#45;&gt;table_port39</title>
<path fill="none" stroke="black" d="M230,-133C262.42,-133 287.08,-103.78 302.5,-78.09"/>
</g>
<!-- Concept_Lead\nOrganisation -->
<g id="node3" class="node">
<title>Concept_Lead\nOrganisation</title>
<g id="a_node3"><a xlink:href="#RiskAssessment" xlink:title="Lead\nOrganisation">
<ellipse fill="lightblue" stroke="black" cx="36" cy="-39" rx="36" ry="29"/>
<text text-anchor="middle" x="36" y="-41.4" font-family="Arial" font-size="7.00">Lead</text>
<text text-anchor="middle" x="36" y="-33.4" font-family="Arial" font-size="7.00">Organisation</text>
</a>
</g>
</g>
<!-- RiskAssessment&#45;&gt;Concept_Lead\nOrganisation -->
<g id="edge2" class="edge">
<title>RiskAssessment&#45;&gt;Concept_Lead\nOrganisation</title>
<path fill="none" stroke="black" d="M133.3,-121.67C117.17,-108.25 98.14,-92.38 81,-78 76.79,-74.47 72.36,-70.74 68,-67.06"/>
<polygon fill="black" stroke="black" points="70.16,-64.31 60.26,-60.54 65.65,-69.66 70.16,-64.31"/>
<text text-anchor="middle" x="115.5" y="-98.4" font-family="Arial" font-size="7.00">by</text>
</g>
<!-- Concept_Stratification\nPolicy -->
<g id="node4" class="node">
<title>Concept_Stratification\nPolicy</title>
<g id="a_node4"><a xlink:href="#RiskAssessment" xlink:title="Stratification\nPolicy">
<ellipse fill="lightblue" stroke="black" cx="126" cy="-39" rx="36" ry="29"/>
<text text-anchor="middle" x="126" y="-41.4" font-family="Arial" font-size="7.00">Stratification</text>
<text text-anchor="middle" x="126" y="-33.4" font-family="Arial" font-size="7.00">Policy</text>
</a>
</g>
</g>
<!-- RiskAssessment&#45;&gt;Concept_Stratification\nPolicy -->
<g id="edge3" class="edge">
<title>RiskAssessment&#45;&gt;Concept_Stratification\nPolicy</title>
<path fill="none" stroke="black" d="M158.58,-121.82C152.95,-107.68 146.25,-90.86 140.4,-76.16"/>
<polygon fill="black" stroke="black" points="143.65,-74.85 136.69,-66.86 137.14,-77.44 143.65,-74.85"/>
<text text-anchor="middle" x="163" y="-98.4" font-family="Arial" font-size="7.00">applies</text>
</g>
<!-- Concept_Attribute -->
<g id="node5" class="node">
<title>Concept_Attribute</title>
<g id="a_node5"><a xlink:href="#RiskAssessment" xlink:title="Attribute">
<ellipse fill="lightblue" stroke="black" cx="216" cy="-39" rx="36" ry="29"/>
<text text-anchor="middle" x="216" y="-37.4" font-family="Arial" font-size="7.00">Attribute</text>
</a>
</g>
</g>
<!-- RiskAssessment&#45;&gt;Concept_Attribute -->
<g id="edge4" class="edge">
<title>RiskAssessment&#45;&gt;Concept_Attribute</title>
<path fill="none" stroke="black" d="M183.42,-121.82C189.05,-107.68 195.75,-90.86 201.6,-76.16"/>
<polygon fill="black" stroke="black" points="204.86,-77.44 205.31,-66.86 198.35,-74.85 204.86,-77.44"/>
<text text-anchor="middle" x="201" y="-98.4" font-family="Arial" font-size="7.00">uses</text>
</g>
<!-- ConceptOf_Case -->
<g id="node6" class="node">
<title>ConceptOf_Case</title>
<g id="a_node6"><a xlink:href="#RiskAssessment" xlink:title="Case">
<ellipse fill="lightblue" stroke="black" cx="171" cy="-259" rx="36" ry="29"/>
<text text-anchor="middle" x="171" y="-257.4" font-family="Arial" font-size="7.00">Case</text>
</a>
</g>
</g>
<!-- ConceptOf_Case&#45;&gt;RiskAssessment -->
<g id="edge5" class="edge">
<title>ConceptOf_Case&#45;&gt;RiskAssessment</title>
<path fill="none" stroke="black" d="M171,-229.85C171,-219.46 171,-207.45 171,-196.14"/>
<polygon fill="black" stroke="black" points="174.5,-196.01 171,-186.01 167.5,-196.01 174.5,-196.01"/>
<text text-anchor="middle" x="177" y="-206.4" font-family="Arial" font-size="7.00">risk</text>
</g>
</g>
</svg>
