<?xml version="1.0" encoding="UTF-8" standalone="no"?>
<!DOCTYPE svg PUBLIC "-//W3C//DTD SVG 1.1//EN"
 "http://www.w3.org/Graphics/SVG/1.1/DTD/svg11.dtd">
<!-- Generated by graphviz version 2.44.1 (20200629.0846)
 -->
<!-- Pages: 1 -->
<svg width="290pt" height="222pt"
 viewBox="0.00 0.00 290.00 222.00" xmlns="http://www.w3.org/2000/svg" xmlns:xlink="http://www.w3.org/1999/xlink">
<g id="graph0" class="graph" transform="scale(1 1) rotate(0) translate(4 218)">
<polygon fill="white" stroke="transparent" points="-4,4 -4,-218 286,-218 286,4 -4,4"/>
<!-- table_port40 -->
<g id="node1" class="node">
<title>table_port40</title>
<polygon fill="lightblue" stroke="transparent" points="188,-60 188,-74 221,-74 221,-60 188,-60"/>
<polygon fill="none" stroke="black" points="188,-60 188,-74 221,-74 221,-60 188,-60"/>
<text text-anchor="start" x="191" y="-65.4" font-family="Arial" font-size="7.00">Attribute</text>
<polygon fill="lightblue" stroke="transparent" points="221,-60 221,-74 245,-74 245,-60 221,-60"/>
<polygon fill="none" stroke="black" points="221,-60 221,-74 245,-74 245,-60 221,-60"/>
<text text-anchor="start" x="225" y="-65.4" font-family="Arial" font-size="7.00">Type</text>
<polygon fill="lightblue" stroke="transparent" points="245,-60 245,-74 274,-74 274,-60 245,-60"/>
<polygon fill="none" stroke="black" points="245,-60 245,-74 274,-74 274,-60 245,-60"/>
<text text-anchor="start" x="248" y="-65.4" font-family="Arial" font-size="7.00">Occurs</text>
<polygon fill="none" stroke="black" points="188,-46 188,-60 221,-60 221,-46 188,-46"/>
<text text-anchor="start" x="191" y="-51.4" font-family="Arial" font-size="7.00">Scheme</text>
<polygon fill="none" stroke="black" points="221,-46 221,-60 245,-60 245,-46 221,-46"/>
<text text-anchor="start" x="224" y="-51.4" font-family="Arial" font-size="7.00">string</text>
<polygon fill="none" stroke="black" points="245,-46 245,-60 274,-60 274,-46 245,-46"/>
<polygon fill="none" stroke="black" points="188,-32 188,-46 221,-46 221,-32 188,-32"/>
<text text-anchor="start" x="191" y="-37.4" font-family="Arial" font-size="7.00">Term</text>
<polygon fill="none" stroke="black" points="221,-32 221,-46 245,-46 245,-32 221,-32"/>
<text text-anchor="start" x="224" y="-37.4" font-family="Arial" font-size="7.00">string</text>
<polygon fill="none" stroke="black" points="245,-32 245,-46 274,-46 274,-32 245,-32"/>
<polygon fill="none" stroke="black" points="188,-18 188,-32 221,-32 221,-18 188,-18"/>
<text text-anchor="start" x="191" y="-23.4" font-family="Arial" font-size="7.00">URI</text>
<polygon fill="none" stroke="black" points="221,-18 221,-32 245,-32 245,-18 221,-18"/>
<text text-anchor="start" x="224" y="-23.4" font-family="Arial" font-size="7.00">string</text>
<polygon fill="none" stroke="black" points="245,-18 245,-32 274,-32 274,-18 245,-18"/>
<polygon fill="none" stroke="black" points="188,-4 188,-18 221,-18 221,-4 188,-4"/>
<text text-anchor="start" x="191" y="-9.4" font-family="Arial" font-size="7.00">Value</text>
<polygon fill="none" stroke="black" points="221,-4 221,-18 245,-18 245,-4 221,-4"/>
<text text-anchor="start" x="224" y="-9.4" font-family="Arial" font-size="7.00">string</text>
<polygon fill="none" stroke="black" points="245,-4 245,-18 274,-18 274,-4 245,-4"/>
</g>
<!-- SituationAssessment -->
<g id="node2" class="node">
<title>SituationAssessment</title>
<g id="a_node2"><a xlink:href="#SituationAssessment" xlink:title="&lt;TABLE&gt;">
<polygon fill="lightblue" stroke="transparent" points="62,-196 62,-210 191,-210 191,-196 62,-196"/>
<polygon fill="none" stroke="black" points="62,-196 62,-210 191,-210 191,-196 62,-196"/>
<text text-anchor="start" x="92" y="-201.4" font-family="Arial" font-size="7.00"> SituationAssessment</text>
<polygon fill="lightblue" stroke="transparent" points="62,-182 62,-196 112,-196 112,-182 62,-182"/>
<polygon fill="none" stroke="black" points="62,-182 62,-196 112,-196 112,-182 62,-182"/>
<text text-anchor="start" x="73.5" y="-187.4" font-family="Arial" font-size="7.00">Attribute</text>
<polygon fill="lightblue" stroke="transparent" points="112,-182 112,-196 162,-196 162,-182 112,-182"/>
<polygon fill="none" stroke="black" points="112,-182 112,-196 162,-196 162,-182 112,-182"/>
<text text-anchor="start" x="129" y="-187.4" font-family="Arial" font-size="7.00">Field</text>
<polygon fill="lightblue" stroke="transparent" points="162,-182 162,-196 191,-196 191,-182 162,-182"/>
<polygon fill="none" stroke="black" points="162,-182 162,-196 191,-196 191,-182 162,-182"/>
<text text-anchor="start" x="165" y="-187.4" font-family="Arial" font-size="7.00">Occurs</text>
<polygon fill="none" stroke="black" points="62,-168 62,-182 112,-182 112,-168 62,-168"/>
<text text-anchor="start" x="65" y="-173.4" font-family="Arial" font-size="7.00">Date</text>
<polygon fill="none" stroke="black" points="112,-168 112,-182 162,-182 162,-168 112,-168"/>
<text text-anchor="start" x="115" y="-173.4" font-family="Arial" font-size="7.00">date</text>
<polygon fill="none" stroke="black" points="162,-168 162,-182 191,-182 191,-168 162,-168"/>
<polygon fill="none" stroke="black" points="62,-154 62,-168 112,-168 112,-154 62,-154"/>
<text text-anchor="start" x="65" y="-159.4" font-family="Arial" font-size="7.00">Situation</text>
<polygon fill="none" stroke="black" points="112,-154 112,-168 162,-168 162,-154 112,-154"/>
<text text-anchor="start" x="115" y="-159.4" font-family="Arial" font-size="7.00">text</text>
<polygon fill="none" stroke="black" points="162,-154 162,-168 191,-168 191,-154 162,-154"/>
<polygon fill="none" stroke="black" points="62,-140 62,-154 112,-154 112,-140 62,-140"/>
<text text-anchor="start" x="65" y="-145.4" font-family="Arial" font-size="7.00">Assessment</text>
<polygon fill="none" stroke="black" points="112,-140 112,-154 162,-154 162,-140 112,-140"/>
<text text-anchor="start" x="115" y="-145.4" font-family="Arial" font-size="7.00">text</text>
<polygon fill="none" stroke="black" points="162,-140 162,-154 191,-154 191,-140 162,-140"/>
<polygon fill="none" stroke="black" points="62,-126 62,-140 112,-140 112,-126 62,-126"/>
<text text-anchor="start" x="65" y="-131.4" font-family="Arial" font-size="7.00">RiskCategory</text>
<polygon fill="none" stroke="black" points="112,-126 112,-140 162,-140 162,-126 112,-126"/>
<text text-anchor="start" x="115" y="-131.4" font-family="Arial" font-size="7.00">Characteristic</text>
<polygon fill="none" stroke="black" points="162,-126 162,-140 191,-140 191,-126 162,-126"/>
</a>
</g>
</g>
<!-- SituationAssessment&#45;&gt;table_port40 -->
<g id="edge1" class="edge">
<title>SituationAssessment:40&#45;&gt;table_port40</title>
<path fill="none" stroke="black" d="M192,-133C217.12,-133 226.34,-103.78 229.58,-78.09"/>
</g>
<!-- Concept_Responsible\nOrganisation -->
<g id="node3" class="node">
<title>Concept_Responsible\nOrganisation</title>
<g id="a_node3"><a xlink:href="#SituationAssessment" xlink:title="Responsible\nOrganisation">
<ellipse fill="lightblue" stroke="black" cx="36" cy="-39" rx="36" ry="29"/>
<text text-anchor="middle" x="36" y="-41.4" font-family="Arial" font-size="7.00">Responsible</text>
<text text-anchor="middle" x="36" y="-33.4" font-family="Arial" font-size="7.00">Organisation</text>
</a>
</g>
</g>
<!-- SituationAssessment&#45;&gt;Concept_Responsible\nOrganisation -->
<g id="edge2" class="edge">
<title>SituationAssessment&#45;&gt;Concept_Responsible\nOrganisation</title>
<path fill="none" stroke="black" d="M94.02,-121.87C82.61,-105.78 69.99,-87.96 59.44,-73.07"/>
<polygon fill="black" stroke="black" points="62.13,-70.81 53.49,-64.68 56.41,-74.86 62.13,-70.81"/>
<text text-anchor="middle" x="85.5" y="-98.4" font-family="Arial" font-size="7.00">by</text>
</g>
<!-- Concept_Case -->
<g id="node4" class="node">
<title>Concept_Case</title>
<g id="a_node4"><a xlink:href="#SituationAssessment" xlink:title="Case">
<ellipse fill="lightblue" stroke="black" cx="126" cy="-39" rx="36" ry="29"/>
<text text-anchor="middle" x="126" y="-37.4" font-family="Arial" font-size="7.00">Case</text>
</a>
</g>
</g>
<!-- SituationAssessment&#45;&gt;Concept_Case -->
<g id="edge3" class="edge">
<title>SituationAssessment&#45;&gt;Concept_Case</title>
<path fill="none" stroke="black" d="M126,-121.87C126,-107.66 126,-92.12 126,-78.43"/>
<polygon fill="black" stroke="black" points="129.5,-78.37 126,-68.37 122.5,-78.37 129.5,-78.37"/>
<text text-anchor="middle" x="129.5" y="-98.4" font-family="Arial" font-size="7.00">of</text>
</g>
</g>
</svg>
