<?xml version="1.0" encoding="UTF-8" standalone="no"?>
<!DOCTYPE svg PUBLIC "-//W3C//DTD SVG 1.1//EN"
 "http://www.w3.org/Graphics/SVG/1.1/DTD/svg11.dtd">
<!-- Generated by graphviz version 2.44.1 (20200629.0846)
 -->
<!-- Pages: 1 -->
<svg width="666pt" height="984pt"
 viewBox="0.00 0.00 666.00 984.00" xmlns="http://www.w3.org/2000/svg" xmlns:xlink="http://www.w3.org/1999/xlink">
<g id="graph0" class="graph" transform="scale(1 1) rotate(0) translate(4 980)">
<polygon fill="white" stroke="transparent" points="-4,4 -4,-980 662,-980 662,4 -4,4"/>
<!-- Action -->
<g id="node1" class="node">
<title>Action</title>
<g id="a_node1"><a xlink:href="#Action" xlink:title="Action">
<ellipse fill="lightblue" stroke="black" cx="138" cy="-947" rx="36" ry="29"/>
<text text-anchor="middle" x="138" y="-945.4" font-family="Arial" font-size="7.00">Action</text>
</a>
</g>
</g>
<!-- DeliveryOrganisation -->
<g id="node6" class="node">
<title>DeliveryOrganisation</title>
<g id="a_node6"><a xlink:href="#DeliveryOrganisation" xlink:title="Delivery\nOrganisation">
<ellipse fill="lightblue" stroke="black" cx="85" cy="-743" rx="36" ry="29"/>
<text text-anchor="middle" x="85" y="-745.4" font-family="Arial" font-size="7.00">Delivery</text>
<text text-anchor="middle" x="85" y="-737.4" font-family="Arial" font-size="7.00">Organisation</text>
</a>
</g>
</g>
<!-- Action&#45;&gt;DeliveryOrganisation -->
<g id="edge1" class="edge">
<title>Action&#45;&gt;DeliveryOrganisation</title>
<path fill="none" stroke="black" d="M127.71,-918.9C122.85,-905.51 117.21,-889.03 113,-874 104.39,-843.29 96.92,-807.86 91.87,-781.75"/>
<polygon fill="black" stroke="black" points="95.3,-781.05 89.98,-771.88 88.42,-782.36 95.3,-781.05"/>
<text text-anchor="middle" x="117" y="-843.4" font-family="Arial" font-size="7.00">by</text>
</g>
<!-- Need -->
<g id="node9" class="node">
<title>Need</title>
<g id="a_node9"><a xlink:href="#Need" xlink:title="Need">
<ellipse fill="lightblue" stroke="black" cx="166" cy="-845" rx="36" ry="29"/>
<text text-anchor="middle" x="166" y="-843.4" font-family="Arial" font-size="7.00">Need</text>
</a>
</g>
</g>
<!-- Action&#45;&gt;Need -->
<g id="edge2" class="edge">
<title>Action&#45;&gt;Need</title>
<path fill="none" stroke="black" d="M145.73,-918.41C148.76,-907.59 152.28,-895 155.53,-883.39"/>
<polygon fill="black" stroke="black" points="158.97,-884.07 158.3,-873.5 152.23,-882.19 158.97,-884.07"/>
<text text-anchor="middle" x="168.5" y="-894.4" font-family="Arial" font-size="7.00">addresses</text>
</g>
<!-- Area -->
<g id="node2" class="node">
<title>Area</title>
<g id="a_node2"><a xlink:href="#Area" xlink:title="Area">
<ellipse fill="lightblue" stroke="black" cx="238" cy="-29" rx="36" ry="29"/>
<text text-anchor="middle" x="238" y="-27.4" font-family="Arial" font-size="7.00">Area</text>
</a>
</g>
</g>
<!-- Attribute -->
<g id="node3" class="node">
<title>Attribute</title>
<g id="a_node3"><a xlink:href="#Attribute" xlink:title="Attribute">
<ellipse fill="lightblue" stroke="black" cx="356" cy="-335" rx="36" ry="29"/>
<text text-anchor="middle" x="356" y="-333.4" font-family="Arial" font-size="7.00">Attribute</text>
</a>
</g>
</g>
<!-- Household -->
<g id="node7" class="node">
<title>Household</title>
<g id="a_node7"><a xlink:href="#Household" xlink:title="Household">
<ellipse fill="lightblue" stroke="black" cx="250" cy="-233" rx="36" ry="29"/>
<text text-anchor="middle" x="250" y="-231.4" font-family="Arial" font-size="7.00">Household</text>
</a>
</g>
</g>
<!-- Attribute&#45;&gt;Household -->
<g id="edge4" class="edge">
<title>Attribute&#45;&gt;Household</title>
<path fill="none" stroke="black" d="M331.09,-313.66C321.78,-305.84 311.24,-296.69 302,-288 294.11,-280.58 285.85,-272.27 278.3,-264.44"/>
<polygon fill="black" stroke="black" points="280.46,-261.63 271.02,-256.82 275.4,-266.47 280.46,-261.63"/>
<text text-anchor="middle" x="311" y="-282.4" font-family="Arial" font-size="7.00">about</text>
</g>
<!-- Person -->
<g id="node11" class="node">
<title>Person</title>
<g id="a_node11"><a xlink:href="#Person" xlink:title="Person">
<ellipse fill="lightblue" stroke="black" cx="331" cy="-131" rx="36" ry="29"/>
<text text-anchor="middle" x="331" y="-129.4" font-family="Arial" font-size="7.00">Person</text>
</a>
</g>
</g>
<!-- Attribute&#45;&gt;Person -->
<g id="edge3" class="edge">
<title>Attribute&#45;&gt;Person</title>
<path fill="none" stroke="black" d="M350.37,-306.05C347.84,-292.75 344.99,-276.6 343,-262 338.81,-231.21 335.66,-196.11 333.65,-170.15"/>
<polygon fill="black" stroke="black" points="337.12,-169.68 332.88,-159.97 330.14,-170.21 337.12,-169.68"/>
<text text-anchor="middle" x="352" y="-231.4" font-family="Arial" font-size="7.00">about</text>
</g>
<!-- Provenance -->
<g id="node13" class="node">
<title>Provenance</title>
<g id="a_node13"><a xlink:href="#Provenance" xlink:title="Provenance">
<ellipse fill="lightblue" stroke="black" cx="406" cy="-233" rx="36" ry="29"/>
<text text-anchor="middle" x="406" y="-231.4" font-family="Arial" font-size="7.00">Provenance</text>
</a>
</g>
</g>
<!-- Attribute&#45;&gt;Provenance -->
<g id="edge5" class="edge">
<title>Attribute&#45;&gt;Provenance</title>
<path fill="none" stroke="black" d="M369.14,-307.73C375.05,-295.9 382.12,-281.77 388.47,-269.05"/>
<polygon fill="black" stroke="black" points="391.61,-270.61 392.95,-260.1 385.35,-267.48 391.61,-270.61"/>
<text text-anchor="middle" x="388" y="-282.4" font-family="Arial" font-size="7.00">has</text>
</g>
<!-- Case -->
<g id="node4" class="node">
<title>Case</title>
<g id="a_node4"><a xlink:href="#Case" xlink:title="Case">
<ellipse fill="lightblue" stroke="black" cx="455" cy="-743" rx="36" ry="29"/>
<text text-anchor="middle" x="455" y="-741.4" font-family="Arial" font-size="7.00">Case</text>
</a>
</g>
</g>
<!-- Case&#45;&gt;Household -->
<g id="edge7" class="edge">
<title>Case&#45;&gt;Household</title>
<path fill="none" stroke="black" d="M425.23,-726.19C403.61,-713.45 374.93,-693.77 356,-670 259.88,-549.31 249.04,-354.38 249.06,-272.34"/>
<polygon fill="black" stroke="black" points="252.56,-272.23 249.12,-262.21 245.56,-272.19 252.56,-272.23"/>
<text text-anchor="middle" x="282" y="-486.4" font-family="Arial" font-size="7.00">about</text>
</g>
<!-- Case&#45;&gt;Person -->
<g id="edge6" class="edge">
<title>Case&#45;&gt;Person</title>
<path fill="none" stroke="black" d="M467.18,-715.69C486.99,-670.4 524,-574.36 524,-489 524,-489 524,-489 524,-232 524,-166.1 434.19,-143.57 377.1,-135.91"/>
<polygon fill="black" stroke="black" points="377.2,-132.4 366.85,-134.65 376.35,-139.35 377.2,-132.4"/>
<text text-anchor="middle" x="533" y="-435.4" font-family="Arial" font-size="7.00">about</text>
</g>
<!-- ResponsibleOrganisation -->
<g id="node15" class="node">
<title>ResponsibleOrganisation</title>
<g id="a_node15"><a xlink:href="#ResponsibleOrganisation" xlink:title="Responsible\nOrganisation">
<ellipse fill="lightblue" stroke="black" cx="558" cy="-641" rx="36" ry="29"/>
<text text-anchor="middle" x="558" y="-643.4" font-family="Arial" font-size="7.00">Responsible</text>
<text text-anchor="middle" x="558" y="-635.4" font-family="Arial" font-size="7.00">Organisation</text>
</a>
</g>
</g>
<!-- Case&#45;&gt;ResponsibleOrganisation -->
<g id="edge9" class="edge">
<title>Case&#45;&gt;ResponsibleOrganisation</title>
<path fill="none" stroke="black" d="M476.16,-719.32C485.46,-709.53 496.62,-698.05 507,-688 513.22,-681.98 520.01,-675.68 526.55,-669.73"/>
<polygon fill="black" stroke="black" points="528.98,-672.25 534.07,-662.96 524.3,-667.05 528.98,-672.25"/>
<text text-anchor="middle" x="525.5" y="-690.4" font-family="Arial" font-size="7.00">assigned to</text>
</g>
<!-- RiskAssessment -->
<g id="node16" class="node">
<title>RiskAssessment</title>
<g id="a_node16"><a xlink:href="#RiskAssessment" xlink:title="Risk\nAssessment">
<ellipse fill="lightblue" stroke="black" cx="401" cy="-641" rx="36" ry="29"/>
<text text-anchor="middle" x="401" y="-643.4" font-family="Arial" font-size="7.00">Risk</text>
<text text-anchor="middle" x="401" y="-635.4" font-family="Arial" font-size="7.00">Assessment</text>
</a>
</g>
</g>
<!-- Case&#45;&gt;RiskAssessment -->
<g id="edge8" class="edge">
<title>Case&#45;&gt;RiskAssessment</title>
<path fill="none" stroke="black" d="M441.09,-716.25C434.66,-704.33 426.91,-689.98 419.95,-677.09"/>
<polygon fill="black" stroke="black" points="422.88,-675.15 415.05,-668.01 416.72,-678.47 422.88,-675.15"/>
<text text-anchor="middle" x="435" y="-690.4" font-family="Arial" font-size="7.00">risk</text>
</g>
<!-- ContactEvent -->
<g id="node5" class="node">
<title>ContactEvent</title>
<g id="a_node5"><a xlink:href="#ContactEvent" xlink:title="Contact\nEvent">
<ellipse fill="lightblue" stroke="black" cx="503" cy="-845" rx="36" ry="29"/>
<text text-anchor="middle" x="503" y="-847.4" font-family="Arial" font-size="7.00">Contact</text>
<text text-anchor="middle" x="503" y="-839.4" font-family="Arial" font-size="7.00">Event</text>
</a>
</g>
</g>
<!-- ContactEvent&#45;&gt;Case -->
<g id="edge10" class="edge">
<title>ContactEvent&#45;&gt;Case</title>
<path fill="none" stroke="black" d="M490.39,-817.73C484.81,-806.11 478.16,-792.26 472.15,-779.72"/>
<polygon fill="black" stroke="black" points="475.18,-777.95 467.69,-770.45 468.87,-780.98 475.18,-777.95"/>
<text text-anchor="middle" x="489" y="-792.4" font-family="Arial" font-size="7.00">about</text>
</g>
<!-- ContactEvent&#45;&gt;ResponsibleOrganisation -->
<g id="edge11" class="edge">
<title>ContactEvent&#45;&gt;ResponsibleOrganisation</title>
<path fill="none" stroke="black" d="M510.77,-816.49C519.12,-786.8 532.71,-738.11 544,-696 545.44,-690.62 546.94,-684.93 548.4,-679.35"/>
<polygon fill="black" stroke="black" points="551.84,-680.05 550.97,-669.49 545.06,-678.29 551.84,-680.05"/>
<text text-anchor="middle" x="560.5" y="-741.4" font-family="Arial" font-size="7.00">passes info to</text>
</g>
<!-- Household&#45;&gt;Person -->
<g id="edge13" class="edge">
<title>Household&#45;&gt;Person</title>
<path fill="none" stroke="black" d="M268.96,-208C276.42,-198.61 285.07,-187.77 293,-178 296.76,-173.36 300.76,-168.48 304.69,-163.7"/>
<polygon fill="black" stroke="black" points="307.53,-165.75 311.2,-155.81 302.13,-161.3 307.53,-165.75"/>
<text text-anchor="middle" x="306.5" y="-180.4" font-family="Arial" font-size="7.00">contains</text>
</g>
<!-- Residence -->
<g id="node14" class="node">
<title>Residence</title>
<g id="a_node14"><a xlink:href="#Residence" xlink:title="Residence">
<ellipse fill="lightblue" stroke="black" cx="238" cy="-131" rx="36" ry="29"/>
<text text-anchor="middle" x="238" y="-129.4" font-family="Arial" font-size="7.00">Residence</text>
</a>
</g>
</g>
<!-- Household&#45;&gt;Residence -->
<g id="edge12" class="edge">
<title>Household&#45;&gt;Residence</title>
<path fill="none" stroke="black" d="M242.39,-204.45C241.01,-198.41 239.77,-192.03 239,-186 238.35,-180.9 237.93,-175.5 237.68,-170.18"/>
<polygon fill="black" stroke="black" points="241.18,-170 237.37,-160.11 234.18,-170.21 241.18,-170"/>
<text text-anchor="middle" x="254.5" y="-180.4" font-family="Arial" font-size="7.00">resides at</text>
</g>
<!-- LeadOrganisation -->
<g id="node8" class="node">
<title>LeadOrganisation</title>
<g id="a_node8"><a xlink:href="#LeadOrganisation" xlink:title="Lead\nOrganisation">
<ellipse fill="lightblue" stroke="black" cx="442" cy="-437" rx="36" ry="29"/>
<text text-anchor="middle" x="442" y="-439.4" font-family="Arial" font-size="7.00">Lead</text>
<text text-anchor="middle" x="442" y="-431.4" font-family="Arial" font-size="7.00">Organisation</text>
</a>
</g>
</g>
<!-- LeadOrganisation&#45;&gt;Attribute -->
<g id="edge14" class="edge">
<title>LeadOrganisation&#45;&gt;Attribute</title>
<path fill="none" stroke="black" d="M422.05,-412.81C410.41,-399.27 395.58,-382.02 382.91,-367.29"/>
<polygon fill="black" stroke="black" points="385.31,-364.71 376.14,-359.41 380,-369.28 385.31,-364.71"/>
<text text-anchor="middle" x="414.5" y="-384.4" font-family="Arial" font-size="7.00">receives</text>
</g>
<!-- Need&#45;&gt;Case -->
<g id="edge17" class="edge">
<title>Need&#45;&gt;Case</title>
<path fill="none" stroke="black" d="M198.87,-832.63C251.45,-814.43 354.47,-778.79 412.55,-758.69"/>
<polygon fill="black" stroke="black" points="413.85,-761.94 422.16,-755.36 411.57,-755.33 413.85,-761.94"/>
<text text-anchor="middle" x="327" y="-792.4" font-family="Arial" font-size="7.00">case</text>
</g>
<!-- Need&#45;&gt;DeliveryOrganisation -->
<g id="edge18" class="edge">
<title>Need&#45;&gt;DeliveryOrganisation</title>
<path fill="none" stroke="black" d="M142.42,-823.01C134.56,-815.49 126.03,-806.71 119,-798 114.17,-792.01 109.46,-785.3 105.16,-778.7"/>
<polygon fill="black" stroke="black" points="107.86,-776.43 99.57,-769.84 101.94,-780.17 107.86,-776.43"/>
<text text-anchor="middle" x="135.5" y="-792.4" font-family="Arial" font-size="7.00">referred to</text>
</g>
<!-- Need&#45;&gt;Household -->
<g id="edge16" class="edge">
<title>Need&#45;&gt;Household</title>
<path fill="none" stroke="black" d="M184.18,-819.93C197.04,-800.5 212,-771.9 212,-744 212,-744 212,-744 212,-334 212,-311.12 220.8,-287.11 229.93,-268.34"/>
<polygon fill="black" stroke="black" points="233.11,-269.81 234.54,-259.32 226.88,-266.63 233.11,-269.81"/>
<text text-anchor="middle" x="221" y="-537.4" font-family="Arial" font-size="7.00">about</text>
</g>
<!-- Need&#45;&gt;Person -->
<g id="edge15" class="edge">
<title>Need&#45;&gt;Person</title>
<path fill="none" stroke="black" d="M166,-815.98C166,-795.93 166,-768.31 166,-744 166,-744 166,-744 166,-232 166,-170.94 227.76,-186.01 283,-160 286.63,-158.29 290.34,-156.4 294.02,-154.43"/>
<polygon fill="black" stroke="black" points="295.98,-157.35 303.02,-149.43 292.58,-151.23 295.98,-157.35"/>
<text text-anchor="middle" x="175" y="-486.4" font-family="Arial" font-size="7.00">about</text>
</g>
<!-- Outcome -->
<g id="node10" class="node">
<title>Outcome</title>
<g id="a_node10"><a xlink:href="#Outcome" xlink:title="Outcome">
<ellipse fill="lightblue" stroke="black" cx="365" cy="-947" rx="36" ry="29"/>
<text text-anchor="middle" x="365" y="-945.4" font-family="Arial" font-size="7.00">Outcome</text>
</a>
</g>
</g>
<!-- Outcome&#45;&gt;Case -->
<g id="edge19" class="edge">
<title>Outcome&#45;&gt;Case</title>
<path fill="none" stroke="black" d="M376.77,-919.59C392.73,-883.75 421.32,-819.6 439.16,-779.55"/>
<polygon fill="black" stroke="black" points="442.36,-780.97 443.23,-770.41 435.96,-778.12 442.36,-780.97"/>
<text text-anchor="middle" x="424.5" y="-843.4" font-family="Arial" font-size="7.00">of</text>
</g>
<!-- Outcome&#45;&gt;Need -->
<g id="edge20" class="edge">
<title>Outcome&#45;&gt;Need</title>
<path fill="none" stroke="black" d="M334.78,-930.81C300.2,-913.43 243.45,-884.92 205.42,-865.81"/>
<polygon fill="black" stroke="black" points="206.69,-862.53 196.18,-861.17 203.55,-868.78 206.69,-862.53"/>
<text text-anchor="middle" x="274.5" y="-894.4" font-family="Arial" font-size="7.00">of</text>
</g>
<!-- Plan -->
<g id="node12" class="node">
<title>Plan</title>
<g id="a_node12"><a xlink:href="#Plan" xlink:title="Plan">
<ellipse fill="lightblue" stroke="black" cx="36" cy="-947" rx="36" ry="29"/>
<text text-anchor="middle" x="36" y="-945.4" font-family="Arial" font-size="7.00">Plan</text>
</a>
</g>
</g>
<!-- Plan&#45;&gt;DeliveryOrganisation -->
<g id="edge22" class="edge">
<title>Plan&#45;&gt;DeliveryOrganisation</title>
<path fill="none" stroke="black" d="M38.43,-917.97C41.18,-891.37 46.54,-850.46 56,-816 59.28,-804.04 63.95,-791.37 68.59,-780.05"/>
<polygon fill="black" stroke="black" points="71.95,-781.08 72.62,-770.5 65.51,-778.36 71.95,-781.08"/>
<text text-anchor="middle" x="59.5" y="-843.4" font-family="Arial" font-size="7.00">of</text>
</g>
<!-- Plan&#45;&gt;Need -->
<g id="edge21" class="edge">
<title>Plan&#45;&gt;Need</title>
<path fill="none" stroke="black" d="M61.68,-926.24C81.89,-910.7 110.22,-888.9 132.26,-871.95"/>
<polygon fill="black" stroke="black" points="134.58,-874.59 140.37,-865.72 130.31,-869.04 134.58,-874.59"/>
<text text-anchor="middle" x="113" y="-894.4" font-family="Arial" font-size="7.00">about</text>
</g>
<!-- Residence&#45;&gt;Area -->
<g id="edge23" class="edge">
<title>Residence&#45;&gt;Area</title>
<path fill="none" stroke="black" d="M238,-101.88C238,-91.55 238,-79.66 238,-68.57"/>
<polygon fill="black" stroke="black" points="241.5,-68.26 238,-58.26 234.5,-68.26 241.5,-68.26"/>
<text text-anchor="middle" x="241" y="-78.4" font-family="Arial" font-size="7.00">in</text>
</g>
<!-- RiskAssessment&#45;&gt;Attribute -->
<g id="edge26" class="edge">
<title>RiskAssessment&#45;&gt;Attribute</title>
<path fill="none" stroke="black" d="M396.66,-611.79C395.77,-605.91 394.84,-599.75 394,-594 380.18,-499.85 378.82,-476 364,-382 363.6,-379.48 363.18,-376.88 362.75,-374.26"/>
<polygon fill="black" stroke="black" points="366.17,-373.47 361.05,-364.2 359.26,-374.64 366.17,-373.47"/>
<text text-anchor="middle" x="387" y="-486.4" font-family="Arial" font-size="7.00">uses</text>
</g>
<!-- RiskAssessment&#45;&gt;LeadOrganisation -->
<g id="edge24" class="edge">
<title>RiskAssessment&#45;&gt;LeadOrganisation</title>
<path fill="none" stroke="black" d="M399.06,-611.88C397.98,-585.22 398.28,-544.27 407,-510 410.27,-497.14 415.97,-483.86 421.84,-472.26"/>
<polygon fill="black" stroke="black" points="424.96,-473.83 426.53,-463.35 418.77,-470.57 424.96,-473.83"/>
<text text-anchor="middle" x="411" y="-537.4" font-family="Arial" font-size="7.00">by</text>
</g>
<!-- StratificationPolicy -->
<g id="node19" class="node">
<title>StratificationPolicy</title>
<g id="a_node19"><a xlink:href="#StratificationPolicy" xlink:title="Stratification\nPolicy">
<ellipse fill="lightblue" stroke="black" cx="460" cy="-539" rx="36" ry="29"/>
<text text-anchor="middle" x="460" y="-541.4" font-family="Arial" font-size="7.00">Stratification</text>
<text text-anchor="middle" x="460" y="-533.4" font-family="Arial" font-size="7.00">Policy</text>
</a>
</g>
</g>
<!-- RiskAssessment&#45;&gt;StratificationPolicy -->
<g id="edge25" class="edge">
<title>RiskAssessment&#45;&gt;StratificationPolicy</title>
<path fill="none" stroke="black" d="M416.04,-614.51C423.25,-602.28 432,-587.46 439.78,-574.27"/>
<polygon fill="black" stroke="black" points="442.92,-575.84 444.99,-565.45 436.89,-572.28 442.92,-575.84"/>
<text text-anchor="middle" x="443" y="-588.4" font-family="Arial" font-size="7.00">applies</text>
</g>
<!-- SituationAssessment -->
<g id="node17" class="node">
<title>SituationAssessment</title>
<g id="a_node17"><a xlink:href="#SituationAssessment" xlink:title="Situation\nAssessment">
<ellipse fill="lightblue" stroke="black" cx="622" cy="-845" rx="36" ry="29"/>
<text text-anchor="middle" x="622" y="-847.4" font-family="Arial" font-size="7.00">Situation</text>
<text text-anchor="middle" x="622" y="-839.4" font-family="Arial" font-size="7.00">Assessment</text>
</a>
</g>
</g>
<!-- SituationAssessment&#45;&gt;Case -->
<g id="edge28" class="edge">
<title>SituationAssessment&#45;&gt;Case</title>
<path fill="none" stroke="black" d="M593.67,-827.04C565.72,-810.3 522.84,-784.62 492.17,-766.26"/>
<polygon fill="black" stroke="black" points="493.85,-763.18 483.47,-761.05 490.25,-769.19 493.85,-763.18"/>
<text text-anchor="middle" x="546.5" y="-792.4" font-family="Arial" font-size="7.00">of</text>
</g>
<!-- SituationAssessment&#45;&gt;ResponsibleOrganisation -->
<g id="edge27" class="edge">
<title>SituationAssessment&#45;&gt;ResponsibleOrganisation</title>
<path fill="none" stroke="black" d="M615.57,-816.32C609.17,-789.81 598.65,-748.8 587,-714 583.06,-702.24 578.21,-689.63 573.61,-678.3"/>
<polygon fill="black" stroke="black" points="576.71,-676.63 569.65,-668.72 570.23,-679.3 576.71,-676.63"/>
<text text-anchor="middle" x="607" y="-741.4" font-family="Arial" font-size="7.00">by</text>
</g>
<!-- SourceOrganisation -->
<g id="node18" class="node">
<title>SourceOrganisation</title>
<g id="a_node18"><a xlink:href="#SourceOrganisation" xlink:title="Source\nOrganisation">
<ellipse fill="lightblue" stroke="black" cx="314" cy="-437" rx="36" ry="29"/>
<text text-anchor="middle" x="314" y="-439.4" font-family="Arial" font-size="7.00">Source</text>
<text text-anchor="middle" x="314" y="-431.4" font-family="Arial" font-size="7.00">Organisation</text>
</a>
</g>
</g>
<!-- SourceOrganisation&#45;&gt;Attribute -->
<g id="edge29" class="edge">
<title>SourceOrganisation&#45;&gt;Attribute</title>
<path fill="none" stroke="black" d="M325.26,-409.2C330.01,-397.88 335.62,-384.52 340.74,-372.33"/>
<polygon fill="black" stroke="black" points="344.07,-373.45 344.71,-362.87 337.61,-370.74 344.07,-373.45"/>
<text text-anchor="middle" x="349.5" y="-384.4" font-family="Arial" font-size="7.00">provides</text>
</g>
<!-- StratificationPolicy&#45;&gt;LeadOrganisation -->
<g id="edge30" class="edge">
<title>StratificationPolicy&#45;&gt;LeadOrganisation</title>
<path fill="none" stroke="black" d="M454.99,-510.14C453.09,-499.61 450.9,-487.44 448.86,-476.13"/>
<polygon fill="black" stroke="black" points="452.27,-475.27 447.05,-466.05 445.38,-476.51 452.27,-475.27"/>
<text text-anchor="middle" x="470" y="-486.4" font-family="Arial" font-size="7.00">designed by</text>
</g>
</g>
</svg>
