<?xml version="1.0" encoding="UTF-8" standalone="no"?>
<!DOCTYPE svg PUBLIC "-//W3C//DTD SVG 1.1//EN"
 "http://www.w3.org/Graphics/SVG/1.1/DTD/svg11.dtd">
<!-- Generated by graphviz version 2.44.1 (20200629.0846)
 -->
<!-- Pages: 1 -->
<svg width="597pt" height="984pt"
 viewBox="0.00 0.00 597.00 984.00" xmlns="http://www.w3.org/2000/svg" xmlns:xlink="http://www.w3.org/1999/xlink">
<g id="graph0" class="graph" transform="scale(1 1) rotate(0) translate(4 980)">
<polygon fill="white" stroke="transparent" points="-4,4 -4,-980 593,-980 593,4 -4,4"/>
<!-- Action -->
<g id="node1" class="node">
<title>Action</title>
<g id="a_node1"><a xlink:href="#Action" xlink:title="Action">
<ellipse fill="lightblue" stroke="black" cx="133" cy="-947" rx="36" ry="29"/>
<text text-anchor="middle" x="133" y="-945.4" font-family="Arial" font-size="7.00">Action</text>
</a>
</g>
</g>
<!-- DeliveryOrganisation -->
<g id="node6" class="node">
<title>DeliveryOrganisation</title>
<g id="a_node6"><a xlink:href="#DeliveryOrganisation" xlink:title="Delivery\nOrganisation">
<ellipse fill="lightblue" stroke="black" cx="66" cy="-743" rx="36" ry="29"/>
<text text-anchor="middle" x="66" y="-745.4" font-family="Arial" font-size="7.00">Delivery</text>
<text text-anchor="middle" x="66" y="-737.4" font-family="Arial" font-size="7.00">Organisation</text>
</a>
</g>
</g>
<!-- Action&#45;&gt;DeliveryOrganisation -->
<g id="edge1" class="edge">
<title>Action&#45;&gt;DeliveryOrganisation</title>
<path fill="none" stroke="black" d="M106.43,-927.19C97.87,-919.72 89.24,-910.42 84,-900 65.43,-863.08 62.54,-815.18 63.28,-782.25"/>
<polygon fill="black" stroke="black" points="66.78,-782.24 63.62,-772.12 59.78,-782 66.78,-782.24"/>
<text text-anchor="middle" x="77.5" y="-843.4" font-family="Arial" font-size="7.00">by</text>
</g>
<!-- Need -->
<g id="node9" class="node">
<title>Need</title>
<g id="a_node9"><a xlink:href="#Need" xlink:title="Need">
<ellipse fill="lightblue" stroke="black" cx="147" cy="-845" rx="36" ry="29"/>
<text text-anchor="middle" x="147" y="-843.4" font-family="Arial" font-size="7.00">Need</text>
</a>
</g>
</g>
<!-- Action&#45;&gt;Need -->
<g id="edge2" class="edge">
<title>Action&#45;&gt;Need</title>
<path fill="none" stroke="black" d="M136.9,-918.14C138.37,-907.61 140.08,-895.44 141.66,-884.13"/>
<polygon fill="black" stroke="black" points="145.15,-884.44 143.07,-874.05 138.22,-883.47 145.15,-884.44"/>
<text text-anchor="middle" x="156.5" y="-894.4" font-family="Arial" font-size="7.00">addresses</text>
</g>
<!-- Area -->
<g id="node2" class="node">
<title>Area</title>
<g id="a_node2"><a xlink:href="#Area" xlink:title="Area">
<ellipse fill="lightblue" stroke="black" cx="102" cy="-29" rx="36" ry="29"/>
<text text-anchor="middle" x="102" y="-27.4" font-family="Arial" font-size="7.00">Area</text>
</a>
</g>
</g>
<!-- Attribute -->
<g id="node3" class="node">
<title>Attribute</title>
<g id="a_node3"><a xlink:href="#Attribute" xlink:title="Attribute">
<ellipse fill="lightblue" stroke="black" cx="342" cy="-335" rx="36" ry="29"/>
<text text-anchor="middle" x="342" y="-333.4" font-family="Arial" font-size="7.00">Attribute</text>
</a>
</g>
</g>
<!-- Household -->
<g id="node7" class="node">
<title>Household</title>
<g id="a_node7"><a xlink:href="#Household" xlink:title="Household">
<ellipse fill="lightblue" stroke="black" cx="270" cy="-233" rx="36" ry="29"/>
<text text-anchor="middle" x="270" y="-231.4" font-family="Arial" font-size="7.00">Household</text>
</a>
</g>
</g>
<!-- Attribute&#45;&gt;Household -->
<g id="edge4" class="edge">
<title>Attribute&#45;&gt;Household</title>
<path fill="none" stroke="black" d="M324.39,-309.54C315.15,-296.7 303.7,-280.8 293.69,-266.91"/>
<polygon fill="black" stroke="black" points="296.36,-264.63 287.68,-258.56 290.68,-268.72 296.36,-264.63"/>
<text text-anchor="middle" x="317" y="-282.4" font-family="Arial" font-size="7.00">about</text>
</g>
<!-- Person -->
<g id="node11" class="node">
<title>Person</title>
<g id="a_node11"><a xlink:href="#Person" xlink:title="Person">
<ellipse fill="lightblue" stroke="black" cx="321" cy="-131" rx="36" ry="29"/>
<text text-anchor="middle" x="321" y="-129.4" font-family="Arial" font-size="7.00">Person</text>
</a>
</g>
</g>
<!-- Attribute&#45;&gt;Person -->
<g id="edge3" class="edge">
<title>Attribute&#45;&gt;Person</title>
<path fill="none" stroke="black" d="M339.99,-305.76C337.64,-274.47 333.38,-222.54 328,-178 327.69,-175.47 327.36,-172.87 327,-170.25"/>
<polygon fill="black" stroke="black" points="330.44,-169.59 325.57,-160.18 323.51,-170.58 330.44,-169.59"/>
<text text-anchor="middle" x="345" y="-231.4" font-family="Arial" font-size="7.00">about</text>
</g>
<!-- Provenance -->
<g id="node13" class="node">
<title>Provenance</title>
<g id="a_node13"><a xlink:href="#Provenance" xlink:title="Provenance">
<ellipse fill="lightblue" stroke="black" cx="551" cy="-233" rx="36" ry="29"/>
<text text-anchor="middle" x="551" y="-231.4" font-family="Arial" font-size="7.00">Provenance</text>
</a>
</g>
</g>
<!-- Attribute&#45;&gt;Provenance -->
<g id="edge5" class="edge">
<title>Attribute&#45;&gt;Provenance</title>
<path fill="none" stroke="black" d="M372.84,-319.24C409.53,-301.69 470.86,-272.35 511.12,-253.08"/>
<polygon fill="black" stroke="black" points="512.87,-256.13 520.38,-248.65 509.84,-249.81 512.87,-256.13"/>
<text text-anchor="middle" x="458" y="-282.4" font-family="Arial" font-size="7.00">has</text>
</g>
<!-- Case -->
<g id="node4" class="node">
<title>Case</title>
<g id="a_node4"><a xlink:href="#Case" xlink:title="Case">
<ellipse fill="lightblue" stroke="black" cx="315" cy="-743" rx="36" ry="29"/>
<text text-anchor="middle" x="315" y="-741.4" font-family="Arial" font-size="7.00">Case</text>
</a>
</g>
</g>
<!-- Case&#45;&gt;Household -->
<g id="edge7" class="edge">
<title>Case&#45;&gt;Household</title>
<path fill="none" stroke="black" d="M312.52,-713.96C304.93,-628.27 282.02,-369.72 273.36,-271.98"/>
<polygon fill="black" stroke="black" points="276.84,-271.6 272.48,-261.95 269.87,-272.22 276.84,-271.6"/>
<text text-anchor="middle" x="301" y="-486.4" font-family="Arial" font-size="7.00">about</text>
</g>
<!-- Case&#45;&gt;Person -->
<g id="edge6" class="edge">
<title>Case&#45;&gt;Person</title>
<path fill="none" stroke="black" d="M350.64,-737.38C401.02,-728.62 487,-704.52 487,-642 487,-642 487,-642 487,-232 487,-175.34 415.17,-149.95 366.01,-139.21"/>
<polygon fill="black" stroke="black" points="366.7,-135.78 356.2,-137.19 365.29,-142.64 366.7,-135.78"/>
<text text-anchor="middle" x="496" y="-435.4" font-family="Arial" font-size="7.00">about</text>
</g>
<!-- ResponsibleOrganisation -->
<g id="node15" class="node">
<title>ResponsibleOrganisation</title>
<g id="a_node15"><a xlink:href="#ResponsibleOrganisation" xlink:title="Responsible\nOrganisation">
<ellipse fill="lightblue" stroke="black" cx="250" cy="-641" rx="36" ry="29"/>
<text text-anchor="middle" x="250" y="-643.4" font-family="Arial" font-size="7.00">Responsible</text>
<text text-anchor="middle" x="250" y="-635.4" font-family="Arial" font-size="7.00">Organisation</text>
</a>
</g>
</g>
<!-- Case&#45;&gt;ResponsibleOrganisation -->
<g id="edge9" class="edge">
<title>Case&#45;&gt;ResponsibleOrganisation</title>
<path fill="none" stroke="black" d="M289.54,-722.04C281.4,-714.6 272.97,-705.61 267,-696 263.84,-690.92 261.23,-685.2 259.07,-679.44"/>
<polygon fill="black" stroke="black" points="262.34,-678.18 255.87,-669.8 255.7,-680.39 262.34,-678.18"/>
<text text-anchor="middle" x="285.5" y="-690.4" font-family="Arial" font-size="7.00">assigned to</text>
</g>
<!-- RiskAssessment -->
<g id="node16" class="node">
<title>RiskAssessment</title>
<g id="a_node16"><a xlink:href="#RiskAssessment" xlink:title="Risk\nAssessment">
<ellipse fill="lightblue" stroke="black" cx="378" cy="-641" rx="36" ry="29"/>
<text text-anchor="middle" x="378" y="-643.4" font-family="Arial" font-size="7.00">Risk</text>
<text text-anchor="middle" x="378" y="-635.4" font-family="Arial" font-size="7.00">Assessment</text>
</a>
</g>
</g>
<!-- Case&#45;&gt;RiskAssessment -->
<g id="edge8" class="edge">
<title>Case&#45;&gt;RiskAssessment</title>
<path fill="none" stroke="black" d="M330.9,-716.77C338.73,-704.33 348.29,-689.16 356.74,-675.74"/>
<polygon fill="black" stroke="black" points="359.74,-677.55 362.11,-667.23 353.82,-673.82 359.74,-677.55"/>
<text text-anchor="middle" x="354" y="-690.4" font-family="Arial" font-size="7.00">risk</text>
</g>
<!-- ContactEvent -->
<g id="node5" class="node">
<title>ContactEvent</title>
<g id="a_node5"><a xlink:href="#ContactEvent" xlink:title="Contact\nEvent">
<ellipse fill="lightblue" stroke="black" cx="370" cy="-845" rx="36" ry="29"/>
<text text-anchor="middle" x="370" y="-847.4" font-family="Arial" font-size="7.00">Contact</text>
<text text-anchor="middle" x="370" y="-839.4" font-family="Arial" font-size="7.00">Event</text>
</a>
</g>
</g>
<!-- ContactEvent&#45;&gt;Case -->
<g id="edge10" class="edge">
<title>ContactEvent&#45;&gt;Case</title>
<path fill="none" stroke="black" d="M355.84,-818.25C349.28,-806.33 341.39,-791.98 334.3,-779.09"/>
<polygon fill="black" stroke="black" points="337.19,-777.09 329.31,-770.01 331.06,-780.46 337.19,-777.09"/>
<text text-anchor="middle" x="352" y="-792.4" font-family="Arial" font-size="7.00">case</text>
</g>
<!-- Household&#45;&gt;Person -->
<g id="edge12" class="edge">
<title>Household&#45;&gt;Person</title>
<path fill="none" stroke="black" d="M283.27,-205.99C289.3,-194.16 296.53,-179.98 303.04,-167.22"/>
<polygon fill="black" stroke="black" points="306.2,-168.73 307.62,-158.23 299.96,-165.55 306.2,-168.73"/>
<text text-anchor="middle" x="310.5" y="-180.4" font-family="Arial" font-size="7.00">contains</text>
</g>
<!-- Residence -->
<g id="node14" class="node">
<title>Residence</title>
<g id="a_node14"><a xlink:href="#Residence" xlink:title="Residence">
<ellipse fill="lightblue" stroke="black" cx="102" cy="-131" rx="36" ry="29"/>
<text text-anchor="middle" x="102" y="-129.4" font-family="Arial" font-size="7.00">Residence</text>
</a>
</g>
</g>
<!-- Household&#45;&gt;Residence -->
<g id="edge11" class="edge">
<title>Household&#45;&gt;Residence</title>
<path fill="none" stroke="black" d="M241.5,-215.04C213.3,-198.25 169.99,-172.47 139.11,-154.09"/>
<polygon fill="black" stroke="black" points="140.74,-150.99 130.36,-148.88 137.16,-157 140.74,-150.99"/>
<text text-anchor="middle" x="206.5" y="-180.4" font-family="Arial" font-size="7.00">resides at</text>
</g>
<!-- LeadOrganisation -->
<g id="node8" class="node">
<title>LeadOrganisation</title>
<g id="a_node8"><a xlink:href="#LeadOrganisation" xlink:title="Lead\nOrganisation">
<ellipse fill="lightblue" stroke="black" cx="378" cy="-437" rx="36" ry="29"/>
<text text-anchor="middle" x="378" y="-439.4" font-family="Arial" font-size="7.00">Lead</text>
<text text-anchor="middle" x="378" y="-431.4" font-family="Arial" font-size="7.00">Organisation</text>
</a>
</g>
</g>
<!-- LeadOrganisation&#45;&gt;Attribute -->
<g id="edge13" class="edge">
<title>LeadOrganisation&#45;&gt;Attribute</title>
<path fill="none" stroke="black" d="M368.26,-408.94C364.26,-397.82 359.56,-384.77 355.25,-372.81"/>
<polygon fill="black" stroke="black" points="358.43,-371.31 351.75,-363.08 351.84,-373.68 358.43,-371.31"/>
<text text-anchor="middle" x="375" y="-384.4" font-family="Arial" font-size="7.00">receives</text>
</g>
<!-- Need&#45;&gt;Case -->
<g id="edge16" class="edge">
<title>Need&#45;&gt;Case</title>
<path fill="none" stroke="black" d="M175.01,-826.41C180.62,-822.93 186.49,-819.33 192,-816 220.36,-798.88 252.7,-779.97 277.1,-765.83"/>
<polygon fill="black" stroke="black" points="279.14,-768.7 286.04,-760.66 275.63,-762.64 279.14,-768.7"/>
<text text-anchor="middle" x="240" y="-792.4" font-family="Arial" font-size="7.00">case</text>
</g>
<!-- Need&#45;&gt;DeliveryOrganisation -->
<g id="edge17" class="edge">
<title>Need&#45;&gt;DeliveryOrganisation</title>
<path fill="none" stroke="black" d="M123.42,-823.01C115.56,-815.49 107.03,-806.71 100,-798 95.17,-792.01 90.46,-785.3 86.16,-778.7"/>
<polygon fill="black" stroke="black" points="88.86,-776.43 80.57,-769.84 82.94,-780.17 88.86,-776.43"/>
<text text-anchor="middle" x="117" y="-792.4" font-family="Arial" font-size="7.00">referred to</text>
</g>
<!-- Need&#45;&gt;Household -->
<g id="edge15" class="edge">
<title>Need&#45;&gt;Household</title>
<path fill="none" stroke="black" d="M154.87,-816.41C156.4,-810.38 157.88,-804 159,-798 161.14,-786.57 160.68,-783.56 162,-772 176.37,-646.24 194,-615.58 194,-489 194,-489 194,-489 194,-334 194,-304.22 215.62,-277.76 235.8,-259.55"/>
<polygon fill="black" stroke="black" points="238.13,-262.16 243.42,-252.98 233.56,-256.86 238.13,-262.16"/>
<text text-anchor="middle" x="202" y="-537.4" font-family="Arial" font-size="7.00">about</text>
</g>
<!-- Need&#45;&gt;Person -->
<g id="edge14" class="edge">
<title>Need&#45;&gt;Person</title>
<path fill="none" stroke="black" d="M147.43,-815.98C147.7,-795.94 148,-768.31 148,-744 148,-744 148,-744 148,-232 148,-172.97 224.43,-148.23 275.69,-138.28"/>
<polygon fill="black" stroke="black" points="276.36,-141.71 285.57,-136.48 275.11,-134.83 276.36,-141.71"/>
<text text-anchor="middle" x="157" y="-486.4" font-family="Arial" font-size="7.00">about</text>
</g>
<!-- Outcome -->
<g id="node10" class="node">
<title>Outcome</title>
<g id="a_node10"><a xlink:href="#Outcome" xlink:title="Outcome">
<ellipse fill="lightblue" stroke="black" cx="277" cy="-947" rx="36" ry="29"/>
<text text-anchor="middle" x="277" y="-945.4" font-family="Arial" font-size="7.00">Outcome</text>
</a>
</g>
</g>
<!-- Outcome&#45;&gt;Case -->
<g id="edge18" class="edge">
<title>Outcome&#45;&gt;Case</title>
<path fill="none" stroke="black" d="M282.28,-917.91C288.95,-882.49 300.43,-821.43 307.87,-781.9"/>
<polygon fill="black" stroke="black" points="311.35,-782.32 309.76,-771.85 304.47,-781.03 311.35,-782.32"/>
<text text-anchor="middle" x="304.5" y="-843.4" font-family="Arial" font-size="7.00">of</text>
</g>
<!-- Outcome&#45;&gt;Need -->
<g id="edge19" class="edge">
<title>Outcome&#45;&gt;Need</title>
<path fill="none" stroke="black" d="M251.32,-926.24C231.11,-910.7 202.78,-888.9 180.74,-871.95"/>
<polygon fill="black" stroke="black" points="182.69,-869.04 172.63,-865.72 178.42,-874.59 182.69,-869.04"/>
<text text-anchor="middle" x="218.5" y="-894.4" font-family="Arial" font-size="7.00">of</text>
</g>
<!-- Plan -->
<g id="node12" class="node">
<title>Plan</title>
<g id="a_node12"><a xlink:href="#Plan" xlink:title="Plan">
<ellipse fill="lightblue" stroke="black" cx="36" cy="-947" rx="36" ry="29"/>
<text text-anchor="middle" x="36" y="-945.4" font-family="Arial" font-size="7.00">Plan</text>
</a>
</g>
</g>
<!-- Plan&#45;&gt;DeliveryOrganisation -->
<g id="edge21" class="edge">
<title>Plan&#45;&gt;DeliveryOrganisation</title>
<path fill="none" stroke="black" d="M33.23,-918.05C31.3,-891.52 30.15,-850.65 37,-816 39.43,-803.71 43.92,-790.85 48.65,-779.46"/>
<polygon fill="black" stroke="black" points="51.87,-780.84 52.65,-770.27 45.45,-778.05 51.87,-780.84"/>
<text text-anchor="middle" x="40.5" y="-843.4" font-family="Arial" font-size="7.00">of</text>
</g>
<!-- Plan&#45;&gt;Need -->
<g id="edge20" class="edge">
<title>Plan&#45;&gt;Need</title>
<path fill="none" stroke="black" d="M59.54,-924.79C75.88,-910.08 97.81,-890.31 115.63,-874.26"/>
<polygon fill="black" stroke="black" points="118.41,-876.47 123.49,-867.18 113.72,-871.27 118.41,-876.47"/>
<text text-anchor="middle" x="103" y="-894.4" font-family="Arial" font-size="7.00">about</text>
</g>
<!-- SourceOrganisation -->
<g id="node18" class="node">
<title>SourceOrganisation</title>
<g id="a_node18"><a xlink:href="#SourceOrganisation" xlink:title="Source\nOrganisation">
<ellipse fill="lightblue" stroke="black" cx="551" cy="-131" rx="36" ry="29"/>
<text text-anchor="middle" x="551" y="-133.4" font-family="Arial" font-size="7.00">Source</text>
<text text-anchor="middle" x="551" y="-125.4" font-family="Arial" font-size="7.00">Organisation</text>
</a>
</g>
</g>
<!-- Provenance&#45;&gt;SourceOrganisation -->
<g id="edge22" class="edge">
<title>Provenance&#45;&gt;SourceOrganisation</title>
<path fill="none" stroke="black" d="M551,-203.88C551,-193.55 551,-181.66 551,-170.57"/>
<polygon fill="black" stroke="black" points="554.5,-170.26 551,-160.26 547.5,-170.26 554.5,-170.26"/>
<text text-anchor="middle" x="570" y="-180.4" font-family="Arial" font-size="7.00">asserted by</text>
</g>
<!-- Residence&#45;&gt;Area -->
<g id="edge23" class="edge">
<title>Residence&#45;&gt;Area</title>
<path fill="none" stroke="black" d="M102,-101.88C102,-91.55 102,-79.66 102,-68.57"/>
<polygon fill="black" stroke="black" points="105.5,-68.26 102,-58.26 98.5,-68.26 105.5,-68.26"/>
<text text-anchor="middle" x="105" y="-78.4" font-family="Arial" font-size="7.00">in</text>
</g>
<!-- RiskAssessment&#45;&gt;Attribute -->
<g id="edge26" class="edge">
<title>RiskAssessment&#45;&gt;Attribute</title>
<path fill="none" stroke="black" d="M358.46,-616.33C348.75,-603.01 338.04,-585.57 333,-568 313.99,-501.72 324.4,-420.43 333.41,-373.78"/>
<polygon fill="black" stroke="black" points="336.87,-374.31 335.41,-363.81 330.01,-372.93 336.87,-374.31"/>
<text text-anchor="middle" x="330" y="-486.4" font-family="Arial" font-size="7.00">uses</text>
</g>
<!-- RiskAssessment&#45;&gt;LeadOrganisation -->
<g id="edge24" class="edge">
<title>RiskAssessment&#45;&gt;LeadOrganisation</title>
<path fill="none" stroke="black" d="M397.54,-616.33C407.25,-603.01 417.96,-585.57 423,-568 433.3,-532.1 436.03,-518.19 421,-484 418.22,-477.68 414.2,-471.68 409.71,-466.22"/>
<polygon fill="black" stroke="black" points="412.19,-463.74 402.9,-458.65 406.98,-468.42 412.19,-463.74"/>
<text text-anchor="middle" x="435.5" y="-537.4" font-family="Arial" font-size="7.00">by</text>
</g>
<!-- StratificationPolicy -->
<g id="node19" class="node">
<title>StratificationPolicy</title>
<g id="a_node19"><a xlink:href="#StratificationPolicy" xlink:title="Stratification\nPolicy">
<ellipse fill="lightblue" stroke="black" cx="378" cy="-539" rx="36" ry="29"/>
<text text-anchor="middle" x="378" y="-541.4" font-family="Arial" font-size="7.00">Stratification</text>
<text text-anchor="middle" x="378" y="-533.4" font-family="Arial" font-size="7.00">Policy</text>
</a>
</g>
</g>
<!-- RiskAssessment&#45;&gt;StratificationPolicy -->
<g id="edge25" class="edge">
<title>RiskAssessment&#45;&gt;StratificationPolicy</title>
<path fill="none" stroke="black" d="M378,-611.88C378,-601.55 378,-589.66 378,-578.57"/>
<polygon fill="black" stroke="black" points="381.5,-578.26 378,-568.26 374.5,-578.26 381.5,-578.26"/>
<text text-anchor="middle" x="389" y="-588.4" font-family="Arial" font-size="7.00">applies</text>
</g>
<!-- SituationAssessment -->
<g id="node17" class="node">
<title>SituationAssessment</title>
<g id="a_node17"><a xlink:href="#SituationAssessment" xlink:title="Situation\nAssessment">
<ellipse fill="lightblue" stroke="black" cx="237" cy="-845" rx="36" ry="29"/>
<text text-anchor="middle" x="237" y="-847.4" font-family="Arial" font-size="7.00">Situation</text>
<text text-anchor="middle" x="237" y="-839.4" font-family="Arial" font-size="7.00">Assessment</text>
</a>
</g>
</g>
<!-- SituationAssessment&#45;&gt;Case -->
<g id="edge28" class="edge">
<title>SituationAssessment&#45;&gt;Case</title>
<path fill="none" stroke="black" d="M255.68,-820.05C265.93,-806.91 278.77,-790.44 289.89,-776.19"/>
<polygon fill="black" stroke="black" points="292.81,-778.14 296.2,-768.1 287.29,-773.84 292.81,-778.14"/>
<text text-anchor="middle" x="281.5" y="-792.4" font-family="Arial" font-size="7.00">of</text>
</g>
<!-- SituationAssessment&#45;&gt;ResponsibleOrganisation -->
<g id="edge27" class="edge">
<title>SituationAssessment&#45;&gt;ResponsibleOrganisation</title>
<path fill="none" stroke="black" d="M238.81,-815.91C241.08,-780.59 244.99,-719.77 247.54,-680.23"/>
<polygon fill="black" stroke="black" points="251.04,-680.38 248.19,-670.17 244.05,-679.93 251.04,-680.38"/>
<text text-anchor="middle" x="249.5" y="-741.4" font-family="Arial" font-size="7.00">by</text>
</g>
<!-- StratificationPolicy&#45;&gt;LeadOrganisation -->
<g id="edge29" class="edge">
<title>StratificationPolicy&#45;&gt;LeadOrganisation</title>
<path fill="none" stroke="black" d="M378,-509.88C378,-499.55 378,-487.66 378,-476.57"/>
<polygon fill="black" stroke="black" points="381.5,-476.26 378,-466.26 374.5,-476.26 381.5,-476.26"/>
<text text-anchor="middle" x="397.5" y="-486.4" font-family="Arial" font-size="7.00">designed by</text>
</g>
</g>
</svg>
