<?xml version="1.0" encoding="UTF-8" standalone="no"?>
<!DOCTYPE svg PUBLIC "-//W3C//DTD SVG 1.1//EN"
 "http://www.w3.org/Graphics/SVG/1.1/DTD/svg11.dtd">
<!-- Generated by graphviz version 2.44.1 (20200629.0846)
 -->
<!-- Pages: 1 -->
<svg width="605pt" height="984pt"
 viewBox="0.00 0.00 605.00 984.00" xmlns="http://www.w3.org/2000/svg" xmlns:xlink="http://www.w3.org/1999/xlink">
<g id="graph0" class="graph" transform="scale(1 1) rotate(0) translate(4 980)">
<polygon fill="white" stroke="transparent" points="-4,4 -4,-980 601,-980 601,4 -4,4"/>
<!-- Action -->
<g id="node1" class="node">
<title>Action</title>
<g id="a_node1"><a xlink:href="#Action" xlink:title="Action">
<ellipse fill="lightblue" stroke="black" cx="141" cy="-947" rx="36" ry="29"/>
<text text-anchor="middle" x="141" y="-945.4" font-family="Arial" font-size="7.00">Action</text>
</a>
</g>
</g>
<!-- DeliveryOrganisation -->
<g id="node6" class="node">
<title>DeliveryOrganisation</title>
<g id="a_node6"><a xlink:href="#DeliveryOrganisation" xlink:title="Delivery\nOrganisation">
<ellipse fill="lightblue" stroke="black" cx="85" cy="-743" rx="36" ry="29"/>
<text text-anchor="middle" x="85" y="-745.4" font-family="Arial" font-size="7.00">Delivery</text>
<text text-anchor="middle" x="85" y="-737.4" font-family="Arial" font-size="7.00">Organisation</text>
</a>
</g>
</g>
<!-- Action&#45;&gt;DeliveryOrganisation -->
<g id="edge1" class="edge">
<title>Action&#45;&gt;DeliveryOrganisation</title>
<path fill="none" stroke="black" d="M129.47,-919.34C123.96,-905.92 117.59,-889.29 113,-874 103.83,-843.45 96.4,-808.01 91.51,-781.86"/>
<polygon fill="black" stroke="black" points="94.94,-781.17 89.7,-771.97 88.06,-782.43 94.94,-781.17"/>
<text text-anchor="middle" x="117.5" y="-843.4" font-family="Arial" font-size="7.00">by</text>
</g>
<!-- Need -->
<g id="node9" class="node">
<title>Need</title>
<g id="a_node9"><a xlink:href="#Need" xlink:title="Need">
<ellipse fill="lightblue" stroke="black" cx="167" cy="-845" rx="36" ry="29"/>
<text text-anchor="middle" x="167" y="-843.4" font-family="Arial" font-size="7.00">Need</text>
</a>
</g>
</g>
<!-- Action&#45;&gt;Need -->
<g id="edge2" class="edge">
<title>Action&#45;&gt;Need</title>
<path fill="none" stroke="black" d="M148.17,-918.41C150.99,-907.59 154.26,-895 157.28,-883.39"/>
<polygon fill="black" stroke="black" points="160.72,-884.06 159.85,-873.5 153.95,-882.3 160.72,-884.06"/>
<text text-anchor="middle" x="170.5" y="-894.4" font-family="Arial" font-size="7.00">addresses</text>
</g>
<!-- Area -->
<g id="node2" class="node">
<title>Area</title>
<g id="a_node2"><a xlink:href="#Area" xlink:title="Area">
<ellipse fill="lightblue" stroke="black" cx="220" cy="-29" rx="36" ry="29"/>
<text text-anchor="middle" x="220" y="-27.4" font-family="Arial" font-size="7.00">Area</text>
</a>
</g>
</g>
<!-- Attribute -->
<g id="node3" class="node">
<title>Attribute</title>
<g id="a_node3"><a xlink:href="#Attribute" xlink:title="Attribute">
<ellipse fill="lightblue" stroke="black" cx="326" cy="-335" rx="36" ry="29"/>
<text text-anchor="middle" x="326" y="-333.4" font-family="Arial" font-size="7.00">Attribute</text>
</a>
</g>
</g>
<!-- Household -->
<g id="node7" class="node">
<title>Household</title>
<g id="a_node7"><a xlink:href="#Household" xlink:title="Household">
<ellipse fill="lightblue" stroke="black" cx="254" cy="-233" rx="36" ry="29"/>
<text text-anchor="middle" x="254" y="-231.4" font-family="Arial" font-size="7.00">Household</text>
</a>
</g>
</g>
<!-- Attribute&#45;&gt;Household -->
<g id="edge4" class="edge">
<title>Attribute&#45;&gt;Household</title>
<path fill="none" stroke="black" d="M308.39,-309.54C299.15,-296.7 287.7,-280.8 277.69,-266.91"/>
<polygon fill="black" stroke="black" points="280.36,-264.63 271.68,-258.56 274.68,-268.72 280.36,-264.63"/>
<text text-anchor="middle" x="301" y="-282.4" font-family="Arial" font-size="7.00">about</text>
</g>
<!-- Person -->
<g id="node11" class="node">
<title>Person</title>
<g id="a_node11"><a xlink:href="#Person" xlink:title="Person">
<ellipse fill="lightblue" stroke="black" cx="310" cy="-131" rx="36" ry="29"/>
<text text-anchor="middle" x="310" y="-129.4" font-family="Arial" font-size="7.00">Person</text>
</a>
</g>
</g>
<!-- Attribute&#45;&gt;Person -->
<g id="edge3" class="edge">
<title>Attribute&#45;&gt;Person</title>
<path fill="none" stroke="black" d="M323.78,-305.91C320.98,-270.59 316.16,-209.77 313.03,-170.23"/>
<polygon fill="black" stroke="black" points="316.51,-169.87 312.23,-160.17 309.53,-170.42 316.51,-169.87"/>
<text text-anchor="middle" x="329" y="-231.4" font-family="Arial" font-size="7.00">about</text>
</g>
<!-- Provenance -->
<g id="node13" class="node">
<title>Provenance</title>
<g id="a_node13"><a xlink:href="#Provenance" xlink:title="Provenance">
<ellipse fill="lightblue" stroke="black" cx="399" cy="-233" rx="36" ry="29"/>
<text text-anchor="middle" x="399" y="-231.4" font-family="Arial" font-size="7.00">Provenance</text>
</a>
</g>
</g>
<!-- Attribute&#45;&gt;Provenance -->
<g id="edge5" class="edge">
<title>Attribute&#45;&gt;Provenance</title>
<path fill="none" stroke="black" d="M343.86,-309.54C353.23,-296.7 364.83,-280.8 374.98,-266.91"/>
<polygon fill="black" stroke="black" points="378,-268.7 381.07,-258.56 372.35,-264.57 378,-268.7"/>
<text text-anchor="middle" x="370" y="-282.4" font-family="Arial" font-size="7.00">has</text>
</g>
<!-- Case -->
<g id="node4" class="node">
<title>Case</title>
<g id="a_node4"><a xlink:href="#Case" xlink:title="Case">
<ellipse fill="lightblue" stroke="black" cx="388" cy="-743" rx="36" ry="29"/>
<text text-anchor="middle" x="388" y="-741.4" font-family="Arial" font-size="7.00">Case</text>
</a>
</g>
</g>
<!-- Case&#45;&gt;Household -->
<g id="edge7" class="edge">
<title>Case&#45;&gt;Household</title>
<path fill="none" stroke="black" d="M358.61,-725.94C338.8,-713.44 314,-694.17 301,-670 229.99,-537.97 240.41,-351.1 249.01,-271.86"/>
<polygon fill="black" stroke="black" points="252.49,-272.19 250.15,-261.86 245.54,-271.4 252.49,-272.19"/>
<text text-anchor="middle" x="258" y="-486.4" font-family="Arial" font-size="7.00">about</text>
</g>
<!-- Case&#45;&gt;Person -->
<g id="edge6" class="edge">
<title>Case&#45;&gt;Person</title>
<path fill="none" stroke="black" d="M402.28,-716.3C425.78,-671.56 470,-575.81 470,-489 470,-489 470,-489 470,-232 470,-204.76 462.82,-194.32 441,-178 409.73,-154.61 391.24,-174.54 355,-160 351.93,-158.77 348.83,-157.33 345.77,-155.76"/>
<polygon fill="black" stroke="black" points="347.24,-152.57 336.79,-150.78 343.84,-158.69 347.24,-152.57"/>
<text text-anchor="middle" x="479" y="-435.4" font-family="Arial" font-size="7.00">about</text>
</g>
<!-- ResponsibleOrganisation -->
<g id="node15" class="node">
<title>ResponsibleOrganisation</title>
<g id="a_node15"><a xlink:href="#ResponsibleOrganisation" xlink:title="Responsible\nOrganisation">
<ellipse fill="lightblue" stroke="black" cx="503" cy="-641" rx="36" ry="29"/>
<text text-anchor="middle" x="503" y="-643.4" font-family="Arial" font-size="7.00">Responsible</text>
<text text-anchor="middle" x="503" y="-635.4" font-family="Arial" font-size="7.00">Organisation</text>
</a>
</g>
</g>
<!-- Case&#45;&gt;ResponsibleOrganisation -->
<g id="edge9" class="edge">
<title>Case&#45;&gt;ResponsibleOrganisation</title>
<path fill="none" stroke="black" d="M412.11,-721.04C429.28,-706.1 452.54,-685.88 471.23,-669.63"/>
<polygon fill="black" stroke="black" points="473.67,-672.14 478.92,-662.94 469.08,-666.86 473.67,-672.14"/>
<text text-anchor="middle" x="466.5" y="-690.4" font-family="Arial" font-size="7.00">assigned to</text>
</g>
<!-- RiskAssessment -->
<g id="node16" class="node">
<title>RiskAssessment</title>
<g id="a_node16"><a xlink:href="#RiskAssessment" xlink:title="Risk\nAssessment">
<ellipse fill="lightblue" stroke="black" cx="346" cy="-641" rx="36" ry="29"/>
<text text-anchor="middle" x="346" y="-643.4" font-family="Arial" font-size="7.00">Risk</text>
<text text-anchor="middle" x="346" y="-635.4" font-family="Arial" font-size="7.00">Assessment</text>
</a>
</g>
</g>
<!-- Case&#45;&gt;RiskAssessment -->
<g id="edge8" class="edge">
<title>Case&#45;&gt;RiskAssessment</title>
<path fill="none" stroke="black" d="M376.74,-715.2C371.99,-703.88 366.38,-690.52 361.26,-678.33"/>
<polygon fill="black" stroke="black" points="364.39,-676.74 357.29,-668.87 357.93,-679.45 364.39,-676.74"/>
<text text-anchor="middle" x="374" y="-690.4" font-family="Arial" font-size="7.00">risk</text>
</g>
<!-- ContactEvent -->
<g id="node5" class="node">
<title>ContactEvent</title>
<g id="a_node5"><a xlink:href="#ContactEvent" xlink:title="Contact\nEvent">
<ellipse fill="lightblue" stroke="black" cx="561" cy="-845" rx="36" ry="29"/>
<text text-anchor="middle" x="561" y="-847.4" font-family="Arial" font-size="7.00">Contact</text>
<text text-anchor="middle" x="561" y="-839.4" font-family="Arial" font-size="7.00">Event</text>
</a>
</g>
</g>
<!-- ContactEvent&#45;&gt;Case -->
<g id="edge10" class="edge">
<title>ContactEvent&#45;&gt;Case</title>
<path fill="none" stroke="black" d="M532.04,-827.26C502.89,-810.41 457.78,-784.33 425.82,-765.86"/>
<polygon fill="black" stroke="black" points="427.17,-762.6 416.76,-760.63 423.67,-768.66 427.17,-762.6"/>
<text text-anchor="middle" x="488" y="-792.4" font-family="Arial" font-size="7.00">about</text>
</g>
<!-- ContactEvent&#45;&gt;ResponsibleOrganisation -->
<g id="edge11" class="edge">
<title>ContactEvent&#45;&gt;ResponsibleOrganisation</title>
<path fill="none" stroke="black" d="M553.46,-816.62C544.83,-785.43 530.18,-732.96 517,-688 516.14,-685.05 515.23,-682 514.31,-678.93"/>
<polygon fill="black" stroke="black" points="517.62,-677.78 511.38,-669.22 510.92,-679.8 517.62,-677.78"/>
<text text-anchor="middle" x="563" y="-741.4" font-family="Arial" font-size="7.00">passes info to</text>
</g>
<!-- Household&#45;&gt;Person -->
<g id="edge13" class="edge">
<title>Household&#45;&gt;Person</title>
<path fill="none" stroke="black" d="M268.42,-206.25C275.21,-194.12 283.42,-179.47 290.73,-166.41"/>
<polygon fill="black" stroke="black" points="293.8,-168.1 295.63,-157.67 287.69,-164.68 293.8,-168.1"/>
<text text-anchor="middle" x="296.5" y="-180.4" font-family="Arial" font-size="7.00">contains</text>
</g>
<!-- Residence -->
<g id="node14" class="node">
<title>Residence</title>
<g id="a_node14"><a xlink:href="#Residence" xlink:title="Residence">
<ellipse fill="lightblue" stroke="black" cx="220" cy="-131" rx="36" ry="29"/>
<text text-anchor="middle" x="220" y="-129.4" font-family="Arial" font-size="7.00">Residence</text>
</a>
</g>
</g>
<!-- Household&#45;&gt;Residence -->
<g id="edge12" class="edge">
<title>Household&#45;&gt;Residence</title>
<path fill="none" stroke="black" d="M235.77,-207.78C231.55,-201.04 227.55,-193.51 225,-186 223.32,-181.06 222.13,-175.72 221.31,-170.39"/>
<polygon fill="black" stroke="black" points="224.76,-169.8 220.12,-160.27 217.81,-170.61 224.76,-169.8"/>
<text text-anchor="middle" x="240.5" y="-180.4" font-family="Arial" font-size="7.00">resides at</text>
</g>
<!-- LeadOrganisation -->
<g id="node8" class="node">
<title>LeadOrganisation</title>
<g id="a_node8"><a xlink:href="#LeadOrganisation" xlink:title="Lead\nOrganisation">
<ellipse fill="lightblue" stroke="black" cx="361" cy="-437" rx="36" ry="29"/>
<text text-anchor="middle" x="361" y="-439.4" font-family="Arial" font-size="7.00">Lead</text>
<text text-anchor="middle" x="361" y="-431.4" font-family="Arial" font-size="7.00">Organisation</text>
</a>
</g>
</g>
<!-- LeadOrganisation&#45;&gt;Attribute -->
<g id="edge14" class="edge">
<title>LeadOrganisation&#45;&gt;Attribute</title>
<path fill="none" stroke="black" d="M351.53,-408.94C347.64,-397.82 343.07,-384.77 338.88,-372.81"/>
<polygon fill="black" stroke="black" points="342.09,-371.37 335.48,-363.08 335.48,-373.68 342.09,-371.37"/>
<text text-anchor="middle" x="358" y="-384.4" font-family="Arial" font-size="7.00">receives</text>
</g>
<!-- Need&#45;&gt;Case -->
<g id="edge17" class="edge">
<title>Need&#45;&gt;Case</title>
<path fill="none" stroke="black" d="M198.2,-829.88C237.35,-812.17 304.59,-781.74 347.64,-762.26"/>
<polygon fill="black" stroke="black" points="349.3,-765.35 356.96,-758.04 346.41,-758.98 349.3,-765.35"/>
<text text-anchor="middle" x="292" y="-792.4" font-family="Arial" font-size="7.00">case</text>
</g>
<!-- Need&#45;&gt;DeliveryOrganisation -->
<g id="edge18" class="edge">
<title>Need&#45;&gt;DeliveryOrganisation</title>
<path fill="none" stroke="black" d="M142.89,-823.08C134.86,-815.56 126.15,-806.76 119,-798 113.98,-791.84 109.1,-784.9 104.68,-778.09"/>
<polygon fill="black" stroke="black" points="107.64,-776.21 99.35,-769.61 101.71,-779.94 107.64,-776.21"/>
<text text-anchor="middle" x="136" y="-792.4" font-family="Arial" font-size="7.00">referred to</text>
</g>
<!-- Need&#45;&gt;Household -->
<g id="edge16" class="edge">
<title>Need&#45;&gt;Household</title>
<path fill="none" stroke="black" d="M185.18,-819.93C198.04,-800.5 213,-771.9 213,-744 213,-744 213,-744 213,-334 213,-310.89 222.49,-286.86 232.34,-268.15"/>
<polygon fill="black" stroke="black" points="235.54,-269.6 237.32,-259.16 229.42,-266.21 235.54,-269.6"/>
<text text-anchor="middle" x="222" y="-537.4" font-family="Arial" font-size="7.00">about</text>
</g>
<!-- Need&#45;&gt;Person -->
<g id="edge15" class="edge">
<title>Need&#45;&gt;Person</title>
<path fill="none" stroke="black" d="M167,-815.98C167,-795.93 167,-768.31 167,-744 167,-744 167,-744 167,-232 167,-177.95 216.6,-184.05 265,-160 267.88,-158.57 270.82,-157 273.74,-155.37"/>
<polygon fill="black" stroke="black" points="275.51,-158.39 282.39,-150.33 271.99,-152.34 275.51,-158.39"/>
<text text-anchor="middle" x="176" y="-486.4" font-family="Arial" font-size="7.00">about</text>
</g>
<!-- Outcome -->
<g id="node10" class="node">
<title>Outcome</title>
<g id="a_node10"><a xlink:href="#Outcome" xlink:title="Outcome">
<ellipse fill="lightblue" stroke="black" cx="312" cy="-947" rx="36" ry="29"/>
<text text-anchor="middle" x="312" y="-945.4" font-family="Arial" font-size="7.00">Outcome</text>
</a>
</g>
</g>
<!-- Outcome&#45;&gt;Case -->
<g id="edge19" class="edge">
<title>Outcome&#45;&gt;Case</title>
<path fill="none" stroke="black" d="M322.25,-918.76C335.66,-883.12 359.2,-820.53 374.18,-780.73"/>
<polygon fill="black" stroke="black" points="377.55,-781.72 377.79,-771.13 370.99,-779.26 377.55,-781.72"/>
<text text-anchor="middle" x="363.5" y="-843.4" font-family="Arial" font-size="7.00">of</text>
</g>
<!-- Outcome&#45;&gt;Need -->
<g id="edge20" class="edge">
<title>Outcome&#45;&gt;Need</title>
<path fill="none" stroke="black" d="M285.07,-927.43C261.67,-911.29 227.62,-887.81 202.09,-870.2"/>
<polygon fill="black" stroke="black" points="204.01,-867.27 193.79,-864.48 200.03,-873.03 204.01,-867.27"/>
<text text-anchor="middle" x="246.5" y="-894.4" font-family="Arial" font-size="7.00">of</text>
</g>
<!-- Plan -->
<g id="node12" class="node">
<title>Plan</title>
<g id="a_node12"><a xlink:href="#Plan" xlink:title="Plan">
<ellipse fill="lightblue" stroke="black" cx="36" cy="-947" rx="36" ry="29"/>
<text text-anchor="middle" x="36" y="-945.4" font-family="Arial" font-size="7.00">Plan</text>
</a>
</g>
</g>
<!-- Plan&#45;&gt;DeliveryOrganisation -->
<g id="edge22" class="edge">
<title>Plan&#45;&gt;DeliveryOrganisation</title>
<path fill="none" stroke="black" d="M38.43,-917.97C41.18,-891.37 46.54,-850.46 56,-816 59.28,-804.04 63.95,-791.37 68.59,-780.05"/>
<polygon fill="black" stroke="black" points="71.95,-781.08 72.62,-770.5 65.51,-778.36 71.95,-781.08"/>
<text text-anchor="middle" x="59.5" y="-843.4" font-family="Arial" font-size="7.00">of</text>
</g>
<!-- Plan&#45;&gt;Need -->
<g id="edge21" class="edge">
<title>Plan&#45;&gt;Need</title>
<path fill="none" stroke="black" d="M61.57,-926.48C82.04,-910.86 110.92,-888.81 133.28,-871.74"/>
<polygon fill="black" stroke="black" points="135.67,-874.32 141.5,-865.47 131.42,-868.75 135.67,-874.32"/>
<text text-anchor="middle" x="114" y="-894.4" font-family="Arial" font-size="7.00">about</text>
</g>
<!-- SourceOrganisation -->
<g id="node18" class="node">
<title>SourceOrganisation</title>
<g id="a_node18"><a xlink:href="#SourceOrganisation" xlink:title="Source\nOrganisation">
<ellipse fill="lightblue" stroke="black" cx="400" cy="-131" rx="36" ry="29"/>
<text text-anchor="middle" x="400" y="-133.4" font-family="Arial" font-size="7.00">Source</text>
<text text-anchor="middle" x="400" y="-125.4" font-family="Arial" font-size="7.00">Organisation</text>
</a>
</g>
</g>
<!-- Provenance&#45;&gt;SourceOrganisation -->
<g id="edge23" class="edge">
<title>Provenance&#45;&gt;SourceOrganisation</title>
<path fill="none" stroke="black" d="M399.28,-203.88C399.38,-193.55 399.5,-181.66 399.61,-170.57"/>
<polygon fill="black" stroke="black" points="403.12,-170.29 399.72,-160.26 396.12,-170.22 403.12,-170.29"/>
<text text-anchor="middle" x="418" y="-180.4" font-family="Arial" font-size="7.00">asserted by</text>
</g>
<!-- Residence&#45;&gt;Area -->
<g id="edge24" class="edge">
<title>Residence&#45;&gt;Area</title>
<path fill="none" stroke="black" d="M220,-101.88C220,-91.55 220,-79.66 220,-68.57"/>
<polygon fill="black" stroke="black" points="223.5,-68.26 220,-58.26 216.5,-68.26 223.5,-68.26"/>
<text text-anchor="middle" x="223" y="-78.4" font-family="Arial" font-size="7.00">in</text>
</g>
<!-- RiskAssessment&#45;&gt;Attribute -->
<g id="edge27" class="edge">
<title>RiskAssessment&#45;&gt;Attribute</title>
<path fill="none" stroke="black" d="M338.82,-612.25C328.41,-568.84 310.88,-482.15 316,-408 316.76,-396.93 318.18,-384.98 319.72,-374.05"/>
<polygon fill="black" stroke="black" points="323.21,-374.35 321.2,-363.94 316.28,-373.33 323.21,-374.35"/>
<text text-anchor="middle" x="326" y="-486.4" font-family="Arial" font-size="7.00">uses</text>
</g>
<!-- RiskAssessment&#45;&gt;LeadOrganisation -->
<g id="edge25" class="edge">
<title>RiskAssessment&#45;&gt;LeadOrganisation</title>
<path fill="none" stroke="black" d="M346.67,-611.81C347.44,-585.45 349.01,-545.01 352,-510 352.94,-498.97 354.3,-487.02 355.67,-476.09"/>
<polygon fill="black" stroke="black" points="359.17,-476.35 356.99,-465.98 352.23,-475.45 359.17,-476.35"/>
<text text-anchor="middle" x="356.5" y="-537.4" font-family="Arial" font-size="7.00">by</text>
</g>
<!-- StratificationPolicy -->
<g id="node19" class="node">
<title>StratificationPolicy</title>
<g id="a_node19"><a xlink:href="#StratificationPolicy" xlink:title="Stratification\nPolicy">
<ellipse fill="lightblue" stroke="black" cx="406" cy="-539" rx="36" ry="29"/>
<text text-anchor="middle" x="406" y="-541.4" font-family="Arial" font-size="7.00">Stratification</text>
<text text-anchor="middle" x="406" y="-533.4" font-family="Arial" font-size="7.00">Policy</text>
</a>
</g>
</g>
<!-- RiskAssessment&#45;&gt;StratificationPolicy -->
<g id="edge26" class="edge">
<title>RiskAssessment&#45;&gt;StratificationPolicy</title>
<path fill="none" stroke="black" d="M361.3,-614.51C368.63,-602.28 377.52,-587.46 385.44,-574.27"/>
<polygon fill="black" stroke="black" points="388.59,-575.82 390.73,-565.45 382.59,-572.22 388.59,-575.82"/>
<text text-anchor="middle" x="388" y="-588.4" font-family="Arial" font-size="7.00">applies</text>
</g>
<!-- SituationAssessment -->
<g id="node17" class="node">
<title>SituationAssessment</title>
<g id="a_node17"><a xlink:href="#SituationAssessment" xlink:title="Situation\nAssessment">
<ellipse fill="lightblue" stroke="black" cx="430" cy="-845" rx="36" ry="29"/>
<text text-anchor="middle" x="430" y="-847.4" font-family="Arial" font-size="7.00">Situation</text>
<text text-anchor="middle" x="430" y="-839.4" font-family="Arial" font-size="7.00">Assessment</text>
</a>
</g>
</g>
<!-- SituationAssessment&#45;&gt;Case -->
<g id="edge29" class="edge">
<title>SituationAssessment&#45;&gt;Case</title>
<path fill="none" stroke="black" d="M418.74,-817.2C413.99,-805.88 408.38,-792.52 403.26,-780.33"/>
<polygon fill="black" stroke="black" points="406.39,-778.74 399.29,-770.87 399.93,-781.45 406.39,-778.74"/>
<text text-anchor="middle" x="413.5" y="-792.4" font-family="Arial" font-size="7.00">of</text>
</g>
<!-- SituationAssessment&#45;&gt;ResponsibleOrganisation -->
<g id="edge28" class="edge">
<title>SituationAssessment&#45;&gt;ResponsibleOrganisation</title>
<path fill="none" stroke="black" d="M441.8,-817.37C454.51,-788.02 474.84,-739.24 489,-696 490.73,-690.71 492.39,-685.07 493.93,-679.51"/>
<polygon fill="black" stroke="black" points="497.36,-680.23 496.54,-669.67 490.59,-678.43 497.36,-680.23"/>
<text text-anchor="middle" x="486.5" y="-741.4" font-family="Arial" font-size="7.00">by</text>
</g>
<!-- StratificationPolicy&#45;&gt;LeadOrganisation -->
<g id="edge30" class="edge">
<title>StratificationPolicy&#45;&gt;LeadOrganisation</title>
<path fill="none" stroke="black" d="M394.06,-511.46C388.87,-499.94 382.72,-486.26 377.13,-473.85"/>
<polygon fill="black" stroke="black" points="380.29,-472.34 373,-464.66 373.91,-475.22 380.29,-472.34"/>
<text text-anchor="middle" x="403.5" y="-486.4" font-family="Arial" font-size="7.00">designed by</text>
</g>
</g>
</svg>
